<svg xmlns="http://www.w3.org/2000/svg" width="83" height="80" viewBox="0 0 83 80">
  <g id="Group_14267" data-name="Group 14267" transform="translate(6543 -3067)">
    <g id="Rectangle_85513" data-name="Rectangle 85513" transform="translate(-6543 3067)" fill="#73c923" stroke="#73c923" stroke-width="1">
      <rect width="83" height="80" rx="4" stroke="none"/>
      <rect x="0.5" y="0.5" width="82" height="79" rx="3.5" fill="none"/>
    </g>
    <path id="Path_16538" data-name="Path 16538" d="M31.532,36.231h-1.5V24.269a1.99,1.99,0,0,0-1.99-1.99H22.23a1.99,1.99,0,1,0,0,3.981h3.822v9.972H22.23a1.99,1.99,0,1,0,0,3.981h9.3a1.99,1.99,0,1,0,0-3.981ZM26.88,17.949a2.986,2.986,0,1,0-2.986-2.986A2.986,2.986,0,0,0,26.88,17.949ZM26.88,2A24.88,24.88,0,1,0,51.76,26.88,24.908,24.908,0,0,0,26.88,2ZM41.47,41.82a20.881,20.881,0,1,1,6.31-14.94,20.881,20.881,0,0,1-6.31,14.94Z" transform="translate(-6528.843 3080.316)" fill="#fff"/>
  </g>
</svg>
