<svg xmlns="http://www.w3.org/2000/svg" width="78.717" height="78.717" viewBox="0 0 78.717 78.717">
  <g id="Group_14475" data-name="Group 14475" transform="translate(-30 -284)">
    <g id="Group_7341" data-name="Group 7341" transform="translate(2.372 143.906)">
      <rect id="Material_-_Vibrant_Primary_Text_-_Dark" data-name="Material - Vibrant Primary Text - Dark" width="78.717" height="78.717" rx="5" transform="translate(27.628 140.094)" fill="rgba(255,255,255,0.96)"/>
    </g>
    <g id="Group_14378" data-name="Group 14378" transform="translate(-213 20.848)">
      <ellipse id="Ellipse_615" data-name="Ellipse 615" cx="6.742" cy="7.035" rx="6.742" ry="7.035" transform="translate(275.258 298.013)" fill="#3fd68e"/>
      <path id="Path_16839" data-name="Path 16839" d="M38.8,9.8H33.554a1.6,1.6,0,0,1-1.519-1.095L31.53,7.187A3.2,3.2,0,0,0,28.493,5H15.506A3.2,3.2,0,0,0,12.47,7.189l-.506,1.517A1.6,1.6,0,0,1,10.446,9.8H5.2A3.2,3.2,0,0,0,2,13V32.2a3.2,3.2,0,0,0,3.2,3.2H38.8A3.2,3.2,0,0,0,42,32.2V13A3.2,3.2,0,0,0,38.8,9.8ZM22,32.2a8.8,8.8,0,1,1,8.8-8.8A8.811,8.811,0,0,1,22,32.2Zm9.6-16a1.6,1.6,0,1,1,1.6-1.6A1.6,1.6,0,0,1,31.6,16.2Z" transform="translate(260 282.152)" fill="#5b629f"/>
      <path id="Path_16840" data-name="Path 16840" d="M7.983,7.993H4A1,1,0,1,1,4,6H7.983a1,1,0,1,1,0,1.993Z" transform="translate(260.993 283.146)" fill="#3fd68e"/>
    </g>
  </g>
</svg>
