<svg xmlns="http://www.w3.org/2000/svg" width="78.717" height="78.717" viewBox="0 0 78.717 78.717">
  <g id="Group_14492" data-name="Group 14492" transform="translate(-30 -420)">
    <rect id="Material_-_Vibrant_Primary_Text_-_Dark" data-name="Material - Vibrant Primary Text - Dark" width="78.717" height="78.717" rx="5" transform="translate(30 420)" fill="rgba(255,255,255,0.96)"/>
    <g id="Group_2157" data-name="Group 2157" transform="translate(-813.555 78.803)">
      <path id="Path_2579" data-name="Path 2579" d="M882.544,441.145c1.7,1.629,5.84,4.886,9.391,2.061,0,0,2.02.906,6.374-1.881s14.385-7.6,14.385-7.6,6.579-3.549,6.514-3.758-13.341-7.349-16.615-7.071-21.156,8.36-21.156,8.36l.28,8.026A2.7,2.7,0,0,0,882.544,441.145Z" transform="translate(-17.778 -47.156)" fill="#12292d" opacity="0.28"/>
      <path id="Path_2580" data-name="Path 2580" d="M906.46,372.914c-.23,1.466-.62,2.96-.948,4.411a8.68,8.68,0,0,1-1.555,3.61c-1.543,1.9-4.185,2.71-6.292,3.811-2.767,1.447-5.614,2.759-8.416,4.138-5.172,2.545-10.673,5.156-16.416,4.67a2.448,2.448,0,0,1-2.347,1.8,6.341,6.341,0,0,1-3.048-.846,22.081,22.081,0,0,1-5.332-3.5,11.834,11.834,0,0,1-3.477-5.413c-.291-1.163.306-2.714,1.5-2.744a35.886,35.886,0,0,1-.248-7.916,3.231,3.231,0,0,1,.506-1.755,3.382,3.382,0,0,1,1.645-.959l26.009-9.082a15.222,15.222,0,0,1,3.447-.908,11.691,11.691,0,0,1,4.042.429c3.869.987,7.614,3.022,9.873,6.313a5.79,5.79,0,0,1,1.113,2.7A5.067,5.067,0,0,1,906.46,372.914Z" transform="translate(0 0)" fill="#5b629f"/>
      <path id="Path_2581" data-name="Path 2581" d="M865.626,454.814s2.264,5.914,12.7,10.7" transform="translate(-5.493 -71.957)" fill="none" stroke="#2a2e57" stroke-linecap="round" stroke-miterlimit="10" stroke-width="1"/>
      <path id="Path_2582" data-name="Path 2582" d="M865.1,455.387s2.264,5.914,12.7,10.7" transform="translate(-5.083 -72.402)" fill="none" stroke="#41477c" stroke-linecap="round" stroke-miterlimit="10" stroke-width="1"/>
      <path id="Path_2583" data-name="Path 2583" d="M910.61,400.674l-.034-.083a.806.806,0,0,0-.335-.431.9.9,0,0,0-.744.089l-17.152,7.428-5.832,2.526c-1.873.811-3.8,1.549-5.6,2.507a4.192,4.192,0,0,1-1.541.584,3.812,3.812,0,0,1-1.744-.388,34.716,34.716,0,0,1-7.455-4.076,14.5,14.5,0,0,1-2.717-2.454,8.067,8.067,0,0,1-1.031-1.578,16.081,16.081,0,0,0-.745-1.775c-.487-.757-1.007-.328-1.265.383a3.109,3.109,0,0,0-.161.854c-.023.274-.069.652-.109.923-.035.244-.019.575-.031.8s0,.306,0,.526a1.107,1.107,0,0,0,.145.554,6.166,6.166,0,0,0,1.172,1.508,34.612,34.612,0,0,0,6.238,5c2.085,1.329,4.506,3.043,7.077,2.965,2.783-.085,5.258-1.619,7.785-2.614,5.578-2.2,11.35-3.811,16.854-6.213q.662-.289,1.319-.588,2.042-.93,4.026-1.98a3.484,3.484,0,0,0,1.922-1.809A3.813,3.813,0,0,0,910.61,400.674Z" transform="translate(-4.313 -29.455)" fill="#3fd68e"/>
      <path id="Path_2584" data-name="Path 2584" d="M911.1,399.47q-.017-.041-.034-.081a.79.79,0,0,0-.334-.421.916.916,0,0,0-.742.087l-17.1,7.265-5.814,2.47c-1.867.793-3.788,1.515-5.586,2.452a4.231,4.231,0,0,1-1.536.571,3.859,3.859,0,0,1-1.738-.38,34.806,34.806,0,0,1-7.433-3.987,14.366,14.366,0,0,1-2.709-2.4,7.889,7.889,0,0,1-1.028-1.543,15.5,15.5,0,0,0-.742-1.736c-.486-.74-1-.321-1.262.374a2.988,2.988,0,0,0-.16.835c-.023.268-.069.638-.108.9-.035.238-.019.562-.031.779s0,.3,0,.514a1.066,1.066,0,0,0,.145.542,6.049,6.049,0,0,0,1.169,1.475,34.412,34.412,0,0,0,6.219,4.886c2.079,1.3,4.492,2.976,7.055,2.9,2.775-.083,5.242-1.584,7.762-2.557,5.561-2.148,11.316-3.727,16.8-6.076q.66-.283,1.315-.575,2.036-.909,4.014-1.937a3.447,3.447,0,0,0,1.916-1.769A3.663,3.663,0,0,0,911.1,399.47Z" transform="translate(-4.8 -28.529)" fill="#5b629f"/>
      <path id="Path_2585" data-name="Path 2585" d="M868.546,444.395V447.5s3.138,3.7,4.986,4.106l.352-3.4A16.218,16.218,0,0,1,868.546,444.395Z" transform="translate(-7.762 -63.862)" fill="#363c77"/>
      <path id="Path_2586" data-name="Path 2586" d="M869.429,446.112s2.626,3.163,4.944,3.669l-.261,2.779s-4.529-3.071-4.529-3.839S869.429,446.112,869.429,446.112Z" transform="translate(-8.448 -65.196)" fill="#404784"/>
      <path id="Path_2587" data-name="Path 2587" d="M871.681,456.81s2.282,1.833,3.4,2.594" transform="translate(-10.198 -73.508)" fill="none" stroke="#4d5388" stroke-miterlimit="10" stroke-width="1" opacity="0.38"/>
    </g>
  </g>
</svg>
