<svg xmlns="http://www.w3.org/2000/svg" width="78.717" height="78.717" viewBox="0 0 78.717 78.717">
  <g id="Group_14480" data-name="Group 14480" transform="translate(-28 -140)">
    <rect id="Material_-_Vibrant_Primary_Text_-_Dark" data-name="Material - Vibrant Primary Text - Dark" width="78.717" height="78.717" rx="5" transform="translate(28 140)" fill="rgba(255,255,255,0.96)"/>
    <g id="Group_617" data-name="Group 617" transform="translate(47 159)">
      <path id="Path_1129" data-name="Path 1129" d="M216.673,116.338a9.516,9.516,0,1,0,9.515,9.516A9.526,9.526,0,0,0,216.673,116.338Zm0,13.327a3.812,3.812,0,1,1,3.811-3.811A3.816,3.816,0,0,1,216.673,129.665Z" transform="translate(-196.673 -105.854)" fill="#5b629f"/>
      <path id="Path_1130" data-name="Path 1130" d="M235.1,115.719a3.924,3.924,0,0,1-.052-1.606c.082-.685-1.2-2.593-1.725-3.117l-1.064-1.064a9.973,9.973,0,0,0-2-1.5,20.555,20.555,0,0,0-2.523-.417l-.2-.119a20.215,20.215,0,0,0-4.279-1.883l-.473-.145c-.534-.13-1.025.066-1.091.436s-.227,1.272-.358,2l-.511,2.865c-.129.728-.309,1.731-.4,2.228a1.226,1.226,0,0,0,.938,1.241l.522.226a11.489,11.489,0,0,1,5.958,6.023l.257.606a1.4,1.4,0,0,0,1.342,1.142c.541-.078,1.586-.226,2.319-.333l2.476-.355c.733-.106,1.7-.245,2.138-.308s.683-.674.536-1.358l-.176-.6A20.056,20.056,0,0,0,235.2,115.9Z" transform="translate(-197.537 -105.125)" fill="#30d68e"/>
      <path id="Path_1131" data-name="Path 1131" d="M235.816,123.182l-8.631,1.239c.012.22.021.442.021.667a11.3,11.3,0,1,1-11.3-11.3c.354,0,.706.018,1.052.052l1.531-8.583a20,20,0,1,0,17.417,19.829C235.907,124.445,235.874,123.809,235.816,123.182Zm-22.268-16.406a1.387,1.387,0,1,1-.856,1.766A1.39,1.39,0,0,1,213.548,106.777Zm-2.708,3.713a1.388,1.388,0,1,1-.855,1.766A1.389,1.389,0,0,1,210.84,110.49Zm-5.029-.86a1.388,1.388,0,1,1,0,1.962A1.388,1.388,0,0,1,205.81,109.63Zm-.82,4.524a1.387,1.387,0,1,1,0,1.961A1.383,1.383,0,0,1,204.99,114.154Zm-1.035,6.7a1.387,1.387,0,1,1-.844-1.77A1.384,1.384,0,0,1,203.955,120.859Zm-3.825-5.36a1.387,1.387,0,1,1,.845,1.771A1.389,1.389,0,0,1,200.13,115.5Zm-2.587,7.69a1.387,1.387,0,1,1,1.522,1.239A1.385,1.385,0,0,1,197.543,123.188Zm2.868,8.533a1.386,1.386,0,1,1,.465-1.907A1.386,1.386,0,0,1,200.411,131.721Zm.126-5.045a1.387,1.387,0,1,1,1.523,1.239A1.387,1.387,0,0,1,200.537,126.675Zm3.8,11.5a1.389,1.389,0,1,1,.463-1.908A1.388,1.388,0,0,1,204.339,138.174Zm.275-4.59a1.388,1.388,0,1,1,.465-1.906A1.387,1.387,0,0,1,204.614,133.584Zm2.9,4.476a1.388,1.388,0,1,1,1.918-.412A1.391,1.391,0,0,1,207.509,138.06Zm3.664,3.84a1.387,1.387,0,1,1-.411-1.916A1.388,1.388,0,0,1,211.174,141.9Zm4.506-2.681a1.388,1.388,0,1,1-1.221-1.536A1.386,1.386,0,0,1,215.68,139.219Zm2.587,4.183a1.388,1.388,0,1,1,.855-1.769A1.391,1.391,0,0,1,218.267,143.4Zm2.708-3.716a1.387,1.387,0,1,1,.855-1.766A1.388,1.388,0,0,1,220.975,139.686Zm5.029.86a1.388,1.388,0,1,1,0-1.962A1.388,1.388,0,0,1,226,140.546Zm.82-4.521a1.388,1.388,0,1,1,0-1.962A1.388,1.388,0,0,1,226.825,136.025Zm1.035-6.707a1.386,1.386,0,1,1,.845,1.77A1.387,1.387,0,0,1,227.86,129.318Zm3.826,5.359a1.387,1.387,0,1,1-.845-1.771A1.389,1.389,0,0,1,231.686,134.678Zm1.349-6.169a1.387,1.387,0,1,1,1.237-1.521A1.386,1.386,0,0,1,233.035,128.509Z" transform="translate(-195.907 -105.088)" fill="#5b629f"/>
    </g>
  </g>
</svg>
