<svg xmlns="http://www.w3.org/2000/svg" width="78.717" height="78.717" viewBox="0 0 78.717 78.717">
  <g id="Group_14418" data-name="Group 14418" transform="translate(-27.345 -140.094)">
    <rect id="Material_-_Vibrant_Primary_Text_-_Dark" data-name="Material - Vibrant Primary Text - Dark" width="78.717" height="78.717" rx="5" transform="translate(27.345 140.094)" fill="rgba(255,255,255,0.96)"/>
    <g id="Group_14272" data-name="Group 14272" transform="translate(7276.418 -6072.24)">
      <g id="Group_2157" data-name="Group 2157" transform="translate(-7238.073 6242.605)">
        <path id="Path_2579" data-name="Path 2579" d="M882.027,432.605c.905.868,3.109,2.6,5,1.1,0,0,1.075.482,3.394-1s7.656-4.046,7.656-4.046,3.5-1.89,3.468-2-7.1-3.913-8.846-3.765-11.26,4.452-11.26,4.452l.149,4.277a1.439,1.439,0,0,0,.44.985Z" transform="translate(-878.721 -415.686)" fill="#12292d" opacity="0.28"/>
        <path id="Path_2580" data-name="Path 2580" d="M884.063,367.9c-.122.78-.33,1.576-.5,2.349a4.625,4.625,0,0,1-.828,1.92c-.821,1.014-2.228,1.443-3.35,2.03-1.473.771-2.99,1.469-4.481,2.2-2.754,1.355-5.682,2.745-8.74,2.486a1.3,1.3,0,0,1-1.249.96,3.374,3.374,0,0,1-1.622-.451,11.752,11.752,0,0,1-2.839-1.863,6.3,6.3,0,0,1-1.851-2.88c-.155-.619.164-1.444.8-1.461a19.111,19.111,0,0,1-.132-4.215,1.72,1.72,0,0,1,.269-.934,1.8,1.8,0,0,1,.873-.511l13.848-4.835a8.1,8.1,0,0,1,1.834-.484,6.224,6.224,0,0,1,2.152.229,8.959,8.959,0,0,1,5.256,3.361,3.08,3.08,0,0,1,.593,1.436,2.7,2.7,0,0,1-.027.659Z" transform="translate(-858.558 -362.202)" fill="#5b629f"/>
        <path id="Path_2581" data-name="Path 2581" d="M865.626,454.814s1.2,3.147,6.76,5.7" transform="translate(-864.787 -443.82)" fill="none" stroke="#2a2e57" stroke-linecap="round" stroke-miterlimit="10" stroke-width="1"/>
        <path id="Path_2582" data-name="Path 2582" d="M865.1,455.387s1.2,3.147,6.762,5.7" transform="translate(-864.322 -444.325)" fill="none" stroke="#41477c" stroke-linecap="round" stroke-miterlimit="10" stroke-width="1"/>
        <path id="Path_2583" data-name="Path 2583" d="M888.863,400.411l-.018-.045a.428.428,0,0,0-.175-.23.48.48,0,0,0-.4.047l-9.133,3.955-3.106,1.345c-1,.432-2.023.825-2.983,1.335a2.231,2.231,0,0,1-.821.311,2.03,2.03,0,0,1-.929-.207,18.487,18.487,0,0,1-3.968-2.17,7.726,7.726,0,0,1-1.446-1.309,4.294,4.294,0,0,1-.549-.84,8.594,8.594,0,0,0-.4-.945c-.262-.4-.536-.175-.674.2a1.654,1.654,0,0,0-.087.455c-.012.146-.037.349-.057.493s-.01.307-.017.424,0,.164,0,.28a.587.587,0,0,0,.078.3,3.285,3.285,0,0,0,.624.8,18.433,18.433,0,0,0,3.321,2.66c1.11.708,2.4,1.62,3.768,1.579,1.484-.045,2.8-.862,4.145-1.392,2.968-1.17,6.043-2.029,8.973-3.308q.349-.154.7-.313,1.088-.495,2.144-1.054a1.855,1.855,0,0,0,1.023-.96,2.03,2.03,0,0,0-.018-1.412Z" transform="translate(-863.446 -395.613)" fill="#3fd68e"/>
        <path id="Path_2584" data-name="Path 2584" d="M889.418,399.213l-.018-.044a.421.421,0,0,0-.175-.224.488.488,0,0,0-.395.046l-9.1,3.866-3.1,1.317c-.994.423-2.017.807-2.974,1.309a2.254,2.254,0,0,1-.818.3,2.052,2.052,0,0,1-.925-.2,18.527,18.527,0,0,1-3.958-2.123,7.652,7.652,0,0,1-1.442-1.278,4.192,4.192,0,0,1-.547-.821,8.271,8.271,0,0,0-.4-.924c-.262-.395-.534-.175-.672.2a1.592,1.592,0,0,0-.087.444c-.012.143-.037.34-.057.481s-.01.3-.017.415,0,.159,0,.274a.568.568,0,0,0,.077.288,3.221,3.221,0,0,0,.622.784,18.317,18.317,0,0,0,3.311,2.6c1.107.692,2.392,1.584,3.753,1.544,1.478-.044,2.793-.843,4.132-1.362,2.961-1.143,6.023-1.985,8.947-3.235q.349-.15.7-.306,1.084-.484,2.138-1.032a1.833,1.833,0,0,0,1.021-.939,1.95,1.95,0,0,0-.019-1.38Z" transform="translate(-864.001 -394.563)" fill="#5b629f"/>
        <path id="Path_2585" data-name="Path 2585" d="M868.546,444.395v1.658s1.669,1.967,2.655,2.182l.188-1.811a8.634,8.634,0,0,1-2.842-2.029Z" transform="translate(-867.36 -434.639)" fill="#363c77"/>
        <path id="Path_2586" data-name="Path 2586" d="M869.429,446.112a6.516,6.516,0,0,0,2.632,1.953l-.139,1.484s-2.412-1.635-2.412-2.043S869.429,446.112,869.429,446.112Z" transform="translate(-868.138 -436.152)" fill="#404784"/>
        <path id="Path_2587" data-name="Path 2587" d="M871.681,456.81s1.215.976,1.81,1.381" transform="translate(-870.123 -445.58)" fill="none" stroke="#4d5388" stroke-miterlimit="10" stroke-width="1" opacity="0.38"/>
      </g>
      <g id="Group_13240" data-name="Group 13240" transform="translate(-7210.296 6241.334)">
        <path id="Path_11130" data-name="Path 11130" d="M-12672.328-9625.448a71.553,71.553,0,0,0-.364,9.639s-.829,2.746,4.909,2.978,18.914.226,18.914.226,5-.167,4.879-3.2-.316-9.639-.316-9.639.088-3.168-4.562-3.829-16.35-.281-16.35-.281S-12671.786-9629.615-12672.328-9625.448Z" transform="translate(12672.734 9629.667)" fill="#5b629f"/>
        <path id="Path_11131" data-name="Path 11131" d="M-12616.575-9621.961c.146,1.1.25,5.925.174,9.822l-1.431-.285s-1.309.038-1.194-4.019,0-5.768,0-5.768-.12-2.1,1.515-1.146A1.636,1.636,0,0,1-12616.575-9621.961Z" transform="translate(12644.767 9626.51)" fill="#41477c" stroke="#3fd68e" stroke-width="0.2"/>
        <path id="Path_11132" data-name="Path 11132" d="M.2,1.642c-.146,1.1-.25,5.925-.172,9.822l1.43-.285s1.309.037,1.2-4.02,0-5.766,0-5.766S2.77-.7,1.134.245A1.642,1.642,0,0,0,.2,1.642Z" transform="matrix(0.999, 0.035, -0.035, 0.999, 0.536, 2.863)" fill="#41477c" stroke="#3fd68e" stroke-width="0.2"/>
        <g id="Rectangle_85304" data-name="Rectangle 85304" transform="translate(13.187 2.14)" fill="#41477c" stroke="#3fd68e" stroke-width="0.2">
          <rect width="2.364" height="6.305" rx="1.182" stroke="none"/>
          <rect x="0.1" y="0.1" width="2.164" height="6.105" rx="1.082" fill="none"/>
        </g>
        <line id="Line_505" data-name="Line 505" x2="4.313" transform="translate(11.134 16.372)" fill="none" stroke="#3fd68e" stroke-width="1"/>
      </g>
    </g>
  </g>
</svg>
