<svg xmlns="http://www.w3.org/2000/svg" width="78.717" height="78.717" viewBox="0 0 78.717 78.717">
  <g id="Group_14494" data-name="Group 14494" transform="translate(-274 -420)">
    <rect id="Material_-_Vibrant_Primary_Text_-_Dark" data-name="Material - Vibrant Primary Text - Dark" width="78.717" height="78.717" rx="5" transform="translate(274 420)" fill="rgba(255,255,255,0.96)"/>
    <g id="Group_7349" data-name="Group 7349" transform="translate(292 416.5)">
      <circle id="Ellipse_485" data-name="Ellipse 485" cx="9.577" cy="9.577" r="9.577" transform="translate(11.929 23.13)" fill="#63ea86"/>
      <path id="Path_8963" data-name="Path 8963" d="M235.39,30a9.623,9.623,0,0,0-1.89.187,9.579,9.579,0,0,1,0,18.781A9.578,9.578,0,1,0,235.39,30Z" transform="translate(-213.884 -6.87)" fill="#3ce568"/>
      <path id="Path_8967" data-name="Path 8967" d="M9.577,0A9.577,9.577,0,1,1,0,9.577,9.577,9.577,0,0,1,9.577,0Z" transform="translate(0.63 41.948)" fill="#bdc1e2"/>
      <path id="Path_8964" data-name="Path 8964" d="M100.89,254a9.624,9.624,0,0,0-1.89.187,9.579,9.579,0,0,1,0,18.781A9.578,9.578,0,1,0,100.89,254Z" transform="translate(-90.683 -212.052)" fill="#5b629f"/>
      <path id="Path_8968" data-name="Path 8968" d="M9.577,0A9.577,9.577,0,1,1,0,9.577,9.577,9.577,0,0,1,9.577,0Z" transform="translate(23.229 41.948)" fill="#b2b2b2"/>
      <path id="Path_8965" data-name="Path 8965" d="M369.89,254a9.624,9.624,0,0,0-1.89.187,9.579,9.579,0,0,1,0,18.781A9.578,9.578,0,1,0,369.89,254Z" transform="translate(-337.084 -212.052)" fill="#d1d1d1"/>
      <path id="Path_8966" data-name="Path 8966" d="M10.207,41.318A10.207,10.207,0,1,0,20.414,51.526,10.207,10.207,0,0,0,10.207,41.318Zm0,19.154a8.947,8.947,0,1,1,8.947-8.947A8.947,8.947,0,0,1,10.207,60.473Zm3.738-9.207a.63.63,0,0,0,.63-.63v-3.36a.63.63,0,0,0-1.26,0v3.36a.63.63,0,0,0,.63.63Zm11.3-18.818a.63.63,0,0,0,.63-.63v-3.36a.63.63,0,1,0-1.26,0v3.36a.63.63,0,0,0,.63.63ZM14.825,55.053H5.589a.63.63,0,0,0,0,1.26h9.236a.63.63,0,0,0,0-1.26ZM6.469,51.266a.63.63,0,0,0,.63-.63v-3.36a.63.63,0,0,0-1.26,0v3.36a.63.63,0,0,0,.63.63Zm22.6,0a.63.63,0,0,0,.63-.63v-3.36a.63.63,0,0,0-1.26,0v3.36a.63.63,0,0,0,.63.63Zm3.738,2.322a6.86,6.86,0,0,0-5.086,2.267.63.63,0,1,0,.936.844,5.578,5.578,0,0,1,8.3,0,.63.63,0,1,0,.936-.844,6.86,6.86,0,0,0-5.086-2.267Zm0-12.269A10.207,10.207,0,1,0,43.013,51.526,10.207,10.207,0,0,0,32.806,41.318Zm0,19.154a8.947,8.947,0,1,1,8.947-8.947,8.947,8.947,0,0,1-8.947,8.947ZM17.768,32.448a.63.63,0,0,0,.63-.63v-3.36a.63.63,0,1,0-1.26,0v3.36a.63.63,0,0,0,.63.63ZM36.544,51.266a.63.63,0,0,0,.63-.63v-3.36a.63.63,0,0,0-1.26,0v3.36a.63.63,0,0,0,.63.63Zm-10-14.869a.63.63,0,0,0-.89.046,5.578,5.578,0,0,1-8.3,0,.63.63,0,0,0-.936.844,6.838,6.838,0,0,0,10.172,0,.63.63,0,0,0-.046-.89Zm5.167-3.69A10.207,10.207,0,1,0,21.507,42.915,10.207,10.207,0,0,0,31.714,32.707ZM21.507,41.654a8.947,8.947,0,1,1,8.947-8.947,8.947,8.947,0,0,1-8.947,8.947Z" fill="#272a33"/>
    </g>
  </g>
</svg>
