<svg xmlns="http://www.w3.org/2000/svg" width="78.717" height="78.717" viewBox="0 0 78.717 78.717">
  <g id="Group_91331" data-name="Group 91331" transform="translate(-30 -686)">
    <rect id="Material_-_Vibrant_Primary_Text_-_Dark" data-name="Material - Vibrant Primary Text - Dark" width="78.717" height="78.717" rx="5" transform="translate(30 686)" fill="rgba(255,255,255,0.96)"/>
    <g id="Group_14460" data-name="Group 14460" transform="translate(778.49 1124)">
      <rect id="Rectangle_85843" data-name="Rectangle 85843" width="15" height="14" transform="translate(-717 -403)" fill="#6bc100"/>
      <g id="Group_14403" data-name="Group 14403" transform="translate(-731.34 -408.936)">
        <path id="Path_16683" data-name="Path 16683" d="M39.911,3.8c0-2.092-8.23-3.79-18.4-3.8-10.17.009-18.4,1.707-18.4,3.8L0,17.1c-.056.24,2.131,1.209,2.3,1.286,4.545,2.029,13.331,2.62,19.209,2.885,5.877-.265,14.663-.857,19.209-2.885.17-.077,2.357-1.046,2.3-1.286L39.911,3.8M18.253,16.407a1.682,1.682,0,0,1-2.141-.923,1.682,1.682,0,0,1,.3-2.312,1.682,1.682,0,0,1,2.14.924,1.682,1.682,0,0,1-.3,2.312M17.14,11.633a1.682,1.682,0,0,1,.3-2.313,1.682,1.682,0,0,1,2.14.924,1.682,1.682,0,0,1-.3,2.312,1.682,1.682,0,0,1-2.141-.923M26.054,16.9c-.715.278-1.523.06-2.246.316-.683.242-1.055.96-1.538,1.449a1.765,1.765,0,0,1-2.851-1.579,33.681,33.681,0,0,1,.836-3.872c.242-.744,1.472-1.194,1.472-1.194s1.51.568,2.244.782a7.24,7.24,0,0,1,2.285.8,2.705,2.705,0,0,1,.957,1.609A2.127,2.127,0,0,1,26.054,16.9m-5.2-9.431a1.681,1.681,0,0,1,1.9,1.349,1.681,1.681,0,0,1-.774,2.2,1.682,1.682,0,0,1-1.9-1.348,1.681,1.681,0,0,1,.775-2.2M24.42,8.876A1.682,1.682,0,0,1,26.4,10.1a1.682,1.682,0,0,1-.631,2.244,1.682,1.682,0,0,1-1.985-1.223,1.683,1.683,0,0,1,.631-2.245m-2.909-3.35C13.906,5.519,8.774,4.606,6.385,3.8c2.389-.807,7.52-1.72,15.126-1.727s12.737.92,15.126,1.727c-2.389.807-7.52,1.72-15.126,1.727" transform="translate(-0.001)" fill="#5b629f"/>
      </g>
    </g>
  </g>
</svg>
