<svg xmlns="http://www.w3.org/2000/svg" width="206.538" height="72.646" viewBox="0 0 206.538 72.646">
  <g id="Group_14272" data-name="Group 14272" transform="translate(7238.075 -6241.334)">
    <g id="Group_2157" data-name="Group 2157" transform="translate(-7238.076 6245.982)">
      <path id="Path_2579" data-name="Path 2579" d="M883.591,458.4c3.307,3.17,11.36,9.5,18.269,4.009,0,0,3.929,1.761,12.4-3.658s27.974-14.783,27.974-14.783,12.8-6.905,12.671-7.31-25.952-14.3-32.324-13.756-41.143,16.266-41.143,16.266l.545,15.628a5.261,5.261,0,0,0,1.607,3.6Z" transform="translate(-871.508 -396.578)" fill="#12292d" opacity="0.28"/>
      <path id="Path_2580" data-name="Path 2580" d="M951.751,383.03c-.447,2.851-1.206,5.76-1.844,8.583a16.908,16.908,0,0,1-3.027,7.016c-3,3.706-8.142,5.272-12.24,7.416-5.384,2.816-10.924,5.368-16.374,8.05-10.062,4.95-20.763,10.031-31.935,9.083a4.761,4.761,0,0,1-4.564,3.508,12.332,12.332,0,0,1-5.929-1.646,42.953,42.953,0,0,1-10.375-6.806A23.023,23.023,0,0,1,858.7,407.71c-.567-2.261.6-5.278,2.928-5.339a69.8,69.8,0,0,1-.482-15.4,6.288,6.288,0,0,1,.982-3.413,6.581,6.581,0,0,1,3.189-1.866l50.6-17.669a29.618,29.618,0,0,1,6.7-1.767,22.746,22.746,0,0,1,7.862.836,32.737,32.737,0,0,1,19.206,12.282,11.255,11.255,0,0,1,2.166,5.247,9.86,9.86,0,0,1-.1,2.408Z" transform="translate(-858.555 -362.204)" fill="#5b629f"/>
      <path id="Path_2581" data-name="Path 2581" d="M865.626,454.814s4.4,11.5,24.7,20.811" transform="translate(-862.559 -414.644)" fill="none" stroke="#2a2e57" stroke-linecap="round" stroke-miterlimit="10" stroke-width="1"/>
      <path id="Path_2582" data-name="Path 2582" d="M865.1,455.387s4.4,11.5,24.708,20.811" transform="translate(-862.253 -414.969)" fill="none" stroke="#41477c" stroke-linecap="round" stroke-miterlimit="10" stroke-width="1"/>
      <path id="Path_2583" data-name="Path 2583" d="M954.572,401.2l-.067-.163a1.564,1.564,0,0,0-.638-.839,1.756,1.756,0,0,0-1.448.172l-33.37,14.451L907.7,419.735c-3.642,1.579-7.393,3.014-10.9,4.877a8.151,8.151,0,0,1-3,1.135,7.417,7.417,0,0,1-3.394-.756,67.549,67.549,0,0,1-14.5-7.929,28.225,28.225,0,0,1-5.285-4.784,15.692,15.692,0,0,1-2.006-3.068,31.384,31.384,0,0,0-1.448-3.454c-.957-1.47-1.958-.638-2.462.747a6.041,6.041,0,0,0-.319,1.662c-.044.533-.134,1.276-.21,1.8-.07.475-.038,1.12-.061,1.55s0,.6,0,1.024a2.146,2.146,0,0,0,.284,1.078,12,12,0,0,0,2.28,2.934,67.344,67.344,0,0,0,12.136,9.718c4.057,2.587,8.764,5.919,13.768,5.77,5.422-.166,10.228-3.151,15.146-5.087,10.844-4.274,22.08-7.415,32.787-12.088q1.276-.561,2.552-1.145,3.974-1.808,7.833-3.853a6.777,6.777,0,0,0,3.738-3.508A7.418,7.418,0,0,0,954.572,401.2Z" transform="translate(-861.695 -383.67)" fill="#3fd68e"/>
      <path id="Path_2584" data-name="Path 2584" d="M954.929,399.983l-.067-.159a1.538,1.538,0,0,0-.638-.82,1.783,1.783,0,0,0-1.442.169L919.514,413.3,908.2,418.111c-3.633,1.544-7.371,2.947-10.866,4.784a8.231,8.231,0,0,1-2.989,1.11,7.5,7.5,0,0,1-3.38-.74,67.705,67.705,0,0,1-14.461-7.757,27.967,27.967,0,0,1-5.268-4.669,15.34,15.34,0,0,1-2-3,30.21,30.21,0,0,0-1.445-3.378c-.957-1.442-1.952-.638-2.456.727a5.81,5.81,0,0,0-.319,1.623c-.045.523-.134,1.241-.21,1.757-.067.462-.038,1.094-.061,1.515s0,.581,0,1a2.074,2.074,0,0,0,.281,1.052A11.768,11.768,0,0,0,867.3,415a66.924,66.924,0,0,0,12.1,9.5c4.044,2.529,8.739,5.789,13.714,5.642,5.4-.159,10.206-3.081,15.1-4.975,10.819-4.178,22.007-7.253,32.691-11.82q1.276-.548,2.552-1.12,3.961-1.77,7.811-3.77A6.7,6.7,0,0,0,955,405.025,7.126,7.126,0,0,0,954.929,399.983Z" transform="translate(-862.049 -382.993)" fill="#5b629f"/>
      <path id="Path_2585" data-name="Path 2585" d="M868.546,444.395v6.06s6.1,7.189,9.7,7.973l.686-6.618a31.552,31.552,0,0,1-10.385-7.415Z" transform="translate(-864.21 -408.748)" fill="#363c77"/>
      <path id="Path_2586" data-name="Path 2586" d="M869.429,446.112s5.1,6.152,9.619,7.138l-.507,5.422s-8.812-5.974-8.812-7.466S869.429,446.112,869.429,446.112Z" transform="translate(-864.71 -409.719)" fill="#404784"/>
      <path id="Path_2587" data-name="Path 2587" d="M871.681,456.81s4.44,3.566,6.612,5.046" transform="translate(-865.986 -415.776)" fill="none" stroke="#4d5388" stroke-miterlimit="10" stroke-width="1" opacity="0.38"/>
    </g>
    <g id="Group_13240" data-name="Group 13240" transform="translate(-7136.577 6241.333)">
      <path id="Path_11130" data-name="Path 11130" d="M-12671.25-9614.25a261.769,261.769,0,0,0-1.332,35.217s-3.027,10.037,17.938,10.879,69.115.828,69.115.828,18.266-.607,17.826-11.707-1.152-35.217-1.152-35.217.318-11.577-16.674-13.993-59.744-1.026-59.744-1.026S-12669.266-9629.478-12671.25-9614.25Z" transform="translate(12672.734 9629.668)" fill="#5b629f"/>
      <path id="Path_11131" data-name="Path 11131" d="M-12610.052-9617.6c.537,4.029.916,21.645.637,35.885l-5.227-1.039s-4.783.137-4.367-14.687,0-21.074,0-21.074-.434-7.656,5.537-4.186a5.987,5.987,0,0,1,3.418,5.1Z" transform="translate(12713.064 9634.224)" fill="#41477c" stroke="#3fd68e" stroke-width="0.2"/>
      <path id="Path_11132" data-name="Path 11132" d="M.727,6C.194,10.032-.186,27.65.1,41.888l5.224-1.04s4.784.134,4.373-14.69,0-21.069,0-21.069S10.123-2.556,4.146.895A6,6,0,0,0,.727,6Z" transform="matrix(0.999, 0.035, -0.035, 0.999, 1.956, 10.461)" fill="#41477c" stroke="#3fd68e" stroke-width="0.2"/>
      <g id="Rectangle_85304" data-name="Rectangle 85304" transform="translate(48.187 7.821)" fill="#41477c" stroke="#3fd68e" stroke-width="0.2">
        <rect width="8.637" height="23.037" rx="1.354" stroke="none"/>
        <rect x="0.1" y="0.1" width="8.437" height="22.837" rx="1.254" fill="none"/>
      </g>
      <line id="Line_505" data-name="Line 505" x2="15.759" transform="translate(40.683 59.826)" fill="none" stroke="#3fd68e" stroke-width="1"/>
    </g>
  </g>
</svg>
