<svg xmlns="http://www.w3.org/2000/svg" width="78.717" height="78.717" viewBox="0 0 78.717 78.717">
  <g id="Group_14486" data-name="Group 14486" transform="translate(-151 -284)">
    <rect id="Material_-_Vibrant_Primary_Text_-_Dark" data-name="Material - Vibrant Primary Text - Dark" width="78.717" height="78.717" rx="5" transform="translate(151 284)" fill="rgba(255,255,255,0.96)"/>
    <g id="Group_7351" data-name="Group 7351" transform="translate(27.73 141.28)">
      <path id="Path_8976" data-name="Path 8976" d="M267.165,359.61a6.5,6.5,0,0,1-.515,1.44l-.108.234c-.09.173-.187.346-.252.461s-.135.2-.229.332l-.084.118a4.8,4.8,0,0,1-3.843,1.993,4.644,4.644,0,0,1-2.951-1.059,8.244,8.244,0,0,0-4.226-1.939,8.1,8.1,0,0,0-2.221,0,8.213,8.213,0,0,0-4.183,1.92,4.663,4.663,0,0,1-2.976,1.081,4.833,4.833,0,0,1-3.7-1.8,2.542,2.542,0,0,1-.2-.259c-.1-.139-.2-.283-.281-.422-.1-.162-.181-.325-.29-.536a.876.876,0,0,1-.056-.12,1.393,1.393,0,0,0-.056-.14,6.322,6.322,0,0,1-.445-1.272l-.037-.184a11.563,11.563,0,0,1-.166-1.932,1.614,1.614,0,0,0-.008-.2c0-7.79,6.946-16.029,13.512-16.029s13.516,8.241,13.516,16.031v.062a1.228,1.228,0,0,0-.008.136,11.558,11.558,0,0,1-.163,1.932Z" transform="translate(-90.765 -161.643)" fill="#5b629f"/>
      <path id="Path_8977" data-name="Path 8977" d="M144.993,251.52c-3.161,0-5.723,3.081-5.723,6.867s2.567,6.868,5.723,6.868,5.722-3.081,5.722-6.868S148.148,251.52,144.993,251.52Z" transform="translate(0 -80.768)" fill="#3fd68e"/>
      <path id="Path_8979" data-name="Path 8979" d="M257.243,161.72c-3.156,0-5.723,3.08-5.723,6.867s2.567,6.867,5.723,6.867,5.722-3.08,5.722-6.867S260.4,161.72,257.243,161.72Zm-3.434,6.867Z" transform="translate(-100.941 0)" fill="#3fd68e"/>
      <path id="Path_8981" data-name="Path 8981" d="M391.952,161.72c-3.161,0-5.722,3.08-5.722,6.867s2.566,6.867,5.722,6.867,5.723-3.08,5.723-6.867S395.108,161.72,391.952,161.72Z" transform="translate(-222.079 0)" fill="#3fd68e"/>
      <path id="Path_8983" data-name="Path 8983" d="M504.2,251.52c-3.155,0-5.722,3.081-5.722,6.867s2.567,6.868,5.722,6.868,5.723-3.081,5.723-6.868S507.358,251.52,504.2,251.52Z" transform="translate(-323.02 -80.768)" fill="#3fd68e"/>
    </g>
  </g>
</svg>
