<svg id="Group_7351" data-name="Group 7351" xmlns="http://www.w3.org/2000/svg" width="175.542" height="150.459" viewBox="0 0 175.542 150.459">
  <path id="Path_8976" data-name="Path 8976" d="M339.892,408.16a23.491,23.491,0,0,1-1.911,5.259l-.4.857c-.336.628-.693,1.255-.941,1.682s-.5.725-.85,1.214l-.314.433a17.92,17.92,0,0,1-14.261,7.279,17.4,17.4,0,0,1-10.951-3.869,30.185,30.185,0,0,0-39.444-.072,17.474,17.474,0,0,1-11.045,3.947,18.042,18.042,0,0,1-13.718-6.567,9.3,9.3,0,0,1-.744-.941c-.373-.505-.725-1.035-1.042-1.541-.373-.593-.672-1.189-1.076-1.958a3.149,3.149,0,0,1-.207-.439,5.021,5.021,0,0,0-.207-.511,22.851,22.851,0,0,1-1.651-4.647l-.138-.671a41.558,41.558,0,0,1-.627-7.057,5.81,5.81,0,0,0-.031-.722c0-28.447,25.773-58.534,50.137-58.534s50.153,30.1,50.153,58.543v.226a4.4,4.4,0,0,0-.028.5,41.584,41.584,0,0,1-.6,7.062Z" transform="translate(-202.725 -274.431)" fill="#5b629f"/>
  <path id="Path_8977" data-name="Path 8977" d="M160.17,251.52c-11.544,0-20.9,11.252-20.9,25.076s9.375,25.08,20.9,25.08,20.9-11.252,20.9-25.08S171.682,251.52,160.17,251.52Z" transform="translate(-139.27 -218.085)" fill="#3fd68e"/>
  <path id="Path_8979" data-name="Path 8979" d="M272.42,161.72c-11.525,0-20.9,11.249-20.9,25.077s9.375,25.077,20.9,25.077,20.9-11.249,20.9-25.077S283.942,161.72,272.42,161.72ZM259.869,186.8Z" transform="translate(-209.726 -161.72)" fill="#3fd68e"/>
  <path id="Path_8981" data-name="Path 8981" d="M407.125,161.72c-11.544,0-20.894,11.249-20.894,25.077s9.372,25.077,20.894,25.077,20.9-11.249,20.9-25.077S418.647,161.72,407.125,161.72Z" transform="translate(-294.274 -161.72)" fill="#3fd68e"/>
  <path id="Path_8983" data-name="Path 8983" d="M519.374,251.52c-11.522,0-20.894,11.252-20.894,25.076s9.375,25.08,20.894,25.08,20.9-11.252,20.9-25.08S530.9,251.52,519.374,251.52Z" transform="translate(-364.732 -218.085)" fill="#3fd68e"/>
</svg>
