<svg id="Group_11081" data-name="Group 11081" xmlns="http://www.w3.org/2000/svg" width="174.621" height="109.959" viewBox="0 0 174.621 109.959">
  <path id="Path_8969" data-name="Path 8969" d="M25.934,10.5h77.611a12.972,12.972,0,0,1,12.934,12.934V68.708a12.972,12.972,0,0,1-12.934,12.945H97.076v19.4l-25.868-19.4H25.934A12.972,12.972,0,0,1,13,68.708V23.434A12.972,12.972,0,0,1,25.934,10.5Z" transform="translate(58.142 8.903)" fill="#3fd68e"/>
  <path id="Path_8970" data-name="Path 8970" d="M73.154,39.837A12.972,12.972,0,0,1,86.087,26.9h19.391V20.434A12.972,12.972,0,0,0,92.545,7.5H14.934A12.972,12.972,0,0,0,2,20.434V65.708A12.972,12.972,0,0,0,14.934,78.654H21.4v19.4l25.868-19.4H73.154Z" transform="translate(-2 -7.5)" fill="#5b629f"/>
  <path id="Path_8973" data-name="Path 8973" d="M22.67,48.805H16.2a9.946,9.946,0,0,1-9.7-9.7V19.7A9.946,9.946,0,0,1,16.2,10H22.67a9.946,9.946,0,0,1,9.7,9.7V39.1a9.946,9.946,0,0,1-9.7,9.7ZM16.2,16.469A3.06,3.06,0,0,0,12.969,19.7V39.1A3.06,3.06,0,0,0,16.2,42.337H22.67A3.06,3.06,0,0,0,25.9,39.1V19.7a3.06,3.06,0,0,0-3.233-3.233ZM113.23,68.208A3.06,3.06,0,0,1,110,64.976V39.1a3.06,3.06,0,0,0-3.233-3.233H93.812A3.06,3.06,0,0,0,90.58,39.1V64.972a3.234,3.234,0,0,1-6.469,0V39.1a9.946,9.946,0,0,1,9.7-9.7h12.915a9.946,9.946,0,0,1,9.7,9.7V64.972a3.06,3.06,0,0,1-3.2,3.236Z" transform="translate(22.604 6.17)" fill="#fff"/>
  <path id="Path_8974" data-name="Path 8974" d="M99.293,38.585H79.905a3.234,3.234,0,0,1,0-6.469H99.293a3.234,3.234,0,0,1,0,6.469ZM24.93,32.116a3.887,3.887,0,0,1-2.586-.647L9.395,18.535a3.211,3.211,0,1,1,4.541-4.541L26.869,26.928a3.125,3.125,0,0,1,0,4.526,6.5,6.5,0,0,1-1.94.662Z" transform="translate(33.278 22.856)" fill="#fff"/>
</svg>
