<svg xmlns="http://www.w3.org/2000/svg" width="78.717" height="78.717" viewBox="0 0 78.717 78.717">
  <g id="Group_14472" data-name="Group 14472" transform="translate(-274.357 -140)">
    <rect id="Material_-_Vibrant_Primary_Text_-_Dark" data-name="Material - Vibrant Primary Text - Dark" width="78.717" height="78.717" rx="5" transform="translate(274.357 140)" fill="rgba(255,255,255,0.96)"/>
    <g id="Group_11081" data-name="Group 11081" transform="translate(285.604 155.89)">
      <path id="Path_8969" data-name="Path 8969" d="M17.322,10.5h25.93a4.3,4.3,0,0,1,4.322,4.258v14.9a4.3,4.3,0,0,1-4.322,4.258H41.09v6.387l-8.643-6.387H17.322A4.3,4.3,0,0,1,13,29.661v-14.9A4.3,4.3,0,0,1,17.322,10.5Z" transform="translate(5.345 -0.655)" fill="#3fd68e"/>
      <path id="Path_8970" data-name="Path 8970" d="M25.419,18.145a4.27,4.27,0,0,1,4.258-4.258h6.387V11.758A4.27,4.27,0,0,0,31.806,7.5H6.258A4.27,4.27,0,0,0,2,11.758v14.9a4.27,4.27,0,0,0,4.258,4.258H8.387v6.387L16.9,30.919h8.516Z" transform="translate(0.345 0.345)" fill="#5b629f"/>
      <path id="Path_8973" data-name="Path 8973" d="M11.822,22.774H9.693A3.274,3.274,0,0,1,6.5,19.58V13.193A3.274,3.274,0,0,1,9.693,10h2.129a3.274,3.274,0,0,1,3.193,3.193V19.58A3.274,3.274,0,0,1,11.822,22.774ZM9.693,12.129a1.006,1.006,0,0,0-1.064,1.064V19.58a1.006,1.006,0,0,0,1.064,1.064h2.129a1.006,1.006,0,0,0,1.064-1.064V13.193a1.006,1.006,0,0,0-1.064-1.064ZM41.628,29.161A1.006,1.006,0,0,1,40.564,28.1V19.58A1.006,1.006,0,0,0,39.5,18.516H35.241a1.006,1.006,0,0,0-1.064,1.064V28.1a1.064,1.064,0,1,1-2.129,0V19.58a3.274,3.274,0,0,1,3.193-3.193H39.5a3.274,3.274,0,0,1,3.193,3.193V28.1A1.006,1.006,0,0,1,41.628,29.161Z" transform="translate(2.226 3.168)" fill="#fff"/>
      <path id="Path_8974" data-name="Path 8974" d="M31.5,21.459H26.574c-.492,0-.82-.426-.82-1.064s.328-1.064.82-1.064H31.5c.492,0,.82.426.82,1.064S31.987,21.459,31.5,21.459ZM12.633,19.33a.818.818,0,0,1-.656-.213L8.7,14.86a1.251,1.251,0,0,1,0-1.49.676.676,0,0,1,1.148,0l3.28,4.258a1.251,1.251,0,0,1,0,1.49A1.419,1.419,0,0,1,12.633,19.33Z" transform="translate(7.627 4.707)" fill="#fff"/>
    </g>
  </g>
</svg>
