<svg xmlns="http://www.w3.org/2000/svg" width="211.758" height="154.196" viewBox="0 0 211.758 154.196">
  <g id="Group_2157" data-name="Group 2157" transform="translate(-858.556 -362.21)">
    <path id="Path_2579" data-name="Path 2579" d="M886.319,503.4c7.5,7.186,25.76,21.553,41.427,9.1,0,0,8.911,4,28.118-8.286s63.459-33.519,63.459-33.519,29.022-15.656,28.736-16.571-58.849-32.423-73.3-31.191-93.325,36.878-93.325,36.878l1.235,35.4a11.927,11.927,0,0,0,3.646,8.191Z" transform="translate(-0.367 -0.994)" fill="#12292d" opacity="0.28"/>
    <path id="Path_2580" data-name="Path 2580" d="M1069.882,409.437c-1.013,6.466-2.738,13.057-4.18,19.46a38.3,38.3,0,0,1-6.862,15.923c-6.809,8.4-18.454,11.954-27.756,16.812-12.206,6.384-24.766,12.172-37.126,18.255-22.815,11.227-47.077,22.744-72.419,20.6a10.8,10.8,0,0,1-10.353,7.962,27.972,27.972,0,0,1-13.445-3.732,97.4,97.4,0,0,1-23.523-15.441,52.2,52.2,0,0,1-15.34-23.881c-1.284-5.13,1.348-11.973,6.636-12.1a158.278,158.278,0,0,1-1.1-34.92,14.249,14.249,0,0,1,2.229-7.743,14.92,14.92,0,0,1,7.257-4.23l114.75-40.057a67.141,67.141,0,0,1,15.208-4.007,51.57,51.57,0,0,1,17.829,1.883c17.064,4.354,33.586,13.328,43.555,27.869a25.532,25.532,0,0,1,4.9,11.9A22.37,22.37,0,0,1,1069.882,409.437Z" transform="translate(0 0)" fill="#5b629f"/>
    <path id="Path_2581" data-name="Path 2581" d="M865.626,454.814S875.614,480.9,921.651,502" transform="translate(-0.113 -1.513)" fill="none" stroke="#2a2e57" stroke-linecap="round" stroke-miterlimit="10" stroke-width="1"/>
    <path id="Path_2582" data-name="Path 2582" d="M865.1,455.387s9.988,26.088,56.025,47.19" transform="translate(-0.099 -1.521)" fill="none" stroke="#41477c" stroke-linecap="round" stroke-miterlimit="10" stroke-width="1"/>
    <path id="Path_2583" data-name="Path 2583" d="M1069.241,402.573c-.049-.124-.1-.245-.15-.377a3.555,3.555,0,0,0-1.48-1.883,3.988,3.988,0,0,0-3.284.377l-75.665,32.765L962.935,444.6c-8.263,3.578-16.763,6.832-24.717,11.061a18.494,18.494,0,0,1-6.779,2.576,16.816,16.816,0,0,1-7.691-1.714,153.145,153.145,0,0,1-32.889-17.979,63.973,63.973,0,0,1-11.987-10.824,35.58,35.58,0,0,1-4.546-6.96,70.916,70.916,0,0,0-3.284-7.83c-2.15-3.337-4.44-1.446-5.581,1.691a13.706,13.706,0,0,0-.708,3.766c-.1,1.209-.3,2.877-.478,4.071-.155,1.077-.087,2.535-.139,3.514s0,1.348,0,2.32a4.895,4.895,0,0,0,.64,2.444,27.2,27.2,0,0,0,5.171,6.655,152.692,152.692,0,0,0,27.52,22.039c9.2,5.864,19.878,13.426,31.217,13.08,12.278-.377,23.2-7.156,34.344-11.532,24.608-9.69,50.089-16.812,74.351-27.406q2.923-1.273,5.819-2.595,9.009-4.1,17.761-8.738a15.37,15.37,0,0,0,8.481-7.98,16.82,16.82,0,0,0-.2-11.682Z" transform="translate(-0.075 -0.612)" fill="#3fd68e"/>
    <path id="Path_2584" data-name="Path 2584" d="M1069.264,401.343c-.049-.121-.1-.241-.151-.377a3.488,3.488,0,0,0-1.476-1.857,4.041,4.041,0,0,0-3.273.376l-75.443,32.046-25.651,10.9c-8.237,3.5-16.71,6.681-24.642,10.82a18.664,18.664,0,0,1-6.779,2.52,17.024,17.024,0,0,1-7.668-1.676A153.563,153.563,0,0,1,891.389,436.5a63.377,63.377,0,0,1-11.949-10.586,34.794,34.794,0,0,1-4.52-6.805,68.341,68.341,0,0,0-3.272-7.66c-2.143-3.265-4.429-1.416-5.567,1.653a13.184,13.184,0,0,0-.708,3.683c-.1,1.182-.3,2.817-.475,3.984-.154,1.051-.087,2.478-.139,3.435s0,1.318,0,2.26a4.7,4.7,0,0,0,.64,2.388,26.7,26.7,0,0,0,5.156,6.508,151.794,151.794,0,0,0,27.436,21.554c9.174,5.732,19.817,13.129,31.123,12.8,12.243-.377,23.124-6.986,34.241-11.28,24.532-9.479,49.92-16.443,74.129-26.8q2.911-1.247,5.8-2.538,8.978-4.011,17.7-8.545a15.209,15.209,0,0,0,8.455-7.8,16.158,16.158,0,0,0-.181-11.407Z" transform="translate(-0.093 -0.609)" fill="#5b629f"/>
    <path id="Path_2585" data-name="Path 2585" d="M868.546,444.395v13.713s13.844,16.3,21.994,18.111l1.552-15.008A71.553,71.553,0,0,1,868.546,444.395Z" transform="translate(-0.159 -1.349)" fill="#363c77"/>
    <path id="Path_2586" data-name="Path 2586" d="M869.429,446.112s11.581,13.935,21.81,16.194l-1.152,12.259s-19.979-13.558-19.979-16.948S869.429,446.112,869.429,446.112Z" transform="translate(-0.172 -1.375)" fill="#404784"/>
    <path id="Path_2587" data-name="Path 2587" d="M871.681,456.81s10.067,8.09,14.989,11.441" transform="translate(-0.21 -1.546)" fill="none" stroke="#4d5388" stroke-miterlimit="10" stroke-width="1" opacity="0.38"/>
  </g>
</svg>
