<svg xmlns="http://www.w3.org/2000/svg" width="150" height="150.005" viewBox="0 0 150 150.005">
  <g id="sMenuDashBoard" transform="translate(-0.007 -0.003)">
    <path id="Path_1129" data-name="Path 1129" d="M243.463,116.338a36.3,36.3,0,1,0,36.3,36.306,36.3,36.3,0,0,0-36.3-36.306Zm0,50.85A14.545,14.545,0,1,1,258,152.646,14.545,14.545,0,0,1,243.463,167.188Z" transform="translate(-168.472 -77.639)" fill="#5b629f"/>
    <path id="Path_1130" data-name="Path 1130" d="M276.436,143.569a14.954,14.954,0,0,1-.2-6.126,27.022,27.022,0,0,0-6.579-11.891l-4.06-4.06a38.047,38.047,0,0,0-7.644-5.719,78.423,78.423,0,0,0-9.625-1.593l-.771-.467a77.129,77.129,0,0,0-16.325-7.186l-1.808-.551c-2.037-.5-3.911.252-4.163,1.663s-.869,4.855-1.369,7.635l-1.948,10.933c-.5,2.78-1.177,6.607-1.519,8.5A4.673,4.673,0,0,0,224,139.443l1.99.864a43.836,43.836,0,0,1,22.731,22.984l.981,2.308a5.359,5.359,0,0,0,5.14,4.355c2.065-.3,6.051-.864,8.845-1.271l9.443-1.355,8.158-1.177c1.687-.238,2.6-2.57,2.047-5.182l-.673-2.3a76.517,76.517,0,0,0-5.845-14.414Z" transform="translate(-135.722 -103.181)" fill="#30d68e"/>
    <path id="Path_1131" data-name="Path 1131" d="M345.569,172.946,313.2,177.592c.046.827.077,1.659.077,2.5A42.372,42.372,0,1,1,270.9,137.715c1.329,0,2.647.068,3.947.2l5.741-32.191A75,75,0,1,0,345.915,180.1C345.91,177.683,345.787,175.3,345.569,172.946ZM262.047,111.41a5.2,5.2,0,1,1-3.209,6.623,5.2,5.2,0,0,1,3.209-6.623Zm-10.159,13.927a5.2,5.2,0,1,1-3.209,6.623,5.2,5.2,0,0,1,3.209-6.623Zm-18.864-3.227a5.2,5.2,0,1,1,0,7.359,5.2,5.2,0,0,1,0-7.359Zm-3.077,16.968a3.037,3.037,0,1,1-.009,0Zm-3.882,25.15a5.193,5.193,0,1,1-.214-3.981,5.2,5.2,0,0,1,.214,3.981Zm-14.345-20.1a5.2,5.2,0,1,1,3.182,6.645,5.2,5.2,0,0,1-3.182-6.645Zm-9.7,28.841a5.195,5.195,0,1,1,1.892,3.51,5.2,5.2,0,0,1-1.892-3.51Zm10.759,32a5.194,5.194,0,1,1,2.357-3.213,5.2,5.2,0,0,1-2.357,3.213Zm.455-18.923a4.6,4.6,0,1,0,.018,0Zm14.259,43.132a3.786,3.786,0,1,1,.018,0Zm1.032-17.218a4.819,4.819,0,1,1,.018-.009Zm10.859,16.791a4.369,4.369,0,1,1,.018.018Zm13.745,14.4a5.2,5.2,0,1,1-1.541-7.186,5.2,5.2,0,0,1,1.541,7.186Zm16.9-10.055a2,2,0,1,1,.018,0Zm9.7,15.686a11.231,11.231,0,1,1,.018-.018Zm10.159-13.936a4.091,4.091,0,1,1,.018,0Zm18.863,3.227a3.8,3.8,0,1,1,.018,0Zm3.077-16.959a3.8,3.8,0,1,1,.018,0Zm3.882-25.154a3.748,3.748,0,1,0,.018,0Zm14.35,20.1a4.282,4.282,0,1,1,.018-.027Zm5.059-23.136a9.018,9.018,0,1,1,.018-.009Z" transform="translate(-195.907 -105.088)" fill="#5b629f"/>
  </g>
</svg>
