<svg xmlns="http://www.w3.org/2000/svg" width="172.504" height="150.958" viewBox="0 0 172.504 150.958">
  <g id="Group_14271" data-name="Group 14271" transform="translate(5003 -6228)">
    <g id="Group_11082" data-name="Group 11082" transform="translate(-5003 6228)">
      <path id="Path_1132" data-name="Path 1132" d="M595.232,252.01H462.7A22.277,22.277,0,0,0,441.407,273.3v88.309c0,11.048,3.1,13.141,14.114,13.141h146.85c11.044,0,11.54-2.068,11.54-13.141V273.3C613.926,262.255,606.275,252.01,595.232,252.01Zm10.912,41.507v58.04c0,6.493-4.181,13.5-10.912,13.5H462.7a14.635,14.635,0,0,1-13.511-13.5V273.3A14.631,14.631,0,0,1,462.7,259.793H595.5c6.741,0,10.644,7.014,10.644,13.511Z" transform="translate(-441.407 -252.01)" fill="#5b629f"/>
      <path id="Path_1133" data-name="Path 1133" d="M604.6,283.549H547.893a8.693,8.693,0,0,1-8.5,6.892H515.118a8.7,8.7,0,0,1-8.5-6.892H449.947c-6.4,0-8.522,2.112-8.522,8.518v2.876a11.588,11.588,0,0,0,11.584,11.6H601.533a11.588,11.588,0,0,0,11.584-11.6v-2.872C613.112,285.661,611,283.549,604.6,283.549Z" transform="translate(-441.352 -155.583)" fill="#5b629f"/>
      <path id="Path_1134" data-name="Path 1134" d="M583.021,255.391H452.247a8.678,8.678,0,0,0-7.422,7.418v78.253a8.683,8.683,0,0,0,7.422,7.418H584.783c2.765,0,4.824-3.894,4.824-7.418V262.809a7.968,7.968,0,0,0-6.585-7.418Zm-85.588,75.82a5.767,5.767,0,0,1-5.748,5.753h-10.3a5.768,5.768,0,0,1-5.753-5.753V316.347a5.768,5.768,0,0,1,5.753-5.753h10.3a5.767,5.767,0,0,1,5.748,5.753Zm30.663,0a5.767,5.767,0,0,1-5.748,5.753H512.035a5.768,5.768,0,0,1-5.748-5.753V284.394a5.768,5.768,0,0,1,5.748-5.753h10.313a5.768,5.768,0,0,1,5.748,5.753Zm30.663,0a5.768,5.768,0,0,1-5.753,5.753H542.7a5.768,5.768,0,0,1-5.753-5.753V303.658a5.767,5.767,0,0,1,5.753-5.743h10.3a5.768,5.768,0,0,1,5.753,5.743Z" transform="translate(-430.959 -241.671)" fill="#30d68e"/>
    </g>
  </g>
</svg>
