<svg xmlns="http://www.w3.org/2000/svg" width="78.717" height="78.717" viewBox="0 0 78.717 78.717">
  <g id="Group_14495" data-name="Group 14495" transform="translate(-30 -556)">
    <rect id="Material_-_Vibrant_Primary_Text_-_Dark" data-name="Material - Vibrant Primary Text - Dark" width="78.717" height="78.717" rx="5" transform="translate(30 556)" fill="rgba(255,255,255,0.96)"/>
    <g id="Group_11082" data-name="Group 11082" transform="translate(52 580)">
      <path id="Path_1132" data-name="Path 1132" d="M472.5,252.01H445.711a4.5,4.5,0,0,0-4.3,4.3v17.852c0,2.233.626,2.652,2.857,2.652H473.95c2.233,0,2.333-.418,2.333-2.652V256.314C476.283,254.081,474.736,252.01,472.5,252.01Zm2.206,8.391v11.733c0,1.312-.845,2.73-2.206,2.73H445.711a2.959,2.959,0,0,1-2.731-2.73v-15.82a2.958,2.958,0,0,1,2.731-2.731h26.847c1.362,0,2.152,1.417,2.152,2.731Z" transform="translate(-441.407 -252.01)" fill="#5b629f"/>
      <path id="Path_1133" data-name="Path 1133" d="M474.412,283.549H462.951a1.757,1.757,0,0,1-1.718,1.394h-4.907a1.758,1.758,0,0,1-1.718-1.394H443.147c-1.294,0-1.722.427-1.722,1.722v.582a2.343,2.343,0,0,0,2.342,2.344h30.025a2.343,2.343,0,0,0,2.342-2.344v-.582C476.133,283.976,475.7,283.549,474.412,283.549Z" transform="translate(-441.41 -257.68)" fill="#5b629f"/>
      <path id="Path_1134" data-name="Path 1134" d="M472.762,255.391H446.325a1.754,1.754,0,0,0-1.5,1.5V272.71a1.755,1.755,0,0,0,1.5,1.5h26.793c.559,0,.975-.792.975-1.5V256.89A1.611,1.611,0,0,0,472.762,255.391Zm-17.3,15.327a1.166,1.166,0,0,1-1.162,1.163h-2.083a1.166,1.166,0,0,1-1.163-1.163v-3.005a1.166,1.166,0,0,1,1.163-1.163H454.3a1.166,1.166,0,0,1,1.162,1.163Zm6.2,0a1.166,1.166,0,0,1-1.162,1.163h-2.085a1.166,1.166,0,0,1-1.162-1.163v-9.464a1.166,1.166,0,0,1,1.162-1.163H460.5a1.166,1.166,0,0,1,1.162,1.163Zm6.2,0a1.166,1.166,0,0,1-1.163,1.163h-2.083a1.166,1.166,0,0,1-1.163-1.163v-5.57a1.166,1.166,0,0,1,1.163-1.161H466.7a1.166,1.166,0,0,1,1.163,1.161Z" transform="translate(-442.022 -252.618)" fill="#30d68e"/>
    </g>
  </g>
</svg>
