<svg xmlns="http://www.w3.org/2000/svg" width="78.717" height="78.717" viewBox="0 0 78.717 78.717">
  <g id="Group_14487" data-name="Group 14487" transform="translate(-276 -284)">
    <rect id="Material_-_Vibrant_Primary_Text_-_Dark" data-name="Material - Vibrant Primary Text - Dark" width="78.717" height="78.717" rx="5" transform="translate(276 284)" fill="rgba(255,255,255,0.96)"/>
    <g id="Group_625" data-name="Group 625" transform="translate(298 303)">
      <path id="Path_1153" data-name="Path 1153" d="M52.42,399.585A13.411,13.411,0,1,1,39.031,413,13.415,13.415,0,0,1,52.42,399.585m0-3.751A17.163,17.163,0,1,0,69.556,413,17.149,17.149,0,0,0,52.42,395.834Z" transform="translate(-35.285 -391.793)" fill="#5b629f"/>
      <path id="Path_1154" data-name="Path 1154" d="M53.446,403.8a.74.74,0,0,1-.742-.741V398.1a.742.742,0,0,1,1.483,0v4.963A.74.74,0,0,1,53.446,403.8Z" transform="translate(-36.31 -391.897)" fill="#5b629f"/>
      <path id="Path_1155" data-name="Path 1155" d="M53.446,430.266a.742.742,0,0,1-.742-.742v-4.963a.742.742,0,0,1,1.483,0v4.963A.742.742,0,0,1,53.446,430.266Z" transform="translate(-36.31 -393.318)" fill="#5b629f"/>
      <path id="Path_1156" data-name="Path 1156" d="M68.976,414.735H64.013a.742.742,0,1,1,0-1.483h4.962a.742.742,0,1,1,0,1.483Z" transform="translate(-36.866 -392.778)" fill="#5b629f"/>
      <path id="Path_1157" data-name="Path 1157" d="M42.513,414.735H37.551a.742.742,0,1,1,0-1.483h4.962a.742.742,0,1,1,0,1.483Z" transform="translate(-35.389 -392.778)" fill="#5b629f"/>
      <path id="Path_1158" data-name="Path 1158" d="M59.97,411.86l-6.224-.034-5.259-7.715a1.484,1.484,0,0,0-2.451,1.672l5.71,8.377a1.484,1.484,0,0,0,1.227.648,1.294,1.294,0,0,0,.225-.019l6.757.036h.006a1.483,1.483,0,0,0,.01-2.965Z" transform="translate(-35.824 -392.161)" fill="#30d68e"/>
      <path id="Path_1159" data-name="Path 1159" d="M68.831,402.367l.885-1.168a5.543,5.543,0,0,0-1.071-7.766l-.9-.687a5.544,5.544,0,0,0-7.767,1.072l-1.018,1.342A18.161,18.161,0,0,1,68.831,402.367Z" transform="translate(-36.571 -391.504)" fill="#30d68e"/>
      <path id="Path_1160" data-name="Path 1160" d="M37.3,402.367a18.161,18.161,0,0,1,9.876-7.207l-1.018-1.342a5.544,5.544,0,0,0-7.767-1.072l-.9.687A5.543,5.543,0,0,0,36.41,401.2Z" transform="translate(-35.285 -391.504)" fill="#30d68e"/>
      <path id="Path_1161" data-name="Path 1161" d="M39.358,433.64a1.483,1.483,0,0,1-1.342-2.115l1.01-2.148a1.483,1.483,0,0,1,2.686,1.26l-1.01,2.149A1.482,1.482,0,0,1,39.358,433.64Z" transform="translate(-35.462 -393.64)" fill="#30d68e"/>
      <path id="Path_1162" data-name="Path 1162" d="M54.426,394.464H52.192a1.484,1.484,0,0,1,0-2.968h2.234a1.484,1.484,0,0,1,0,2.968Z" transform="translate(-36.174 -391.496)" fill="#30d68e"/>
      <path id="Path_1163" data-name="Path 1163" d="M67.413,433.64a1.482,1.482,0,0,1-1.344-.853l-1.01-2.149a1.483,1.483,0,0,1,2.686-1.26l1.01,2.148a1.484,1.484,0,0,1-1.341,2.115Z" transform="translate(-36.979 -393.64)" fill="#30d68e"/>
    </g>
  </g>
</svg>
