<svg xmlns="http://www.w3.org/2000/svg" width="57.477" height="51.129" viewBox="0 0 57.477 51.129">
  <g id="Group_14114" data-name="Group 14114" transform="translate(0 0)">
    <g id="Group_12946" data-name="Group 12946" transform="translate(0)">
      <g id="Group_12945" data-name="Group 12945">
        <path id="Path_10554" data-name="Path 10554" d="M2541.849,1282.394c-3.18-.862-5.609-3.512-7.116-6.442s-2.254-6.178-3.237-9.323-2.273-6.308-4.609-8.63a4.759,4.759,0,0,1-.968-1.139,1.29,1.29,0,0,1,.07-1.411c.559-.634,1.6-.239,2.291.251,3.989,2.838,6.692,9.957,8.054,14.658,1.6,5.506,3.878,6.5,7.244,10.052A3.5,3.5,0,0,1,2541.849,1282.394Z" transform="translate(-2525.744 -1255.119)" fill="#f5b054"/>
      </g>
    </g>
    <g id="Group_12948" data-name="Group 12948" transform="translate(38.427 33.474)">
      <g id="Group_12947" data-name="Group 12947">
        <path id="Path_10555" data-name="Path 10555" d="M2097.8,1695.785a14.042,14.042,0,0,1-1.927,2.861c-2.175,2.5-4.492,3.239-7.612,3.917-.687.15-1.554.244-2.013-.253-.392-.424-.274-.774.133-1.156a5.113,5.113,0,0,1,1.524-.808,8.724,8.724,0,0,0,5.208-7.357,2.2,2.2,0,0,1,.444-1.633,2.544,2.544,0,0,1,1.231-.485c.659-.135,3.966-1.318,4.377-.708a.915.915,0,0,1,.088.6A13.85,13.85,0,0,1,2097.8,1695.785Z" transform="translate(-2086.006 -1689.989)" fill="#f5b054"/>
      </g>
    </g>
    <g id="Group_12950" data-name="Group 12950" transform="translate(8.011 27.038)">
      <g id="Group_12949" data-name="Group 12949" transform="translate(0)">
        <path id="Path_10556" data-name="Path 10556" d="M2515.861,1616.694c.2,2.437-1.244,4.351-3.086,5.958s-5.122,3.818-6.271,5.977a2.041,2.041,0,0,1-.54.755,1.707,1.707,0,0,1-1.475-.209.851.851,0,0,1-.064-.529,14.251,14.251,0,0,1,1.264-5.51c.83-1.874,2.323-4.869,3.053-6.784a29.645,29.645,0,0,0,1.087-5.033,8.706,8.706,0,0,1,2.09-4.63.851.851,0,0,1,.565-.309c.391,0,.594.458.7.836a61.237,61.237,0,0,1,1.691,8.681C2514.951,1616.569,2515.806,1616.02,2515.861,1616.694Z" transform="translate(-2504.413 -1606.381)" fill="#f5b054"/>
      </g>
    </g>
    <g id="Group_12952" data-name="Group 12952" transform="translate(14.027 19.389)">
      <g id="Group_12951" data-name="Group 12951">
        <path id="Path_10557" data-name="Path 10557" d="M2058.47,1516.212a10.667,10.667,0,0,1,6.79-8.4,13.731,13.731,0,0,1,11,.79,13.8,13.8,0,0,0,3.872,1.69,3.639,3.639,0,0,0,2.261-.356,4.72,4.72,0,0,0,.873-.735c.388-.337.342-.275.663.179a11.232,11.232,0,0,0,1.006,1.227,7.2,7.2,0,0,0,3.663,2.657,8.088,8.088,0,0,0,4.024.48c1.923.249,4.176.231,5.57-.852-.5,1.094-1.206,2.352-1.36,2.761-.642,1.7-.343,3.886-.557,5.683-.189,1.592-.2,2.034-1.373,3.233-4.251,4.352-10.4,2.869-14.535,3.085-3.167.165-6.278.9-9.436,1.19-1.973.179-4.131.129-5.7-1.081a5.519,5.519,0,0,1-1.591-2.075c-.436.33-.837.474-1.176.276a7.644,7.644,0,0,1-2.911-3.635A11.871,11.871,0,0,1,2058.47,1516.212Z" transform="translate(-2058.408 -1507.004)" fill="#f5b054"/>
      </g>
    </g>
    <g id="Group_12955" data-name="Group 12955" transform="translate(39.087 12.906)">
      <g id="Group_12954" data-name="Group 12954">
        <g id="Group_12953" data-name="Group 12953">
          <path id="Path_10558" data-name="Path 10558" d="M2043.832,1437.46c-.121.646-8.935-1.4-9.135-1.614a7.675,7.675,0,0,1-.911-8.921,8.424,8.424,0,0,1,7.372-4.139,8.667,8.667,0,0,1,7.12,3.787,7.726,7.726,0,0,1,.137,7.951C2047.339,1436.363,2044.048,1436.3,2043.832,1437.46Z" transform="translate(-2032.752 -1422.786)" fill="#f9d2a5"/>
        </g>
      </g>
    </g>
    <g id="Group_12958" data-name="Group 12958" transform="translate(50.402 9.695)">
      <g id="Group_12957" data-name="Group 12957" transform="translate(0 0)">
        <g id="Group_12956" data-name="Group 12956">
          <path id="Path_10559" data-name="Path 10559" d="M2052.07,1385.665q.23-1.713.6-3.4a2.324,2.324,0,0,1,.284-.8.819.819,0,0,1,.707-.4c.391.03.647.413.827.762a13.449,13.449,0,0,1,1.476,5.808A8.532,8.532,0,0,0,2052.07,1385.665Z" transform="translate(-2052.07 -1381.066)" fill="#f9d2a5"/>
        </g>
      </g>
    </g>
    <g id="Group_12961" data-name="Group 12961" transform="translate(49.436 9.618)">
      <g id="Group_12960" data-name="Group 12960" transform="translate(0)">
        <g id="Group_12959" data-name="Group 12959">
          <path id="Path_10560" data-name="Path 10560" d="M2083.267,1380.162a.888.888,0,0,0-.922.1,2.123,2.123,0,0,0-.6.764,13.767,13.767,0,0,0-1.143,3.463c.4.2.97.34,1.374.536A6.355,6.355,0,0,1,2083.267,1380.162Z" transform="translate(-2080.603 -1380.074)" fill="#f5b054"/>
        </g>
      </g>
    </g>
    <g id="Group_12964" data-name="Group 12964" transform="translate(41.398 9.526)">
      <g id="Group_12963" data-name="Group 12963" transform="translate(0 0)">
        <g id="Group_12962" data-name="Group 12962">
          <path id="Path_10561" data-name="Path 10561" d="M2161.571,1385.375a17.874,17.874,0,0,1,.969-5.529c.16-.463.463-1,.951-.973.4.027.651.434.831.794l1.718,3.417A12.749,12.749,0,0,0,2161.571,1385.375Z" transform="translate(-2161.571 -1378.872)" fill="#f9d2a5"/>
        </g>
      </g>
    </g>
    <g id="Group_12967" data-name="Group 12967" transform="translate(43.381 9.428)">
      <g id="Group_12966" data-name="Group 12966" transform="translate(0 0)">
        <g id="Group_12965" data-name="Group 12965">
          <path id="Path_10562" data-name="Path 10562" d="M2155.95,1377.983a3.378,3.378,0,0,1,.568.872l1.5,2.924-1.335.246a10.251,10.251,0,0,0-.527-2.282,20.223,20.223,0,0,0-1.128-2.1C2155.321,1377.5,2155.744,1377.776,2155.95,1377.983Z" transform="translate(-2155.03 -1377.604)" fill="#f5b054"/>
        </g>
      </g>
    </g>
    <g id="Group_12970" data-name="Group 12970" transform="translate(38.923 12.906)">
      <g id="Group_12969" data-name="Group 12969">
        <g id="Group_12968" data-name="Group 12968">
          <path id="Path_10563" data-name="Path 10563" d="M2040.272,1428.639a7.17,7.17,0,0,0-2.448,1.906,6.68,6.68,0,0,1-4.156,1.679,4.588,4.588,0,0,1-1.276-.123,7.719,7.719,0,0,1,1.127-5.176,8.424,8.424,0,0,1,7.372-4.139,8.667,8.667,0,0,1,7.12,3.787,7.684,7.684,0,0,1,.927,6.166,1.31,1.31,0,0,1-.787.146,3.856,3.856,0,0,1-2.13-.825c-.935-.7-1.643-1.667-2.534-2.428A3.605,3.605,0,0,0,2040.272,1428.639Z" transform="translate(-2032.323 -1422.786)" fill="#f5b054"/>
        </g>
      </g>
    </g>
    <g id="Group_12973" data-name="Group 12973" transform="translate(46.527 18.196)">
      <g id="Group_12972" data-name="Group 12972" transform="translate(0 0)">
        <g id="Group_12971" data-name="Group 12971">
          <path id="Path_10564" data-name="Path 10564" d="M2115.347,1491.9a.349.349,0,0,1,.343-.327c.372-.029.73.161,1.089.118a6.549,6.549,0,0,1,.88-.178.521.521,0,0,1,.531.724,1.527,1.527,0,0,1-1.561.846,1.7,1.7,0,0,1-1.078-.508A.942.942,0,0,1,2115.347,1491.9Z" transform="translate(-2115.342 -1491.513)" fill="#1d1d1b"/>
        </g>
      </g>
    </g>
    <g id="Group_12975" data-name="Group 12975" transform="translate(47.06 19.225)">
      <g id="Group_12974" data-name="Group 12974" transform="translate(0)">
        <path id="Path_10565" data-name="Path 10565" d="M2127.21,1506.105c0-.079.008-.157.009-.234a4.551,4.551,0,0,1,.076-.931c.023-.1.168-.072.186.015a4.248,4.248,0,0,1,.051.875c0,.079,0,.163.006.247a.213.213,0,0,1,.1.247.412.412,0,0,1,.065.1.767.767,0,0,1-.016.428,1.357,1.357,0,0,0,.135.875,1.038,1.038,0,0,1,.17.849.516.516,0,0,1-.575.354C2126.313,1508.756,2126.221,1506.477,2127.21,1506.105Z" transform="translate(-2126.524 -1504.878)" fill="#1d1d1b"/>
      </g>
    </g>
    <g id="Group_12985" data-name="Group 12985" transform="translate(44.963 12.906)">
      <g id="Group_12978" data-name="Group 12978" transform="translate(0 0.112)">
        <g id="Group_12977" data-name="Group 12977">
          <g id="Group_12976" data-name="Group 12976">
            <path id="Path_10566" data-name="Path 10566" d="M2155.457,1424.237a6.466,6.466,0,0,1,.262.924c.069.337.258.868.047,1.18a.258.258,0,0,1-.239.113c-.488-.1-.6-.78-.769-1.183-.108-.262-.232-.528-.351-.8A8.218,8.218,0,0,1,2155.457,1424.237Z" transform="translate(-2154.408 -1424.237)" fill="#7d4e24"/>
          </g>
        </g>
      </g>
      <g id="Group_12981" data-name="Group 12981" transform="translate(1.99)">
        <g id="Group_12980" data-name="Group 12980">
          <g id="Group_12979" data-name="Group 12979">
            <path id="Path_10567" data-name="Path 10567" d="M2128.662,1422.8c.178-.009.357-.014.54-.012.268,0,.535.021.8.048.048.47.051.952.068,1.4.016.412.2,1.466-.456,1.52-.593.049-.646-.808-.718-1.191C2128.786,1423.982,2128.714,1423.391,2128.662,1422.8Z" transform="translate(-2128.662 -1422.785)" fill="#7d4e24"/>
          </g>
        </g>
      </g>
      <g id="Group_12984" data-name="Group 12984" transform="translate(4.46 0.247)">
        <g id="Group_12983" data-name="Group 12983">
          <g id="Group_12982" data-name="Group 12982">
            <path id="Path_10568" data-name="Path 10568" d="M2100.077,1428.316a4.958,4.958,0,0,1-.215-2.323,9.064,9.064,0,0,1,1.159.361,9.3,9.3,0,0,1-.12,1.042,1.446,1.446,0,0,1-.454,1A.241.241,0,0,1,2100.077,1428.316Z" transform="translate(-2099.824 -1425.993)" fill="#7d4e24"/>
          </g>
        </g>
      </g>
    </g>
    <g id="Group_12989" data-name="Group 12989" transform="translate(51.795 13.197)">
      <g id="Group_12988" data-name="Group 12988">
        <g id="Group_12987" data-name="Group 12987">
          <g id="Group_12986" data-name="Group 12986">
            <path id="Path_10569" data-name="Path 10569" d="M2068.726,1428.359a1.734,1.734,0,0,0,.2-.482l.023-.112q-.059-.205.133-.23a1.606,1.606,0,0,1-.1.354l-.137.472a.182.182,0,0,1-.356-.048,4.436,4.436,0,0,0-.282-1.524l.332.043a1.8,1.8,0,0,0,.04,1.275.181.181,0,0,1-.35.1,2.133,2.133,0,0,1,0-1.554c.074-.153.282-.09.331.043a4.733,4.733,0,0,1,.294,1.621l-.356-.048c.067-.232.2-1.311.661-1.043.415.24.051,1.036-.113,1.32A.182.182,0,0,1,2068.726,1428.359Z" transform="translate(-2068.073 -1426.56)" fill="#f39200"/>
          </g>
        </g>
      </g>
    </g>
    <g id="Group_12993" data-name="Group 12993" transform="translate(42.804 12.481)">
      <g id="Group_12992" data-name="Group 12992" transform="translate(0)">
        <g id="Group_12991" data-name="Group 12991">
          <g id="Group_12990" data-name="Group 12990">
            <path id="Path_10570" data-name="Path 10570" d="M2182.8,1418.661a1.158,1.158,0,0,0,.07-1.124l.331-.043a5.064,5.064,0,0,0-.359,1.519c-.014.188-.324.264-.356.048a1.6,1.6,0,0,0-.292-.757l-.094-.068.117-.029c.033.03.046.184.07.232a.738.738,0,0,0,.364.331c.211.1.027.413-.183.313a1.064,1.064,0,0,1-.547-.581c-.069-.181-.134-.493.089-.6.2-.1.412.1.526.241a1.682,1.682,0,0,1,.3.823l-.356.048a5.386,5.386,0,0,1,.372-1.616.184.184,0,0,1,.331-.043,1.437,1.437,0,0,1-.032,1.4C2183.062,1418.97,2182.711,1418.877,2182.8,1418.661Z" transform="translate(-2181.854 -1417.268)" fill="#f39200"/>
          </g>
        </g>
      </g>
    </g>
    <g id="Group_12997" data-name="Group 12997" transform="translate(48.955 16.203)">
      <g id="Group_12996" data-name="Group 12996" transform="translate(0 0)">
        <g id="Group_12995" data-name="Group 12995">
          <g id="Group_12994" data-name="Group 12994">
            <path id="Path_10571" data-name="Path 10571" d="M2115.563,1465.836l-.122.38c-.071.222-.421.127-.35-.1l.122-.38C2115.283,1465.518,2115.634,1465.613,2115.563,1465.836Z" transform="translate(-2115.081 -1465.614)" fill="#e98600"/>
          </g>
        </g>
      </g>
    </g>
    <g id="Group_13001" data-name="Group 13001" transform="translate(47.683 16.334)">
      <g id="Group_13000" data-name="Group 13000" transform="translate(0 0)">
        <g id="Group_12999" data-name="Group 12999">
          <g id="Group_12998" data-name="Group 12998">
            <path id="Path_10572" data-name="Path 10572" d="M2133.321,1467.542a.8.8,0,0,0-.007.344c.045.228-.3.326-.35.1a1.259,1.259,0,0,1,.007-.537C2133.023,1467.219,2133.373,1467.314,2133.321,1467.542Z" transform="translate(-2132.939 -1467.316)" fill="#e98600"/>
          </g>
        </g>
      </g>
    </g>
    <g id="Group_13005" data-name="Group 13005" transform="translate(46.447 15.89)">
      <g id="Group_13004" data-name="Group 13004">
        <g id="Group_13003" data-name="Group 13003">
          <g id="Group_13002" data-name="Group 13002">
            <path id="Path_10573" data-name="Path 10573" d="M2149.058,1461.679c.018.132.037.263.056.395.033.228-.317.327-.349.1l-.056-.395C2148.675,1461.547,2149.025,1461.448,2149.058,1461.679Z" transform="translate(-2148.706 -1461.547)" fill="#e98600"/>
          </g>
        </g>
      </g>
    </g>
    <g id="Group_13009" data-name="Group 13009" transform="translate(45.984 16.679)">
      <g id="Group_13008" data-name="Group 13008" transform="translate(0)">
        <g id="Group_13007" data-name="Group 13007">
          <g id="Group_13006" data-name="Group 13006">
            <path id="Path_10574" data-name="Path 10574" d="M2153.254,1471.881a1.356,1.356,0,0,1,.205.6c.026.232-.337.23-.363,0a.947.947,0,0,0-.156-.417C2152.814,1471.867,2153.128,1471.685,2153.254,1471.881Z" transform="translate(-2152.911 -1471.797)" fill="#e98600"/>
          </g>
        </g>
      </g>
    </g>
    <g id="Group_13013" data-name="Group 13013" transform="translate(48.225 17.446)">
      <g id="Group_13012" data-name="Group 13012">
        <g id="Group_13011" data-name="Group 13011">
          <g id="Group_13010" data-name="Group 13010">
            <path id="Path_10575" data-name="Path 10575" d="M2126.3,1481.942c-.008.1-.015.193-.022.289-.018.231-.381.233-.362,0,.008-.1.015-.193.022-.289C2125.954,1481.71,2126.317,1481.709,2126.3,1481.942Z" transform="translate(-2125.913 -1481.768)" fill="#e98600"/>
          </g>
        </g>
      </g>
    </g>
    <g id="Group_13017" data-name="Group 13017" transform="translate(47.158 17.555)">
      <g id="Group_13016" data-name="Group 13016">
        <g id="Group_13015" data-name="Group 13015">
          <g id="Group_13014" data-name="Group 13014">
            <path id="Path_10576" data-name="Path 10576" d="M2139.922,1483.4a.277.277,0,0,0,.016.2c.085.218-.266.312-.35.1a.6.6,0,0,1-.016-.391A.181.181,0,0,1,2139.922,1483.4Z" transform="translate(-2139.548 -1483.18)" fill="#e98600"/>
          </g>
        </g>
      </g>
    </g>
    <g id="Group_13021" data-name="Group 13021" transform="translate(49.925 16.172)">
      <g id="Group_13020" data-name="Group 13020" transform="translate(0 0)">
        <g id="Group_13019" data-name="Group 13019">
          <g id="Group_13018" data-name="Group 13018">
            <path id="Path_10577" data-name="Path 10577" d="M2104.211,1465.389q-.011.145-.022.289c-.018.231-.381.233-.363,0,.007-.1.015-.193.023-.289C2103.866,1465.158,2104.229,1465.156,2104.211,1465.389Z" transform="translate(-2103.825 -1465.215)" fill="#e98600"/>
          </g>
        </g>
      </g>
    </g>
    <g id="Group_13025" data-name="Group 13025" transform="translate(49.677 17.511)">
      <g id="Group_13024" data-name="Group 13024">
        <g id="Group_13023" data-name="Group 13023">
          <g id="Group_13022" data-name="Group 13022">
            <path id="Path_10578" data-name="Path 10578" d="M2106.872,1482.841c-.023.1-.047.19-.071.286a.181.181,0,0,1-.35-.1l.071-.286A.181.181,0,0,1,2106.872,1482.841Z" transform="translate(-2106.445 -1482.615)" fill="#e98600"/>
          </g>
        </g>
      </g>
    </g>
    <g id="Group_13029" data-name="Group 13029" transform="translate(50.492 9.574)">
      <g id="Group_13028" data-name="Group 13028" transform="translate(0 0)">
        <g id="Group_13027" data-name="Group 13027">
          <g id="Group_13026" data-name="Group 13026">
            <path id="Path_10579" data-name="Path 10579" d="M2095.875,1380.541q.034-.434.068-.868c.018-.231.381-.233.363,0q-.034.434-.068.868C2096.22,1380.772,2095.857,1380.774,2095.875,1380.541Z" transform="translate(-2095.874 -1379.499)" fill="#e98600"/>
          </g>
        </g>
      </g>
    </g>
    <g id="Group_13033" data-name="Group 13033" transform="translate(49.933 10.638)">
      <g id="Group_13032" data-name="Group 13032">
        <g id="Group_13031" data-name="Group 13031">
          <g id="Group_13030" data-name="Group 13030">
            <path id="Path_10580" data-name="Path 10580" d="M2102.8,1394.378q-.056-.413-.113-.826c-.031-.229.319-.327.35-.1q.056.413.113.826C2103.185,1394.51,2102.835,1394.609,2102.8,1394.378Z" transform="translate(-2102.689 -1393.324)" fill="#e98600"/>
          </g>
        </g>
      </g>
    </g>
    <g id="Group_13037" data-name="Group 13037" transform="translate(49.677 11.729)">
      <g id="Group_13036" data-name="Group 13036" transform="translate(0 0)">
        <g id="Group_13035" data-name="Group 13035">
          <g id="Group_13034" data-name="Group 13034">
            <path id="Path_10581" data-name="Path 10581" d="M2104.537,1408.466a4.289,4.289,0,0,1-.23-.745c-.048-.228.3-.325.35-.1a4.252,4.252,0,0,0,.23.745C2104.976,1408.585,2104.625,1408.679,2104.537,1408.466Z" transform="translate(-2104.303 -1407.494)" fill="#e98600"/>
          </g>
        </g>
      </g>
    </g>
    <g id="Group_13041" data-name="Group 13041" transform="translate(45.536 11.712)">
      <g id="Group_13040" data-name="Group 13040" transform="translate(0 0)">
        <g id="Group_13039" data-name="Group 13039">
          <g id="Group_13038" data-name="Group 13038">
            <path id="Path_10582" data-name="Path 10582" d="M2159.795,1407.49l-.141.522a.181.181,0,0,1-.349-.1q.07-.261.141-.522A.181.181,0,0,1,2159.795,1407.49Z" transform="translate(-2159.297 -1407.265)" fill="#e98600"/>
          </g>
        </g>
      </g>
    </g>
    <g id="Group_13045" data-name="Group 13045" transform="translate(45.108 11.044)">
      <g id="Group_13044" data-name="Group 13044" transform="translate(0 0)">
        <g id="Group_13043" data-name="Group 13043">
          <g id="Group_13042" data-name="Group 13042">
            <path id="Path_10583" data-name="Path 10583" d="M2166.468,1398.775q-.025.314-.049.627c-.018.231-.381.233-.363,0q.025-.313.049-.627C2166.124,1398.543,2166.486,1398.542,2166.468,1398.775Z" transform="translate(-2166.056 -1398.601)" fill="#e98600"/>
          </g>
        </g>
      </g>
    </g>
    <g id="Group_13049" data-name="Group 13049" transform="translate(44.598 9.746)">
      <g id="Group_13048" data-name="Group 13048" transform="translate(0)">
        <g id="Group_13047" data-name="Group 13047">
          <g id="Group_13046" data-name="Group 13046">
            <path id="Path_10584" data-name="Path 10584" d="M2172.744,1381.9q-.039.506-.079,1.012c-.017.231-.38.233-.362,0q.04-.506.079-1.012C2172.4,1381.671,2172.762,1381.669,2172.744,1381.9Z" transform="translate(-2172.302 -1381.728)" fill="#e98600"/>
          </g>
        </g>
      </g>
    </g>
    <g id="Group_13053" data-name="Group 13053" transform="translate(38.639 18.277)">
      <g id="Group_13052" data-name="Group 13052" transform="translate(0 0)">
        <g id="Group_13051" data-name="Group 13051">
          <g id="Group_13050" data-name="Group 13050">
            <path id="Path_10585" data-name="Path 10585" d="M2236.519,1493.371l-1.22-.454c-.217-.081-.123-.431.1-.35l1.22.454C2236.832,1493.1,2236.738,1493.453,2236.519,1493.371Z" transform="translate(-2235.176 -1492.555)"/>
          </g>
        </g>
      </g>
    </g>
    <g id="Group_13057" data-name="Group 13057" transform="translate(38.144 19.602)">
      <g id="Group_13056" data-name="Group 13056" transform="translate(0 0)">
        <g id="Group_13055" data-name="Group 13055">
          <g id="Group_13054" data-name="Group 13054">
            <path id="Path_10586" data-name="Path 10586" d="M2238.434,1510.237a13.279,13.279,0,0,1-1.594-.1c-.229-.028-.232-.391,0-.363a13.2,13.2,0,0,0,1.594.1A.181.181,0,0,1,2238.434,1510.237Z" transform="translate(-2236.667 -1509.775)"/>
          </g>
        </g>
      </g>
    </g>
    <g id="Group_13061" data-name="Group 13061" transform="translate(38.086 20.745)">
      <g id="Group_13060" data-name="Group 13060" transform="translate(0 0)">
        <g id="Group_13059" data-name="Group 13059">
          <g id="Group_13058" data-name="Group 13058">
            <path id="Path_10587" data-name="Path 10587" d="M2241.773,1524.972a12.693,12.693,0,0,1-1.427.227c-.232.023-.23-.34,0-.363a11.809,11.809,0,0,0,1.331-.214C2241.9,1524.573,2242,1524.922,2241.773,1524.972Z" transform="translate(-2240.172 -1524.617)"/>
          </g>
        </g>
      </g>
    </g>
    <g id="Group_13065" data-name="Group 13065" transform="translate(55.062 19.053)">
      <g id="Group_13064" data-name="Group 13064">
        <g id="Group_13063" data-name="Group 13063">
          <g id="Group_13062" data-name="Group 13062">
            <path id="Path_10588" data-name="Path 10588" d="M2018.814,1502.972a6.142,6.142,0,0,1-1.614.5c-.228.037-.327-.313-.1-.35a5.8,5.8,0,0,0,1.527-.462C2018.842,1502.561,2019.026,1502.874,2018.814,1502.972Z" transform="translate(-2016.973 -1502.64)"/>
          </g>
        </g>
      </g>
    </g>
    <g id="Group_13069" data-name="Group 13069" transform="translate(55.096 20.532)">
      <g id="Group_13068" data-name="Group 13068">
        <g id="Group_13067" data-name="Group 13067">
          <g id="Group_13066" data-name="Group 13066">
            <path id="Path_10589" data-name="Path 10589" d="M2012.955,1522.224a9.758,9.758,0,0,1-2.034.013c-.23-.022-.232-.385,0-.363a9.708,9.708,0,0,0,2.034-.013C2013.187,1521.836,2013.185,1522.2,2012.955,1522.224Z" transform="translate(-2010.748 -1521.86)"/>
          </g>
        </g>
      </g>
    </g>
    <g id="Group_13073" data-name="Group 13073" transform="translate(55.056 21.562)">
      <g id="Group_13072" data-name="Group 13072" transform="translate(0 0)">
        <g id="Group_13071" data-name="Group 13071">
          <g id="Group_13070" data-name="Group 13070">
            <path id="Path_10590" data-name="Path 10590" d="M2017.841,1536.177a7.454,7.454,0,0,1-1.693-.6c-.209-.1-.026-.416.183-.313a7.08,7.08,0,0,0,1.607.563C2018.165,1535.878,2018.068,1536.228,2017.841,1536.177Z" transform="translate(-2016.055 -1535.244)"/>
          </g>
        </g>
      </g>
    </g>
    <g id="Group_13076" data-name="Group 13076" transform="translate(40.19 22.694)">
      <g id="Group_13075" data-name="Group 13075">
        <g id="Group_13074" data-name="Group 13074">
          <path id="Path_10591" data-name="Path 10591" d="M2070.7,1549.935a32.317,32.317,0,0,0,10.7,2.118,4.4,4.4,0,0,1,1.528.2c.481.188.387.642.406,1.158a2.558,2.558,0,0,0-1.708,1.9,13.355,13.355,0,0,0-.261,2.662,10.174,10.174,0,0,1-.787,3.835c-.755,1.5-6.348,6.825-6.589,3.735-.087-1.12,1.253-4.6,1.222-5.716a6.345,6.345,0,0,0-1.345-3.4c-.716-1.009-1.566-1.922-2.224-2.971A5.335,5.335,0,0,1,2070.7,1549.935Z" transform="translate(-2070.665 -1549.935)" fill="#f9d2a5"/>
        </g>
      </g>
    </g>
    <g id="Group_13091" data-name="Group 13091" transform="translate(16.031 19.403)">
      <g id="Group_13078" data-name="Group 13078" transform="translate(6.431)">
        <g id="Group_13077" data-name="Group 13077">
          <path id="Path_10592" data-name="Path 10592" d="M2436,1513.876c.229-2.3-.6-4.29-1.128-6.374a12.6,12.6,0,0,1,2.336-.311,19.775,19.775,0,0,1-.681,6.756C2436.442,1514.222,2435.969,1514.19,2436,1513.876Z" transform="translate(-2434.872 -1507.192)" fill="#7d4e24"/>
        </g>
      </g>
      <g id="Group_13080" data-name="Group 13080" transform="translate(0 3.792)">
        <g id="Group_13079" data-name="Group 13079">
          <path id="Path_10593" data-name="Path 10593" d="M2528.033,1556.461a18.621,18.621,0,0,1,1.1,2.927c.1.335-.4.463-.517.143a13.845,13.845,0,0,0-1.14-2.39Q2527.741,1556.789,2528.033,1556.461Z" transform="translate(-2527.478 -1556.461)" fill="#7d4e24"/>
        </g>
      </g>
      <g id="Group_13082" data-name="Group 13082" transform="translate(2.196 1.429)">
        <g id="Group_13081" data-name="Group 13081">
          <path id="Path_10594" data-name="Path 10594" d="M2494.637,1525.754a18.367,18.367,0,0,1,.8,4.526c.026.3-.478.37-.526.071a7.927,7.927,0,0,0-.573-1.9.255.255,0,0,1-.065-.117c-.007-.026-.016-.051-.023-.077a14.941,14.941,0,0,0-.913-1.655A11.265,11.265,0,0,1,2494.637,1525.754Z" transform="translate(-2493.342 -1525.754)" fill="#7d4e24"/>
        </g>
      </g>
      <g id="Group_13084" data-name="Group 13084" transform="translate(10.637 0.056)">
        <g id="Group_13083" data-name="Group 13083">
          <path id="Path_10595" data-name="Path 10595" d="M2384.4,1507.92a14.351,14.351,0,0,1,1.75.281,11.151,11.151,0,0,1,.252,3.535c-.076.844-.259,3.526-1.164,3.951-1,.468-.418-2.118-.4-2.617a28.733,28.733,0,0,0-.1-3.788A12.5,12.5,0,0,0,2384.4,1507.92Z" transform="translate(-2384.398 -1507.92)" fill="#7d4e24"/>
        </g>
      </g>
      <g id="Group_13086" data-name="Group 13086" transform="translate(14.304 1.222)">
        <g id="Group_13085" data-name="Group 13085">
          <path id="Path_10596" data-name="Path 10596" d="M2333.68,1523.726c.114.1.226.212.335.322a20.319,20.319,0,0,1-1.945,4.2.269.269,0,0,1-.49-.206,20.733,20.733,0,0,0,.766-4.973c.258.113.513.231.764.358C2333.3,1523.522,2333.491,1523.623,2333.68,1523.726Z" transform="translate(-2331.569 -1523.067)" fill="#7d4e24"/>
        </g>
      </g>
      <g id="Group_13088" data-name="Group 13088" transform="translate(17.895 2.656)">
        <g id="Group_13087" data-name="Group 13087">
          <path id="Path_10597" data-name="Path 10597" d="M2281.652,1541.7a6.775,6.775,0,0,0,1.823.613c.05.008.1.012.151.019a19.37,19.37,0,0,0,.709,4.058c.087.292-.232.365-.49.207C2282.349,1545.682,2281.923,1543.448,2281.652,1541.7Z" transform="translate(-2281.652 -1541.702)" fill="#7d4e24"/>
        </g>
      </g>
      <g id="Group_13090" data-name="Group 13090" transform="translate(19.915 2.869)">
        <g id="Group_13089" data-name="Group 13089">
          <path id="Path_10598" data-name="Path 10598" d="M2216.2,1544.508c.026-.014.045-.031.07-.045a6.9,6.9,0,0,0,2.9,3.2c.446.26,1.273.764.56,1.259-.836.58-2.385-.538-2.99-1a9.9,9.9,0,0,1-2.606-3.035A3.619,3.619,0,0,0,2216.2,1544.508Z" transform="translate(-2214.137 -1544.463)" fill="#7d4e24"/>
        </g>
      </g>
    </g>
    <g id="Group_13096" data-name="Group 13096" transform="translate(41.769 16.714)">
      <g id="Group_13093" data-name="Group 13093" transform="translate(0.153 0.153)">
        <g id="Group_13092" data-name="Group 13092">
          <path id="Path_10599" data-name="Path 10599" d="M2168.9,1474.744a1.709,1.709,0,0,1,2.416,0,1.709,1.709,0,0,1,0,2.416,1.709,1.709,0,0,1-2.416,0,1.707,1.707,0,0,1,0-2.416Z" transform="translate(-2168.396 -1474.244)" fill="#fff"/>
        </g>
      </g>
      <g id="Group_13095" data-name="Group 13095">
        <g id="Group_13094" data-name="Group 13094">
          <path id="Path_10600" data-name="Path 10600" d="M2168.271,1475.976a1.93,1.93,0,0,0,1.312-.541,1.862,1.862,0,0,0,0-2.637,1.861,1.861,0,0,0-2.628,0,1.861,1.861,0,0,0,0,2.637A1.93,1.93,0,0,0,2168.271,1475.976Zm0-3.417a1.611,1.611,0,0,1,1.1.455,1.584,1.584,0,0,1,.455,1.093,1.606,1.606,0,0,1-.451,1.1,1.556,1.556,0,0,1-2.2,0,1.584,1.584,0,0,1-.456-1.093,1.607,1.607,0,0,1,.45-1.1A1.627,1.627,0,0,1,2168.271,1472.56Z" transform="translate(-2166.408 -1472.253)" fill="#1d1d1b"/>
        </g>
      </g>
    </g>
    <g id="Group_13099" data-name="Group 13099" transform="translate(42.483 17.427)">
      <g id="Group_13098" data-name="Group 13098" transform="translate(0 0)">
        <g id="Group_13097" data-name="Group 13097">
          <path id="Path_10601" data-name="Path 10601" d="M2176.822,1481.518a1.148,1.148,0,1,1-1.149,1.148A1.162,1.162,0,0,1,2176.822,1481.518Z" transform="translate(-2175.672 -1481.518)"/>
        </g>
      </g>
    </g>
    <g id="Group_13102" data-name="Group 13102" transform="translate(43.731 17.355)">
      <g id="Group_13101" data-name="Group 13101" transform="translate(0 0)">
        <g id="Group_13100" data-name="Group 13100">
          <path id="Path_10602" data-name="Path 10602" d="M2179.569,1480.619a.345.345,0,0,1,.036.021.169.169,0,0,1,.087.054.389.389,0,0,1,.055.087.334.334,0,0,1,.018.039c0,.006.009.01.013.016a.159.159,0,0,1,.02.157.363.363,0,0,1-.053.17.394.394,0,0,1-.054.069.349.349,0,0,1-.534.078C2178.825,1481.026,2179.14,1480.412,2179.569,1480.619Z" transform="translate(-2179.018 -1480.577)" fill="#fff"/>
        </g>
      </g>
    </g>
    <g id="Group_13107" data-name="Group 13107" transform="translate(50.486 16.829)">
      <g id="Group_13104" data-name="Group 13104" transform="translate(0.153 0.153)">
        <g id="Group_13103" data-name="Group 13103">
          <path id="Path_10603" data-name="Path 10603" d="M2055.664,1476.242a1.708,1.708,0,0,1,2.416,0,1.708,1.708,0,0,1,0,2.416,1.707,1.707,0,0,1-2.416,0,1.708,1.708,0,0,1,0-2.416Z" transform="translate(-2055.162 -1475.742)" fill="#fff"/>
        </g>
      </g>
      <g id="Group_13106" data-name="Group 13106" transform="translate(0 0)">
        <g id="Group_13105" data-name="Group 13105">
          <path id="Path_10604" data-name="Path 10604" d="M2055.032,1477.474a1.929,1.929,0,0,0,1.312-.54,1.862,1.862,0,0,0,0-2.637,1.862,1.862,0,0,0-2.628,0,1.862,1.862,0,0,0,0,2.637A1.924,1.924,0,0,0,2055.032,1477.474Zm0-3.416a1.612,1.612,0,0,1,1.1.456,1.58,1.58,0,0,1,.455,1.092,1.6,1.6,0,0,1-.451,1.1,1.627,1.627,0,0,1-1.1.46,1.609,1.609,0,0,1-1.1-.456,1.584,1.584,0,0,1-.456-1.093,1.6,1.6,0,0,1,.451-1.1A1.628,1.628,0,0,1,2055.032,1474.057Z" transform="translate(-2053.169 -1473.751)" fill="#1d1d1b"/>
        </g>
      </g>
    </g>
    <g id="Group_13110" data-name="Group 13110" transform="translate(51.199 17.542)">
      <g id="Group_13109" data-name="Group 13109">
        <g id="Group_13108" data-name="Group 13108">
          <path id="Path_10605" data-name="Path 10605" d="M2063.588,1483.015a1.149,1.149,0,1,1-1.149,1.149A1.161,1.161,0,0,1,2063.588,1483.015Z" transform="translate(-2062.438 -1483.015)"/>
        </g>
      </g>
    </g>
    <g id="Group_13113" data-name="Group 13113" transform="translate(52.448 17.47)">
      <g id="Group_13112" data-name="Group 13112" transform="translate(0 0)">
        <g id="Group_13111" data-name="Group 13111">
          <path id="Path_10606" data-name="Path 10606" d="M2066.331,1482.117a.34.34,0,0,1,.036.022.165.165,0,0,1,.086.054.414.414,0,0,1,.056.087c.007.013.012.026.018.04a.191.191,0,0,1,.013.016.157.157,0,0,1,.02.157.363.363,0,0,1-.053.17.373.373,0,0,1-.055.069.349.349,0,0,1-.534.078C2065.587,1482.524,2065.9,1481.911,2066.331,1482.117Z" transform="translate(-2065.78 -1482.075)" fill="#fff"/>
        </g>
      </g>
    </g>
    <g id="Group_13115" data-name="Group 13115" transform="translate(14.874 25.495)">
      <g id="Group_13114" data-name="Group 13114">
        <path id="Path_10607" data-name="Path 10607" d="M2404.132,1597.859c-.52,1.643-2.352,3.581-2.833,5.239a6.109,6.109,0,0,0,.4,5.007,23.18,23.18,0,0,1,1.525,2.419c.33.7.04,1.152-.636,1.367a1.318,1.318,0,0,1-.8-.069,9.271,9.271,0,0,1-4.381-3.434,40.781,40.781,0,0,1-5.87-14.469,8.586,8.586,0,0,1,.739-4.867,5.23,5.23,0,0,1,4.976-2.7,6.6,6.6,0,0,1,3.5,1.524c.661.518,2.5.359,2.988,1.1C2405.189,1591.214,2404.9,1595.422,2404.132,1597.859Z" transform="translate(-2391.472 -1586.332)" fill="#f5b054"/>
      </g>
    </g>
    <g id="Group_13117" data-name="Group 13117" transform="translate(40.057 29.48)">
      <g id="Group_13116" data-name="Group 13116">
        <path id="Path_10608" data-name="Path 10608" d="M2152.659,1651.07a12.819,12.819,0,0,0,1.092,6.205c.2.417.425.952.123,1.3-.342.4-.994.154-1.42-.153a11.566,11.566,0,0,1-4-5.94,34.4,34.4,0,0,1-1.23-7.167c-.146-1.468-.388-5.861.844-6.674,2.2-1.451,3.5-.115,4.983,5.667C2153.6,1646.479,2152.761,1648.911,2152.659,1651.07Z" transform="translate(-2147.098 -1638.105)" fill="#f5b054"/>
      </g>
    </g>
    <g id="Group_13119" data-name="Group 13119" transform="translate(24.889 28.034)">
      <g id="Group_13118" data-name="Group 13118" transform="translate(0)">
        <path id="Path_10609" data-name="Path 10609" d="M2384.845,1632.56c1.365-1.974,2.8-3.828,3.187-6.264a9.734,9.734,0,0,0-1.364-6.655c-.149-.244.234-.467.383-.223a10.183,10.183,0,0,1,1.47,6.64c-.333,2.636-1.819,4.594-3.293,6.726C2385.066,1633.017,2384.682,1632.8,2384.845,1632.56Z" transform="translate(-2384.805 -1619.312)"/>
      </g>
    </g>
    <g id="Group_13121" data-name="Group 13121" transform="translate(38.269 31.644)">
      <g id="Group_13120" data-name="Group 13120" transform="translate(0)">
        <path id="Path_10610" data-name="Path 10610" d="M2228.416,1666.329a22.149,22.149,0,0,1,2.078,8.254c.015.285-.428.284-.444,0a21.465,21.465,0,0,0-2.017-8.03C2227.912,1666.3,2228.295,1666.071,2228.416,1666.329Z" transform="translate(-2228.01 -1666.215)"/>
      </g>
    </g>
    <g id="Group_13123" data-name="Group 13123" transform="translate(25.593 49.12)">
      <g id="Group_13122" data-name="Group 13122">
        <path id="Path_10611" data-name="Path 10611" d="M2409.839,1893.31a2.484,2.484,0,0,1,.8,1.319c.065.277-.362.4-.428.118a2.087,2.087,0,0,0-.685-1.123C2409.309,1893.437,2409.623,1893.125,2409.839,1893.31Z" transform="translate(-2409.452 -1893.254)"/>
      </g>
    </g>
    <g id="Group_13125" data-name="Group 13125" transform="translate(24.722 49.552)">
      <g id="Group_13124" data-name="Group 13124">
        <path id="Path_10612" data-name="Path 10612" d="M2419.14,1898.886a1.9,1.9,0,0,1,1,1.275c.064.277-.363.4-.427.118a1.478,1.478,0,0,0-.8-1.01C2418.661,1899.141,2418.885,1898.759,2419.14,1898.886Z" transform="translate(-2418.804 -1898.86)"/>
      </g>
    </g>
    <g id="Group_13127" data-name="Group 13127" transform="translate(46.014 48.375)">
      <g id="Group_13126" data-name="Group 13126">
        <path id="Path_10613" data-name="Path 10613" d="M2146.4,1883.646a3.615,3.615,0,0,1,.676,1.34.222.222,0,0,1-.427.118,3.082,3.082,0,0,0-.562-1.144C2145.91,1883.738,2146.221,1883.422,2146.4,1883.646Z" transform="translate(-2146.033 -1883.57)"/>
      </g>
    </g>
    <g id="Group_13129" data-name="Group 13129" transform="translate(45.49 48.807)">
      <g id="Group_13128" data-name="Group 13128">
        <path id="Path_10614" data-name="Path 10614" d="M2152.965,1889.243a2.6,2.6,0,0,1,.676,1.091c.087.272-.34.389-.427.118a2.137,2.137,0,0,0-.562-.9C2152.446,1889.358,2152.76,1889.045,2152.965,1889.243Z" transform="translate(-2152.584 -1889.18)"/>
      </g>
    </g>
    <g id="Group_13131" data-name="Group 13131" transform="translate(9.04 48.625)">
      <g id="Group_13130" data-name="Group 13130" transform="translate(0)">
        <path id="Path_10615" data-name="Path 10615" d="M2627.278,1888.2a2.286,2.286,0,0,0,.486-1.169c.032-.281.475-.284.443,0a2.833,2.833,0,0,1-.615,1.482C2627.413,1888.732,2627.1,1888.417,2627.278,1888.2Z" transform="translate(-2627.225 -1886.816)" fill="#1d1d1b"/>
      </g>
    </g>
    <g id="Group_13133" data-name="Group 13133" transform="translate(8.23 48.442)">
      <g id="Group_13132" data-name="Group 13132">
        <path id="Path_10616" data-name="Path 10616" d="M2639.1,1885.9a1.679,1.679,0,0,0,.377-1.254c-.026-.284.418-.282.443,0a2.12,2.12,0,0,1-.507,1.567C2639.228,1886.432,2638.916,1886.117,2639.1,1885.9Z" transform="translate(-2639.043 -1884.434)" fill="#1d1d1b"/>
      </g>
    </g>
    <g id="Group_13135" data-name="Group 13135" transform="translate(38.525 44.796)">
      <g id="Group_13134" data-name="Group 13134" transform="translate(0)">
        <path id="Path_10617" data-name="Path 10617" d="M2232.719,1837.534a1.244,1.244,0,0,0,1.024-.389c.2-.206.511.107.313.313a1.688,1.688,0,0,1-.673.43,2.238,2.238,0,0,0,.735-.128c.27-.095.385.333.118.427a2.629,2.629,0,0,1-1.4.093.2.2,0,0,1-.127-.306C2232.438,1837.946,2232.438,1837.514,2232.719,1837.534Z" transform="translate(-2232.507 -1837.078)" fill="#1d1d1b"/>
      </g>
    </g>
    <g id="Group_13156" data-name="Group 13156" transform="translate(3.598 3.272)">
      <g id="Group_13137" data-name="Group 13137" transform="translate(3.947 12.731)">
        <g id="Group_13136" data-name="Group 13136">
          <path id="Path_10618" data-name="Path 10618" d="M2613.774,1463.02c.155.474.316.912.484,1.32a17.827,17.827,0,0,1-2.122,1.131c-.345.175-.7.34-1.051.5-.21-.52-.41-1.045-.594-1.576C2611.584,1463.975,2612.678,1463.507,2613.774,1463.02Z" transform="translate(-2610.492 -1463.02)" fill="#7d4e24"/>
        </g>
      </g>
      <g id="Group_13139" data-name="Group 13139" transform="translate(5.753 16.271)">
        <g id="Group_13138" data-name="Group 13138">
          <path id="Path_10619" data-name="Path 10619" d="M2582.3,1512.506a15.94,15.94,0,0,1-1-1.545q1.563-.948,3.107-1.953a12.954,12.954,0,0,0,1.1,1.464A30.287,30.287,0,0,1,2582.3,1512.506Z" transform="translate(-2581.3 -1509.008)" fill="#7d4e24"/>
        </g>
      </g>
      <g id="Group_13141" data-name="Group 13141" transform="translate(0 2.151)">
        <g id="Group_13140" data-name="Group 13140">
          <path id="Path_10620" data-name="Path 10620" d="M2688.448,1326.359a8.017,8.017,0,0,1,1.391-.766.225.225,0,0,1,.314.265,4.08,4.08,0,0,1-.933,1.8.177.177,0,0,1-.021.023l-.023.023c-.073-.129-.151-.254-.232-.377q-.13-.268-.265-.531c.024-.037.049-.073.074-.109-.033.022-.064.045-.1.068Q2688.555,1326.554,2688.448,1326.359Z" transform="translate(-2688.448 -1325.573)" fill="#7d4e24"/>
        </g>
      </g>
      <g id="Group_13143" data-name="Group 13143" transform="translate(5.534 10.867)">
        <g id="Group_13142" data-name="Group 13142">
          <path id="Path_10621" data-name="Path 10621" d="M2620.367,1440.229c-.026.008-.051.018-.077.026a.229.229,0,0,1-.182-.021,1.322,1.322,0,0,1-.617-.213.226.226,0,0,1-.042-.311,2.928,2.928,0,0,1,1.085-.9c.117.377.228.745.331,1.1.011.039.023.076.034.115l-.044.018A1.213,1.213,0,0,1,2620.367,1440.229Z" transform="translate(-2619.407 -1438.812)" fill="#7d4e24"/>
        </g>
      </g>
      <g id="Group_13145" data-name="Group 13145" transform="translate(6.888 15.049)">
        <g id="Group_13144" data-name="Group 13144">
          <path id="Path_10622" data-name="Path 10622" d="M2600.1,1494.34a.221.221,0,0,1-.282,0c-.1.053-.189.109-.288.159a.212.212,0,0,1-.273-.067c-.04.014-.079.029-.119.042a.223.223,0,0,1-.2-.379l1.206-.957c.143.287.291.556.443.813Z" transform="translate(-2598.872 -1493.138)" fill="#7d4e24"/>
        </g>
      </g>
      <g id="Group_13147" data-name="Group 13147" transform="translate(2.179 6.616)">
        <g id="Group_13146" data-name="Group 13146">
          <path id="Path_10623" data-name="Path 10623" d="M2642.162,1383.582q.183.451.356.9a16.868,16.868,0,0,1-3.055,1.693c-.089-.3-.178-.594-.27-.889Z" transform="translate(-2639.194 -1383.582)" fill="#7d4e24"/>
        </g>
      </g>
      <g id="Group_13149" data-name="Group 13149" transform="translate(1.707 6.04)">
        <g id="Group_13148" data-name="Group 13148">
          <path id="Path_10624" data-name="Path 10624" d="M2665.88,1376.1a.224.224,0,0,1,.241.3,3.514,3.514,0,0,1-1.125,1.508,4.128,4.128,0,0,1-.312.288q-.2-.629-.414-1.256A3.024,3.024,0,0,1,2665.88,1376.1Z" transform="translate(-2664.27 -1376.098)" fill="#7d4e24"/>
        </g>
      </g>
      <g id="Group_13151" data-name="Group 13151" transform="translate(0.742 2.627)">
        <g id="Group_13150" data-name="Group 13150">
          <path id="Path_10625" data-name="Path 10625" d="M2656.713,1333.237l1.874-1.473c.33.6.644,1.212.94,1.837a9.514,9.514,0,0,1-1.9,1.047c-.3.163-.614.313-.926.463q-.3-.783-.638-1.545C2656.285,1333.461,2656.5,1333.352,2656.713,1333.237Z" transform="translate(-2656.065 -1331.764)" fill="#7d4e24"/>
        </g>
      </g>
      <g id="Group_13153" data-name="Group 13153" transform="translate(2.622 8.44)">
        <g id="Group_13152" data-name="Group 13152">
          <path id="Path_10626" data-name="Path 10626" d="M2629.9,1407.275c.224.62.43,1.227.62,1.815a24.389,24.389,0,0,1-3.369,1.156q-.239-.808-.476-1.618Q2628.272,1407.917,2629.9,1407.275Z" transform="translate(-2626.671 -1407.275)" fill="#7d4e24"/>
        </g>
      </g>
      <g id="Group_13155" data-name="Group 13155" transform="translate(0.443 0)">
        <g id="Group_13154" data-name="Group 13154">
          <path id="Path_10627" data-name="Path 10627" d="M2684.38,1299.013a.216.216,0,0,1-.108.037l-.192.214a.229.229,0,0,1-.2.076l-.035.043c-.179.22-.531-.026-.361-.257l.417-.569a.216.216,0,0,1,.068-.211c.127-.122.247-.248.364-.376l.25-.34q.261.349.511.717A3.688,3.688,0,0,1,2684.38,1299.013Z" transform="translate(-2683.44 -1297.631)" fill="#7d4e24"/>
        </g>
      </g>
    </g>
  </g>
</svg>
