<svg xmlns="http://www.w3.org/2000/svg" width="50.935" height="70.596" viewBox="0 0 50.935 70.596">
  <g id="Group_14164" data-name="Group 14164" transform="translate(6519 -2992.68)">
    <g id="Group_14116" data-name="Group 14116" transform="translate(-6514.375 3017.828)">
      <g id="Group_11411" data-name="Group 11411" transform="translate(3.802 9.895)">
        <g id="Group_11410" data-name="Group 11410">
          <path id="Path_9919" data-name="Path 9919" d="M166.367,898.513a10.6,10.6,0,0,0-6.745-8.348,13.642,13.642,0,0,0-10.925.784,13.709,13.709,0,0,1-3.847,1.679,3.615,3.615,0,0,1-2.246-.353,4.7,4.7,0,0,1-.867-.73c-.043-.038-.079-.068-.113-.1-.417.425-.846.832-1.288,1.214a7.773,7.773,0,0,1-5.3,2.761c-.258.051-.52.1-.788.127a18.742,18.742,0,0,1-4.264.2.3.3,0,0,1-.117.017c-.162-.011-.323-.029-.484-.046a4.835,4.835,0,0,1-2.293-.258,3.928,3.928,0,0,0,.467,1.9c.9,2.385.216,5.044.348,7.591a4.592,4.592,0,0,0,.96,2.877c.949,1.055,2.51,1.241,3.926,1.334,8.278.545,16.586.265,24.878-.016a9.946,9.946,0,0,0,4.737-.952,7.6,7.6,0,0,0,2.892-3.611A11.792,11.792,0,0,0,166.367,898.513Z" transform="translate(-127.069 -889.366)" fill="#f5b054"/>
        </g>
      </g>
      <g id="Group_11413" data-name="Group 11413" transform="translate(1.682 3.455)">
        <g id="Group_11412" data-name="Group 11412">
          <path id="Path_9920" data-name="Path 9920" d="M104.919,819.723c.12.642,8.876-1.386,9.075-1.6a7.625,7.625,0,0,0,.906-8.863,8.371,8.371,0,0,0-7.324-4.112,8.611,8.611,0,0,0-7.073,3.762,7.674,7.674,0,0,0-.136,7.9C101.434,818.633,104.7,818.573,104.919,819.723Z" transform="translate(-99.339 -805.144)" fill="#f9d2a5"/>
        </g>
      </g>
      <g id="Group_11415" data-name="Group 11415" transform="translate(3.16 0.264)">
        <g id="Group_11414" data-name="Group 11414">
          <path id="Path_9921" data-name="Path 9921" d="M122.528,768q-.228-1.7-.6-3.381a2.3,2.3,0,0,0-.282-.791.812.812,0,0,0-.7-.4c-.389.03-.643.41-.821.757a13.355,13.355,0,0,0-1.466,5.77A8.477,8.477,0,0,1,122.528,768Z" transform="translate(-118.659 -763.426)" fill="#f9d2a5"/>
        </g>
      </g>
      <g id="Group_11417" data-name="Group 11417" transform="translate(5.342 0.189)">
        <g id="Group_11416" data-name="Group 11416">
          <path id="Path_9922" data-name="Path 9922" d="M147.191,762.519a.883.883,0,0,1,.917.1,2.111,2.111,0,0,1,.595.759,13.694,13.694,0,0,1,1.135,3.441c-.4.194-.964.338-1.365.532A6.312,6.312,0,0,0,147.191,762.519Z" transform="translate(-147.191 -762.432)" fill="#f5b054"/>
        </g>
      </g>
      <g id="Group_11419" data-name="Group 11419" transform="translate(11.534 0.097)">
        <g id="Group_11418" data-name="Group 11418">
          <path id="Path_9923" data-name="Path 9923" d="M232.6,767.692a17.736,17.736,0,0,0-.963-5.493c-.158-.459-.46-1-.945-.966-.4.026-.646.431-.826.788l-1.706,3.4A12.662,12.662,0,0,1,232.6,767.692Z" transform="translate(-228.162 -761.232)" fill="#f9d2a5"/>
        </g>
      </g>
      <g id="Group_11421" data-name="Group 11421" transform="translate(11.033)">
        <g id="Group_11420" data-name="Group 11420">
          <path id="Path_9924" data-name="Path 9924" d="M223.675,760.341a3.372,3.372,0,0,0-.564.866l-1.492,2.905,1.327.245a10.161,10.161,0,0,1,.524-2.267,19.962,19.962,0,0,1,1.12-2.084C224.3,759.861,223.88,760.135,223.675,760.341Z" transform="translate(-221.619 -759.965)" fill="#f5b054"/>
        </g>
      </g>
      <g id="Group_11423" data-name="Group 11423" transform="translate(1.649 3.455)">
        <g id="Group_11422" data-name="Group 11422">
          <path id="Path_9925" data-name="Path 9925" d="M107.8,810.96a7.115,7.115,0,0,1,2.431,1.893,6.634,6.634,0,0,0,4.128,1.668,4.556,4.556,0,0,0,1.268-.122,7.671,7.671,0,0,0-1.12-5.142,8.371,8.371,0,0,0-7.324-4.112,8.611,8.611,0,0,0-7.073,3.762,7.633,7.633,0,0,0-.921,6.126,1.3,1.3,0,0,0,.782.145,3.834,3.834,0,0,0,2.116-.82c.929-.7,1.633-1.656,2.517-2.412A3.581,3.581,0,0,1,107.8,810.96Z" transform="translate(-98.912 -805.144)" fill="#f5b054"/>
        </g>
      </g>
      <g id="Group_11425" data-name="Group 11425" transform="translate(3.451 8.806)">
        <g id="Group_11424" data-name="Group 11424">
          <path id="Path_9926" data-name="Path 9926" d="M124.052,877a1.649,1.649,0,0,1-1.023-.374,1.578,1.578,0,0,1-.551-1.071.581.581,0,0,1,0-.1.187.187,0,0,1,.17-.189.158.158,0,0,1,.173.153v.053a.229.229,0,0,0,0,.043,1.275,1.275,0,0,0,.423.843,1.306,1.306,0,0,0,.9.3,1.279,1.279,0,0,0,.841-.428,1.253,1.253,0,0,0,.293-.89.188.188,0,0,1,.14-.213.153.153,0,0,1,.19.125.414.414,0,0,1,.009.047,1.594,1.594,0,0,1-.372,1.153,1.629,1.629,0,0,1-1.074.547C124.13,876.994,124.091,877,124.052,877Z" transform="translate(-122.475 -875.117)" fill="#1d1d1b"/>
        </g>
      </g>
      <g id="Group_11427" data-name="Group 11427" transform="translate(12.178 8.496)">
        <g id="Group_11426" data-name="Group 11426">
          <path id="Path_9927" data-name="Path 9927" d="M238.176,872.945a1.65,1.65,0,0,1-1.023-.374,1.578,1.578,0,0,1-.551-1.071.583.583,0,0,1,0-.1.186.186,0,0,1,.17-.189.166.166,0,0,1,.173.153l0,.054a.234.234,0,0,0,0,.041,1.276,1.276,0,0,0,.423.844,1.31,1.31,0,0,0,.9.3,1.278,1.278,0,0,0,.841-.428,1.251,1.251,0,0,0,.293-.89.187.187,0,0,1,.138-.214.155.155,0,0,1,.192.124c0,.021.008.035.009.049a1.594,1.594,0,0,1-.373,1.153,1.627,1.627,0,0,1-1.074.546C238.255,872.943,238.216,872.945,238.176,872.945Z" transform="translate(-236.599 -871.065)" fill="#1d1d1b"/>
        </g>
      </g>
      <g id="Group_11429" data-name="Group 11429" transform="translate(7.998 8.71)">
        <g id="Group_11428" data-name="Group 11428">
          <path id="Path_9928" data-name="Path 9928" d="M184.8,874.258a.347.347,0,0,0-.341-.324c-.369-.029-.725.16-1.081.117a6.492,6.492,0,0,0-.875-.177.518.518,0,0,0-.528.719,1.517,1.517,0,0,0,1.551.84,1.685,1.685,0,0,0,1.071-.5A.936.936,0,0,0,184.8,874.258Z" transform="translate(-181.932 -873.873)" fill="#1d1d1b"/>
        </g>
      </g>
      <g id="Group_11432" data-name="Group 11432" transform="translate(9.338 9.732)">
        <g id="Group_11431" data-name="Group 11431">
          <g id="Group_11430" data-name="Group 11430">
            <path id="Path_9929" data-name="Path 9929" d="M199.506,887.314a4.215,4.215,0,0,0-.051.87,2.3,2.3,0,0,0,.063.864.11.11,0,0,0,.2.011,2.178,2.178,0,0,0,.049-.834,4.47,4.47,0,0,0-.076-.925C199.669,887.2,199.524,887.228,199.506,887.314Z" transform="translate(-199.446 -887.237)" fill="#1d1d1b"/>
          </g>
        </g>
      </g>
      <g id="Group_11435" data-name="Group 11435" transform="translate(8.452 10.605)">
        <g id="Group_11434" data-name="Group 11434">
          <g id="Group_11433" data-name="Group 11433">
            <path id="Path_9930" data-name="Path 9930" d="M187.871,898.8c-.042,1.213,2.122,1.253,2.122-.018,0-.186-.287-.162-.287.022,0,.891-1.577.822-1.547-.027C188.165,898.594,187.877,898.618,187.871,898.8Z" transform="translate(-187.87 -898.652)" fill="#1d1d1b"/>
          </g>
        </g>
      </g>
      <g id="Group_11442" data-name="Group 11442" transform="translate(6.811 3.455)">
        <g id="Group_11437" data-name="Group 11437" transform="translate(4.174 0.111)">
          <g id="Group_11436" data-name="Group 11436">
            <path id="Path_9931" data-name="Path 9931" d="M221.4,806.6a6.388,6.388,0,0,0-.261.918c-.068.334-.256.862-.047,1.172a.257.257,0,0,0,.237.112c.485-.1.6-.775.765-1.175.106-.26.23-.524.349-.792A8.132,8.132,0,0,0,221.4,806.6Z" transform="translate(-220.996 -806.599)" fill="#7d4e24"/>
          </g>
        </g>
        <g id="Group_11439" data-name="Group 11439" transform="translate(2.205)">
          <g id="Group_11438" data-name="Group 11438">
            <path id="Path_9932" data-name="Path 9932" d="M196.689,805.157c-.177-.009-.355-.014-.536-.012-.267,0-.532.021-.8.048-.048.467-.05.946-.068,1.395-.016.41-.2,1.456.453,1.51.589.049.641-.8.713-1.183C196.565,806.334,196.637,805.747,196.689,805.157Z" transform="translate(-195.251 -805.145)" fill="#7d4e24"/>
          </g>
        </g>
        <g id="Group_11441" data-name="Group 11441" transform="translate(0 0.245)">
          <g id="Group_11440" data-name="Group 11440">
            <path id="Path_9933" data-name="Path 9933" d="M167.35,810.66a4.925,4.925,0,0,0,.213-2.307,8.948,8.948,0,0,0-1.151.359,9.1,9.1,0,0,0,.119,1.035,1.439,1.439,0,0,0,.451.99A.239.239,0,0,0,167.35,810.66Z" transform="translate(-166.412 -808.353)" fill="#7d4e24"/>
          </g>
        </g>
      </g>
      <g id="Group_11443" data-name="Group 11443" transform="translate(4.383 3.033)">
        <path id="Path_9934" data-name="Path 9934" d="M135.449,809.053a4.652,4.652,0,0,0-.194.692c-.095-.172-.223-.27-.4-.167-.412.238-.05,1.03.112,1.311a.181.181,0,0,0,.33-.056.178.178,0,0,0,.222-.171.18.18,0,0,0,.257-.109,2.117,2.117,0,0,0,0-1.544C135.7,808.857,135.5,808.92,135.449,809.053Z" transform="translate(-134.663 -808.21)" fill="#f39200"/>
        <path id="Path_9935" data-name="Path 9935" d="M249.782,800.258c-.2-.095-.409.1-.523.239a1.012,1.012,0,0,0-.059.092,5.235,5.235,0,0,0-.255-.832.183.183,0,0,0-.329-.043,1.428,1.428,0,0,0,.033,1.395.2.2,0,0,0,.287.09c.006.054.015.108.019.163.013.177.287.251.344.076a.175.175,0,0,0,.028-.007,1.06,1.06,0,0,0,.544-.577C249.938,800.674,250,800.364,249.782,800.258Z" transform="translate(-239.742 -799.628)" fill="#f39200"/>
      </g>
      <g id="Group_11446" data-name="Group 11446" transform="translate(7.978 6.73)">
        <g id="Group_11445" data-name="Group 11445">
          <g id="Group_11444" data-name="Group 11444">
            <path id="Path_9936" data-name="Path 9936" d="M181.679,848.194l.121.377c.07.22.418.126.347-.1l-.121-.377C181.956,847.878,181.608,847.972,181.679,848.194Z" transform="translate(-181.67 -847.973)" fill="#e98600"/>
          </g>
        </g>
      </g>
      <g id="Group_11449" data-name="Group 11449" transform="translate(9.343 6.86)">
        <g id="Group_11448" data-name="Group 11448">
          <g id="Group_11447" data-name="Group 11447">
            <path id="Path_9937" data-name="Path 9937" d="M199.534,849.9a.8.8,0,0,1,.007.342c-.044.226.3.323.347.1a1.254,1.254,0,0,0-.007-.533C199.83,849.58,199.482,849.675,199.534,849.9Z" transform="translate(-199.529 -849.677)" fill="#e98600"/>
          </g>
        </g>
      </g>
      <g id="Group_11452" data-name="Group 11452" transform="translate(10.549 6.419)">
        <g id="Group_11451" data-name="Group 11451">
          <g id="Group_11450" data-name="Group 11450">
            <path id="Path_9938" data-name="Path 9938" d="M215.35,844.04l-.056.392c-.032.227.315.325.347.1l.056-.392C215.73,843.909,215.383,843.811,215.35,844.04Z" transform="translate(-215.293 -843.909)" fill="#e98600"/>
          </g>
        </g>
      </g>
      <g id="Group_11455" data-name="Group 11455" transform="translate(10.871 7.203)">
        <g id="Group_11454" data-name="Group 11454">
          <g id="Group_11453" data-name="Group 11453">
            <path id="Path_9939" data-name="Path 9939" d="M219.705,854.239a1.344,1.344,0,0,0-.2.6c-.025.23.335.228.36,0a.943.943,0,0,1,.154-.415C220.142,854.226,219.83,854.045,219.705,854.239Z" transform="translate(-219.5 -854.156)" fill="#e98600"/>
          </g>
        </g>
      </g>
      <g id="Group_11458" data-name="Group 11458" transform="translate(8.806 7.965)">
        <g id="Group_11457" data-name="Group 11457">
          <g id="Group_11456" data-name="Group 11456">
            <path id="Path_9940" data-name="Path 9940" d="M192.5,864.3q.011.144.022.288c.018.23.379.232.36,0q-.011-.144-.022-.288C192.843,864.069,192.482,864.067,192.5,864.3Z" transform="translate(-192.5 -864.125)" fill="#e98600"/>
          </g>
        </g>
      </g>
      <g id="Group_11461" data-name="Group 11461" transform="translate(9.849 8.073)">
        <g id="Group_11460" data-name="Group 11460">
          <g id="Group_11459" data-name="Group 11459">
            <path id="Path_9941" data-name="Path 9941" d="M206.165,865.764a.273.273,0,0,1-.016.2c-.084.216.264.31.347.1a.6.6,0,0,0,.016-.388A.18.18,0,0,0,206.165,865.764Z" transform="translate(-206.136 -865.54)" fill="#e98600"/>
          </g>
        </g>
      </g>
      <g id="Group_11464" data-name="Group 11464" transform="translate(7.117 6.699)">
        <g id="Group_11463" data-name="Group 11463">
          <g id="Group_11462" data-name="Group 11462">
            <path id="Path_9942" data-name="Path 9942" d="M170.412,847.747q.011.144.022.287c.018.23.378.232.36,0l-.022-.287C170.755,847.517,170.394,847.515,170.412,847.747Z" transform="translate(-170.411 -847.574)" fill="#e98600"/>
          </g>
        </g>
      </g>
      <g id="Group_11467" data-name="Group 11467" transform="translate(7.318 8.03)">
        <g id="Group_11466" data-name="Group 11466">
          <g id="Group_11465" data-name="Group 11465">
            <path id="Path_9943" data-name="Path 9943" d="M173.038,865.2l.071.283a.18.18,0,0,0,.348-.1l-.071-.284A.18.18,0,0,0,173.038,865.2Z" transform="translate(-173.032 -864.976)" fill="#e98600"/>
          </g>
        </g>
      </g>
      <g id="Group_11470" data-name="Group 11470" transform="translate(6.51 0.145)">
        <g id="Group_11469" data-name="Group 11469">
          <g id="Group_11468" data-name="Group 11468">
            <path id="Path_9944" data-name="Path 9944" d="M162.893,762.894l-.067-.862c-.018-.23-.378-.231-.36,0l.067.862C162.551,763.124,162.911,763.126,162.893,762.894Z" transform="translate(-162.465 -761.859)" fill="#e98600"/>
          </g>
        </g>
      </g>
      <g id="Group_11473" data-name="Group 11473" transform="translate(7.031 1.202)">
        <g id="Group_11472" data-name="Group 11472">
          <g id="Group_11471" data-name="Group 11471">
            <path id="Path_9945" data-name="Path 9945" d="M169.629,776.731l.112-.821c.031-.227-.316-.325-.348-.1l-.112.821C169.25,776.862,169.6,776.96,169.629,776.731Z" transform="translate(-169.279 -775.684)" fill="#e98600"/>
          </g>
        </g>
      </g>
      <g id="Group_11476" data-name="Group 11476" transform="translate(7.154 2.286)">
        <g id="Group_11475" data-name="Group 11475">
          <g id="Group_11474" data-name="Group 11474">
            <path id="Path_9946" data-name="Path 9946" d="M171.254,790.818a4.275,4.275,0,0,0,.228-.74c.048-.226-.3-.323-.347-.1a4.274,4.274,0,0,1-.229.74C170.818,790.937,171.166,791.03,171.254,790.818Z" transform="translate(-170.892 -789.853)" fill="#e98600"/>
          </g>
        </g>
      </g>
      <g id="Group_11479" data-name="Group 11479" transform="translate(11.359 2.268)">
        <g id="Group_11478" data-name="Group 11478">
          <g id="Group_11477" data-name="Group 11477">
            <path id="Path_9947" data-name="Path 9947" d="M225.891,789.848l.14.518a.18.18,0,0,0,.348-.1l-.14-.518A.18.18,0,0,0,225.891,789.848Z" transform="translate(-225.884 -789.625)" fill="#e98600"/>
          </g>
        </g>
      </g>
      <g id="Group_11482" data-name="Group 11482" transform="translate(11.876 1.605)">
        <g id="Group_11481" data-name="Group 11481">
          <g id="Group_11480" data-name="Group 11480">
            <path id="Path_9948" data-name="Path 9948" d="M232.646,781.134q.024.312.049.623c.018.23.378.232.36,0l-.049-.623C232.988,780.9,232.628,780.9,232.646,781.134Z" transform="translate(-232.645 -780.961)" fill="#e98600"/>
          </g>
        </g>
      </g>
      <g id="Group_11485" data-name="Group 11485" transform="translate(12.354 0.315)">
        <g id="Group_11484" data-name="Group 11484">
          <g id="Group_11483" data-name="Group 11483">
            <path id="Path_9949" data-name="Path 9949" d="M238.891,764.261q.039.5.078,1.006c.018.23.378.232.36,0q-.039-.5-.079-1.006C239.233,764.032,238.873,764.03,238.891,764.261Z" transform="translate(-238.89 -764.088)" fill="#e98600"/>
          </g>
        </g>
      </g>
      <g id="Group_11488" data-name="Group 11488" transform="translate(17.161 8.791)">
        <g id="Group_11487" data-name="Group 11487">
          <g id="Group_11486" data-name="Group 11486">
            <path id="Path_9950" data-name="Path 9950" d="M301.982,875.728l1.212-.451c.215-.08.122-.429-.1-.348l-1.212.451C301.67,875.46,301.763,875.809,301.982,875.728Z" transform="translate(-301.763 -874.917)"/>
          </g>
        </g>
      </g>
      <g id="Group_11491" data-name="Group 11491" transform="translate(17.276 10.107)">
        <g id="Group_11490" data-name="Group 11490">
          <g id="Group_11489" data-name="Group 11489">
            <path id="Path_9951" data-name="Path 9951" d="M303.43,892.595a13.186,13.186,0,0,0,1.584-.1c.227-.028.23-.389,0-.361a13.161,13.161,0,0,1-1.584.1A.18.18,0,0,0,303.43,892.595Z" transform="translate(-303.256 -892.136)"/>
          </g>
        </g>
      </g>
      <g id="Group_11494" data-name="Group 11494" transform="translate(17.543 11.242)">
        <g id="Group_11493" data-name="Group 11493">
          <g id="Group_11492" data-name="Group 11492">
            <path id="Path_9952" data-name="Path 9952" d="M306.889,907.329a12.608,12.608,0,0,0,1.418.225c.231.023.229-.337,0-.36a11.7,11.7,0,0,1-1.322-.213C306.758,906.932,306.662,907.28,306.889,907.329Z" transform="translate(-306.759 -906.977)"/>
          </g>
        </g>
      </g>
      <g id="Group_11497" data-name="Group 11497" transform="translate(0.476 9.561)">
        <g id="Group_11496" data-name="Group 11496">
          <g id="Group_11495" data-name="Group 11495">
            <path id="Path_9953" data-name="Path 9953" d="M83.658,885.332a6.086,6.086,0,0,0,1.6.495c.227.036.325-.311.1-.348a5.753,5.753,0,0,1-1.517-.458C83.631,884.924,83.447,885.234,83.658,885.332Z" transform="translate(-83.565 -885.002)"/>
          </g>
        </g>
      </g>
      <g id="Group_11500" data-name="Group 11500" transform="translate(0 11.031)">
        <g id="Group_11499" data-name="Group 11499">
          <g id="Group_11498" data-name="Group 11498">
            <path id="Path_9954" data-name="Path 9954" d="M77.511,904.582a9.694,9.694,0,0,0,2.02.013c.229-.022.231-.383,0-.36a9.7,9.7,0,0,1-2.02-.013C77.281,904.2,77.283,904.556,77.511,904.582Z" transform="translate(-77.339 -904.22)"/>
          </g>
        </g>
      </g>
      <g id="Group_11503" data-name="Group 11503" transform="translate(0.406 12.055)">
        <g id="Group_11502" data-name="Group 11502">
          <g id="Group_11501" data-name="Group 11501">
            <path id="Path_9955" data-name="Path 9955" d="M82.87,918.53a7.441,7.441,0,0,0,1.682-.6c.208-.1.026-.414-.182-.311a7.042,7.042,0,0,1-1.6.559C82.548,918.233,82.644,918.58,82.87,918.53Z" transform="translate(-82.645 -917.603)"/>
          </g>
        </g>
      </g>
      <g id="Group_11505" data-name="Group 11505" transform="translate(4.582 13.178)">
        <g id="Group_11504" data-name="Group 11504">
          <path id="Path_9956" data-name="Path 9956" d="M149.8,932.3a32.1,32.1,0,0,1-10.632,2.1,4.372,4.372,0,0,0-1.518.194c-.478.186-.384.637-.4,1.15a2.541,2.541,0,0,1,1.7,1.884,13.239,13.239,0,0,1,.26,2.644,9,9,0,0,0,1.548,4.6,6.733,6.733,0,0,0,.909,1.016,2.236,2.236,0,0,1,2.4.576,3.761,3.761,0,0,1,.48.634,3.171,3.171,0,0,1,1.553-1.433c.021-.014.04-.03.061-.043a10.839,10.839,0,0,1-.84-3.51,6.3,6.3,0,0,1,1.336-3.38c.712-1,1.556-1.91,2.21-2.951A5.3,5.3,0,0,0,149.8,932.3Z" transform="translate(-137.251 -932.297)" fill="#f9d2a5"/>
        </g>
      </g>
      <g id="Group_11507" data-name="Group 11507" transform="translate(26.937 16.032)">
        <g id="Group_11506" data-name="Group 11506">
          <path id="Path_9957" data-name="Path 9957" d="M448.813,980.346a18.244,18.244,0,0,1-3.234,13.194,13.5,13.5,0,0,1-12.15,5.392,5.285,5.285,0,0,1-2.91-1.164,2.567,2.567,0,0,1-.734-2.879,1.72,1.72,0,0,1,2.644-.568c.325.349.452.841.743,1.219a2.914,2.914,0,0,0,2.328.889,10.13,10.13,0,0,0,8.09-4.323,15.073,15.073,0,0,0,2.614-9,14.035,14.035,0,0,0-1.987-7.441,13.472,13.472,0,0,0,1.081-2.818c.037-.787-.727-2.492-.43-3.234C447.026,971.825,448.447,977.361,448.813,980.346Z" transform="translate(-429.593 -969.614)" fill="#f5b054"/>
        </g>
      </g>
      <path id="Path_9958" data-name="Path 9958" d="M390.869,981.989a7.806,7.806,0,0,0-10.061-.439,9.36,9.36,0,0,0-3.054,4.8c-.341,1.185-.759,2.84-.217,4.044a3.405,3.405,0,0,0-2.429-.023,1.546,1.546,0,0,0-.875,1.762c.069.307.541.177.472-.13-.207-.917.713-1.361,1.48-1.357a7.282,7.282,0,0,1,1.8.381.247.247,0,0,0,.244-.4.252.252,0,0,0-.036-.068c-.937-1.149-.24-3.34.2-4.623a8.791,8.791,0,0,1,2.54-3.876,7.322,7.322,0,0,1,9.582.272C390.759,982.542,391.107,982.2,390.869,981.989Z" transform="translate(-351.493 -963.099)" fill="#1d1d1b"/>
      <g id="Group_11510" data-name="Group 11510" transform="translate(11.702 22.395)">
        <g id="Group_11509" data-name="Group 11509">
          <g id="Group_11508" data-name="Group 11508">
            <path id="Path_9959" data-name="Path 9959" d="M231.078,1059.549c-1.947-3.6,6.75-2.814,8.174-3.411a2.909,2.909,0,0,0,1.943-3.141c-.044-.311-.516-.178-.472.13.581,4.057-6.387,2.459-8.622,3.391-1.365.569-2.2,1.883-1.446,3.277C230.8,1060.073,231.228,1059.826,231.078,1059.549Z" transform="translate(-230.371 -1052.82)" fill="#1d1d1b"/>
          </g>
        </g>
      </g>
      <g id="Group_11513" data-name="Group 11513" transform="translate(5.433 24.054)">
        <g id="Group_11512" data-name="Group 11512">
          <g id="Group_11511" data-name="Group 11511">
            <path id="Path_9960" data-name="Path 9960" d="M148.394,1074.751a2.3,2.3,0,0,0,1.326,2.442c1.007.471,5.455.212,4.707,2.227-.11.3.363.423.472.13.366-.985-.431-1.772-1.3-2.115-1.667-.658-5.034.133-4.717-2.684C148.919,1074.439,148.429,1074.441,148.394,1074.751Z" transform="translate(-148.376 -1074.518)" fill="#1d1d1b"/>
          </g>
        </g>
      </g>
      <g id="Group_11532" data-name="Group 11532" transform="translate(3.804 9.899)">
        <g id="Group_11515" data-name="Group 11515" transform="translate(28.323)">
          <g id="Group_11514" data-name="Group 11514">
            <path id="Path_9961" data-name="Path 9961" d="M497.508,889.414a19.678,19.678,0,0,0,.664,6.8c.084.27.548.239.518-.07-.233-2.341.648-4.347,1.162-6.471A12.652,12.652,0,0,0,497.508,889.414Z" transform="translate(-497.471 -889.414)" fill="#7d4e24"/>
          </g>
        </g>
        <g id="Group_11517" data-name="Group 11517" transform="translate(35.331 3.531)">
          <g id="Group_11516" data-name="Group 11516">
            <path id="Path_9962" data-name="Path 9962" d="M590.378,935.588a17.454,17.454,0,0,0-1.255,3.232c-.1.33.394.455.508.14a13.7,13.7,0,0,1,1.328-2.7C590.774,936.032,590.582,935.805,590.378,935.588Z" transform="translate(-589.11 -935.588)" fill="#7d4e24"/>
          </g>
        </g>
        <g id="Group_11519" data-name="Group 11519" transform="translate(11.624 2.745)">
          <g id="Group_11518" data-name="Group 11518">
            <path id="Path_9963" data-name="Path 9963" d="M284.921,925.869a19.14,19.14,0,0,1-.7,4.075c-.085.287.228.359.482.2,1.477-.906,1.893-3.118,2.159-4.838a6.391,6.391,0,0,1-1.607.514,3.717,3.717,0,0,1-1.28-.02l-.064-.013a3.463,3.463,0,0,1-.425-.116l-.063-.023a3.247,3.247,0,0,1-.413-.181,1.587,1.587,0,0,1-.155-.1,6.773,6.773,0,0,1-2.932,3.318c-.439.256-1.251.751-.551,1.237.822.57,2.344-.529,2.939-.982A9.759,9.759,0,0,0,284.921,925.869Z" transform="translate(-279.094 -925.309)" fill="#7d4e24"/>
          </g>
        </g>
        <g id="Group_11521" data-name="Group 11521" transform="translate(32.748 1.381)">
          <g id="Group_11520" data-name="Group 11520">
            <path id="Path_9964" data-name="Path 9964" d="M555.854,912.178a7.807,7.807,0,0,1,.563-1.87.248.248,0,0,0,.064-.115c.007-.025.016-.05.022-.075a15.548,15.548,0,0,1,1.017-1.82q-.651-.435-1.332-.82a17.449,17.449,0,0,0-.853,4.63C555.311,912.4,555.806,912.472,555.854,912.178Z" transform="translate(-555.335 -907.478)" fill="#7d4e24"/>
          </g>
        </g>
        <g id="Group_11523" data-name="Group 11523" transform="translate(0.847 12.383)">
          <g id="Group_11522" data-name="Group 11522">
            <path id="Path_9965" data-name="Path 9965" d="M140.741,1052.414c.461-.948-1.221-.931-2.512-1.059-.008.157-.016.311-.025.466-.016.288-.033.575-.046.863a8.482,8.482,0,0,0,1.115.219C139.75,1052.959,140.492,1052.925,140.741,1052.414Z" transform="translate(-138.157 -1051.355)" fill="#7d4e24"/>
          </g>
        </g>
        <g id="Group_11525" data-name="Group 11525" transform="translate(0.899 9.822)">
          <g id="Group_11524" data-name="Group 11524">
            <path id="Path_9966" data-name="Path 9966" d="M138.9,1018.672q.011.363,0,.729a5.445,5.445,0,0,0,1.8-.336.249.249,0,0,0,.146-.359,1.334,1.334,0,0,0-1.155-.739c-.3-.039-.575-.072-.845-.11.025.236.038.475.047.714C138.9,1018.6,138.9,1018.638,138.9,1018.672Z" transform="translate(-138.848 -1017.856)" fill="#7d4e24"/>
          </g>
        </g>
        <g id="Group_11527" data-name="Group 11527" transform="translate(20.509 1.332)">
          <g id="Group_11526" data-name="Group 11526">
            <path id="Path_9967" data-name="Path 9967" d="M397.194,911.947a.265.265,0,0,0,.482-.2,20.393,20.393,0,0,1-.755-4.916c-.175.08-.349.162-.52.249-.259.132-.516.271-.773.411-.117.108-.233.218-.345.332A20.006,20.006,0,0,0,397.194,911.947Z" transform="translate(-395.282 -906.828)" fill="#7d4e24"/>
          </g>
        </g>
        <g id="Group_11529" data-name="Group 11529" transform="translate(0 6.459)">
          <g id="Group_11528" data-name="Group 11528">
            <path id="Path_9968" data-name="Path 9968" d="M131.307,975.115c.1-.122.092-.382-.108-.409a34.393,34.393,0,0,1-4.112-.827c0,.067.014.134.025.2.008.043.018.086.028.13s.015.067.024.1.024.088.037.132.02.063.031.094c.029.086.06.172.093.258l.025.065c.074.188.152.374.221.557.05.132.094.266.134.4C129.041,976.19,130.336,976.259,131.307,975.115Z" transform="translate(-127.087 -973.878)" fill="#7d4e24"/>
          </g>
        </g>
        <g id="Group_11531" data-name="Group 11531" transform="translate(24.505 0.093)">
          <g id="Group_11530" data-name="Group 11530">
            <path id="Path_9969" data-name="Path 9969" d="M449.588,890.628a14.36,14.36,0,0,0-1.737.311,10.952,10.952,0,0,0-.265,3.56c.075.83.254,3.466,1.145,3.884.978.459.411-2.082.391-2.572a28.205,28.205,0,0,1,.1-3.723A12.732,12.732,0,0,1,449.588,890.628Z" transform="translate(-447.542 -890.628)" fill="#7d4e24"/>
          </g>
        </g>
      </g>
      <g id="Group_11553" data-name="Group 11553" transform="translate(32.271 24.771)">
        <g id="Group_11534" data-name="Group 11534" transform="translate(2.815 17.701)">
          <g id="Group_11533" data-name="Group 11533">
            <path id="Path_9970" data-name="Path 9970" d="M537.132,1316.849c-.088-.366-.168-.736-.244-1.1a.2.2,0,0,0-.245-.171.254.254,0,0,0-.121-.2c-.117.035-.234.07-.352.1a.271.271,0,0,0-.018.091,11.25,11.25,0,0,0,.235,2.383q.52-.135,1.029-.313A7.452,7.452,0,0,1,537.132,1316.849Z" transform="translate(-536.152 -1315.377)" fill="#7d4e24"/>
          </g>
        </g>
        <g id="Group_11536" data-name="Group 11536" transform="translate(8.184 15.197)">
          <g id="Group_11535" data-name="Group 11535">
            <path id="Path_9971" data-name="Path 9971" d="M606.824,1282.74c-.123-.179-.484-.14-.456.123a12.584,12.584,0,0,0,.362,1.963c.331-.281.654-.572.957-.881Q607.247,1283.35,606.824,1282.74Z" transform="translate(-606.367 -1282.63)" fill="#7d4e24"/>
          </g>
        </g>
        <g id="Group_11538" data-name="Group 11538" transform="translate(10.406 9.46)">
          <g id="Group_11537" data-name="Group 11537">
            <path id="Path_9972" data-name="Path 9972" d="M635.886,1207.769a.252.252,0,0,0-.229.328l-.044,0a.254.254,0,0,0-.062.016c-.04.127-.083.254-.127.379a.227.227,0,0,0,.189.094,19.382,19.382,0,0,0,2.068-.069c.153.014.3.024.457.032.1-.315.195-.633.28-.953A13.726,13.726,0,0,1,635.886,1207.769Z" transform="translate(-635.425 -1207.601)" fill="#7d4e24"/>
          </g>
        </g>
        <g id="Group_11540" data-name="Group 11540" transform="translate(4.653 16.087)">
          <g id="Group_11539" data-name="Group 11539">
            <path id="Path_9973" data-name="Path 9973" d="M561.889,1294.271a10.547,10.547,0,0,1-1.7,1.043,4.412,4.412,0,0,0,2.127,1.552q.351-.216.689-.453a.2.2,0,0,0-.027-.084A18.624,18.624,0,0,1,561.889,1294.271Z" transform="translate(-560.187 -1294.271)" fill="#7d4e24"/>
          </g>
        </g>
        <g id="Group_11542" data-name="Group 11542" transform="translate(0 18.025)">
          <g id="Group_11541" data-name="Group 11541">
            <path id="Path_9974" data-name="Path 9974" d="M500.933,1319.609a8.383,8.383,0,0,1-1.016.051c-.152,0-.307-.013-.462-.028a10.626,10.626,0,0,0-.053,2.625,11.891,11.891,0,0,0,1.884-.156c-.127-.439-.237-.881-.326-1.327Q500.946,1320.191,500.933,1319.609Z" transform="translate(-499.345 -1319.609)" fill="#7d4e24"/>
          </g>
        </g>
        <g id="Group_11544" data-name="Group 11544" transform="translate(11.605)">
          <g id="Group_11543" data-name="Group 11543">
            <path id="Path_9975" data-name="Path 9975" d="M651.417,1086.087a17.561,17.561,0,0,0,1.88-.855c-.064-.416-.145-.865-.241-1.337a11.024,11.024,0,0,1-1.72,1.451.241.241,0,0,0-.1.278l-.06.054C651,1085.833,651.19,1086.179,651.417,1086.087Z" transform="translate(-651.108 -1083.895)" fill="#7d4e24"/>
          </g>
        </g>
        <g id="Group_11546" data-name="Group 11546" transform="translate(11.141 2.199)">
          <g id="Group_11545" data-name="Group 11545">
            <path id="Path_9976" data-name="Path 9976" d="M647,1112.667c-.65.2-1.306.367-1.966.516.052.416.086.833.108,1.252a6.006,6.006,0,0,0,2.1-1.359A.247.247,0,0,0,647,1112.667Z" transform="translate(-645.031 -1112.656)" fill="#7d4e24"/>
          </g>
        </g>
        <g id="Group_11548" data-name="Group 11548" transform="translate(9.056 12.186)">
          <g id="Group_11547" data-name="Group 11547">
            <path id="Path_9977" data-name="Path 9977" d="M618.345,1243.25q-.262.506-.571.986a6.131,6.131,0,0,0,2.271,1.041c.272-.422.525-.854.754-1.3A13.383,13.383,0,0,1,618.345,1243.25Z" transform="translate(-617.774 -1243.25)" fill="#7d4e24"/>
          </g>
        </g>
        <g id="Group_11550" data-name="Group 11550" transform="translate(10.84 7.694)">
          <g id="Group_11549" data-name="Group 11549">
            <path id="Path_9978" data-name="Path 9978" d="M642.836,1185.18a.268.268,0,0,0,.081-.048c.109-.047.219-.092.328-.144.226-.109.106-.454-.123-.456l-1.793-.015q-.091.582-.224,1.155a7.808,7.808,0,0,0,1.615-.453C642.757,1185.205,642.8,1185.195,642.836,1185.18Z" transform="translate(-641.104 -1184.517)" fill="#7d4e24"/>
          </g>
        </g>
        <g id="Group_11552" data-name="Group 11552" transform="translate(11.186 3.925)">
          <g id="Group_11551" data-name="Group 11551">
            <path id="Path_9979" data-name="Path 9979" d="M648.47,1135.225a6.616,6.616,0,0,1-1.4.732c-.448.167-.906.28-1.358.4,0,.556-.032,1.113-.088,1.667a10.048,10.048,0,0,0,2.783-.6A20.134,20.134,0,0,0,648.47,1135.225Z" transform="translate(-645.628 -1135.225)" fill="#7d4e24"/>
          </g>
        </g>
      </g>
      <g id="Group_11555" data-name="Group 11555" transform="translate(9.381 27.816)">
        <g id="Group_11554" data-name="Group 11554">
          <path id="Path_9980" data-name="Path 9980" d="M202.288,1124.583a1.82,1.82,0,0,0-1.622-.863c-.251.01-.252.4,0,.392a1.431,1.431,0,0,1,1.038.373,2.572,2.572,0,0,0-1.543-.219c-.248.039-.143.417.1.378a2.143,2.143,0,0,1,1.654.422c.18.139.424-.078.313-.234A.175.175,0,0,0,202.288,1124.583Z" transform="translate(-200.02 -1123.719)" fill="#1d1d1b"/>
        </g>
      </g>
      <g id="Group_11557" data-name="Group 11557" transform="translate(11.705 27.468)">
        <g id="Group_11556" data-name="Group 11556">
          <path id="Path_9981" data-name="Path 9981" d="M231.794,1119.183c-.658.282-1.383.693-1.383,1.505a.2.2,0,0,0,.391,0c0-.654.677-.948,1.189-1.167C232.222,1119.422,232.023,1119.085,231.794,1119.183Z" transform="translate(-230.411 -1119.165)" fill="#1d1d1b"/>
        </g>
      </g>
      <g id="Group_11559" data-name="Group 11559" transform="translate(12.18 28.257)">
        <g id="Group_11558" data-name="Group 11558">
          <path id="Path_9982" data-name="Path 9982" d="M238.188,1129.5a2.029,2.029,0,0,0-1.5.459c-.2.158.082.433.277.277a1.643,1.643,0,0,1,1.224-.344C238.438,1129.914,238.437,1129.523,238.188,1129.5Z" transform="translate(-236.62 -1129.485)" fill="#1d1d1b"/>
        </g>
      </g>
    </g>
    <g id="Group_14163" data-name="Group 14163" transform="translate(-6519 2992.68)">
      <g id="Group_14147" data-name="Group 14147" transform="translate(17.932 7.417) rotate(90)">
        <path id="Path_15949" data-name="Path 15949" d="M1.935,1.679a.522.522,0,0,1-.223.14A1.019,1.019,0,0,0,1.8.643.964.964,0,0,0,.54.156.964.964,0,0,0,.253,1.481a1.159,1.159,0,0,0,.315.372.575.575,0,0,0-.3.049S-.266.645.177.251,1.335-.081,2.024.5C2.024.5,2.3,1.282,1.935,1.679Z" transform="translate(0 0)" fill="#231f20"/>
        <path id="Path_15950" data-name="Path 15950" d="M1.6,1.756a1.059,1.059,0,0,1-.115.032.414.414,0,0,0,.036-.036l.011-.013.014-.017L1.559,1.7a.538.538,0,0,0,.031-.047A.613.613,0,0,0,1.622,1.6c.006-.013.012-.027.017-.041A.494.494,0,0,0,1.657,1.5a0,0,0,0,1,0,0c.005-.019.01-.038.013-.057s.007-.039.009-.059,0-.028,0-.042,0,0,0-.007a.867.867,0,0,0,0-.106l0-.049a.305.305,0,0,0-.007-.05.327.327,0,0,0-.009-.05.886.886,0,0,0-.026-.1c0-.01-.007-.021-.01-.031l0-.007A.18.18,0,0,0,1.619.916.219.219,0,0,0,1.608.887h0C1.6.873,1.6.861,1.591.848l0,0L1.581.828Q1.569.8,1.555.774A1.081,1.081,0,0,0,1.5.678c-.006-.01-.013-.02-.02-.03l0,0C1.46.627,1.447.61,1.433.594L1.419.577v0L1.4.551,1.372.525,1.338.492h0A.314.314,0,0,0,1.3.46.841.841,0,0,0,1.23.4L1.206.388,1.184.375,1.158.359,1.124.341,1.089.324,1.058.311h0L1.016.3.98.285H.973L.942.276A.214.214,0,0,0,.9.268L.866.263H.852L.808.26A.532.532,0,0,0,.552.323.791.791,0,0,0,.38,1.408,1.056,1.056,0,0,0,.741,1.8c-.1-.007-.2-.013-.285-.013a1.159,1.159,0,0,1-.315-.372A.964.964,0,0,1,.428.092.964.964,0,0,1,1.693.579,1.019,1.019,0,0,1,1.6,1.756Z" transform="translate(0.111 0.063)" fill="#a2be72"/>
        <path id="Path_15951" data-name="Path 15951" d="M1.432.917c0-.017,0-.033-.007-.05S1.421.834,1.417.817C1.41.783,1.4.749,1.391.715c0-.01-.007-.021-.01-.031l0-.007A.175.175,0,0,0,1.37.656.227.227,0,0,0,1.359.627h0C1.354.613,1.348.6,1.342.588v0L1.333.568C1.325.55,1.316.532,1.306.514a1.048,1.048,0,0,0-.059-.1c-.006-.01-.013-.02-.02-.03l0,0C1.211.367,1.2.35,1.185.334L1.171.317h0L1.148.291,1.124.265,1.09.232h0L1.053.2A.86.86,0,0,0,.982.144L.957.128.935.115.909.1.876.081.84.064.809.051h0L.768.036.732.025H.724A.224.224,0,0,0,.694.016.21.21,0,0,0,.657.008L.617,0H.6L.56,0A.532.532,0,0,0,.3.063.792.792,0,0,0,.132,1.148a1.057,1.057,0,0,0,.361.394,2.975,2.975,0,0,0,.744-.015.42.42,0,0,0,.036-.035l.011-.013L1.3,1.462l.013-.018A.527.527,0,0,0,1.342,1.4a.608.608,0,0,0,.032-.062c.006-.013.012-.027.017-.041s.013-.037.019-.056a0,0,0,0,1,0,0c.005-.018.01-.038.013-.057s.007-.039.009-.059,0-.028,0-.042,0,0,0-.007a.867.867,0,0,0,0-.106Zm-.366.344C.922,1.348.681,1.21.529.953S.369.419.514.333.9.385,1.052.641,1.211,1.176,1.067,1.261Z" transform="translate(0.36 0.323)" fill="#7b984d"/>
        <path id="Path_15952" data-name="Path 15952" d="M.657.954C.512,1.041.272.9.119.646S-.04.112.1.025.49.078.642.334.8.869.657.954Z" transform="translate(0.769 0.631)" fill="#231f20"/>
        <path id="Path_15953" data-name="Path 15953" d="M0,.191A.191.191,0,1,1,.191.382.191.191,0,0,1,0,.191Z" transform="translate(1.088 0.195)" fill="#fff"/>
        <path id="Path_15954" data-name="Path 15954" d="M0,.1A.1.1,0,1,1,.1.2.1.1,0,0,1,0,.1Z" transform="translate(1.69 1.241)" fill="#fff"/>
      </g>
      <g id="Group_14148" data-name="Group 14148" transform="translate(15.723 4.089) rotate(90)">
        <path id="Path_15955" data-name="Path 15955" d="M2.033.58a.57.57,0,0,0-.125.282,1.157,1.157,0,0,0-.279-.4A.964.964,0,0,0,.274.4a.964.964,0,0,0,.15,1.347,1.02,1.02,0,0,0,1.161.209.53.53,0,0,1-.191.18C.917,2.388.227,1.926.227,1.926-.158,1.113-.036.406.459.077S2.033.58,2.033.58Z" transform="translate(0 0)" fill="#231f20"/>
        <path id="Path_15956" data-name="Path 15956" d="M.266.712A.659.659,0,0,0,.257.834.473.473,0,0,0,.261.9.664.664,0,0,0,.27.966c.006.029.013.059.022.089s.01.03.015.045.011.03.017.044l.02.044c.014.029.03.058.047.086a.383.383,0,0,0,.027.042,1.03,1.03,0,0,0,.129.159l.039.038c.017.016.035.032.052.046l.025.021L.694,1.6l.017.013a.494.494,0,0,0,.051.033.766.766,0,0,0,.073.043l.031.015a.773.773,0,0,0,.077.033l.012,0,.039.013c.025.008.051.015.076.021l.032.006.038.006a.341.341,0,0,0,.046.005H1.2a.656.656,0,0,0,.086,0h.031a.174.174,0,0,0,.027,0l.041-.007.043-.01a.539.539,0,0,0,.082-.029A.625.625,0,0,0,1.583,1.7c-.019.036-.039.071-.061.1A1.02,1.02,0,0,1,.361,1.6.964.964,0,0,1,.211.251.964.964,0,0,1,1.566.31a1.155,1.155,0,0,1,.279.4c-.021.083-.04.178-.059.279A1.06,1.06,0,0,0,1.5.538.792.792,0,0,0,.4.429C.392.441.381.454.37.467l0,0v0A.342.342,0,0,0,.341.509l0,.007v0A.432.432,0,0,0,.313.56h0A.487.487,0,0,0,.294.606a.035.035,0,0,0,0,.008A.461.461,0,0,0,.277.66s0,0,0,0v0A.192.192,0,0,0,.27.693.166.166,0,0,0,.266.712Z" transform="translate(0.063 0.153)" fill="#a2be72"/>
        <path id="Path_15957" data-name="Path 15957" d="M1.239.283A.792.792,0,0,0,.146.173C.135.186.124.2.113.212l0,0v0A.339.339,0,0,0,.084.254l0,.007v0A.431.431,0,0,0,.056.3h0C.049.32.043.335.037.351a.036.036,0,0,0,0,.008A.451.451,0,0,0,.02.4s0,0,0,0v0A.186.186,0,0,0,.013.438a.151.151,0,0,0,0,.019A.662.662,0,0,0,0,.579C0,.6,0,.622,0,.644S.01.688.013.711.027.77.036.8.045.83.05.844s.011.03.017.044l.02.044C.1.961.117.99.134,1.018A.414.414,0,0,0,.16,1.06a1.033,1.033,0,0,0,.129.159c.013.013.026.026.039.038s.035.032.052.046l.025.021.031.023.017.013A.49.49,0,0,0,.5,1.393a.721.721,0,0,0,.073.043l.031.015a.8.8,0,0,0,.077.033l.012,0L.737,1.5c.025.008.051.015.076.021l.032.006.038.006.047.005h.01a.683.683,0,0,0,.086,0h.016l.015,0,.027,0,.041-.007.043-.01a.525.525,0,0,0,.082-.029.611.611,0,0,0,.075-.041,2.989,2.989,0,0,0,.2-.716A1.06,1.06,0,0,0,1.239.283Zm-.128.933c-.12.118-.387.041-.6-.172S.234.564.353.445.741.4.95.618,1.232,1.1,1.111,1.216Z" transform="translate(0.32 0.409)" fill="#7b984d"/>
        <path id="Path_15958" data-name="Path 15958" d="M.816.826C.936.708.864.44.654.227S.178-.063.058.055.01.442.22.654.7.944.816.826Z" transform="translate(0.615 0.798)" fill="#231f20"/>
        <path id="Path_15959" data-name="Path 15959" d="M.239.006A.191.191,0,1,0,.376.239.191.191,0,0,0,.239.006Z" transform="translate(0.118 0.987)" fill="#fff"/>
        <path id="Path_15960" data-name="Path 15960" d="M.127,0A.1.1,0,1,0,.2.127.1.1,0,0,0,.127,0Z" transform="translate(1.002 1.815)" fill="#fff"/>
      </g>
      <path id="Path_15961" data-name="Path 15961" d="M3.887,2.91A3.83,3.83,0,0,1,2.73,2.837,19.285,19.285,0,0,1,.236,1.765C-.125,1.639.024,1.2.067.49A2.333,2.333,0,0,0,1.424.224c.58-.268.783-.329.426,0S1.536.886.975,1.255s-.209.635.567.487,1-1.1.948-.425a1.631,1.631,0,0,0,.234,1.24c.172.164.222.164.647-.273s.474-.671.437-.265A2.753,2.753,0,0,0,3.887,2.91Z" transform="translate(13.196 2.974) rotate(90)" fill="#7d4e24"/>
      <path id="Path_15962" data-name="Path 15962" d="M1.113.134C.668.232.7.442.194.685A4.469,4.469,0,0,0,0,.078,2.2,2.2,0,0,1,.682.006C1.125.052,1.606.025,1.113.134Z" transform="translate(13.907 2.8) rotate(90)" fill="#7d4e24"/>
      <path id="Path_15963" data-name="Path 15963" d="M2.625.639c-.129.429-.484,1.377-1,1.1h0a3.217,3.217,0,0,0-.593-.723C.639.592.088.4,0,.222A2.57,2.57,0,0,1,1.618.061C2.764.3,2.754.21,2.625.639Z" transform="translate(17.606 0.428) rotate(90)" fill="#f9d2a5"/>
      <path id="Path_15964" data-name="Path 15964" d="M11.108,8.482a1.425,1.425,0,0,0,.691-.86c.061-.272-.123-.1-.851-.157s-.763-.051-.172-.322.394-.185.763-.7.406-.53-.31-.389a3.753,3.753,0,0,1-1.414.107c-.59-.05.184-.1.55-.628a6.491,6.491,0,0,1,.693-.8c.222-.281.284-.619-.16-.508s-.641.345-1.083.381-.395-.122,0-.627a2.166,2.166,0,0,0,.446-1.012c-.109-.069-.214-.134-.318-.2h0a3.59,3.59,0,0,1-.388-.293,4.313,4.313,0,0,1-.562-.591h0c-.42.428-.112.7-.46.692a5.351,5.351,0,0,1-1.171-.055c-.3-.092-.207-.794,0-1.663s.409-.842.409-.842C7.51-.072,7.292.4,7,1.1c-.185.444-.258.709-.344.887A14.186,14.186,0,0,0,6.915,4c.166.7-.047.435-.351-.157s-.25-.915-.517-1.007-.425.434-.29,1.025.1.822-.235.241-.39-.73-.745-.739-.18.35.1.978-.143.13-.7-.194-.658-.074-.191.259,1.075,1.413.595.951A4.408,4.408,0,0,0,3.09,4.605s-.148-.039-.386-.08a4.846,4.846,0,0,0-2.181.08c-.444.143-.565.244-.51.352A2.571,2.571,0,0,1,1.631,4.8c1.145.24,1.136.149,1.006.578s-.484,1.377-1,1.1a3.925,3.925,0,0,1,.163.55c.107.41.382.955.587,1.485a2.2,2.2,0,0,1,.682-.072c.443.047.924.019.431.129-.445.1-.417.308-.919.551a1.694,1.694,0,0,1,.05.461c0,.018,0,.036,0,.055A2.332,2.332,0,0,0,3.983,9.37c.58-.268.783-.329.426,0s-.314.661-.874,1.031-.209.635.567.487,1-1.1.948-.425a1.631,1.631,0,0,0,.234,1.24c.172.164.222.164.647-.273s.474-.671.437-.264a2.754,2.754,0,0,0,.079.89A10.826,10.826,0,0,0,8.584,11.7a5.407,5.407,0,0,0,2.357-1.143,6.65,6.65,0,0,0,1.244-2.087C11.293,8.834,10.774,8.629,11.108,8.482Zm-5.526-1c-.021.083-.04.178-.059.279a2.983,2.983,0,0,1-.2.716c-.019.036-.039.071-.061.1a.529.529,0,0,1-.191.18C4.59,9.006,3.9,8.544,3.9,8.544c-.385-.814-.263-1.521.231-1.85s1.574.5,1.574.5A.569.569,0,0,0,5.581,7.48Zm1.6-2.82c.443-.395,1.158-.333,1.847.246,0,0,.271.785-.089,1.182a.523.523,0,0,1-.223.14A1.06,1.06,0,0,1,8.6,6.26a2.971,2.971,0,0,1-.744.015c-.1-.007-.2-.013-.284-.013a.574.574,0,0,0-.3.049S6.735,5.054,7.179,4.661ZM9.6,8.5a.111.111,0,0,1,.022.155,1.182,1.182,0,0,1-1.41.4A1.424,1.424,0,0,1,7.7,10.231a.111.111,0,0,1-.072.027.109.109,0,0,1-.085-.04.111.111,0,0,1,.013-.156.982.982,0,0,1-1.758-.8,1.485,1.485,0,0,1,1.114-.981c-.136-.05-.247-.107-.265-.169-.05-.175.393-.284.605-.506.18-.188.24-.2.327.068.013-.03.386-.942,1.106-.955s1.652.722.761,1.808A.111.111,0,0,1,9.6,8.5Z" transform="translate(22.342 0.416) rotate(90)" fill="#f5b054"/>
      <path id="Path_15965" data-name="Path 15965" d="M3.692,1.808a1.028,1.028,0,0,1-1.353.241l-.307-.182.15.324c.272.587-.372,1.146-.38,1.153a.982.982,0,0,1-1.758-.8,1.485,1.485,0,0,1,1.114-.981h0a4.413,4.413,0,0,0,.59.152c.206.044.249-.118.129-.576-.019-.072-.035-.132-.053-.183h0C1.837.925,2.21.013,2.931,0S4.583.722,3.692,1.808Z" transform="translate(15.623 6.173) rotate(90)" fill="#f9d2a5"/>
      <path id="Path_15966" data-name="Path 15966" d="M3.86,1.858c-.3-.591-.25-.915-.517-1.007s-.425.434-.29,1.025.1.822-.235.241-.39-.73-.745-.739-.18.35.1.978-.143.13-.7-.194-.658-.074-.191.259,1.075,1.413.595.951A4.409,4.409,0,0,0,.386,2.617S.239,2.578,0,2.538A9.34,9.34,0,0,1,3.314.452c.4-.139.531-.227.64-.452a14.2,14.2,0,0,0,.257,2.015C4.377,2.717,4.165,2.45,3.86,1.858Z" transform="translate(20.353 3.119) rotate(90)" fill="#925e25"/>
      <path id="Path_15967" data-name="Path 15967" d="M1.824,1.868h0c-.42.428-.112.7-.46.692A5.354,5.354,0,0,1,.192,2.505c-.3-.092-.207-.794,0-1.663S.6,0,.6,0C.717.035.841.18.983.464A7.9,7.9,0,0,0,1.824,1.868Z" transform="translate(22.333 7.584) rotate(90)" fill="#f9d2a5"/>
      <path id="Path_15968" data-name="Path 15968" d="M.859.967A4.418,4.418,0,0,1,.269.815h0C.132.765.022.708,0,.646-.046.47.4.362.609.139c.18-.188.24-.2.327.068h0C.953.259.97.32.988.391,1.108.849,1.065,1.011.859.967Z" transform="translate(14.875 7.062) rotate(90)" fill="#b46928"/>
      <g id="Group_14149" data-name="Group 14149" transform="translate(13.859 7.935) rotate(90)">
        <path id="Path_15969" data-name="Path 15969" d="M2.108.177A1.182,1.182,0,0,1,.7.578,1.424,1.424,0,0,1,.183,1.749a.111.111,0,0,1-.072.027.11.11,0,0,1-.085-.04A.111.111,0,0,1,.039,1.58C.047,1.573.692,1.015.42.427L.27.1.577.285A1.028,1.028,0,0,0,1.93.044a.111.111,0,1,1,.177.133Z" transform="translate(0 0)" fill="#986527"/>
      </g>
      <path id="Path_15970" data-name="Path 15970" d="M.6.04a1.115,1.115,0,0,0-.276,1C.271,1.016.217.991.16.963A.669.669,0,0,1,0,.855,2,2,0,0,1,.317.206C.548-.039.65-.023.6.04Z" transform="translate(1.679 9.663) rotate(90)" fill="#7d4e24"/>
      <path id="Path_15971" data-name="Path 15971" d="M8.593,21.743c-1.66.2-1.714.024-2.9.714S4.12,22.8,5.419,23s1.387-.049,2.54.739,2.271,1.847,1.408,1.428a6.813,6.813,0,0,0-3.325-.985,4.058,4.058,0,0,1-2.462-.788,8.656,8.656,0,0,0-.47-4.762C2.3,16.931-.314,15.873.031,12.006q.031-.35.071-.67A13.646,13.646,0,0,1,.4,9.709,7.016,7.016,0,0,1,2.488,6.082c.924-.979,1.071-2.66.5-3.288s-.148-.739.242-2.4c.024-.1.046-.2.068-.306C3.642.086,4.025.062,4.5.024c1.367-.111.647.166-.517.794s-.369.757.757.536,1,.03.158.647S3.413,2.666,4,3.238s.111,1.238.9,1.164a9.41,9.41,0,0,1,1.449,0c.961,0,.055.905-1.449,1.2S3.1,6.12,3.838,6.4s1.071.831,1.478,1.644A1.5,1.5,0,0,0,6,8.7,7.178,7.178,0,0,0,5.2,8.491c-1.576-.344-1.527-.961-2.326-.739s-1.023.591-.211.739.64.222,2,.888,1.034,1.009-.271.838-1.182.712-2.463.836-.665.542-.443,1.33.739.813,2.365-.2,1.207-.32,2.7-.985.5-.468-.234.83-.369,1.559-1.872,2.249-3.178.591-1.991,1.034,1.276.222,3.591-.517.813-.2,1.917-1.034,1.039-.3.236,1.133-1.462,1.01-2.775,1.823-1.742,1.4-.765,1.229a5.227,5.227,0,0,1,2.152,0c1.256.12,1.478-.194,3.206-1.057s.882-.3.365.591-.345,1.01-2.418,1.453-1.769-.395-2.54.665-.658,1.009,1.165.985,1.428.074,3.428.567S10.254,21.545,8.593,21.743Z" transform="translate(45.685 6.652) rotate(90)" fill="#7d4e24"/>
      <path id="Path_15972" data-name="Path 15972" d="M.964.392A4.2,4.2,0,0,1,0,.651C.035.423.064.2.088,0,1.262.149,1.924-.039.964.392Z" transform="translate(46.971 10.08) rotate(90)" fill="#7d4e24"/>
      <path id="Path_15973" data-name="Path 15973" d="M1.324.309A2.718,2.718,0,0,1,0,.913C.013.731.022.572.028.443,1.361.426,2.045-.45,1.324.309Z" transform="translate(48.519 10.229) rotate(90)" fill="#7d4e24"/>
      <path id="Path_15974" data-name="Path 15974" d="M3.776,10.776a8.354,8.354,0,0,1-1.3,5.434,1.843,1.843,0,0,1-.29-.364c-.478-.908.488-3.273-.236-5.453A41.528,41.528,0,0,0,0,6.7H0A9.726,9.726,0,0,1,.512,4.569c.689-2.008.7-3.51,1.071-4.077.33-.505,1-.652,1.223-.3h0A.451.451,0,0,1,2.864.35c.1.542.1.7.23.474a.877.877,0,0,0,.1-.542,1.146,1.146,0,0,1,.655.53c.365.678.1,1.638-.83,3.953S3.307,7.574,3.776,10.776Z" transform="translate(50.293 12.661) rotate(90)" fill="#f5b054"/>
      <path id="Path_15975" data-name="Path 15975" d="M.287.628C.154.85.163.7.058.154A.452.452,0,0,0,0,0,1.784,1.784,0,0,1,.383.086.877.877,0,0,1,.287.628Z" transform="translate(50.096 15.468) rotate(90)" fill="#7d4e24"/>
      <path id="Path_15976" data-name="Path 15976" d="M3.453,3.651c-.239.421-.466,1.119-.77,1.854-.892.362-1.411.157-1.077.01a1.425,1.425,0,0,0,.691-.86c.061-.272-.123-.1-.851-.157s-.763-.051-.172-.322.394-.185.763-.7.406-.53-.31-.389a3.752,3.752,0,0,1-1.414.106c-.59-.049.184-.1.55-.628a6.5,6.5,0,0,1,.693-.8c.222-.281.284-.619-.16-.508S.757,1.6.314,1.638s-.395-.122,0-.627A2.166,2.166,0,0,0,.76,0,5.642,5.642,0,0,1,2.1,1.127c.887,1,.905,1.293,1.349,1.556S3.933,2.808,3.453,3.651Z" transform="translate(19.374 9.917) rotate(90)" fill="#7d4e24"/>
      <path id="Path_15977" data-name="Path 15977" d="M8.153,3.051c-1.86.613-2.574,1.361-2.3,2.889s.422,1.405-.239,2.28-.735,1.561-.5.356A2.672,2.672,0,0,0,4.95,6.52c-.271-.8-.739-.075-1.256,1.169A2.748,2.748,0,0,1,1.81,9.713c-.548.262-.948.48-1.239.654A4.211,4.211,0,0,0,0,10.021,5.408,5.408,0,0,0,2.357,8.878,6.652,6.652,0,0,0,3.6,6.79c.3-.735.53-1.433.77-1.854.48-.843.443-.7,0-.968S3.909,3.41,3.022,2.412A5.641,5.641,0,0,0,1.678,1.285c-.109-.069-.214-.135-.318-.2h0A1.354,1.354,0,0,1,1.065.236c.043-.427-.043-.23.375.238A16.741,16.741,0,0,0,4.717,2.863c.874.395,1.4.112,2.857-.135S10.012,2.438,8.153,3.051Z" transform="translate(20.66 8.999) rotate(90)" fill="#7d4e24"/>
      <path id="Path_15978" data-name="Path 15978" d="M13,26.222c-.758-5.339-4.517-8.174-5.66-9.369a1.843,1.843,0,0,1-.29-.364c-.478-.908.488-3.273-.236-5.453a41.535,41.535,0,0,0-1.949-3.7h0a4.64,4.64,0,0,1-.4-2.878C4.986,1.726,4.893.47,4.432.119a.812.812,0,0,0-.7-.078,1.2,1.2,0,0,1,.022.3c-.019.31-.157.517-.24.037A.408.408,0,0,0,3.409.155c-.214-.214-.669-.1-.935.223-.332.406.009,2.069,0,2.1,0,0,0,.141-.01.385,1.333-.017,2.017-.893,1.3-.134a2.717,2.717,0,0,1-1.324.6c-.015.188-.034.4-.061.635,1.174.149,1.835-.039.876.392a4.2,4.2,0,0,1-.964.259c-.036.232-.08.474-.131.721.345,0,.728-.024,1.206-.062,1.367-.111.647.166-.517.794s-.369.757.757.536,1,.03.158.647-1.488.665-.9,1.238.111,1.238.9,1.164a9.41,9.41,0,0,1,1.449,0c.961,0,.055.905-1.449,1.2s-1.8.517-1.063.794,1.071.831,1.478,1.644a1.5,1.5,0,0,0,.683.658,7.181,7.181,0,0,0-.794-.208C2.487,13.4,2.535,12.781,1.737,13s-1.023.591-.211.739.64.222,2,.888,1.034,1.009-.271.838S2.068,16.18.787,16.3s-.665.542-.443,1.33.739.813,2.365-.2,1.207-.32,2.7-.985.5-.468-.234.83S4.8,18.84,3.3,19.53s-3.177.591-1.991,1.035,1.276.222,3.591-.517.813-.2,1.917-1.034,1.039-.3.236,1.133-1.462,1.01-2.775,1.823-1.742,1.4-.765,1.229a5.228,5.228,0,0,1,2.152,0c1.256.12,1.478-.194,3.206-1.057s.882-.3.365.591-.345,1.01-2.419,1.453-1.769-.395-2.54.665-.658,1.009,1.165.985,1.428.074,3.428.567.242.394-1.419.591-1.714.024-2.9.714-1.577.345-.279.542,1.387-.049,2.54.739,2.271,1.847,1.408,1.428A6.814,6.814,0,0,0,4.9,29.432a4.058,4.058,0,0,1-2.462-.788,3.573,3.573,0,0,1-.822,1.827,4.315,4.315,0,0,0,.562.591,3.58,3.58,0,0,0,.388.293,1.354,1.354,0,0,1-.295-.844c.043-.427-.043-.23.375.238a16.738,16.738,0,0,0,3.276,2.389c.874.395,1.4.112,2.857-.135s2.438-.29.579.324-2.574,1.361-2.3,2.889.422,1.405-.239,2.28-.735,1.561-.5.356A2.671,2.671,0,0,0,6.156,36.8c-.27-.8-.739-.075-1.256,1.169a2.748,2.748,0,0,1-1.884,2.024c-.548.262-.948.48-1.239.654a2.4,2.4,0,0,1,1.066,1.429A25.914,25.914,0,0,1,3.73,46.58c0,1.626-.333,1.81-1.034,1.81-.649,0-1.377,1.217-.825,1.721a1.994,1.994,0,0,1,.317-.649c.231-.245.333-.229.281-.166a1.115,1.115,0,0,0-.276,1,.843.843,0,0,0,.2.313c.582.6,2.808.434,3.206-.979a7.141,7.141,0,0,1,.246-.738,2.805,2.805,0,0,0-1.564-.609c-.854-.008.3-.615,1.906-.073a.826.826,0,0,0,.169-.427.089.089,0,0,1,0-.014,4.256,4.256,0,0,0-1.755-.8c-.863.022-.085-.839,1.931-.507.041-.256.088-.539.141-.839a4.819,4.819,0,0,0-1.77-.544c-1.086.027.056-.654,1.942-.361.044-.223.091-.45.141-.678a11.7,11.7,0,0,0-2.218-.87c-1.482-.331.429-.805,2.444-.09.071-.279.145-.553.223-.817A10.23,10.23,0,0,0,5.615,41c-1.533-.72,1.238-.052,1.737,0a.452.452,0,0,0,.461-.274,1.258,1.258,0,0,0-.221-1.222c-.511-.749-.205-.211.9.37.744-1.323.161-1.5.851-2.451.167-.231.48-.613.859-1.135A13.792,13.792,0,0,0,13,26.222ZM4.865,13.953c.051.018.043.019,0,0Zm5.512,16.778c-.458.517-1,.517-.472,1.182s.4.177-.522.171l-.924-.005a6.765,6.765,0,0,1-2.069-.315c-1.607-.387-1.034-.092-1.977-.868s.332-.051,1.626.27,1.349.517,2.42.151S10.835,30.214,10.377,30.731Z" transform="translate(50.935 7.794) rotate(90)" fill="#f5b054"/>
      <path id="Path_15979" data-name="Path 15979" d="M.348.3C.329.609.191.817.108.336A.407.407,0,0,0,0,.113,2.126,2.126,0,0,1,.326,0,1.2,1.2,0,0,1,.348.3Z" transform="translate(50.894 11.202) rotate(90)" fill="#7d4e24"/>
      <path id="Path_15980" data-name="Path 15980" d="M2.971.373c-.081.316-.156.639-.226.96A11.7,11.7,0,0,0,.527.463C-.955.132.955-.342,2.971.373Z" transform="translate(8.235 12.031) rotate(90)" fill="#7d4e24"/>
      <path id="Path_15981" data-name="Path 15981" d="M2.364.074c-.063.312-.12.616-.171.9A4.818,4.818,0,0,0,.422.434C-.664.461.478-.22,2.364.074Z" transform="translate(6.297 12.271) rotate(90)" fill="#7d4e24"/>
      <path id="Path_15982" data-name="Path 15982" d="M2.279.076C2.17.76,2.11,1.256,2.1,1.388A4.255,4.255,0,0,0,.348.583C-.515.605.263-.256,2.279.076Z" transform="translate(4.557 12.044) rotate(90)" fill="#7d4e24"/>
      <path id="Path_15983" data-name="Path 15983" d="M2.2.225a4.283,4.283,0,0,0-.342.682A2.805,2.805,0,0,0,.29.3C-.564.29.586-.317,2.2.225Z" transform="translate(2.952 11.78) rotate(90)" fill="#7d4e24"/>
      <path id="Path_15984" data-name="Path 15984" d="M3.337.737c-.072.129-.157.268-.257.42a4.056,4.056,0,0,0-.278.511,10.7,10.7,0,0,0-.527,1.45A10.229,10.229,0,0,0,.457,1.863c-1.533-.72,1.238-.052,1.736,0a.452.452,0,0,0,.461-.274A1.258,1.258,0,0,0,2.434.367C1.923-.382,2.229.156,3.337.737Z" transform="translate(11.797 12.951) rotate(90)" fill="#7d4e24"/>
      <path id="Path_15985" data-name="Path 15985" d="M7.877,8.782a2.17,2.17,0,0,1-.457.006c-.723-.052-.25.294.389.477a1.464,1.464,0,0,1-.389.877.507.507,0,0,1-.45.045h0a.918.918,0,0,1-.5-.452c-.116-.253-.4.037.127.623a.673.673,0,0,1-.694-.081C5.536,9.92,5.5,9.12,4.974,8.442A22.683,22.683,0,0,0,0,4.517a4.054,4.054,0,0,1,.278-.511c.1-.152.185-.292.257-.42.744-1.323.161-1.5.851-2.451C1.553.9,1.867.522,2.245,0A2.317,2.317,0,0,1,2.8.426a2.722,2.722,0,0,0-.525,1.247c-.2,1.21-.074,1.21-.517,1.671s.018.831.73-.166c.55-.771.608-1.28.939-1.7.109.243.236.522.378.818A5.451,5.451,0,0,1,2.4,4.561c-.922.676.989.044,1.952-1.166.076.14.154.281.234.419h0A5.086,5.086,0,0,1,3.567,5.654c-.875.8.742.152,1.692-.8a5.073,5.073,0,0,0,.551.637A2.947,2.947,0,0,1,4.974,7c-.792.507.8.717,1.736-.935.934.446,1.388.446,1.549,1.426C8.4,8.38,8.343,8.712,7.877,8.782Z" transform="translate(14.645 15.752) rotate(90)" fill="#f5b054"/>
      <path id="Path_15986" data-name="Path 15986" d="M1.95.579C1.017,2.232-.578,2.021.214,1.514A2.947,2.947,0,0,0,1.05,0a2.346,2.346,0,0,0,.465.355C1.67.442,1.815.515,1.95.579Z" transform="translate(9.157 20.512) rotate(90)" fill="#7d4e24"/>
      <path id="Path_15987" data-name="Path 15987" d="M1.943,1.037c-.95.954-2.567,1.6-1.692.8A5.083,5.083,0,0,0,1.272,0,10.755,10.755,0,0,0,1.943,1.037Z" transform="translate(10.829 19.068) rotate(90)" fill="#7d4e24"/>
      <path id="Path_15988" data-name="Path 15988" d="M2.2,1.1C1.234,2.305-.677,2.937.245,2.261A5.451,5.451,0,0,0,1.645,0C1.811.35,2,.723,2.2,1.1Z" transform="translate(12.345 17.911) rotate(90)" fill="#7d4e24"/>
      <path id="Path_15989" data-name="Path 15989" d="M1.843,1.056c-.331.417-.39.925-.939,1.7-.712,1-1.173.628-.73.166s.314-.462.517-1.671A2.721,2.721,0,0,1,1.216,0a2.474,2.474,0,0,1,.472.709Z" transform="translate(14.219 17.335) rotate(90)" fill="#7d4e24"/>
      <path id="Path_15990" data-name="Path 15990" d="M.821,0A4.7,4.7,0,0,1,.753.483C.114.3-.359-.046.364.006A2.161,2.161,0,0,0,.821,0Z" transform="translate(5.864 22.809) rotate(90)" fill="#7d4e24"/>
      <path id="Path_15991" data-name="Path 15991" d="M.677.543a1.809,1.809,0,0,1-.37.172C-.217.129.063-.161.179.092A.918.918,0,0,0,.677.543Z" transform="translate(5.002 22.045) rotate(90)" fill="#7d4e24"/>
      <path id="Path_15992" data-name="Path 15992" d="M.89.3a13.626,13.626,0,0,0-.3,1.626,2.008,2.008,0,0,0-.2.064,1.482,1.482,0,0,0-.032-.877A3.891,3.891,0,0,1,0,0,2.667,2.667,0,0,1,.89.3Z" transform="translate(36.277 6.161) rotate(90)" fill="#edaa3d"/>
      <path id="Path_15993" data-name="Path 15993" d="M3.352,2.021a1.973,1.973,0,0,0-.655.395A3.531,3.531,0,0,0,1.473,1.55,1.741,1.741,0,0,0,0,1.486,2.9,2.9,0,0,1,1.139.391,2.887,2.887,0,0,1,2.958.028,3.888,3.888,0,0,0,3.32,1.144,1.481,1.481,0,0,1,3.352,2.021Z" transform="translate(36.306 3.203) rotate(90)" fill="#7d4e24"/>
      <path id="Path_15994" data-name="Path 15994" d="M3.3,1.062a2.625,2.625,0,0,0-.757,1.85c-.185-.219-.411-.262-1.126-.166A11.106,11.106,0,0,0,0,3,5.38,5.38,0,0,1,.6.132,1.741,1.741,0,0,1,2.078.2,3.529,3.529,0,0,1,3.3,1.062Z" transform="translate(34.952 2.598) rotate(90)" fill="#edaa3d"/>
      <path id="Path_15995" data-name="Path 15995" d="M2.691,1.946a6.546,6.546,0,0,0-2.008.1,1.45,1.45,0,0,0-.478.112A11.681,11.681,0,0,1,0,.3,11.094,11.094,0,0,1,1.417.049c.715-.1.941-.053,1.126.165A6.652,6.652,0,0,0,2.691,1.946Z" transform="translate(32.254 2.601) rotate(90)" fill="#7d4e24"/>
      <path id="Path_15996" data-name="Path 15996" d="M2.854,1.645a1.765,1.765,0,0,0-1,.055c-.8.233-1.1,0-1.541.206C.248,1.478.166,1.065.083.682.053.547.026.411,0,.273H0A1.45,1.45,0,0,1,.478.159a6.548,6.548,0,0,1,2.008-.1h0q.053.266.126.546Q2.747,1.128,2.854,1.645Z" transform="translate(30.37 2.807) rotate(90)" fill="#edaa3d"/>
      <path id="Path_15997" data-name="Path 15997" d="M2.826,2.064a4.968,4.968,0,0,0-1.261-.421,2.49,2.49,0,0,0-1.384.284A15.2,15.2,0,0,0,0,.31C.446.1.743.336,1.541.1a1.765,1.765,0,0,1,1-.055A16.162,16.162,0,0,1,2.826,2.064Z" transform="translate(28.775 3.123) rotate(90)" fill="#7d4e24"/>
      <path id="Path_15998" data-name="Path 15998" d="M2.526,3.49c-.174-.754-.194-.967-.751-1.317A2.844,2.844,0,0,0,0,1.9,8.723,8.723,0,0,0,.045.3,2.489,2.489,0,0,1,1.429.018,4.964,4.964,0,0,1,2.69.439,10.882,10.882,0,0,1,2.526,3.49Z" transform="translate(27.149 3.259) rotate(90)" fill="#edaa3d"/>
      <path id="Path_15999" data-name="Path 15999" d="M2.787,1.617h0A8,8,0,0,1,2.244,3.3a2.721,2.721,0,0,0-.185-.729C1.807,1.993,1.567,1.088.791.99A1.836,1.836,0,0,0,0,1.1,4.656,4.656,0,0,0,.261.029,2.844,2.844,0,0,1,2.035.3C2.592.651,2.613.863,2.787,1.617Z" transform="translate(25.277 2.998) rotate(90)" fill="#7d4e24"/>
      <path id="Path_16000" data-name="Path 16000" d="M3.57,2.316q-.08.175-.168.347A4.194,4.194,0,0,1,2.371,3.924c0-.31-.135-.649-.173-1.094C2.12,1.906,2.056,2,1.408,1.722A3.256,3.256,0,0,0,0,1.612q.19-.136.4-.28A2.5,2.5,0,0,0,1.326.115,1.836,1.836,0,0,1,2.117.01c.776.1,1.016,1,1.269,1.578A2.717,2.717,0,0,1,3.57,2.316Z" transform="translate(24.296 1.672) rotate(90)" fill="#edaa3d"/>
      <path id="Path_16001" data-name="Path 16001" d="M2.209,2.286C2.416,1.474,1.482.984.928.7A1.418,1.418,0,0,0,0,.708,7.336,7.336,0,0,1,.829.026h0A3.257,3.257,0,0,1,2.238.135c.648.283.712.185.791,1.108.038.445.169.784.173,1.094a5.346,5.346,0,0,1-1.138.732C2.114,2.9,2.109,2.678,2.209,2.286Z" transform="translate(22.71 0.842) rotate(90)" fill="#7d4e24"/>
      <path id="Path_16002" data-name="Path 16002" d="M3.05,1.66c-.1.392-.095.616-.145.782-1.357.65-2.767.646-2.873-.127A2.354,2.354,0,0,1,.842.083,1.418,1.418,0,0,1,1.77.075C2.324.359,3.258.849,3.05,1.66Z" transform="translate(22.084 0) rotate(90)" fill="#edaa3d"/>
      <path id="Path_16003" data-name="Path 16003" d="M6.289.18C5.831.7,5.285.7,5.817,1.362s.4.177-.522.171l-.924-.005A6.765,6.765,0,0,1,2.3,1.214C.7.827,1.268,1.122.326.346S.658.3,1.951.616s1.349.517,2.42.151S6.747-.337,6.289.18Z" transform="translate(20.384 11.881) rotate(90)" fill="#7d4e24"/>
    </g>
  </g>
</svg>
