<svg xmlns="http://www.w3.org/2000/svg" xmlns:xlink="http://www.w3.org/1999/xlink" width="50.127" height="74.048" viewBox="0 0 50.127 74.048">
  <defs>
    <clipPath id="clip-path">
      <path id="Path_12608" data-name="Path 12608" d="M60.879,369.308l-2.279,3.48a10.163,10.163,0,0,1,4.223-1.166c2.621-.19,6.455,1.715,6.944,1.965s4.986,2.529,7.195,2.117,1.9-.97,1.9-.97l2.063-3.15s-1.614,1.492-5.578-.056-5.742-3.087-8.623-3.249c-1.109-.062-1.926-.153-2.628-.153a4.752,4.752,0,0,0-3.215,1.182" transform="translate(-58.6 -368.126)" fill="none"/>
    </clipPath>
    <linearGradient id="linear-gradient" x1="-0.577" y1="1.472" x2="-0.568" y2="1.472" gradientUnits="objectBoundingBox">
      <stop offset="0" stop-color="#df7914"/>
      <stop offset="0.514" stop-color="#ffb800"/>
      <stop offset="0.736" stop-color="#ffebac"/>
      <stop offset="0.89" stop-color="#ffb800"/>
      <stop offset="1" stop-color="#df7914"/>
    </linearGradient>
    <clipPath id="clip-path-2">
      <path id="Path_12607" data-name="Path 12607" d="M30.506,237.111l-.885.922L28.2,240.482a5.135,5.135,0,0,1,5.226-.293c3.054,1.418,10.251,6.544,10.251,6.544s6.664,4.146,8.635,4.391,4.1.7,5.613-.554l2.114-3.228s-1.337,1.6-5.355.548a28.694,28.694,0,0,1-8.064-3.981l-9.272-6.18a8.994,8.994,0,0,0-4.265-1.238,5.421,5.421,0,0,0-2.582.621" transform="translate(-28.204 -236.49)" fill="none"/>
    </clipPath>
    <linearGradient id="linear-gradient-2" x1="-0.184" y1="1.56" x2="-0.179" y2="1.56" gradientUnits="objectBoundingBox">
      <stop offset="0" stop-color="#ffb800"/>
      <stop offset="0.095" stop-color="#ffebac"/>
      <stop offset="0.241" stop-color="#ffb800"/>
      <stop offset="0.603" stop-color="#ffb800"/>
      <stop offset="1" stop-color="#df7914"/>
    </linearGradient>
  </defs>
  <g id="Group_14112" data-name="Group 14112" transform="translate(6475.136 -2782.419)">
    <g id="Group_14108" data-name="Group 14108" transform="translate(-82 238.518)">
      <g id="Group_12161" data-name="Group 12161" transform="translate(-6390.804 2560.832)">
        <path id="Path_10275" data-name="Path 10275" d="M1002.215,1466.547c8.137,6.559,12.128,15.911,12.426,25.877a20.784,20.784,0,0,1-1.515,9.061,13.111,13.111,0,0,1-6.509,6.741,17.912,17.912,0,0,1-8,1.2,23.433,23.433,0,0,1-10.734-2.8,12.655,12.655,0,0,1-6.345-8.237c-.848-4.531,1.58-8.96,3.619-13.156a15.155,15.155,0,0,0-.526-13.494c-.266.346,1.845-.084,1.407.047C990.67,1469.774,997.581,1468.559,1002.215,1466.547Z" transform="translate(-981.362 -1466.547)" fill="#f5b054"/>
      </g>
      <g id="Group_12163" data-name="Group 12163" transform="translate(-6391.381 2549.051)">
        <g id="Group_12162" data-name="Group 12162" transform="translate(0 0)">
          <path id="Path_10276" data-name="Path 10276" d="M996.385,1363.086a5.193,5.193,0,0,0,2.19-3.993,10.48,10.48,0,0,0-3.375-7.979,11.465,11.465,0,0,0-11.146-2.849,11.8,11.8,0,0,0-8.027,7.481,10.853,10.853,0,0,0,.763,8.267c1.81,3.263,5.841,3.78,9.259,3.618l.528-.089A35.982,35.982,0,0,0,996.385,1363.086Z" transform="translate(-975.541 -1347.823)" fill="#f9d2a5"/>
        </g>
      </g>
      <g id="Group_12165" data-name="Group 12165" transform="translate(-6391.143 2546.809)">
        <g id="Group_12164" data-name="Group 12164" transform="translate(0 0)">
          <path id="Path_10277" data-name="Path 10277" d="M982.888,1330.769q-.9-2.171-1.988-4.261a3.157,3.157,0,0,0-.653-.947,1.113,1.113,0,0,0-1.068-.276c-.5.177-.706.77-.819,1.291a18.3,18.3,0,0,0,.1,8.153A11.611,11.611,0,0,1,982.888,1330.769Z" transform="translate(-977.95 -1325.238)" fill="#f9d2a5"/>
        </g>
      </g>
      <g id="Group_12167" data-name="Group 12167" transform="translate(-6390.049 2546.626)">
        <g id="Group_12166" data-name="Group 12166" transform="translate(0 0)">
          <path id="Path_10278" data-name="Path 10278" d="M988.965,1323.672a1.208,1.208,0,0,1,1.249-.189,2.89,2.89,0,0,1,1.055.794,18.754,18.754,0,0,1,2.719,4.15c-.463.4-1.156.788-1.618,1.188A8.646,8.646,0,0,0,988.965,1323.672Z" transform="translate(-988.965 -1323.392)" fill="#f5b054"/>
        </g>
      </g>
      <g id="Group_12169" data-name="Group 12169" transform="translate(-6379.709 2543.901)">
        <g id="Group_12168" data-name="Group 12168" transform="translate(0 0)">
          <path id="Path_10279" data-name="Path 10279" d="M1099.846,1303.846a24.311,24.311,0,0,0-3.218-6.927c-.372-.552-.962-1.158-1.592-.943-.518.176-.7.8-.814,1.335l-1.055,5.1A17.339,17.339,0,0,1,1099.846,1303.846Z" transform="translate(-1093.166 -1295.932)" fill="#f9d2a5"/>
        </g>
      </g>
      <g id="Group_12171" data-name="Group 12171" transform="translate(-6380.369 2543.951)">
        <g id="Group_12170" data-name="Group 12170" transform="translate(0 0)">
          <path id="Path_10280" data-name="Path 10280" d="M1087.91,1297.216a4.614,4.614,0,0,0-.44,1.346l-.946,4.371,1.842-.145c-.206.016-.137-2.918-.11-3.185a27.44,27.44,0,0,1,.745-3.153C1088.566,1296.359,1088.108,1296.872,1087.91,1297.216Z" transform="translate(-1086.524 -1296.439)" fill="#f5b054"/>
        </g>
      </g>
      <g id="Group_12172" data-name="Group 12172" transform="translate(-6391.381 2549.051)">
        <path id="Path_10281" data-name="Path 10281" d="M998.5,1357.569a10.494,10.494,0,0,0-3.3-6.455,11.465,11.465,0,0,0-11.146-2.849,11.8,11.8,0,0,0-8.027,7.481,10.853,10.853,0,0,0,.763,8.267c.06.108.128.2.193.307a2.72,2.72,0,0,0,.749-.136,5.428,5.428,0,0,0,2.593-1.894c1.015-1.3,1.626-2.862,2.559-4.218a5.068,5.068,0,0,1,4.009-2.518c1.469.038,2.706,1.036,4.017,1.7a9.388,9.388,0,0,0,6.254.77A6.683,6.683,0,0,0,998.5,1357.569Z" transform="translate(-975.541 -1347.823)" fill="#f5b054"/>
      </g>
      <g id="Group_12174" data-name="Group 12174" transform="translate(-6383.393 2556.298)">
        <g id="Group_12173" data-name="Group 12173" transform="translate(0)">
          <path id="Path_10282" data-name="Path 10282" d="M1059.824,1421.179a.474.474,0,0,0-.566-.309c-.5.092-.9.468-1.389.537a8.813,8.813,0,0,0-1.221.075.709.709,0,0,0-.444,1.138,2.078,2.078,0,0,0,2.349.562,2.308,2.308,0,0,0,1.239-1.047A1.28,1.28,0,0,0,1059.824,1421.179Z" transform="translate(-1056.043 -1420.858)" fill="#1d1d1b"/>
        </g>
      </g>
      <g id="Group_12175" data-name="Group 12175" transform="translate(-6384.377 2557.16)">
        <path id="Path_10283" data-name="Path 10283" d="M1053.714,1430.842c-.3-.2-.875.385-1.083.509a3.26,3.26,0,0,1-1.72.477c-.233,0-.563-.129-.841-.132a4.687,4.687,0,0,0-.228-.9,6.162,6.162,0,0,0-.427-1.2c-.064-.121-.246-.035-.239.084a5.775,5.775,0,0,0,.24,1.169,4.42,4.42,0,0,0,.3.974c-.18.165-.417.46-.463.5a2.6,2.6,0,0,1-1.547.72c-.409.03-1.254-.323-1.51.153-.595,1.1,2.621,1.536,3.248,1.526a4.584,4.584,0,0,0,2.859-1.153c.483-.414,1.832-1.839,1.529-2.572A.343.343,0,0,0,1053.714,1430.842Z" transform="translate(-1046.127 -1429.543)" fill="#1d1d1b"/>
      </g>
      <g id="Group_12182" data-name="Group 12182" transform="translate(-6386.766 2549.057)">
        <g id="Group_12177" data-name="Group 12177" transform="translate(5.846 0)">
          <g id="Group_12176" data-name="Group 12176">
            <path id="Path_10284" data-name="Path 10284" d="M1081,1347.948a8.712,8.712,0,0,0-.02,1.306c.028.467-.034,1.231.353,1.568a.352.352,0,0,0,.353.065c.607-.3.521-1.239.6-1.826.049-.381.118-.775.181-1.171A11.154,11.154,0,0,0,1081,1347.948Z" transform="translate(-1080.968 -1347.885)" fill="#7d4e24"/>
          </g>
        </g>
        <g id="Group_12179" data-name="Group 12179" transform="translate(2.859 0.262)">
          <g id="Group_12178" data-name="Group 12178">
            <path id="Path_10285" data-name="Path 10285" d="M1052.617,1350.524c-.237.051-.474.108-.713.174-.352.1-.7.216-1.038.346.1.635.268,1.269.4,1.87.124.547.247,2,1.134,1.838.8-.143.564-1.289.525-1.818C1052.87,1352.125,1052.757,1351.322,1052.617,1350.524Z" transform="translate(-1050.866 -1350.524)" fill="#7d4e24"/>
          </g>
        </g>
        <g id="Group_12181" data-name="Group 12181" transform="translate(0 1.452)">
          <g id="Group_12180" data-name="Group 12180">
            <path id="Path_10286" data-name="Path 10286" d="M1023.985,1365.65a6.746,6.746,0,0,0-.534-3.128,12.267,12.267,0,0,0-1.4.883,12.532,12.532,0,0,0,.525,1.327,1.97,1.97,0,0,0,.947,1.15A.328.328,0,0,0,1023.985,1365.65Z" transform="translate(-1022.055 -1362.522)" fill="#7d4e24"/>
          </g>
        </g>
      </g>
      <g id="Group_12183" data-name="Group 12183" transform="translate(-6389.755 2548.12)">
        <path id="Path_10287" data-name="Path 10287" d="M992.686,1372.642a6.7,6.7,0,0,0-.014,1.028c-.185-.194-.39-.28-.594-.08-.473.464.317,1.4.629,1.712.17.17.392,0,.394-.2a.272.272,0,0,0,.236-.318.259.259,0,0,0,.306-.25,2.853,2.853,0,0,0-.512-1.99C993.009,1372.406,992.708,1372.409,992.686,1372.642Z" transform="translate(-991.931 -1369.077)" fill="#f5b054"/>
        <path id="Path_10288" data-name="Path 10288" d="M1113.587,1338.934c-.3-.071-.523.268-.624.506-.018.042-.026.087-.04.131a7.308,7.308,0,0,0-.642-1.025.249.249,0,0,0-.425.034,1.965,1.965,0,0,0,.532,1.891.252.252,0,0,0,.4,0c.03.077.063.152.091.231a.25.25,0,0,0,.473-.028,1.493,1.493,0,0,0,.55-.942C1113.937,1339.458,1113.922,1339.013,1113.587,1338.934Z" transform="translate(-1099.875 -1338.443)" fill="#f5b054"/>
      </g>
      <g id="Group_12186" data-name="Group 12186" transform="translate(-6384.218 2554.427)">
        <g id="Group_12185" data-name="Group 12185" transform="translate(0 0)">
          <g id="Group_12184" data-name="Group 12184">
            <path id="Path_10289" data-name="Path 10289" d="M1047.778,1402.4l.293.457c.171.267.577-.015.405-.282l-.294-.456C1048.011,1401.849,1047.606,1402.131,1047.778,1402.4Z" transform="translate(-1047.736 -1402.009)" fill="#e98600"/>
          </g>
        </g>
      </g>
      <g id="Group_12189" data-name="Group 12189" transform="translate(-6382.359 2554.116)">
        <g id="Group_12188" data-name="Group 12188" transform="translate(0 0)">
          <g id="Group_12187" data-name="Group 12187">
            <path id="Path_10290" data-name="Path 10290" d="M1066.493,1399.265a1.089,1.089,0,0,1,.12.453.247.247,0,0,0,.492-.035,1.676,1.676,0,0,0-.208-.7C1066.75,1398.7,1066.345,1398.988,1066.493,1399.265Z" transform="translate(-1066.461 -1398.868)" fill="#e98600"/>
          </g>
        </g>
      </g>
      <g id="Group_12192" data-name="Group 12192" transform="translate(-6380.864 2553.108)">
        <g id="Group_12191" data-name="Group 12191" transform="translate(0 0)">
          <g id="Group_12190" data-name="Group 12190">
            <path id="Path_10291" data-name="Path 10291" d="M1081.529,1388.966l.066.538c.038.315.531.281.492-.034q-.033-.27-.065-.539C1081.983,1388.616,1081.491,1388.65,1081.529,1388.966Z" transform="translate(-1081.527 -1388.712)" fill="#e98600"/>
          </g>
        </g>
      </g>
      <g id="Group_12195" data-name="Group 12195" transform="translate(-6380.068 2553.986)">
        <g id="Group_12194" data-name="Group 12194" transform="translate(0 0)">
          <g id="Group_12193" data-name="Group 12193">
            <path id="Path_10292" data-name="Path 10292" d="M1089.627,1397.749a1.711,1.711,0,0,0-.062.8c.048.312.541.279.492-.035a1.4,1.4,0,0,1,.054-.668C1090.21,1397.54,1089.724,1397.451,1089.627,1397.749Z" transform="translate(-1089.544 -1397.565)" fill="#e98600"/>
          </g>
        </g>
      </g>
      <g id="Group_12198" data-name="Group 12198" transform="translate(-6382.692 2555.777)">
        <g id="Group_12197" data-name="Group 12197" transform="translate(0 0)">
          <g id="Group_12196" data-name="Group 12196">
            <path id="Path_10293" data-name="Path 10293" d="M1063.124,1415.933l.131.372a.247.247,0,0,0,.466-.164l-.131-.372A.247.247,0,0,0,1063.124,1415.933Z" transform="translate(-1063.109 -1415.61)" fill="#e98600"/>
          </g>
        </g>
      </g>
      <g id="Group_12201" data-name="Group 12201" transform="translate(-6381.236 2555.535)">
        <g id="Group_12200" data-name="Group 12200" transform="translate(0 0)">
          <g id="Group_12199" data-name="Group 12199">
            <path id="Path_10294" data-name="Path 10294" d="M1077.824,1413.568a.3.3,0,0,1,.042.2c-.039.314.446.409.485.093a.866.866,0,0,0-.122-.58C1078.067,1413.013,1077.663,1413.3,1077.824,1413.568Z" transform="translate(-1077.787 -1413.175)" fill="#e98600"/>
          </g>
        </g>
      </g>
      <g id="Group_12204" data-name="Group 12204" transform="translate(-6385.374 2554.7)">
        <g id="Group_12203" data-name="Group 12203" transform="translate(0 0)">
          <g id="Group_12202" data-name="Group 12202">
            <path id="Path_10295" data-name="Path 10295" d="M1036.093,1405.08l.131.372a.247.247,0,0,0,.466-.164c-.044-.124-.087-.248-.132-.372A.247.247,0,0,0,1036.093,1405.08Z" transform="translate(-1036.077 -1404.756)" fill="#e98600"/>
          </g>
        </g>
      </g>
      <g id="Group_12207" data-name="Group 12207" transform="translate(-6384.627 2556.381)">
        <g id="Group_12206" data-name="Group 12206" transform="translate(0 0)">
          <g id="Group_12205" data-name="Group 12205">
            <path id="Path_10296" data-name="Path 10296" d="M1043.644,1422.088l.194.35c.153.277.558-.006.405-.282l-.194-.35C1043.9,1421.529,1043.492,1421.813,1043.644,1422.088Z" transform="translate(-1043.61 -1421.693)" fill="#e98600"/>
          </g>
        </g>
      </g>
      <g id="Group_12210" data-name="Group 12210" transform="translate(-6387.91 2546.526)">
        <g id="Group_12209" data-name="Group 12209" transform="translate(0 0)">
          <g id="Group_12208" data-name="Group 12208">
            <path id="Path_10297" data-name="Path 10297" d="M1011.159,1323.774q-.068-.588-.137-1.176a.247.247,0,0,0-.49.057l.136,1.176A.247.247,0,0,0,1011.159,1323.774Z" transform="translate(-1010.53 -1322.387)" fill="#e98600"/>
          </g>
        </g>
      </g>
      <g id="Group_12213" data-name="Group 12213" transform="translate(-6386.773 2547.858)">
        <g id="Group_12212" data-name="Group 12212" transform="translate(0 0)">
          <g id="Group_12211" data-name="Group 12211">
            <path id="Path_10298" data-name="Path 10298" d="M1022.507,1337.186q-.016-.567-.031-1.135c-.009-.316-.5-.332-.494-.014q.015.567.031,1.135C1022.022,1337.489,1022.516,1337.5,1022.507,1337.186Z" transform="translate(-1021.983 -1335.807)" fill="#e98600"/>
          </g>
        </g>
      </g>
      <g id="Group_12216" data-name="Group 12216" transform="translate(-6386.051 2549.205)">
        <g id="Group_12215" data-name="Group 12215" transform="translate(0 0)">
          <g id="Group_12214" data-name="Group 12214">
            <path id="Path_10299" data-name="Path 10299" d="M1029.741,1350.722a6.178,6.178,0,0,0,.044-1.124.247.247,0,0,0-.492.035,5.437,5.437,0,0,1-.037,1C1029.215,1350.943,1029.7,1351.038,1029.741,1350.722Z" transform="translate(-1029.253 -1349.377)" fill="#e98600"/>
          </g>
        </g>
      </g>
      <g id="Group_12219" data-name="Group 12219" transform="translate(-6380.54 2547.76)">
        <g id="Group_12218" data-name="Group 12218" transform="translate(0 0)">
          <g id="Group_12217" data-name="Group 12217">
            <path id="Path_10300" data-name="Path 10300" d="M1084.84,1335.211l.369.636c.159.274.564-.008.405-.282l-.369-.636C1085.086,1334.654,1084.681,1334.937,1084.84,1335.211Z" transform="translate(-1084.804 -1334.817)" fill="#e98600"/>
          </g>
        </g>
      </g>
      <g id="Group_12222" data-name="Group 12222" transform="translate(-6380.1 2546.709)">
        <g id="Group_12221" data-name="Group 12221" transform="translate(0 0)">
          <g id="Group_12220" data-name="Group 12220">
            <path id="Path_10301" data-name="Path 10301" d="M1089.245,1324.552l.285.807a.247.247,0,0,0,.465-.164l-.285-.807A.247.247,0,0,0,1089.245,1324.552Z" transform="translate(-1089.229 -1324.229)" fill="#e98600"/>
          </g>
        </g>
      </g>
      <g id="Group_12225" data-name="Group 12225" transform="translate(-6379.925 2544.833)">
        <g id="Group_12224" data-name="Group 12224" transform="translate(0 0)">
          <g id="Group_12223" data-name="Group 12223">
            <path id="Path_10302" data-name="Path 10302" d="M1091.011,1305.646l.46,1.3a.247.247,0,0,0,.465-.164l-.46-1.3A.247.247,0,0,0,1091.011,1305.646Z" transform="translate(-1090.995 -1305.323)" fill="#e98600"/>
          </g>
        </g>
      </g>
      <g id="Group_12228" data-name="Group 12228" transform="translate(-6371.191 2553.495)">
        <g id="Group_12227" data-name="Group 12227" transform="translate(0 0)">
          <g id="Group_12226" data-name="Group 12226">
            <path id="Path_10303" data-name="Path 10303" d="M1179.4,1394.09l1.445-1.026a.247.247,0,0,0-.282-.4l-1.445,1.026A.247.247,0,0,0,1179.4,1394.09Z" transform="translate(-1179.011 -1392.613)"/>
          </g>
        </g>
      </g>
      <g id="Group_12231" data-name="Group 12231" transform="translate(-6370.697 2555.056)">
        <g id="Group_12230" data-name="Group 12230" transform="translate(0 0)">
          <g id="Group_12229" data-name="Group 12229">
            <path id="Path_10304" data-name="Path 10304" d="M1184.315,1409.516a18.014,18.014,0,0,0,2.061-.689c.294-.118.131-.584-.164-.465a18.192,18.192,0,0,1-2.061.689C1183.844,1409.133,1184.01,1409.6,1184.315,1409.516Z" transform="translate(-1183.987 -1408.343)"/>
          </g>
        </g>
      </g>
      <g id="Group_12234" data-name="Group 12234" transform="translate(-6369.965 2556.824)">
        <g id="Group_12233" data-name="Group 12233" transform="translate(0 0)">
          <g id="Group_12232" data-name="Group 12232">
            <path id="Path_10305" data-name="Path 10305" d="M1191.616,1426.855a16.536,16.536,0,0,0,1.89-.2c.311-.05.279-.543-.035-.492a16.438,16.438,0,0,1-1.89.2A.247.247,0,0,0,1191.616,1426.855Z" transform="translate(-1191.359 -1426.163)"/>
          </g>
        </g>
      </g>
      <g id="Group_12237" data-name="Group 12237" transform="translate(-6393.136 2560.832)">
        <g id="Group_12236" data-name="Group 12236" transform="translate(0 0)">
          <g id="Group_12235" data-name="Group 12235">
            <path id="Path_10306" data-name="Path 10306" d="M958.058,1467.038a8.348,8.348,0,0,0,2.3.083c.316-.033.282-.525-.034-.493a7.868,7.868,0,0,1-2.169-.075A.247.247,0,0,0,958.058,1467.038Z" transform="translate(-957.864 -1466.55)"/>
          </g>
        </g>
      </g>
      <g id="Group_12240" data-name="Group 12240" transform="translate(-6392.473 2562.69)">
        <g id="Group_12239" data-name="Group 12239" transform="translate(0)">
          <g id="Group_12238" data-name="Group 12238">
            <path id="Path_10307" data-name="Path 10307" d="M964.792,1486.467a13.589,13.589,0,0,0,2.743-.712.247.247,0,0,0-.164-.466,12.96,12.96,0,0,1-2.613.685C964.445,1486.022,964.478,1486.515,964.792,1486.467Z" transform="translate(-964.539 -1485.272)"/>
          </g>
        </g>
      </g>
      <g id="Group_12244" data-name="Group 12244" transform="translate(-6391.386 2563.999)">
        <g id="Group_12243" data-name="Group 12243" transform="translate(0 0)">
          <g id="Group_12242" data-name="Group 12242">
            <g id="Group_12241" data-name="Group 12241">
              <path id="Path_10308" data-name="Path 10308" d="M975.9,1500.269a9.974,9.974,0,0,0,1.964-1.344c.236-.207-.043-.615-.282-.405a9.946,9.946,0,0,1-1.964,1.344C975.334,1500.01,975.617,1500.414,975.9,1500.269Z" transform="translate(-975.498 -1498.461)"/>
            </g>
          </g>
        </g>
      </g>
      <g id="Group_12246" data-name="Group 12246" transform="translate(-6381.833 2562.753)">
        <g id="Group_12245" data-name="Group 12245" transform="translate(0 0)">
          <path id="Path_10309" data-name="Path 10309" d="M1074.776,1504.882c-.672,2.435-2.011,4.843-1.576,7.326.613,3.5,4.921,5.7,8.58,4.942a10.477,10.477,0,0,0,7.488-7.249c1.064-3.4.674-7.061-.153-10.519-.982-4.107-5.216-8.641-5.745-13.14-.087-.741.208.015-.549-.153a3.024,3.024,0,0,0-1.813.37q-3.625,1.583-7.251,3.165c-3.077,1.349-2.029,1.707-.616,4.054A14.608,14.608,0,0,1,1074.776,1504.882Z" transform="translate(-1071.761 -1485.909)" fill="#f9d2a5"/>
        </g>
      </g>
      <g id="Group_12248" data-name="Group 12248" transform="translate(-6389.373 2557.713)">
        <g id="Group_12247" data-name="Group 12247" transform="translate(0 0)">
          <path id="Path_10310" data-name="Path 10310" d="M1000.288,1435.219a4.772,4.772,0,0,0-4.43,1.362c-.256.264.148.669.4.4a4.192,4.192,0,0,1,2.692-1.283,5.408,5.408,0,0,0-1.328.968.286.286,0,0,0,.4.4,4.788,4.788,0,0,1,2.02-1.219.268.268,0,0,0,.129-.086C1000.505,1435.79,1000.634,1435.289,1000.288,1435.219Z" transform="translate(-995.777 -1435.119)" fill="#1d1d1b"/>
        </g>
      </g>
      <g id="Group_12250" data-name="Group 12250" transform="translate(-6378.122 2552.882)">
        <g id="Group_12249" data-name="Group 12249" transform="translate(0 0)">
          <path id="Path_10311" data-name="Path 10311" d="M1113.316,1386.437a5.763,5.763,0,0,0-4.066,2.639.257.257,0,0,0-.041.149c-.14.239.11.6.368.4a3.515,3.515,0,0,1,1.686-.7c.363-.049.208-.6-.152-.551a3.833,3.833,0,0,0-.734.181,5.248,5.248,0,0,1,3.091-1.574C1113.831,1386.936,1113.676,1386.386,1113.316,1386.437Z" transform="translate(-1109.169 -1386.434)" fill="#1d1d1b"/>
        </g>
      </g>
      <g id="Group_12252" data-name="Group 12252" transform="translate(-6385.026 2571.317)">
        <g id="Group_12251" data-name="Group 12251" transform="translate(0 0)">
          <path id="Path_10312" data-name="Path 10312" d="M1040.4,1581.055a5.093,5.093,0,0,0,1.859,2.6,3.209,3.209,0,0,0,4.829-1.913c.093-.363.261-.852.631-.8a.7.7,0,0,1,.415.342l1.595,2.267c.338.481.76,1.01,1.348,1.034a1.259,1.259,0,0,0,1.089-.689,2.813,2.813,0,0,0,.285-1.313c.052-2.3-.912-4.477-1.857-6.569a4.26,4.26,0,0,0-2.062-2.505,2.854,2.854,0,0,0-2.971.968,8.14,8.14,0,0,0-1.45,2.959,6.274,6.274,0,0,0,.267-2.96c-.4-1.963-3.377-3.414-4.273-1.023A11.6,11.6,0,0,0,1040.4,1581.055Z" transform="translate(-1039.589 -1572.213)" fill="#f5b054"/>
        </g>
      </g>
      <g id="Group_12254" data-name="Group 12254" transform="translate(-6372.165 2567.356)">
        <g id="Group_12253" data-name="Group 12253" transform="translate(0 0)">
          <path id="Path_10313" data-name="Path 10313" d="M1174.425,1533.274c-1.184-.723-2.647-1.391-3.828-.664-1.241.764-1.456,2.626-1.394,4.2a28.61,28.61,0,0,0,.937,6.221c.217.815.579,1.736,1.324,1.939.9.247,1.7-.744,1.987-1.722a11.338,11.338,0,0,1,.845-2.918,20.358,20.358,0,0,1,1.83,1.719,4.372,4.372,0,0,0,2.088,1.248,1.964,1.964,0,0,0,2.1-.915,3.574,3.574,0,0,0-.007-2.624,20.443,20.443,0,0,0-2.37-5.3c-.417-.659-.706-1.475-1.4-1.22-.277.1-.425.441-.759.5A2.1,2.1,0,0,1,1174.425,1533.274Z" transform="translate(-1169.194 -1532.296)" fill="#f5b054"/>
        </g>
      </g>
      <g id="Group_12256" data-name="Group 12256" transform="translate(-6390.094 2581.263)">
        <g id="Group_12255" data-name="Group 12255" transform="translate(0 0)">
          <path id="Path_10314" data-name="Path 10314" d="M988.614,1680.9a7.264,7.264,0,0,1,6.375-8.42,5.276,5.276,0,0,1,4.162,1.194,7.153,7.153,0,0,1,1.776,3.5,28.766,28.766,0,0,1,.966,6.94,16.6,16.6,0,0,1,2.456-4.372,3.243,3.243,0,0,1,.8-.849,1.265,1.265,0,0,1,1.118-.178.8.8,0,0,1,.5.938c-.934,2.816-.633,6.088-.964,9.036a3.619,3.619,0,0,1-.943,2.473,3.385,3.385,0,0,1-1.665.608c-4.12.674-8.711.316-11.891-2.387C988.814,1687.256,989.156,1684.137,988.614,1680.9Z" transform="translate(-988.518 -1672.443)" fill="#f5b054"/>
        </g>
      </g>
      <g id="Group_12258" data-name="Group 12258" transform="translate(-6371.805 2580.248)">
        <g id="Group_12257" data-name="Group 12257" transform="translate(0 0)">
          <path id="Path_10315" data-name="Path 10315" d="M1176.748,1676.219a22.953,22.953,0,0,0-1.689-5.218,2.721,2.721,0,0,0-.616-.939,1,1,0,0,0-1.048-.218c-.516.24-.582.934-.572,1.5q.055,3.041.211,6.08a11.551,11.551,0,0,0,.643,3.813,4.081,4.081,0,0,0,2.731,2.548,4.988,4.988,0,0,0,3.685-1.027c4.157-2.764,6.462-7.791,6.73-12.776.12-2.237-.209-7.975-3.588-7.772-3,.179-4.523,5.644-5.242,7.929A30.126,30.126,0,0,0,1176.748,1676.219Z" transform="translate(-1172.823 -1662.207)" fill="#f5b054"/>
        </g>
      </g>
      <g id="Group_12260" data-name="Group 12260" transform="translate(-6378.868 2595.467)">
        <g id="Group_12259" data-name="Group 12259" transform="translate(0 0)">
          <path id="Path_10316" data-name="Path 10316" d="M1134.765,1833.94c-.418-.97-.5-2.472-1.271-2.919a4.165,4.165,0,0,0-3.4-.143c-2.063.7-3.646,2.334-5.389,3.645a16.5,16.5,0,0,1-12.814,3.283,12.326,12.326,0,0,1-9.593-8.635c-1.078-4.27-.553-8.539-.3-12.936,1.521-.023,5.406-.634,6.927-.657-2.006,3.682-4.687,7.843-3.466,11.854s4.948,7.371,9.141,7.365a13.714,13.714,0,0,0,6.875-2.352,47.416,47.416,0,0,1,6.371-3.662,8.775,8.775,0,0,1,7.135-.137,4.633,4.633,0,0,1,2.347,2.491,3.706,3.706,0,0,1-.209,2.8,1.569,1.569,0,0,1-1.052.843C1135.375,1834.9,1135.012,1834.512,1134.765,1833.94Z" transform="translate(-1101.644 -1815.578)" fill="#f5b054"/>
        </g>
      </g>
      <g id="Group_12262" data-name="Group 12262" transform="translate(-6382.306 2560.225)">
        <g id="Group_12261" data-name="Group 12261" transform="translate(0 0)">
          <path id="Path_10317" data-name="Path 10317" d="M1071.425,1460.435A6.768,6.768,0,0,0,1067,1462.1a3.2,3.2,0,0,0,2.425-.082A3.517,3.517,0,0,0,1071.425,1460.435Z" transform="translate(-1066.997 -1460.435)" fill="#fc9389"/>
        </g>
      </g>
      <g id="Group_12264" data-name="Group 12264" transform="translate(-6385.394 2576.504)">
        <g id="Group_12263" data-name="Group 12263" transform="translate(0)">
          <path id="Path_10318" data-name="Path 10318" d="M1042.261,1630.371c-1.5,1.366-3.468.29-4.4-1.157a10.574,10.574,0,0,1-1.409-4.465c-.042-.361-.614-.365-.571,0,.243,2.069.827,4.521,2.491,5.937a3.212,3.212,0,0,0,4.29.089C1042.937,1630.526,1042.532,1630.124,1042.261,1630.371Z" transform="translate(-1035.881 -1624.477)"/>
        </g>
      </g>
      <g id="Group_12266" data-name="Group 12266" transform="translate(-6383.089 2570.55)">
        <g id="Group_12265" data-name="Group 12265" transform="translate(0 0)">
          <path id="Path_10319" data-name="Path 10319" d="M1061.849,1570.4c0-.016,0-.032.005-.048.014-.125.03-.251.052-.377a.277.277,0,0,0,.032-.174c.021-.1.044-.209.07-.314a4.176,4.176,0,0,1,1.059-1.8c.259-.262-.145-.666-.4-.4a4.794,4.794,0,0,0-.983,1.438,12.718,12.718,0,0,0-2.025-4.117c-.216-.292-.713-.008-.493.288a12.345,12.345,0,0,1,2.194,4.9c-.021.116-.038.232-.051.35a6.813,6.813,0,0,0,.348,3.219c.124.343.676.2.551-.152A6.3,6.3,0,0,1,1061.849,1570.4Z" transform="translate(-1059.107 -1564.477)"/>
        </g>
      </g>
      <g id="Group_12268" data-name="Group 12268" transform="translate(-6367.891 2572.622)">
        <g id="Group_12267" data-name="Group 12267" transform="translate(0 0)">
          <path id="Path_10320" data-name="Path 10320" d="M1213.595,1588.221l-.768-2.664a.286.286,0,0,0-.551.152l.768,2.664A.286.286,0,0,0,1213.595,1588.221Z" transform="translate(-1212.263 -1585.355)"/>
        </g>
      </g>
      <g id="Group_12270" data-name="Group 12270" transform="translate(-6364.348 2575.587)">
        <g id="Group_12269" data-name="Group 12269" transform="translate(0 0)">
          <path id="Path_10321" data-name="Path 10321" d="M1252.095,1615.519c-.021-.365-.593-.368-.571,0a2.532,2.532,0,0,1-.771,2.406c-.844.551-1.6-.2-2.353-.558-.33-.156-.621.336-.288.493.949.449,1.816,1.24,2.882.6A3.011,3.011,0,0,0,1252.095,1615.519Z" transform="translate(-1247.965 -1615.244)"/>
        </g>
      </g>
      <g id="Group_12272" data-name="Group 12272" transform="translate(-6387.151 2583.112)">
        <g id="Group_12271" data-name="Group 12271" transform="translate(0 0)">
          <path id="Path_10322" data-name="Path 10322" d="M1028.675,1701.8c-.532-4.928-3.984-12.592-10.313-10.333-.344.123-.2.675.152.551,5.944-2.121,9.069,5.137,9.583,9.728a.276.276,0,0,0-.009.042v2.971a.286.286,0,0,0,.571,0v-2.833A.261.261,0,0,0,1028.675,1701.8Z" transform="translate(-1018.167 -1691.064)"/>
        </g>
      </g>
      <g id="Group_12274" data-name="Group 12274" transform="translate(-6379.082 2593.916)">
        <g id="Group_12273" data-name="Group 12273" transform="translate(0 0)">
          <path id="Path_10323" data-name="Path 10323" d="M1105.408,1800.141c-.415,1.377-.356,2.785-.7,4.157a2.339,2.339,0,0,1-.6,1.241c-.727.588-1.334.431-2.12-.028a5.323,5.323,0,0,1-1.955-1.818.286.286,0,0,0-.493.288c.757,1.284,2.955,3.248,4.536,2.3a2.874,2.874,0,0,0,1.228-2.018,38.631,38.631,0,0,1,.663-3.973A.286.286,0,0,0,1105.408,1800.141Z" transform="translate(-1099.49 -1799.94)"/>
        </g>
      </g>
      <g id="Group_12276" data-name="Group 12276" transform="translate(-6372.068 2593.567)">
        <g id="Group_12275" data-name="Group 12275" transform="translate(0 0)">
          <path id="Path_10324" data-name="Path 10324" d="M1175.189,1804c-1.471.227-2.494.11-3.363-1.238a6.359,6.359,0,0,1-.554-1.906,28.492,28.492,0,0,1-.538-4.156c-.027-.365-.6-.367-.572,0,.155,2.105.239,4.784,1.3,6.665.836,1.483,2.368,1.418,3.879,1.185C1175.7,1804.494,1175.55,1803.943,1175.189,1804Z" transform="translate(-1170.162 -1796.426)"/>
        </g>
      </g>
      <g id="Group_12278" data-name="Group 12278" transform="translate(-6367.895 2579.838)">
        <g id="Group_12277" data-name="Group 12277" transform="translate(0 0)">
          <path id="Path_10325" data-name="Path 10325" d="M1219.013,1658.09a6.636,6.636,0,0,0-4.756,4.421,27.006,27.006,0,0,0-2.027,10.26.268.268,0,0,0,.085.193,5.931,5.931,0,0,1,.593,2.621.286.286,0,0,0,.571,0,6.578,6.578,0,0,0-.677-2.925,26.358,26.358,0,0,1,1.394-8.084c.81-2.746,1.932-5.182,4.969-5.935A.286.286,0,0,0,1219.013,1658.09Z" transform="translate(-1212.222 -1658.081)"/>
        </g>
      </g>
      <g id="Group_12280" data-name="Group 12280" transform="translate(-6374.428 2581.459)">
        <g id="Group_12279" data-name="Group 12279" transform="translate(0 0)">
          <path id="Path_10326" data-name="Path 10326" d="M1146.674,1674.471c-.144-.168-.386.076-.242.242a3.789,3.789,0,0,1,.868,1.841c.039.217.369.125.331-.091A4.134,4.134,0,0,0,1146.674,1674.471Z" transform="translate(-1146.388 -1674.415)"/>
        </g>
      </g>
      <g id="Group_12282" data-name="Group 12282" transform="translate(-6373.537 2581.027)">
        <g id="Group_12281" data-name="Group 12281" transform="translate(0 0)">
          <path id="Path_10327" data-name="Path 10327" d="M1155.693,1670.131c-.127-.178-.424-.007-.3.173a3.533,3.533,0,0,1,.655,1.747c.02.218.363.22.343,0A3.878,3.878,0,0,0,1155.693,1670.131Z" transform="translate(-1155.365 -1670.056)"/>
        </g>
      </g>
      <g id="Group_12284" data-name="Group 12284" transform="translate(-6370.646 2577.448)">
        <g id="Group_12283" data-name="Group 12283" transform="translate(0 0)">
          <path id="Path_10328" data-name="Path 10328" d="M1185.644,1636.315a3.2,3.2,0,0,1-.8-2.158.171.171,0,0,0-.343,0,3.573,3.573,0,0,0,.9,2.4C1185.547,1636.724,1185.789,1636.481,1185.644,1636.315Z" transform="translate(-1184.503 -1633.991)"/>
        </g>
      </g>
      <g id="Group_12286" data-name="Group 12286" transform="translate(-6369.71 2577.131)">
        <g id="Group_12285" data-name="Group 12285" transform="translate(0 0)">
          <path id="Path_10329" data-name="Path 10329" d="M1194.726,1633.308a2.9,2.9,0,0,1-.357-2.293.172.172,0,0,0-.331-.091,3.255,3.255,0,0,0,.391,2.557C1194.546,1633.668,1194.843,1633.5,1194.726,1633.308Z" transform="translate(-1193.933 -1630.802)"/>
        </g>
      </g>
      <g id="Group_12288" data-name="Group 12288" transform="translate(-6374.019 2587.328)">
        <g id="Group_12287" data-name="Group 12287" transform="translate(0 0)">
          <path id="Path_10330" data-name="Path 10330" d="M1151.716,1733.608a5.389,5.389,0,0,0-1.185,1.715c-.087.2.208.375.3.173a5.147,5.147,0,0,1,1.132-1.645C1152.116,1733.7,1151.874,1733.454,1151.716,1733.608Z" transform="translate(-1150.515 -1733.559)"/>
        </g>
      </g>
      <g id="Group_12290" data-name="Group 12290" transform="translate(-6373.427 2587.685)">
        <g id="Group_12289" data-name="Group 12289" transform="translate(0 0)">
          <path id="Path_10331" data-name="Path 10331" d="M1157.7,1737.19a3.267,3.267,0,0,0-1.218,1.722.171.171,0,0,0,.33.091,2.888,2.888,0,0,1,1.061-1.517C1158.047,1737.357,1157.876,1737.059,1157.7,1737.19Z" transform="translate(-1156.472 -1737.158)"/>
        </g>
      </g>
      <g id="Group_12292" data-name="Group 12292" transform="translate(-6371.73 2587.973)">
        <g id="Group_12291" data-name="Group 12291" transform="translate(0)">
          <path id="Path_10332" data-name="Path 10332" d="M1173.863,1740.113c-.14-.17-.382.073-.242.243a2.593,2.593,0,0,1,.6,1.6.172.172,0,0,0,.343,0A2.978,2.978,0,0,0,1173.863,1740.113Z" transform="translate(-1173.579 -1740.056)"/>
        </g>
      </g>
      <g id="Group_12294" data-name="Group 12294" transform="translate(-6371.175 2587.578)">
        <g id="Group_12293" data-name="Group 12293" transform="translate(0 0)">
          <path id="Path_10333" data-name="Path 10333" d="M1179.5,1736.15c-.133-.172-.431,0-.3.173a3.18,3.18,0,0,1,.681,2.129c-.009.22.333.22.343,0A3.482,3.482,0,0,0,1179.5,1736.15Z" transform="translate(-1179.172 -1736.078)"/>
        </g>
      </g>
      <g id="Group_12313" data-name="Group 12313" transform="translate(-6377.259 2608.708)">
        <g id="Group_12296" data-name="Group 12296" transform="translate(6.217 6.304)">
          <g id="Group_12295" data-name="Group 12295">
            <path id="Path_10334" data-name="Path 10334" d="M1182.433,2013.227a.308.308,0,0,0-.082-.317c-.02-.058-.037-.115-.063-.173a.307.307,0,0,0-.25-.17.239.239,0,0,0-.338.1c-.227.394-.458.784-.7,1.163-.17.2-.334.4-.5.606.107.06.217.115.325.173.372.142.748.27,1.131.377A2.72,2.72,0,0,0,1182.433,2013.227Z" transform="translate(-1180.502 -2012.534)" fill="#7d4e24"/>
          </g>
        </g>
        <g id="Group_12298" data-name="Group 12298" transform="translate(17.616 3.077)">
          <g id="Group_12297" data-name="Group 12297">
            <path id="Path_10335" data-name="Path 10335" d="M1295.375,1980.92c.2.432.4.863.568,1.293a18.722,18.722,0,0,1,.49,2.154,18.427,18.427,0,0,0,1.874-1.086c-.031-.072-.062-.144-.091-.216a11.341,11.341,0,0,0-1.35-3.043c-.3.186-.591.37-.889.549C1295.778,1980.69,1295.577,1980.805,1295.375,1980.92Z" transform="translate(-1295.375 -1980.022)" fill="#7d4e24"/>
          </g>
        </g>
        <g id="Group_12300" data-name="Group 12300" transform="translate(9.629 5.89)">
          <g id="Group_12299" data-name="Group 12299">
            <path id="Path_10336" data-name="Path 10336" d="M1216.88,2008.438c-.093,0-.185.016-.279.016a7.926,7.926,0,0,1-1.124-.088,5.321,5.321,0,0,0-.205.493,10.993,10.993,0,0,0-.378,1.517c-.051.277.288.4.484.265a2.383,2.383,0,0,0,.344-.286,4.643,4.643,0,0,0,.8-1.221Q1216.7,2008.786,1216.88,2008.438Z" transform="translate(-1214.888 -2008.365)" fill="#7d4e24"/>
          </g>
        </g>
        <g id="Group_12302" data-name="Group 12302" transform="translate(21.603 2.752)">
          <g id="Group_12301" data-name="Group 12301">
            <path id="Path_10337" data-name="Path 10337" d="M1336.074,1976.859c-.209-.284-.615,0-.507.306.212.6.444,1.226.726,1.825.32-.26.639-.521.959-.779A10.837,10.837,0,0,1,1336.074,1976.859Z" transform="translate(-1335.549 -1976.743)" fill="#7d4e24"/>
          </g>
        </g>
        <g id="Group_12304" data-name="Group 12304" transform="translate(22.617)">
          <g id="Group_12303" data-name="Group 12303">
            <path id="Path_10338" data-name="Path 10338" d="M1347.662,1949.01a18.517,18.517,0,0,0-1.89.923,21.094,21.094,0,0,0,1.793,2.455,11.474,11.474,0,0,1,1.305-.816A25.332,25.332,0,0,1,1347.662,1949.01Z" transform="translate(-1345.772 -1949.01)" fill="#7d4e24"/>
          </g>
        </g>
        <g id="Group_12306" data-name="Group 12306" transform="translate(15.64 5.921)">
          <g id="Group_12305" data-name="Group 12305">
            <path id="Path_10339" data-name="Path 10339" d="M1276.673,2008.786c-.144-.139-.444-.164-.512.081l-.694,2.5a17.315,17.315,0,0,0,1.673-.576A2.086,2.086,0,0,0,1276.673,2008.786Z" transform="translate(-1275.467 -2008.681)" fill="#7d4e24"/>
          </g>
        </g>
        <g id="Group_12308" data-name="Group 12308" transform="translate(2.627 3.607)">
          <g id="Group_12307" data-name="Group 12307">
            <path id="Path_10340" data-name="Path 10340" d="M1146.907,1985.359c-.864.805-1.716,1.616-2.579,2.421.276.242.566.468.863.685.119-.11.238-.215.358-.327.626-.583,1.632-1.42,2.343-2.172-.112-.082-.222-.169-.331-.255A4.963,4.963,0,0,1,1146.907,1985.359Z" transform="translate(-1144.328 -1985.359)" fill="#7d4e24"/>
          </g>
        </g>
        <g id="Group_12310" data-name="Group 12310" transform="translate(11.892 5.599)">
          <g id="Group_12309" data-name="Group 12309">
            <path id="Path_10341" data-name="Path 10341" d="M1239.711,2005.433a10.072,10.072,0,0,1-1.747.334,12.269,12.269,0,0,1-.087,2.02c-.037.431-.1.853-.182,1.273a15.5,15.5,0,0,0,2.394-.288A11.448,11.448,0,0,0,1239.711,2005.433Z" transform="translate(-1237.695 -2005.433)" fill="#7d4e24"/>
          </g>
        </g>
        <g id="Group_12312" data-name="Group 12312" transform="translate(0 0.313)">
          <g id="Group_12311" data-name="Group 12311">
            <path id="Path_10342" data-name="Path 10342" d="M1118.892,1956.2l.226-.209c.405-.329.781-.655,1.074-.9.259-.216.509-.442.762-.665.259-.2.513-.4.767-.605-.076-.089-.154-.176-.228-.267a13.456,13.456,0,0,1-.987-1.387c-.185.17-.373.339-.554.512-.72.646-1.453,1.286-2.1,1.95A11.336,11.336,0,0,0,1118.892,1956.2Z" transform="translate(-1117.854 -1952.167)" fill="#7d4e24"/>
          </g>
        </g>
      </g>
    </g>
    <g id="Group_14110" data-name="Group 14110" transform="translate(-6468.655 2823.299)">
      <g id="Group_13852" data-name="Group 13852" clip-path="url(#clip-path)">
        <rect id="Rectangle_85328" data-name="Rectangle 85328" width="18.914" height="23.053" transform="translate(-3.662 5.592) rotate(-56.78)" fill="url(#linear-gradient)"/>
      </g>
    </g>
    <path id="Path_12628" data-name="Path 12628" d="M184.177,394.212a.111.111,0,0,1-.032-.154l.762-1.163a.111.111,0,0,1,.186.122l-.762,1.163a.111.111,0,0,1-.154.032" transform="translate(-6633.071 2434.335)" fill="#191818"/>
    <path id="Path_12629" data-name="Path 12629" d="M174.865,395.2a.111.111,0,0,1-.032-.154l.762-1.163a.111.111,0,0,1,.186.122l-.762,1.163a.111.111,0,0,1-.154.032" transform="translate(-6625.221 2433.506)" fill="#191818"/>
    <path id="Path_12630" data-name="Path 12630" d="M165.735,393.942a.111.111,0,0,1-.032-.154l.762-1.163a.111.111,0,0,1,.186.122l-.762,1.163a.111.111,0,0,1-.154.032" transform="translate(-6617.524 2434.563)" fill="#191818"/>
    <path id="Path_12631" data-name="Path 12631" d="M157.5,391.33a.111.111,0,0,1-.032-.154l.762-1.163a.111.111,0,0,1,.186.122l-.762,1.163a.111.111,0,0,1-.154.032" transform="translate(-6610.579 2436.764)" fill="#191818"/>
    <path id="Path_12632" data-name="Path 12632" d="M149.656,388.106a.111.111,0,0,1-.032-.154l.762-1.163a.111.111,0,0,1,.186.122l-.762,1.163a.111.111,0,0,1-.154.032" transform="translate(-6603.97 2439.482)" fill="#191818"/>
    <path id="Path_12633" data-name="Path 12633" d="M141.9,384.75a.111.111,0,0,1-.032-.154l.762-1.163a.111.111,0,1,1,.186.122l-.762,1.163a.111.111,0,0,1-.154.032" transform="translate(-6597.436 2442.311)" fill="#191818"/>
    <path id="Path_12634" data-name="Path 12634" d="M134.351,381.087a.111.111,0,0,1-.032-.154l.762-1.163a.111.111,0,0,1,.186.122l-.762,1.163a.111.111,0,0,1-.154.032" transform="translate(-6591.069 2445.399)" fill="#191818"/>
    <path id="Path_12635" data-name="Path 12635" d="M126.656,377.643a.111.111,0,0,1-.032-.154l.762-1.163a.111.111,0,0,1,.186.122l-.762,1.163a.111.111,0,0,1-.154.032" transform="translate(-6584.583 2448.302)" fill="#191818"/>
    <path id="Path_12636" data-name="Path 12636" d="M118.586,374.771a.111.111,0,0,1-.032-.154l.762-1.163a.111.111,0,0,1,.186.122l-.762,1.163a.111.111,0,0,1-.154.032" transform="translate(-6577.779 2450.723)" fill="#191818"/>
    <path id="Path_12637" data-name="Path 12637" d="M110.506,371.916a.111.111,0,0,1-.032-.154l.762-1.163a.111.111,0,0,1,.186.122l-.762,1.163a.111.111,0,0,1-.154.032" transform="translate(-6570.968 2453.13)" fill="#191818"/>
    <path id="Path_12638" data-name="Path 12638" d="M101.827,369.974a.111.111,0,0,1-.032-.154l.762-1.163a.111.111,0,1,1,.186.122l-.762,1.163a.111.111,0,0,1-.154.032" transform="translate(-6563.652 2454.767)" fill="#191818"/>
    <path id="Path_12639" data-name="Path 12639" d="M92.438,369.116a.111.111,0,0,1-.032-.154l.762-1.163a.111.111,0,0,1,.186.122l-.762,1.163a.111.111,0,0,1-.154.032" transform="translate(-6555.738 2455.49)" fill="#191818"/>
    <path id="Path_12640" data-name="Path 12640" d="M82.17,369.6a.111.111,0,0,1-.032-.154l.762-1.163a.111.111,0,0,1,.186.122l-.762,1.163a.111.111,0,0,1-.154.032" transform="translate(-6547.082 2455.082)" fill="#191818"/>
    <g id="Group_14111" data-name="Group 14111" transform="translate(-391.27 -768.972) rotate(-7)">
      <g id="Group_14109" data-name="Group 14109" transform="translate(-6472.059 2808.616)">
        <g id="Group_13850" data-name="Group 13850" clip-path="url(#clip-path-2)">
          <rect id="Rectangle_85327" data-name="Rectangle 85327" width="29.459" height="35.201" transform="translate(-6.739 11.322) rotate(-59.241)" fill="url(#linear-gradient-2)"/>
        </g>
      </g>
      <path id="Path_12610" data-name="Path 12610" d="M221.188,315.139a.106.106,0,0,1-.031-.147l.728-1.112a.106.106,0,0,1,.178.116l-.728,1.112a.106.106,0,0,1-.147.031" transform="translate(-6664.242 2506.392)" fill="#191818"/>
      <path id="Path_12611" data-name="Path 12611" d="M240.337,294.874a.106.106,0,0,1-.031-.147l.728-1.112a.106.106,0,0,1,.178.116l-.728,1.112a.106.106,0,0,1-.147.031" transform="translate(-6680.518 2523.615)" fill="#191818"/>
      <path id="Path_12612" data-name="Path 12612" d="M241.108,284.721a.106.106,0,0,1-.031-.147l.728-1.112a.106.106,0,0,1,.178.116l-.728,1.112a.106.106,0,0,1-.147.031" transform="translate(-6681.173 2532.245)" fill="#191818"/>
      <path id="Path_12613" data-name="Path 12613" d="M210.643,315.274a.106.106,0,0,1-.031-.147l.728-1.112a.106.106,0,0,1,.178.116l-.728,1.112a.106.106,0,0,1-.147.031" transform="translate(-6655.28 2506.277)" fill="#191818"/>
      <path id="Path_12614" data-name="Path 12614" d="M198.232,313.155a.106.106,0,0,1-.031-.147l.728-1.112a.106.106,0,1,1,.178.116l-.728,1.112a.106.106,0,0,1-.147.031" transform="translate(-6644.732 2508.078)" fill="#191818"/>
      <path id="Path_12615" data-name="Path 12615" d="M185.5,308.663a.106.106,0,0,1-.031-.147l.728-1.112a.106.106,0,0,1,.178.116l-.728,1.112a.106.106,0,0,1-.147.031" transform="translate(-6633.908 2511.896)" fill="#191818"/>
      <path id="Path_12616" data-name="Path 12616" d="M173.321,303.317a.106.106,0,0,1-.031-.147l.728-1.112a.106.106,0,0,1,.178.116l-.728,1.112a.106.106,0,0,1-.147.031" transform="translate(-6623.56 2516.439)" fill="#191818"/>
      <path id="Path_12617" data-name="Path 12617" d="M161.79,296.986a.106.106,0,0,1-.031-.147l.728-1.111a.106.106,0,1,1,.178.116l-.728,1.112a.106.106,0,0,1-.147.031" transform="translate(-6613.759 2521.82)" fill="#191818"/>
      <path id="Path_12618" data-name="Path 12618" d="M150.649,290.059a.106.106,0,0,1-.031-.147l.728-1.112a.106.106,0,0,1,.178.116l-.728,1.112a.106.106,0,0,1-.147.031" transform="translate(-6604.29 2527.708)" fill="#191818"/>
      <path id="Path_12619" data-name="Path 12619" d="M139.678,282.874a.106.106,0,0,1-.031-.147l.728-1.111a.106.106,0,1,1,.178.116l-.728,1.112a.106.106,0,0,1-.147.031" transform="translate(-6594.966 2533.814)" fill="#191818"/>
      <path id="Path_12620" data-name="Path 12620" d="M128.875,275.431a.106.106,0,0,1-.031-.147l.728-1.112a.106.106,0,0,1,.178.116l-.728,1.112a.106.106,0,0,1-.147.031" transform="translate(-6585.784 2540.14)" fill="#191818"/>
      <path id="Path_12621" data-name="Path 12621" d="M118.011,268.082a.106.106,0,0,1-.031-.147l.728-1.112a.106.106,0,0,1,.178.116l-.728,1.112a.106.106,0,0,1-.147.031" transform="translate(-6576.551 2546.386)" fill="#191818"/>
      <path id="Path_12622" data-name="Path 12622" d="M107.233,260.6a.106.106,0,0,1-.031-.147l.728-1.112a.106.106,0,0,1,.178.116l-.728,1.112a.106.106,0,0,1-.147.031" transform="translate(-6567.39 2552.744)" fill="#191818"/>
      <path id="Path_12623" data-name="Path 12623" d="M96.262,253.417a.106.106,0,0,1-.031-.147l.728-1.112a.106.106,0,0,1,.178.116l-.728,1.112a.106.106,0,0,1-.147.031" transform="translate(-6558.066 2558.85)" fill="#191818"/>
      <path id="Path_12624" data-name="Path 12624" d="M84.989,246.691a.106.106,0,0,1-.031-.147l.728-1.112a.106.106,0,1,1,.178.116l-.728,1.112a.106.106,0,0,1-.147.031" transform="translate(-6548.485 2564.567)" fill="#191818"/>
      <path id="Path_12625" data-name="Path 12625" d="M73.243,240.689a.106.106,0,0,1-.031-.147l.728-1.112a.106.106,0,0,1,.178.116l-.728,1.112a.106.106,0,0,1-.147.031" transform="translate(-6538.501 2569.668)" fill="#191818"/>
      <path id="Path_12626" data-name="Path 12626" d="M59.846,237.207a.106.106,0,0,1-.031-.147l.728-1.112a.106.106,0,0,1,.178.116l-.728,1.112a.106.106,0,0,1-.147.031" transform="translate(-6527.116 2572.628)" fill="#191818"/>
      <path id="Path_12641" data-name="Path 12641" d="M23.977,239.672l1.963-3a2.252,2.252,0,0,1,.872-.785,5.25,5.25,0,0,1,1.108-.4c3.046-.738,5.9,1.24,10.615,4.517,1.308.908,2.79,1.937,4.44,3.018,7.424,4.862,12.164,4.876,13.567,2.733a5.421,5.421,0,0,0,.641-4.149.206.206,0,0,0-.048-.086c-.117.084-.23.171-.347.253a4.965,4.965,0,0,1-.6,3.748c-1.246,1.9-5.839,1.821-12.98-2.855-1.646-1.078-3.126-2.105-4.431-3.011-4.818-3.345-7.726-5.364-10.957-4.581a5.679,5.679,0,0,0-1.2.437,2.676,2.676,0,0,0-1.038.932L23.6,239.474a.208.208,0,0,0-.03.074" transform="translate(-6496.324 2573.474)" fill="#191818"/>
      <path id="Path_12642" data-name="Path 12642" d="M57.4,263.946a.212.212,0,0,0-.294.061l-2.138,3.265c-1.246,1.9-5.839,1.821-12.98-2.855-1.646-1.078-3.126-2.105-4.431-3.012-4.818-3.345-7.726-5.364-10.957-4.581a5.148,5.148,0,0,0-1.633.673c-.1.158-.2.314-.318.462,0,0,0,.01.006.014a.21.21,0,0,0,.055.053.212.212,0,0,0,.241-.006,4.657,4.657,0,0,1,1.748-.783c3.046-.738,5.9,1.24,10.615,4.517,1.308.908,2.79,1.937,4.44,3.018,7.424,4.862,12.164,4.876,13.567,2.733l2.138-3.265a.212.212,0,0,0-.061-.294" transform="translate(-6497.245 2554.987)" fill="#191818"/>
      <path id="Path_12643" data-name="Path 12643" d="M229.626,294.446a4.732,4.732,0,0,0-.528-3.3.206.206,0,0,0-.03-.033c-.085.055-.172.106-.257.16l-.088.058a.2.2,0,0,0,.013.035,4.378,4.378,0,0,1,.479,2.98.212.212,0,0,0,.412.1" transform="translate(-6670.686 2525.701)" fill="#191818"/>
    </g>
    <path id="Path_12644" data-name="Path 12644" d="M57.424,371.452l-.023-.018a.222.222,0,0,1-.041-.29l2.321-3.544a.23.23,0,0,1,.037-.044c.093-.084,2.343-2.043,7.236-.887a26.224,26.224,0,0,1,4.768,1.856c3.046,1.414,5.924,2.75,8.085,1.266a.222.222,0,0,1,.311.3L77.8,373.64a.224.224,0,0,1-.06.061c-2.37,1.627-5.359.24-8.523-1.229a25.907,25.907,0,0,0-4.684-1.826c-4.649-1.1-6.816.767-6.838.786a.222.222,0,0,1-.269.02m2.61-3.581-1.756,2.681a9.463,9.463,0,0,1,6.355-.338A26.222,26.222,0,0,1,69.4,372.07c3.03,1.406,5.892,2.735,8.049,1.29l1.819-2.777c-2.228.9-4.911-.345-7.734-1.655a25.914,25.914,0,0,0-4.684-1.826c-4.414-1.043-6.591.585-6.818.769" transform="translate(-6526.18 2456.708)" fill="#191818"/>
  </g>
</svg>
