<svg id="Group_14120" data-name="Group 14120" xmlns="http://www.w3.org/2000/svg" xmlns:xlink="http://www.w3.org/1999/xlink" width="66.626" height="52.379" viewBox="0 0 66.626 52.379">
  <defs>
    <clipPath id="clip-path">
      <rect id="Rectangle_85324" data-name="Rectangle 85324" width="8.743" height="7.775" transform="translate(0 0)" fill="#580b0b"/>
    </clipPath>
  </defs>
  <g id="Group_14119" data-name="Group 14119" transform="translate(0)">
    <g id="Group_11868" data-name="Group 11868">
      <path id="Path_10116" data-name="Path 10116" d="M662.087,1339.813a1.791,1.791,0,0,1,1.239.137,9.438,9.438,0,0,1,2.368,1.369c.109.013.219.03.332.054a.322.322,0,0,1,.246.2c.124-.069.253-.136.392-.2.233-.106.594.013.567.325a4.325,4.325,0,0,1-.117.7l.172-.028c.212-.034.509.1.477.363l-.039.324c.094-.007.212,0,.452.013a.381.381,0,0,1,.363.477l-.177.672c.015.021.03.042.044.064a2.956,2.956,0,0,1,.675-.061.38.38,0,0,1,.325.566,3.79,3.79,0,0,0-.332.576l.026.046a2.5,2.5,0,0,1,.557.058.381.381,0,0,1,.166.629l-.19.335.048.1a5.587,5.587,0,0,1,.8,0,.38.38,0,0,1,.325.566l-.414.609a3.776,3.776,0,0,1,.713-.032.382.382,0,0,1,.325.566,5.82,5.82,0,0,1-.44.778,3.976,3.976,0,0,1,.745.106.379.379,0,0,1,.225.553l-.03.045a3.672,3.672,0,0,1,.547.068.38.38,0,0,1,.225.553l-.418.765c.094,0,.21,0,.375-.006a.38.38,0,0,1,.325.566l-.346.631.4.008a.381.381,0,0,1,.325.566,4.578,4.578,0,0,1-.386.671,2.9,2.9,0,0,1,.5.153.382.382,0,0,1,.166.629l-.214.212a.372.372,0,0,1,.268.556l-.245.349a2.576,2.576,0,0,1,.519.161.382.382,0,0,1,.225.553l-.27.4.175-.009a.381.381,0,0,1,.266.643l-.12.132c.107,0,.217,0,.331.012a.382.382,0,0,1,.266.643,6.471,6.471,0,0,0-.517.734l.01.028.593-.061c.327-.034.43.327.306.564a.389.389,0,0,1,.109.609l-.182.215a4.22,4.22,0,0,1,.4,1.035l-.088.13.291,0a.377.377,0,0,1,.2.726l-.2.056a13.15,13.15,0,0,0,3.894,4.62c-1.35,1.569-1.615,2.232-1.061,4.226a4.078,4.078,0,0,1-3.371-1.635l-1.448-.047a.38.38,0,0,1-.325-.566l.293-.469-.572.112a.38.38,0,0,1-.366-.629l.682-.817-.8-.031a.38.38,0,0,1-.325-.567,4.842,4.842,0,0,1,.512-.687,6.529,6.529,0,0,0-1.121-.026.38.38,0,0,1-.266-.643l.554-.5-.339-.047a.379.379,0,0,1-.225-.553l.4-.626-.012-.03a2.055,2.055,0,0,0-.716-.016.379.379,0,0,1-.325-.567,4.187,4.187,0,0,1,.416-.518,5.025,5.025,0,0,0-1.024.029.38.38,0,0,1-.266-.643,3.823,3.823,0,0,0,.706-.784.913.913,0,0,1-.813-.472.861.861,0,0,1-.057-.673c.14-.587,1.048-.927-.262-.705a.378.378,0,0,1-.29-.688l.276-.3-.694-.079a.38.38,0,0,1-.19-.7l.477-.355a4.211,4.211,0,0,1-.677-.187.382.382,0,0,1-.09-.688l.412-.289a2.989,2.989,0,0,0-.651-.066c-.345-.02-.548-.525-.19-.7l.666-.329a2.571,2.571,0,0,0-.614-.026.379.379,0,0,1-.325-.566c.083-.112.164-.21.247-.3a6.888,6.888,0,0,1-.675-.154.38.38,0,0,1,0-.726l.251-.1-.312-.083a.38.38,0,0,1-.225-.553l.448-.686-.785-.148c-.353-.067-.323-.516-.09-.688l.738-.547a6.486,6.486,0,0,1-.889-.306.379.379,0,0,1-.076-.591l.558-.549-1.114,0c-.349,0-.545-.542-.19-.7a2.385,2.385,0,0,0,.8-.593c-.263-.025-.525-.045-.786-.066a.382.382,0,0,1-.266-.643l.4-.422a3.256,3.256,0,0,0-.715.056c-.264.03-.4-.263-.363-.476a3.248,3.248,0,0,1,.322-.962c-.025-.033-.052-.065-.078-.1a3.1,3.1,0,0,0-.531.1c-.25.054-.579-.178-.463-.464a3.481,3.481,0,0,1,.188-.4l-.213.025c-.291.1-.627-.291-.425-.553l.148-.192a27.486,27.486,0,0,1-1.862-2.126A.715.715,0,0,1,662.087,1339.813Zm12.521,28.637c-.03-.042-.059-.085-.089-.128l-.076.123Zm-3.995-8.683-.03-.086A.149.149,0,0,0,670.613,1359.767Z" transform="translate(-661.57 -1339.75)" fill="#f5b054"/>
    </g>
    <g id="Group_11878" data-name="Group 11878" transform="translate(3.012 4.484)">
      <g id="Group_11869" data-name="Group 11869" transform="translate(5.159 12.146)">
        <path id="Path_10117" data-name="Path 10117" d="M718.7,1543.982a1.161,1.161,0,0,1,.455-.491c1.3-.863,2.58-1.733,3.815-2.623l-.121.178.175-.009a.381.381,0,0,1,.266.643l-.12.133c.108,0,.217,0,.331.012a.375.375,0,0,1,.3.58,27.227,27.227,0,0,1-4.662,1.952c-.238.071-.42.05-.472-.048a.844.844,0,0,1,0-.144.283.283,0,0,0,0-.046C718.684,1544.077,718.694,1544.03,718.7,1543.982Z" transform="translate(-718.672 -1540.868)" fill="#7d4e24"/>
      </g>
      <g id="Group_11870" data-name="Group 11870" transform="translate(8.85 20.56)">
        <path id="Path_10118" data-name="Path 10118" d="M678.464,1645.894c1.208-1.151,2.609-2.206,3.976-3.269q.3.347.626.67-2.016,1.612-4.24,3.073c-.317.207-.529.219-.61.121a.306.306,0,0,1,.021-.047l.292-.469-.17.034A1.367,1.367,0,0,1,678.464,1645.894Z" transform="translate(-678.216 -1642.625)" fill="#7d4e24"/>
      </g>
      <g id="Group_11871" data-name="Group 11871" transform="translate(0 0.387)">
        <path id="Path_10119" data-name="Path 10119" d="M818.691,1399.633c.118-.086.236-.174.354-.259.7-.5,1.57-.982,1.716-.571.138.388-.742,1.307-1.447,1.992a.36.36,0,0,1,.058-.433l.4-.422a3.256,3.256,0,0,0-.715.056A.355.355,0,0,1,818.691,1399.633Z" transform="translate(-818.691 -1398.648)" fill="#7d4e24"/>
      </g>
      <g id="Group_11872" data-name="Group 11872" transform="translate(3.862 11.091)">
        <path id="Path_10120" data-name="Path 10120" d="M732.644,1528.226a2.584,2.584,0,0,1,.52.161.5.5,0,0,1,.228.2c-.028.016-.057.031-.086.046-.047.024-.1.045-.143.068a1.385,1.385,0,0,1-.463.292q-.736.3-1.469.6c-.893.4-1.787.766-2.681,1.113l.151-.166-.694-.079a.38.38,0,0,1-.19-.7l.367-.273c1.532-.521,3.063-1.026,4.545-1.381Z" transform="translate(-727.64 -1528.105)" fill="#7d4e24"/>
      </g>
      <g id="Group_11873" data-name="Group 11873" transform="translate(7.725 19.001)">
        <path id="Path_10121" data-name="Path 10121" d="M704.187,1625.93q1.1-.871,2.192-1.778c.307-.256.545-.326.678-.284.54-.272.853.01.273.52l-.154.135a.863.863,0,0,1-.291.415c-.886.813-1.8,1.6-2.721,2.367a.381.381,0,0,1-.331-.567,4.845,4.845,0,0,1,.512-.687c-.1-.011-.2-.019-.3-.026Z" transform="translate(-703.78 -1623.761)" fill="#7d4e24"/>
      </g>
      <g id="Group_11874" data-name="Group 11874" transform="translate(3.064 2.601)">
        <path id="Path_10122" data-name="Path 10122" d="M761.293,1428.7c-.491.214-.73-.1-.194-.563.565-.489,1.118-.982,1.673-1.474a1.108,1.108,0,0,1,.424-.562c.271-.223.537-.449.8-.675a.314.314,0,0,1-.046.265l-.414.609a3.765,3.765,0,0,1,.713-.032.371.371,0,0,1,.35.263A15.64,15.64,0,0,1,761.293,1428.7Z" transform="translate(-760.794 -1425.426)" fill="#7d4e24"/>
      </g>
      <g id="Group_11875" data-name="Group 11875" transform="translate(2.231 0)">
        <path id="Path_10123" data-name="Path 10123" d="M787.357,1395.186c-.538.564-1.084,1.128-1.648,1.689-.51.509-1.29.581-.92.053.686-.98,1.427-1.966,2.2-2.956a.378.378,0,0,1,.3.562,3.783,3.783,0,0,0-.332.576l.026.046A2.406,2.406,0,0,1,787.357,1395.186Z" transform="translate(-784.693 -1393.972)" fill="#7d4e24"/>
      </g>
      <g id="Group_11876" data-name="Group 11876" transform="translate(6.183 14.745)">
        <path id="Path_10124" data-name="Path 10124" d="M710.208,1575.3c1.427-.868,2.941-1.913,4.435-3.008a.46.46,0,0,1-.046.266.389.389,0,0,1,.109.609l-.182.215a4.237,4.237,0,0,1,.4,1.035l-.088.13.169,0c-1.388,1.014-2.813,1.974-4.2,2.8a.369.369,0,0,1,.037-.273l.4-.626-.012-.03a2.056,2.056,0,0,0-.716-.016.379.379,0,0,1-.325-.567,4.194,4.194,0,0,1,.416-.518C710.47,1575.3,710.34,1575.3,710.208,1575.3Z" transform="translate(-710.13 -1572.29)" fill="#7d4e24"/>
      </g>
      <g id="Group_11877" data-name="Group 11877" transform="translate(2.356 6.09)">
        <path id="Path_10125" data-name="Path 10125" d="M743.953,1467.62c0,.007-.005.015-.009.022l-.418.765c.094,0,.21,0,.375-.006a.38.38,0,0,1,.325.567l-.346.631.4.008a.36.36,0,0,1,.291.147c-.444.2-.888.406-1.335.6-1.332.588-2.792,1.267-4.271,1.9a.312.312,0,0,1,.184-.271l.666-.329a2.564,2.564,0,0,0-.614-.026.379.379,0,0,1-.325-.566c.083-.112.164-.21.247-.3a6.855,6.855,0,0,1-.675-.154.341.341,0,0,1-.263-.314C739.86,1469.61,741.893,1468.636,743.953,1467.62Z" transform="translate(-738.182 -1467.62)" fill="#7d4e24"/>
      </g>
    </g>
    <g id="Group_11879" data-name="Group 11879" transform="translate(23.288 28.58)">
      <path id="Path_10126" data-name="Path 10126" d="M486.87,1700.441c.315,1.646.928,3.217,1.392,4.827a4.09,4.09,0,0,1,.214,1.853,1.548,1.548,0,0,1-1.189,1.3c-.754.1-1.39-.531-1.862-1.129a27.877,27.877,0,0,1-5.912-15.65,9.47,9.47,0,0,1,.308-3.439,4.132,4.132,0,0,1,2.168-2.578c2.717-1.162,6.846,2.256,7.307,4.95.291,1.7-.915,3.014-1.7,4.378A7.8,7.8,0,0,0,486.87,1700.441Z" transform="translate(-479.485 -1685.392)" fill="#f5b054"/>
    </g>
    <g id="Group_11881" data-name="Group 11881" transform="translate(14.494 15.193)">
      <g id="Group_11880" data-name="Group 11880">
        <path id="Path_10127" data-name="Path 10127" d="M172.049,1538.279a24.493,24.493,0,0,1,2.888-8.646,12.573,12.573,0,0,1,7.191-5.745,13.876,13.876,0,0,1,9.462,1.145,31.912,31.912,0,0,1,8.154,5.081c1.06.983,4.2,1.419,5.635,1.783,2.312,4.711,5.482,9.254,10.351,11.689a20.02,20.02,0,0,1-14.4,6.356c-.163,0-.977.107-1.141.106-1.073-1.468-1.288-2.483-2.638-3.809-1.551-1.524-7.516-3.117-8.2-2.861a15.451,15.451,0,0,1-2.76-.359.306.306,0,0,0-.371.211c-.251,1.393-.574,2.768-.936,4.132a16.992,16.992,0,0,0-.789,1.792l-6.862-1.332c-1.791-.5-3.688-1.072-4.893-2.421C171.091,1543.554,171.642,1540.654,172.049,1538.279Z" transform="translate(-171.623 -1523.494)" fill="#f5b054"/>
      </g>
    </g>
    <g id="Group_11882" data-name="Group 11882" transform="translate(40.033 22.086)">
      <path id="Path_10128" data-name="Path 10128" d="M171.778,1616.505q.387-.049.77-.119a9.034,9.034,0,0,1,.078-.946c-.263-.012-.525-.028-.787-.053s-.238-.429.022-.4c.276.027.552.045.828.056.005-.03.011-.06.017-.091s.014-.075.021-.113q.06-.3.139-.59c.007-.027.011-.054.019-.08s.014-.044.02-.066l-.6-.208a.2.2,0,0,1,.129-.384l.6.207c.021-.062.042-.125.065-.187.031-.084.065-.167.1-.249q.081-.2.173-.4c.034-.072.067-.144.1-.215.1-.2.205-.395.321-.582a12.219,12.219,0,0,1,.733-1.064c.016-.021.032-.039.048-.059a19.932,19.932,0,0,1,.01-4.1c1.291.793,3.968,1.183,5.261,1.511,2.312,4.711,5.482,9.254,10.351,11.689a19.735,19.735,0,0,1-3,2.624,8.738,8.738,0,0,1-1.309.372,20.3,20.3,0,0,1-5.888.289c-2.236-.215-4.988-.476-6.329-2.6a7.677,7.677,0,0,1-1.118-3.952c-.227.04-.456.077-.685.106C171.608,1616.932,171.52,1616.537,171.778,1616.505Z" transform="translate(-171.623 -1606.86)" fill="#f5b054"/>
    </g>
    <g id="Group_11883" data-name="Group 11883" transform="translate(14.792 27.195)">
      <path id="Path_10129" data-name="Path 10129" d="M540.817,1685.566a7.775,7.775,0,0,0,1.046,5.047,6.931,6.931,0,0,1,.761,1.381,1.477,1.477,0,0,1-.234,1.484c-.667.677-1.809.173-2.575-.391a29.025,29.025,0,0,1-9.711-12.616,13.355,13.355,0,0,1-1.131-6.051,6.508,6.508,0,0,1,3.041-5.138,6.383,6.383,0,0,1,7.047,1.062,9.913,9.913,0,0,1,2.465,3.477,21.842,21.842,0,0,1,1.556,3.264C543.78,1679.82,541.187,1682.882,540.817,1685.566Z" transform="translate(-528.938 -1668.641)" fill="#f5b054"/>
    </g>
    <g id="Group_11885" data-name="Group 11885" transform="translate(48.445 34.153)">
      <g id="Group_11884" data-name="Group 11884">
        <path id="Path_10130" data-name="Path 10130" d="M167.856,1767.354c-2.324-3.342-2.972-7.54-4.582-11.279a6.378,6.378,0,0,0-1.824-2.66,2.659,2.659,0,0,0-3.039-.252,4.781,4.781,0,0,0-1.279,1.7,35.02,35.02,0,0,0,9.066,14.1c.564.532,1.471,1.052,2.032.518S168.306,1768,167.856,1767.354Z" transform="translate(-157.133 -1752.791)" fill="#f5b054"/>
      </g>
    </g>
    <g id="Group_11887" data-name="Group 11887" transform="translate(43.059 36.412)">
      <g id="Group_11886" data-name="Group 11886" transform="translate(0 0)">
        <path id="Path_10131" data-name="Path 10131" d="M198.086,1785.444a28.642,28.642,0,0,0,8.119-1.008c2.225-.714,3.908-1.518,5.234-3.442a83.368,83.368,0,0,1-8.644.7,4.989,4.989,0,0,1-4.3-1.588C198.7,1782.095,198.943,1783.273,198.086,1785.444Z" transform="translate(-198.086 -1780.108)" fill="#f9d2a5"/>
      </g>
    </g>
    <g id="Group_11893" data-name="Group 11893" transform="translate(20.42 15.197)">
      <g id="Group_11888" data-name="Group 11888" transform="translate(9.866 0.236)">
        <path id="Path_10132" data-name="Path 10132" d="M477.987,1534.89c.018.383-.574.39-.662.051a23.833,23.833,0,0,1-.379-8.556,16,16,0,0,1,2.879.83C479.028,1529.715,477.851,1532.071,477.987,1534.89Z" transform="translate(-476.738 -1526.385)" fill="#7d4e24"/>
      </g>
      <g id="Group_11889" data-name="Group 11889" transform="translate(4.948)">
        <path id="Path_10133" data-name="Path 10133" d="M539.213,1533.394c-1.1-.577-1.154-3.84-1.195-4.869a13.138,13.138,0,0,1,.728-4.838,11.743,11.743,0,0,1,2.2-.146,15.28,15.28,0,0,0-.694,2.123,33.766,33.766,0,0,0-.37,4.585C539.875,1530.854,540.425,1534.027,539.213,1533.394Z" transform="translate(-538.009 -1523.537)" fill="#7d4e24"/>
      </g>
      <g id="Group_11890" data-name="Group 11890" transform="translate(15.233 2.756)">
        <path id="Path_10134" data-name="Path 10134" d="M415.423,1559.81c-.01.031-.023.06-.033.091a.307.307,0,0,1-.09.137,9.42,9.42,0,0,0-.84,2.267c-.08.359-.7.237-.653-.122a22.179,22.179,0,0,1,1.256-5.321q.844.443,1.664.925A18.34,18.34,0,0,0,415.423,1559.81Z" transform="translate(-413.804 -1556.863)" fill="#7d4e24"/>
      </g>
      <g id="Group_11891" data-name="Group 11891" transform="translate(18.459 5.179)">
        <path id="Path_10135" data-name="Path 10135" d="M377.336,1590.168a20.925,20.925,0,0,1,1.869-4c.277.235.552.473.823.715a16.743,16.743,0,0,0-2.056,3.5C377.807,1590.756,377.191,1590.568,377.336,1590.168Z" transform="translate(-377.314 -1586.165)" fill="#7d4e24"/>
      </g>
      <g id="Group_11892" data-name="Group 11892" transform="translate(0 1.445)">
        <path id="Path_10136" data-name="Path 10136" d="M602.522,1541.015a24.709,24.709,0,0,0,.63,6.246.336.336,0,0,1-.626.217,26.3,26.3,0,0,1-2.088-4.947A12.238,12.238,0,0,1,602.522,1541.015Z" transform="translate(-600.438 -1541.015)" fill="#7d4e24"/>
      </g>
    </g>
    <g id="Group_11895" data-name="Group 11895" transform="translate(41.611 22.401)">
      <g id="Group_11894" data-name="Group 11894">
        <path id="Path_10137" data-name="Path 10137" d="M165.339,1625.262a7.378,7.378,0,0,1-2.906,1.192,20.305,20.305,0,0,1-5.888.289c-2.236-.215-4.988-.475-6.329-2.6a8.537,8.537,0,0,1,.119-8.663,9.4,9.4,0,0,1,8.111-4.811,9.669,9.669,0,0,1,8.04,4.034,8.577,8.577,0,0,1,1.368,6.022A6.441,6.441,0,0,1,165.339,1625.262Z" transform="translate(-149.093 -1610.669)" fill="#f9d2a5"/>
      </g>
    </g>
    <g id="Group_11897" data-name="Group 11897" transform="translate(54.246 18.703)">
      <g id="Group_11896" data-name="Group 11896">
        <path id="Path_10138" data-name="Path 10138" d="M171.135,1571.111q.211-1.916.581-3.811a2.584,2.584,0,0,1,.3-.9.912.912,0,0,1,.777-.463c.437.023.733.443.942.828a15,15,0,0,1,1.8,6.437A9.518,9.518,0,0,0,171.135,1571.111Z" transform="translate(-171.135 -1565.941)" fill="#f9d2a5"/>
      </g>
    </g>
    <g id="Group_11899" data-name="Group 11899" transform="translate(53.163 18.623)">
      <g id="Group_11898" data-name="Group 11898">
        <path id="Path_10139" data-name="Path 10139" d="M205.714,1565.062a.99.99,0,0,0-1.026.139,2.373,2.373,0,0,0-.647.868,15.377,15.377,0,0,0-1.182,3.892c.456.207,1.091.354,1.547.561A7.087,7.087,0,0,1,205.714,1565.062Z" transform="translate(-202.859 -1564.973)" fill="#f39200"/>
      </g>
    </g>
    <g id="Group_11901" data-name="Group 11901" transform="translate(43.529 19.412)">
      <g id="Group_11900" data-name="Group 11900">
        <path id="Path_10140" data-name="Path 10140" d="M297.01,1582.02a19.925,19.925,0,0,1,.082-6.261c.093-.538.331-1.189.874-1.24.447-.042.794.362,1.057.725l2.5,3.457A14.217,14.217,0,0,0,297.01,1582.02Z" transform="translate(-296.802 -1574.516)" fill="#f9d2a5"/>
      </g>
    </g>
    <g id="Group_11903" data-name="Group 11903" transform="translate(44.751 19.255)">
      <g id="Group_11902" data-name="Group 11902">
        <path id="Path_10141" data-name="Path 10141" d="M291.464,1572.906a3.771,3.771,0,0,1,.781.858l2.175,2.951-1.427.51a11.4,11.4,0,0,0-.987-2.418,22.4,22.4,0,0,0-1.616-2.109C290.685,1572.486,291.2,1572.715,291.464,1572.906Z" transform="translate(-290.39 -1572.614)" fill="#f39200"/>
      </g>
    </g>
    <g id="Group_11905" data-name="Group 11905" transform="translate(41.627 22.401)">
      <g id="Group_11904" data-name="Group 11904">
        <path id="Path_10142" data-name="Path 10142" d="M157.942,1617.214c-1.11.357-1.828,1.393-2.679,2.19a7.446,7.446,0,0,1-4.589,1.982,5.125,5.125,0,0,1-1.426-.1,8.613,8.613,0,0,1,1.12-5.8,9.4,9.4,0,0,1,8.111-4.811,9.669,9.669,0,0,1,8.04,4.034,8.57,8.57,0,0,1,1.2,6.852,1.464,1.464,0,0,1-.873.183,4.3,4.3,0,0,1-2.4-.863c-1.062-.76-1.877-1.816-2.89-2.64A4.02,4.02,0,0,0,157.942,1617.214Z" transform="translate(-149.14 -1610.669)" fill="#f5b054"/>
      </g>
    </g>
    <g id="Group_11908" data-name="Group 11908" transform="translate(54.915 27.58)">
      <g id="Group_11906" data-name="Group 11906" transform="translate(0.146 0.106)">
        <path id="Path_10143" data-name="Path 10143" d="M173.182,1675.14a5.635,5.635,0,0,0,1.015-.568,1.8,1.8,0,0,1,.333,2.433,1.806,1.806,0,0,1-2.515.438,1.853,1.853,0,0,1-.73-1.116A16.787,16.787,0,0,1,173.182,1675.14Z" transform="translate(-171.284 -1674.572)" fill="#fff"/>
      </g>
      <g id="Group_11907" data-name="Group 11907">
        <path id="Path_10144" data-name="Path 10144" d="M169.619,1675.059c0,.008,0,.016,0,.025a1.672,1.672,0,0,0,.673,1.055,1.7,1.7,0,0,0,1.227.275,1.721,1.721,0,0,0,1.066-.679,1.7,1.7,0,0,0,.27-1.229,1.667,1.667,0,0,0-.612-1.008,2.683,2.683,0,0,0,.264-.2,1.962,1.962,0,0,1,.334,2.637,1.968,1.968,0,0,1-3.52-.683C169.423,1675.187,169.522,1675.123,169.619,1675.059Z" transform="translate(-169.323 -1673.295)" fill="#1d1d1b"/>
      </g>
    </g>
    <g id="Group_11910" data-name="Group 11910" transform="translate(55.625 28.051)">
      <g id="Group_11909" data-name="Group 11909">
        <path id="Path_10145" data-name="Path 10145" d="M180.273,1678.988a1.139,1.139,0,0,1,.568.821,1.214,1.214,0,1,1-2.392.416,1.279,1.279,0,0,1-.008-.216C179.053,1679.671,179.686,1679.369,180.273,1678.988Z" transform="translate(-178.439 -1678.988)"/>
      </g>
    </g>
    <g id="Group_11912" data-name="Group 11912" transform="translate(50.042 28.266)">
      <g id="Group_11911" data-name="Group 11911">
        <path id="Path_10146" data-name="Path 10146" d="M236.038,1682.086a.389.389,0,0,1,.374-.373c.414-.043.818.16,1.217.1a7.309,7.309,0,0,1,.977-.223.581.581,0,0,1,.612.793,1.7,1.7,0,0,1-1.718.984,1.892,1.892,0,0,1-1.216-.538A1.049,1.049,0,0,1,236.038,1682.086Z" transform="translate(-236.033 -1681.592)" fill="#1d1d1b"/>
      </g>
    </g>
    <g id="Group_11915" data-name="Group 11915" transform="translate(51.445 29.437)">
      <g id="Group_11914" data-name="Group 11914">
        <g id="Group_11913" data-name="Group 11913">
          <path id="Path_10147" data-name="Path 10147" d="M253.879,1695.845a4.745,4.745,0,0,1,.08.975,2.593,2.593,0,0,1-.048.972.123.123,0,0,1-.223.017,2.448,2.448,0,0,1-.077-.935,5.016,5.016,0,0,1,.06-1.04C253.694,1695.725,253.857,1695.75,253.879,1695.845Z" transform="translate(-253.604 -1695.762)" fill="#1d1d1b"/>
        </g>
      </g>
    </g>
    <g id="Group_11917" data-name="Group 11917" transform="translate(57.07 27.873)">
      <g id="Group_11916" data-name="Group 11916">
        <path id="Path_10148" data-name="Path 10148" d="M180.711,1676.865a.366.366,0,0,1,.041.016.175.175,0,0,1,.1.04.429.429,0,0,1,.074.081.4.4,0,0,1,.026.038l.017.014a.167.167,0,0,1,.049.16.378.378,0,0,1-.025.186.393.393,0,0,1-.044.082.369.369,0,0,1-.543.177C180.01,1677.423,180.227,1676.728,180.711,1676.865Z" transform="translate(-180.2 -1676.847)" fill="#fff"/>
      </g>
    </g>
    <g id="Group_11924" data-name="Group 11924" transform="translate(48.154 22.402)">
      <g id="Group_11919" data-name="Group 11919" transform="translate(0 0.165)">
        <g id="Group_11918" data-name="Group 11918">
          <path id="Path_10149" data-name="Path 10149" d="M279.015,1612.664a7.134,7.134,0,0,1,.317,1.023c.085.374.31.961.084,1.315a.289.289,0,0,1-.263.132c-.547-.1-.7-.854-.89-1.3-.126-.289-.272-.582-.412-.88A9.151,9.151,0,0,1,279.015,1612.664Z" transform="translate(-277.851 -1612.664)" fill="#7d4e24"/>
        </g>
      </g>
      <g id="Group_11921" data-name="Group 11921" transform="translate(2.21)">
        <g id="Group_11920" data-name="Group 11920">
          <path id="Path_10150" data-name="Path 10150" d="M251.033,1610.7c.2-.014.4-.025.6-.028.3,0,.6.01.9.033.066.523.082,1.06.113,1.564.029.46.266,1.629-.469,1.707-.66.071-.741-.884-.832-1.309C251.2,1612.017,251.107,1611.36,251.033,1610.7Z" transform="translate(-251.033 -1610.672)" fill="#7d4e24"/>
        </g>
      </g>
      <g id="Group_11923" data-name="Group 11923" transform="translate(4.991 0.224)">
        <g id="Group_11922" data-name="Group 11922">
          <path id="Path_10151" data-name="Path 10151" d="M221.911,1615.962a5.532,5.532,0,0,1-.3-2.584,10.006,10.006,0,0,1,1.3.373,10.226,10.226,0,0,1-.106,1.165,1.615,1.615,0,0,1-.48,1.123A.268.268,0,0,1,221.911,1615.962Z" transform="translate(-221.587 -1613.378)" fill="#7d4e24"/>
        </g>
      </g>
    </g>
    <g id="Group_11925" data-name="Group 11925" transform="translate(44.813 22.547)">
      <path id="Path_10152" data-name="Path 10152" d="M188.873,1613.239a5.434,5.434,0,0,1,.248.805c.1-.2.242-.31.449-.2.478.256.073,1.175-.1,1.492a.194.194,0,0,1-.355-.063.224.224,0,0,1-.259-.2.212.212,0,0,1-.3-.126,2.339,2.339,0,0,1-.056-1.684C188.565,1613.126,188.8,1613.059,188.873,1613.239Z" transform="translate(-177.391 -1613.073)" fill="#f39200"/>
      <path id="Path_10153" data-name="Path 10153" d="M318.8,1613.308c.2-.126.473.052.619.189a1.039,1.039,0,0,1,.074.084,6.152,6.152,0,0,1,.14-1.012.2.2,0,0,1,.342-.071,1.639,1.639,0,0,1,.21,1.6.18.18,0,0,1-.295.095c0,.063,0,.125.009.188a.2.2,0,0,1-.357.16.217.217,0,0,1-.033,0,1.209,1.209,0,0,1-.748-.6C318.668,1613.749,318.582,1613.447,318.8,1613.308Zm.458.63a.94.94,0,0,0-.071-.1c-.006-.008-.016-.01-.023-.017.014.021.025.044.041.064A.668.668,0,0,0,319.26,1613.938Z" transform="translate(-318.664 -1612.436)" fill="#f39200"/>
    </g>
    <g id="Group_11928" data-name="Group 11928" transform="translate(52.703 26.027)">
      <g id="Group_11927" data-name="Group 11927">
        <g id="Group_11926" data-name="Group 11926">
          <path id="Path_10154" data-name="Path 10154" d="M236.7,1654.646l-.126.426c-.073.25.31.379.384.129l.126-.427C237.155,1654.524,236.771,1654.4,236.7,1654.646Z" transform="translate(-236.563 -1654.51)" fill="#e98600"/>
        </g>
      </g>
    </g>
    <g id="Group_11931" data-name="Group 11931" transform="translate(51.28 26.21)">
      <g id="Group_11930" data-name="Group 11930">
        <g id="Group_11929" data-name="Group 11929">
          <path id="Path_10155" data-name="Path 10155" d="M254.962,1656.874a1.408,1.408,0,0,0,0,.6.2.2,0,0,0,.4-.086.905.905,0,0,1-.01-.384C255.4,1656.75,255.014,1656.619,254.962,1656.874Z" transform="translate(-254.929 -1656.736)" fill="#e98600"/>
        </g>
      </g>
    </g>
    <g id="Group_11934" data-name="Group 11934" transform="translate(49.881 25.755)">
      <g id="Group_11933" data-name="Group 11933">
        <g id="Group_11932" data-name="Group 11932">
          <path id="Path_10156" data-name="Path 10156" d="M271.344,1651.468l.073.439c.043.257.438.17.4-.087l-.073-.439C271.7,1651.125,271.3,1651.212,271.344,1651.468Z" transform="translate(-271.34 -1651.227)" fill="#e98600"/>
        </g>
      </g>
    </g>
    <g id="Group_11937" data-name="Group 11937" transform="translate(49.382 26.653)">
      <g id="Group_11936" data-name="Group 11936">
        <g id="Group_11935" data-name="Group 11935">
          <path id="Path_10157" data-name="Path 10157" d="M275.545,1662.365a1.15,1.15,0,0,1,.2.513c.034.258.429.171.4-.086a1.4,1.4,0,0,0-.232-.612C275.76,1661.968,275.4,1662.15,275.545,1662.365Z" transform="translate(-275.51 -1662.086)" fill="#e98600"/>
        </g>
      </g>
    </g>
    <g id="Group_11940" data-name="Group 11940" transform="translate(51.916 27.439)">
      <g id="Group_11939" data-name="Group 11939">
        <g id="Group_11938" data-name="Group 11938">
          <path id="Path_10158" data-name="Path 10158" d="M247.378,1671.775q-.008.161-.017.323a.2.2,0,0,0,.4.022c.006-.107.012-.215.018-.323A.2.2,0,0,0,247.378,1671.775Z" transform="translate(-247.36 -1671.591)" fill="#e98600"/>
        </g>
      </g>
    </g>
    <g id="Group_11943" data-name="Group 11943" transform="translate(50.726 27.586)">
      <g id="Group_11942" data-name="Group 11942">
        <g id="Group_11941" data-name="Group 11941">
          <path id="Path_10159" data-name="Path 10159" d="M261.539,1673.51a.707.707,0,0,0,.038.484c.1.239.463.053.36-.185a.248.248,0,0,1-.014-.171C261.987,1673.387,261.6,1673.257,261.539,1673.51Z" transform="translate(-261.513 -1673.373)" fill="#e98600"/>
        </g>
      </g>
    </g>
    <g id="Group_11946" data-name="Group 11946" transform="translate(53.778 25.973)">
      <g id="Group_11945" data-name="Group 11945">
        <g id="Group_11944" data-name="Group 11944">
          <path id="Path_10160" data-name="Path 10160" d="M224.858,1654.045c-.006.108-.012.215-.017.323a.2.2,0,0,0,.4.021q.009-.161.018-.323A.2.2,0,0,0,224.858,1654.045Z" transform="translate(-224.841 -1653.861)" fill="#e98600"/>
        </g>
      </g>
    </g>
    <g id="Group_11949" data-name="Group 11949" transform="translate(53.541 27.469)">
      <g id="Group_11948" data-name="Group 11948">
        <g id="Group_11947" data-name="Group 11947">
          <path id="Path_10161" data-name="Path 10161" d="M227.251,1672.1l-.072.32c-.056.252.327.382.384.128l.072-.32C227.691,1671.976,227.308,1671.845,227.251,1672.1Z" transform="translate(-227.174 -1671.962)" fill="#e98600"/>
        </g>
      </g>
    </g>
    <g id="Group_11952" data-name="Group 11952" transform="translate(54.251 18.599)">
      <g id="Group_11951" data-name="Group 11951">
        <g id="Group_11950" data-name="Group 11950">
          <path id="Path_10162" data-name="Path 10162" d="M219.11,1565.862q.026-.485.052-.969a.2.2,0,0,0-.4-.022q-.026.485-.052.97A.2.2,0,0,0,219.11,1565.862Z" transform="translate(-218.706 -1564.687)" fill="#e98600"/>
        </g>
      </g>
    </g>
    <g id="Group_11955" data-name="Group 11955" transform="translate(53.628 19.806)">
      <g id="Group_11954" data-name="Group 11954">
        <g id="Group_11953" data-name="Group 11953">
          <path id="Path_10163" data-name="Path 10163" d="M225.668,1580.357q-.074-.459-.148-.919c-.041-.257-.437-.171-.4.086l.148.919C225.314,1580.7,225.71,1580.613,225.668,1580.357Z" transform="translate(-225.122 -1579.283)" fill="#e98600"/>
        </g>
      </g>
    </g>
    <g id="Group_11958" data-name="Group 11958" transform="translate(53.371 21.031)">
      <g id="Group_11957" data-name="Group 11957">
        <g id="Group_11956" data-name="Group 11956">
          <path id="Path_10164" data-name="Path 10164" d="M227.322,1595.018a4.479,4.479,0,0,1-.259-.775.2.2,0,0,0-.4.086,5.075,5.075,0,0,0,.294.874C227.066,1595.442,227.426,1595.256,227.322,1595.018Z" transform="translate(-226.662 -1594.091)" fill="#e98600"/>
        </g>
      </g>
    </g>
    <g id="Group_11961" data-name="Group 11961" transform="translate(47.647 21.367)">
      <g id="Group_11960" data-name="Group 11960">
        <g id="Group_11959" data-name="Group 11959">
          <path id="Path_10165" data-name="Path 10165" d="M298.489,1598.337c-.021.2-.042.4-.062.6-.027.259.377.281.4.022q.031-.3.063-.6C298.92,1598.1,298.516,1598.078,298.489,1598.337Z" transform="translate(-298.425 -1598.153)" fill="#e98600"/>
        </g>
      </g>
    </g>
    <g id="Group_11964" data-name="Group 11964" transform="translate(47.021 20.718)">
      <g id="Group_11963" data-name="Group 11963">
        <g id="Group_11962" data-name="Group 11962">
          <path id="Path_10166" data-name="Path 10166" d="M306.157,1590.555l.058.7c.021.258.417.17.4-.087q-.029-.349-.058-.7C306.531,1590.21,306.136,1590.3,306.157,1590.555Z" transform="translate(-306.156 -1590.313)" fill="#e98600"/>
        </g>
      </g>
    </g>
    <g id="Group_11967" data-name="Group 11967" transform="translate(46.261 19.374)">
      <g id="Group_11966" data-name="Group 11966">
        <g id="Group_11965" data-name="Group 11965">
          <path id="Path_10167" data-name="Path 10167" d="M314.929,1574.3l.093,1.129c.022.258.417.17.4-.086q-.047-.565-.094-1.129C315.3,1573.953,314.907,1574.041,314.929,1574.3Z" transform="translate(-314.928 -1574.056)" fill="#e98600"/>
        </g>
      </g>
    </g>
    <g id="Group_11970" data-name="Group 11970" transform="translate(41.234 28.626)">
      <g id="Group_11969" data-name="Group 11969">
        <g id="Group_11968" data-name="Group 11968">
          <path id="Path_10168" data-name="Path 10168" d="M361.923,1686.434l-1.373-.474a.2.2,0,0,0-.129.384l1.373.474A.2.2,0,0,0,361.923,1686.434Z" transform="translate(-360.289 -1685.948)"/>
        </g>
      </g>
    </g>
    <g id="Group_11973" data-name="Group 11973" transform="translate(40.722 30.113)">
      <g id="Group_11972" data-name="Group 11972">
        <g id="Group_11971" data-name="Group 11971">
          <path id="Path_10169" data-name="Path 10169" d="M363.589,1704a14.794,14.794,0,0,1-1.78-.067c-.259-.025-.281.379-.022.4a14.872,14.872,0,0,0,1.78.067C363.825,1704.4,363.849,1704,363.589,1704Z" transform="translate(-361.602 -1703.935)"/>
        </g>
      </g>
    </g>
    <g id="Group_11976" data-name="Group 11976" transform="translate(40.69 31.347)">
      <g id="Group_11975" data-name="Group 11975">
        <g id="Group_11974" data-name="Group 11974">
          <path id="Path_10170" data-name="Path 10170" d="M366.636,1718.869a13.553,13.553,0,0,1-1.532.282c-.258.032-.171.428.086.4a13.477,13.477,0,0,0,1.532-.282A.2.2,0,0,0,366.636,1718.869Z" transform="translate(-364.949 -1718.862)"/>
        </g>
      </g>
    </g>
    <g id="Group_11979" data-name="Group 11979" transform="translate(59.59 29.003)">
      <g id="Group_11978" data-name="Group 11978">
        <g id="Group_11977" data-name="Group 11977">
          <path id="Path_10171" data-name="Path 10171" d="M135.671,1690.524a6.439,6.439,0,0,1-1.689.559c-.256.048-.17.443.086.4a6.849,6.849,0,0,0,1.787-.595A.2.2,0,0,0,135.671,1690.524Z" transform="translate(-133.828 -1690.501)"/>
        </g>
      </g>
    </g>
    <g id="Group_11982" data-name="Group 11982" transform="translate(59.65 30.65)">
      <g id="Group_11981" data-name="Group 11981">
        <g id="Group_11980" data-name="Group 11980">
          <path id="Path_10172" data-name="Path 10172" d="M129.167,1710.427a10.618,10.618,0,0,1-2.213.064.2.2,0,0,0-.022.4,11.119,11.119,0,0,0,2.322-.073C129.511,1710.788,129.424,1710.393,129.167,1710.427Z" transform="translate(-126.748 -1710.425)"/>
        </g>
      </g>
    </g>
    <g id="Group_11985" data-name="Group 11985" transform="translate(59.65 31.836)">
      <g id="Group_11984" data-name="Group 11984">
        <g id="Group_11983" data-name="Group 11983">
          <path id="Path_10173" data-name="Path 10173" d="M133.875,1725.392a8.183,8.183,0,0,1-1.855-.6c-.236-.11-.362.275-.128.384a8.169,8.169,0,0,0,1.855.6C134,1725.825,134.13,1725.442,133.875,1725.392Z" transform="translate(-131.767 -1724.768)"/>
        </g>
      </g>
    </g>
    <g id="Group_11987" data-name="Group 11987" transform="translate(54.855 27.115)">
      <g id="Group_11986" data-name="Group 11986">
        <path id="Path_10174" data-name="Path 10174" d="M173.005,1668.027q-1.769,1.047-3.577,2.027c-.213.116-.4-.21-.19-.325q1.808-.98,3.577-2.027A.188.188,0,0,1,173.005,1668.027Z" transform="translate(-169.145 -1667.674)" fill="#1d1d1b"/>
      </g>
    </g>
    <g id="Group_11990" data-name="Group 11990" transform="translate(44.568 27.408)">
      <g id="Group_11988" data-name="Group 11988" transform="translate(0.162 0.106)">
        <path id="Path_10175" data-name="Path 10175" d="M297.9,1673.06a5.609,5.609,0,0,1-1.015-.567,1.8,1.8,0,0,0-.333,2.433,1.805,1.805,0,0,0,2.515.438,1.851,1.851,0,0,0,.73-1.117A16.832,16.832,0,0,0,297.9,1673.06Z" transform="translate(-296.23 -1672.493)" fill="#fff"/>
      </g>
      <g id="Group_11989" data-name="Group 11989">
        <path id="Path_10176" data-name="Path 10176" d="M298.041,1672.98c0,.009,0,.017,0,.025a1.673,1.673,0,0,1-.672,1.055,1.644,1.644,0,0,1-2.564-1.633,1.667,1.667,0,0,1,.612-1.008,2.665,2.665,0,0,1-.265-.2,1.963,1.963,0,0,0-.334,2.637,1.968,1.968,0,0,0,3.52-.683Q298.187,1673.078,298.041,1672.98Z" transform="translate(-294.461 -1671.217)" fill="#1d1d1b"/>
      </g>
    </g>
    <g id="Group_11992" data-name="Group 11992" transform="translate(45.322 27.878)">
      <g id="Group_11991" data-name="Group 11991">
        <path id="Path_10177" data-name="Path 10177" d="M303.619,1676.905a1.138,1.138,0,0,0-.568.821,1.214,1.214,0,1,0,2.391.416,1.257,1.257,0,0,0,.008-.216C304.839,1677.588,304.206,1677.286,303.619,1676.905Z" transform="translate(-303.04 -1676.905)"/>
      </g>
    </g>
    <g id="Group_11994" data-name="Group 11994" transform="translate(45.468 27.701)">
      <g id="Group_11993" data-name="Group 11993">
        <path id="Path_10178" data-name="Path 10178" d="M320.829,1674.785a.388.388,0,0,0-.041.016.179.179,0,0,0-.1.041.428.428,0,0,0-.074.081c-.01.012-.017.025-.026.038l-.017.014a.167.167,0,0,0-.049.16.378.378,0,0,0,.025.186.406.406,0,0,0,.044.082.369.369,0,0,0,.543.177C321.53,1675.344,321.312,1674.648,320.829,1674.785Z" transform="translate(-320.518 -1674.768)" fill="#fff"/>
      </g>
    </g>
    <g id="Group_11996" data-name="Group 11996" transform="translate(44.554 26.943)">
      <g id="Group_11995" data-name="Group 11995">
        <path id="Path_10179" data-name="Path 10179" d="M294.014,1665.623q1.769,1.047,3.576,2.026c.213.116.023.441-.19.325q-1.807-.98-3.577-2.027A.188.188,0,0,1,294.014,1665.623Z" transform="translate(-293.733 -1665.596)" fill="#1d1d1b"/>
      </g>
    </g>
    <g id="Group_12004" data-name="Group 12004" transform="translate(36.507 32.879)">
      <g id="Group_11999" data-name="Group 11999" transform="translate(0 0)">
        <g id="Group_11998" data-name="Group 11998">
          <path id="Path_10180" data-name="Path 10180" d="M230.611,1754.259c-2.96-2.794-4.455-6.77-6.8-10.1a6.381,6.381,0,0,0-2.331-2.23c-.982-.467-9.259-5.053-8.568-4.5l4.639,6.8a35.015,35.015,0,0,0,11.764,11.938c.661.4,1.655.728,2.095.09S231.183,1754.8,230.611,1754.259Z" transform="translate(-212.874 -1737.381)" fill="#f5b054"/>
        </g>
      </g>
      <g id="Group_12001" data-name="Group 12001" transform="translate(16.544 17.867)">
        <g id="Group_12000" data-name="Group 12000">
          <path id="Path_10181" data-name="Path 10181" d="M225.22,1954.486a2.682,2.682,0,0,0-1.02-1.009c-.146-.083-.255.154-.11.237a2.43,2.43,0,0,1,.918.924C225.091,1954.784,225.3,1954.631,225.22,1954.486Z" transform="translate(-224.021 -1953.46)" fill="#f5b054"/>
        </g>
      </g>
      <g id="Group_12003" data-name="Group 12003" transform="translate(17.567 17.512)">
        <g id="Group_12002" data-name="Group 12002">
          <path id="Path_10182" data-name="Path 10182" d="M214.776,1950.351a2,2,0,0,0-.821-1.163c-.138-.093-.306.107-.167.2a1.786,1.786,0,0,1,.744,1.055C214.574,1950.606,214.818,1950.512,214.776,1950.351Z" transform="translate(-213.736 -1949.164)" fill="#f5b054"/>
        </g>
      </g>
    </g>
    <g id="Group_12006" data-name="Group 12006" transform="translate(57.771 49.227)">
      <g id="Group_12005" data-name="Group 12005" transform="translate(0 0)">
        <path id="Path_10183" data-name="Path 10183" d="M171.434,1936.838a2.792,2.792,0,0,0-.7-1.7c-.111-.126-.293.061-.183.186a2.5,2.5,0,0,1,.626,1.516C171.184,1937.01,171.445,1937.006,171.434,1936.838Z" transform="translate(-170.513 -1935.099)"/>
      </g>
    </g>
    <g id="Group_12008" data-name="Group 12008" transform="translate(58.669 49.034)">
      <g id="Group_12007" data-name="Group 12007" transform="translate(0 0)">
        <path id="Path_10184" data-name="Path 10184" d="M161.251,1932.8c-.122-.115-.3.071-.183.186a1.6,1.6,0,0,1,.478,1.481c-.032.164.221.227.253.062A1.872,1.872,0,0,0,161.251,1932.8Z" transform="translate(-161.028 -1932.764)"/>
      </g>
    </g>
    <g id="Group_12009" data-name="Group 12009" transform="translate(48.57 30.808)">
      <path id="Path_10185" data-name="Path 10185" d="M223.8,1715.845a3.153,3.153,0,0,1-3.54-1.926,1.529,1.529,0,0,1-.093-.873.779.779,0,0,1,.588-.6,1.468,1.468,0,0,1,.734.17,3.808,3.808,0,0,0,2.485.07c.614-.187,1.522-.689,1.99.036C226.771,1713.963,224.851,1715.607,223.8,1715.845Z" transform="translate(-220.141 -1712.34)" fill="#1d1d1b"/>
    </g>
    <g id="Group_12010" data-name="Group 12010" transform="translate(49.987 32.91)">
      <path id="Path_10186" data-name="Path 10186" d="M234.7,1738.167a2.192,2.192,0,0,1,2.962.361,3.3,3.3,0,0,1-1.191.631,3.07,3.07,0,0,1-2.246-.4A1.488,1.488,0,0,1,234.7,1738.167Z" transform="translate(-234.221 -1737.756)" fill="#f37975"/>
    </g>
    <g id="Group_12013" data-name="Group 12013" transform="translate(49.46 30.852)">
      <g id="Group_12011" data-name="Group 12011" transform="translate(0 0.078)">
        <path id="Path_10187" data-name="Path 10187" d="M271.55,1714.112a1.83,1.83,0,0,1-.242.686c-.13.26-.478.153-.565-.074a1.816,1.816,0,0,1-.135-.912,3.164,3.164,0,0,1,.447.152A3.637,3.637,0,0,0,271.55,1714.112Z" transform="translate(-270.593 -1713.812)" fill="#fff"/>
      </g>
      <g id="Group_12012" data-name="Group 12012" transform="translate(3.165 0)">
        <path id="Path_10188" data-name="Path 10188" d="M234.155,1713.855a.406.406,0,0,1-.365-.223c-.048-.082-.077-.174-.121-.258a1.02,1.02,0,0,1-.123-.28,6.212,6.212,0,0,1,.712-.228,1.341,1.341,0,0,1,.14.558C234.413,1713.621,234.4,1713.834,234.155,1713.855Z" transform="translate(-233.546 -1712.867)" fill="#fff"/>
      </g>
    </g>
    <path id="Path_10189" data-name="Path 10189" d="M526.66,1660.49a.207.207,0,0,1,.213.007,10.618,10.618,0,0,1,4.74,5.994,10.735,10.735,0,0,1-.549,7.631.187.187,0,0,1-.174.12.231.231,0,0,1-.095-.021.241.241,0,0,1-.125-.319,10.061,10.061,0,0,0-4.026-13.014.21.21,0,0,1-.108-.188A.251.251,0,0,1,526.66,1660.49Z" transform="translate(-502.817 -1633.945)" fill="#1d1d1b"/>
    <g id="Group_12014" data-name="Group 12014" transform="translate(27.346 50.073)">
      <path id="Path_10190" data-name="Path 10190" d="M536.816,1945.391a3.118,3.118,0,0,1,.764,1.565c.041.237-.322.339-.363.1a2.758,2.758,0,0,0-.668-1.4C536.389,1945.477,536.654,1945.21,536.816,1945.391Z" transform="translate(-536.5 -1945.33)"/>
    </g>
    <g id="Group_12015" data-name="Group 12015" transform="translate(26.641 50.633)">
      <path id="Path_10191" data-name="Path 10191" d="M544.6,1952.149a2.78,2.78,0,0,1,.817,1.458c.05.236-.313.337-.363.1a2.431,2.431,0,0,0-.72-1.292C544.16,1952.248,544.427,1951.982,544.6,1952.149Z" transform="translate(-544.279 -1952.096)"/>
    </g>
    <g id="Group_12016" data-name="Group 12016" transform="translate(31.103 49.046)">
      <path id="Path_10192" data-name="Path 10192" d="M494.7,1932.992a2.7,2.7,0,0,1,.383,2.134c-.054.236-.417.136-.363-.1a2.323,2.323,0,0,0-.345-1.844C494.241,1932.98,494.567,1932.791,494.7,1932.992Z" transform="translate(-494.343 -1932.906)"/>
    </g>
    <g id="Group_12017" data-name="Group 12017" transform="translate(30.176 49.185)">
      <path id="Path_10193" data-name="Path 10193" d="M504.914,1934.615c.643.455.542,1.535.614,2.23.025.241-.352.239-.377,0l-.1-.943c-.033-.323-.034-.752-.33-.962C504.528,1934.8,504.716,1934.474,504.914,1934.615Z" transform="translate(-504.641 -1934.581)"/>
    </g>
    <g id="Group_12018" data-name="Group 12018" transform="translate(61.432 24.343)">
      <path id="Path_10194" data-name="Path 10194" d="M100.847,1636.118q1.334-.926,2.613-1.927c.189-.148.457.117.266.266q-1.316,1.032-2.689,1.986C100.838,1636.581,100.649,1636.255,100.847,1636.118Z" transform="translate(-100.763 -1634.147)" fill="#7d4e24"/>
    </g>
    <g id="Group_12019" data-name="Group 12019" transform="translate(63.13 28.571)">
      <path id="Path_10195" data-name="Path 10195" d="M78.588,1686.1l2.809-.81a.188.188,0,0,1,.1.363l-2.809.81A.188.188,0,0,1,78.588,1686.1Z" transform="translate(-78.456 -1685.28)" fill="#7d4e24"/>
    </g>
    <g id="Group_12020" data-name="Group 12020" transform="translate(63.438 32.41)">
      <path id="Path_10196" data-name="Path 10196" d="M74.747,1731.718a10.667,10.667,0,0,1,2.875.467c.231.071.132.434-.1.363a10.286,10.286,0,0,0-2.775-.453A.188.188,0,0,1,74.747,1731.718Z" transform="translate(-74.565 -1731.718)" fill="#7d4e24"/>
    </g>
    <g id="Group_12021" data-name="Group 12021" transform="translate(62.751 35.581)">
      <path id="Path_10197" data-name="Path 10197" d="M91.933,1770.081a8.161,8.161,0,0,0,2.042.715c.237.05.137.413-.1.363a8.568,8.568,0,0,1-2.132-.753C91.527,1770.3,91.717,1769.972,91.933,1770.081Z" transform="translate(-91.648 -1770.059)" fill="#7d4e24"/>
    </g>
    <g id="Group_12022" data-name="Group 12022" transform="translate(61.712 37.948)">
      <path id="Path_10198" data-name="Path 10198" d="M121.332,1798.734l.688.619c.18.162-.087.427-.266.266l-.688-.619C120.885,1798.838,121.152,1798.573,121.332,1798.734Z" transform="translate(-121.005 -1798.684)" fill="#7d4e24"/>
    </g>
  </g>
  <g id="Group_13838" data-name="Group 13838" transform="translate(7.265 43.963)">
    <g id="Group_13837" data-name="Group 13837" transform="translate(0 0)" clip-path="url(#clip-path)">
      <path id="Path_12531" data-name="Path 12531" d="M5.569,38.362c.362-.093.73-.165,1.082-.284a5.954,5.954,0,0,0,1.04-.438c1.385-.787,1.4-1.984.052-2.869-1.183,1.435-2.8,1.4-4.426,1.277a4.258,4.258,0,0,1-2.365-.9.564.564,0,0,0-.53.068A1.389,1.389,0,0,0,.658,37.39a10.472,10.472,0,0,0,2.009.839,4.3,4.3,0,0,0,.511.133Z" transform="translate(0 -30.588)" fill="#580b0b"/>
      <path id="Path_12532" data-name="Path 12532" d="M16.578,0a1.707,1.707,0,0,0-1.033,1.32,1.3,1.3,0,0,0,1.262,1.689c.161.019.306.167.459.255a1.411,1.411,0,0,1-.49.205,1.9,1.9,0,0,1-1.44-.727.655.655,0,0,0-.571-.148,1.136,1.136,0,0,0-.825,1.057,1.013,1.013,0,0,0,.706,1.069,5.623,5.623,0,0,0,4.073-.007,1.241,1.241,0,0,0,.3-2.152,4.186,4.186,0,0,0-.878-.611A2.493,2.493,0,0,1,16.578,0" transform="translate(-12.445 0)" fill="#580b0b"/>
    </g>
  </g>
</svg>
