<svg xmlns="http://www.w3.org/2000/svg" width="118.532" height="81.879" viewBox="0 0 118.532 81.879">
  <g id="Group_14126" data-name="Group 14126" transform="translate(5931.341 -2799.943)">
    <path id="Path_14951" data-name="Path 14951" d="M135.117,1227.291c-10.543,10.058-20.481,2.424-22.9-.97-3.039-4.254-5.7-16.795,6.544-25.571,6.423-4.6,3.151-8.24-2.424-7.271-4.537.789-5.09-8.24,3.636-6.786s10.422,11.634,2.06,16.118c-7.834,4.2-12.515,19.058-2.879,23.421,6.423,2.909,12.7-14.211,12.7-14.211Z" transform="translate(-6041 1647.622)" fill="#f29e46"/>
    <path id="Path_14952" data-name="Path 14952" d="M122.03,1202.811c8.362-4.484,6.665-14.664-2.06-16.118s-8.173,7.575-3.636,6.786c5.575-.969,8.847,2.666,2.424,7.271-10.086,7.232-10.056,17.02-8.033,22.621.982,2.148,4.813.4,3.831-1.751C111.922,1215.4,116.06,1206.012,122.03,1202.811Z" transform="translate(-6041.001 1647.623)" fill="#ffb054"/>
    <path id="Path_14953" data-name="Path 14953" d="M220.837,1135.633c-.091.909,1.727,11.361,6.362,17.36l15.36-18.269C234.925,1131.725,220.928,1134.724,220.837,1135.633Z" transform="translate(-6115.601 1683.262)" fill="#ffb054"/>
    <path id="Path_14954" data-name="Path 14954" d="M228.654,1140.953c-.077.77,1.463,9.622,5.388,14.7l13.009-15.472C240.586,1137.643,228.731,1140.183,228.654,1140.953Z" transform="translate(-6120.847 1679.465)" fill="#ffb054"/>
    <path id="Path_14955" data-name="Path 14955" d="M231.107,1143.793c-.075.748,1.421,9.351,5.236,14.288l12.643-15.037C242.7,1140.576,231.181,1143.045,231.107,1143.793Z" transform="translate(-6122.492 1677.524)" fill="#ffdfba"/>
    <path id="Path_14956" data-name="Path 14956" d="M240.117,1145.111a17.986,17.986,0,0,1,4.695,2.951l4.219-5.018c-6.188-2.431-17.448-.075-17.86.712A16.816,16.816,0,0,1,240.117,1145.111Z" transform="translate(-6122.538 1677.524)" fill="#f2c89b"/>
    <path id="Path_14957" data-name="Path 14957" d="M359.636,1106.712c-1.545,0-10.307,4.612-14.535,10.526l20.291,8.743C363.173,1117.157,360.481,1106.712,359.636,1106.712Z" transform="translate(-6198.987 1701.185)" fill="#ffb054"/>
    <path id="Path_14958" data-name="Path 14958" d="M361.838,1112c-1.3,0-8.663,3.877-12.218,8.848l17.056,7.349C364.811,1120.777,362.548,1112,361.838,1112Z" transform="translate(-6202.019 1697.639)" fill="#ffb054"/>
    <path id="Path_14959" data-name="Path 14959" d="M362.974,1113.889c-1.192,0-7.953,3.559-11.215,8.121l15.657,6.746C365.7,1121.948,363.627,1113.889,362.974,1113.889Z" transform="translate(-6203.454 1696.369)" fill="#ffdfba"/>
    <path id="Path_14960" data-name="Path 14960" d="M382.524,1114.336a13.609,13.609,0,0,1,.648,4.157,13.425,13.425,0,0,1-2.544,7.909l6.16,2.654C385.209,1122.778,383.32,1115.44,382.524,1114.336Z" transform="translate(-6222.826 1696.069)" fill="#f2c89b"/>
    <path id="Path_14961" data-name="Path 14961" d="M349.113,1265.026a85.359,85.359,0,0,0-8.968-1.7s-.121-11.634-4-14.3-5.7,12.967-4.242,26.9h12.361Z" transform="translate(-6189.796 1605.888)" fill="#ffb054"/>
    <path id="Path_14962" data-name="Path 14962" d="M369.364,1309.248s.4-8.426-2.666-9.937c-4.069-2-11.707-.392-12.967,1.212s.506,8.725.506,8.725Z" transform="translate(-6204.473 1572.573)" fill="#ffdfba"/>
    <path id="Path_14963" data-name="Path 14963" d="M174.628,1242.542a15.637,15.637,0,0,1-7.15-4.969l1.454-.364-2.181-2.787H168.2s-3.757-6.3-3.636-9.574l.848.363s0-10.422,2.3-14.421a21.23,21.23,0,0,1,5.09-6.059l-1.091-.848s3.636-2.3,7.029-2.181l-1.091-1.333a19.868,19.868,0,0,1,14.664,0c5.518,2.207,34.9,7.029,34.9,7.029l.848,8.6-10.422,26.54Z" transform="translate(-6077.844 1639.279)" fill="#f29e46"/>
    <path id="Path_14964" data-name="Path 14964" d="M227.223,1199.936c1.181-5.294-24.757-20.784-39.144-5.574,5.272,1.545,9.574,26.177-6.54,16.451-5.124-3.093-10.333-5-13.216-8.467-.2.315-.405.64-.6.984-2.3,4-2.3,14.421-2.3,14.421l-.848-.363c-.121,3.272,3.636,9.574,3.636,9.574h-1.454l2.181,2.787-1.454.364a15.637,15.637,0,0,0,7.15,4.969h43.021l10.422-26.54Z" transform="translate(-6077.844 1646.74)" fill="#ffb054"/>
    <path id="Path_14965" data-name="Path 14965" d="M200.38,1259.979c-7.357.064-10.846-25.328-28.933-24.813-.577,4.065-6.029,14.33-6.029,14.33l-.848-.363c-.121,3.272,3.636,9.574,3.636,9.574h-1.454l2.181,2.787-1.454.363a15.636,15.636,0,0,0,7.15,4.969h43.021l7.012-17.854C219.248,1256.877,212.243,1259.877,200.38,1259.979Z" transform="translate(-6077.844 1614.995)" fill="#f29e46"/>
    <path id="Path_14966" data-name="Path 14966" d="M182.054,1252.526c1.224-3.007,2.494-6.12,2.494-6.12,7.665-14.361-5.06-33.266-14.452-32.539l.606.788a19.08,19.08,0,0,0-4.908,5.817c-2.3,4-2.673,14.182-2.673,14.182l-.963-.669c-.242,5.272,3.809,10.422,3.809,10.422h-1.5l2.248,2.787-1.5.363s2.122,3.03,7.366,4.969Z" transform="translate(-6076.222 1629.296)" fill="#ffb054"/>
    <path id="Path_14967" data-name="Path 14967" d="M312.761,1239.753c1.333,7.635-2.3,14.542-2.3,14.542l-.969-.969a13.393,13.393,0,0,1-1.575,4.847l-.848-1.212s-.485,4.12-2.181,5.454l-6.181-2.545-2.3-4.726-.969,1.454a11.273,11.273,0,0,1-1.333-4.241l-.969,1.333a27.989,27.989,0,0,1-1.091-5.574l-.97,2.3s-1.818-5.09-.97-8.847,13.937-6.665,13.937-6.665Z" transform="translate(-6161.927 1615.164)" fill="#f29e46"/>
    <path id="Path_14968" data-name="Path 14968" d="M320.138,1276.9a12.378,12.378,0,0,0-11.257,6.834l.274-.411,2.3,4.726,6.181,2.545c1.7-1.333,2.181-5.453,2.181-5.453l.848,1.212a13.39,13.39,0,0,0,1.575-4.847l.97.969a24.689,24.689,0,0,0,1.721-4.67A13.033,13.033,0,0,0,320.138,1276.9Z" transform="translate(-6174.683 1586.985)" fill="#ffb054"/>
    <path id="Path_14969" data-name="Path 14969" d="M265.546,1268.82s-5.887-12.116-7.432-15.842c-.8-1.929-6.375-.26-5.635,6.029.364,3.091,3.2,13.095,5.332,19.269H275.5l2.424-8.6C270.656,1267.368,265.546,1268.82,265.546,1268.82Z" transform="translate(-6136.79 1603.546)" fill="#ffdfba"/>
    <path id="Path_14970" data-name="Path 14970" d="M275.536,1287.935s-1.579-3.537-3.437-6.871a7.469,7.469,0,0,0-2.386,1.323c-3.394,2.789-3.16,8.973.11,15.243h15.65l2.424-8.6C280.626,1286.723,275.536,1287.935,275.536,1287.935Z" transform="translate(-6146.759 1584.191)" fill="#ffb054"/>
    <path id="Path_14971" data-name="Path 14971" d="M266.109,1172.51c-11.028,0-16.845-1.939-16.845-1.939l1.333-.484s-14.421-2.545-18.905-5.575l3.757-1.212-4.12-1.212a20.9,20.9,0,0,1,1.939-5.453l-3.151,1.091a10.033,10.033,0,0,1,1.212-4l-3.393.727a14.564,14.564,0,0,1,3.878-8.362c3.636-3.878,15.148-17.451,15.148-17.451s8.968-3.514,10.543-3.514-.121,1.333-.121,1.333a28.478,28.478,0,0,1,4.12-1.7c.606,0-.121,1.818-.121,1.818a16.715,16.715,0,0,1,2.787-1.212c.727-.121,1.091,1.212,1.091,1.212s1.454-1.333,2.181-1.333,1.333,1.454,1.333,1.454,18.057,8.968,20.844,12.24l-1.7.485s8.241,8.241,8.6,9.089-2.424.121-2.424.121l.969.848-2.3,1.212,1.091.606s-5.223,11.812-12.24,15.511A80.652,80.652,0,0,1,266.109,1172.51Z" transform="translate(-6120.366 1689.073)" fill="#ffdfba"/>
    <path id="Path_14972" data-name="Path 14972" d="M234.721,1165.253c12.717,0,35.508-19.511,23.606-38.5-.548.253-.944.445-.944.445s.716-.565.782-.959c-.029-.086-.062-.168-.092-.254a.974.974,0,0,0-.568-.12c-1.576,0-10.543,3.515-10.543,3.515s-11.513,13.573-15.148,17.451a14.563,14.563,0,0,0-3.878,8.362l3.393-.727a10.034,10.034,0,0,0-1.212,4l3.151-1.091a20.9,20.9,0,0,0-1.939,5.453l4.12,1.212-3.241,1.046A19.5,19.5,0,0,0,234.721,1165.253Z" transform="translate(-6120.366 1688.331)" fill="#ffb054"/>
    <path id="Path_14973" data-name="Path 14973" d="M365.5,1151.616l2.552-1.068-.864-.818s2.742.515,2.378-.333-8.915-9.051-8.915-9.051l1.7-.484c-2.787-3.272-20.844-12.24-20.844-12.24s-.606-1.454-1.333-1.454-2.181,1.333-2.181,1.333-.364-1.333-1.091-1.212a3.506,3.506,0,0,0-.613.19c7.157,19.442,19.4,26.229,30.072,26.244.152-.32.231-.5.231-.5Z" transform="translate(-6193.071 1688.131)" fill="#ffb054"/>
    <path id="Path_14974" data-name="Path 14974" d="M336.736,1184.136c-.909,5.938,1.272,15.027,4.726,15.391s4.787-8.725,3.09-14.543C340.8,1179.834,336.736,1184.136,336.736,1184.136Z" transform="translate(-6193.235 1650.361)" fill="#3d2e2e"/>
    <path id="Path_14975" data-name="Path 14975" d="M326.917,1180.028c-3.272,3.393-6.714,4.155-7.2,4.034s-4.605-2.909-4.484-4,6.786-3.272,7.635-3.03S326.917,1180.028,326.917,1180.028Z" transform="translate(-6178.944 1654.01)" fill="#ead5be"/>
    <path id="Path_14976" data-name="Path 14976" d="M346.081,1178.711c2.094,2.264,6.578,3.234,7.063,3.113s4-3.514,3.878-4.6-7.271-2.121-8.12-1.879S346.081,1178.711,346.081,1178.711Z" transform="translate(-6199.645 1655.158)" fill="#ead5be"/>
    <path id="Path_14977" data-name="Path 14977" d="M341.252,1177.84a1.328,1.328,0,0,1-1.017.157s-3.821-2.714-3.626-3.461c.137-.524,6.978-1.311,7.376-.3C344.138,1174.623,341.252,1177.84,341.252,1177.84Z" transform="translate(-6193.284 1656.203)" fill="#d85d5d"/>
    <g id="Group_14026" data-name="Group 14026" transform="translate(-5848.544 2826.435)">
      <path id="Path_14978" data-name="Path 14978" d="M367.955,1165.088a.533.533,0,0,1-.316-.1,5.744,5.744,0,0,0-5.553-.289.534.534,0,1,1-.43-.977,6.8,6.8,0,0,1,6.615.405.534.534,0,0,1-.316.964Z" transform="translate(-361.337 -1163.063)" fill="#564141"/>
    </g>
    <g id="Group_14027" data-name="Group 14027" transform="translate(-5868.212 2828.271)">
      <path id="Path_14979" data-name="Path 14979" d="M302.086,1171.889a.534.534,0,0,1-.317-.963A11.374,11.374,0,0,1,310,1168.74a.534.534,0,0,1-.191,1.05,10.5,10.5,0,0,0-7.4,1.995A.532.532,0,0,1,302.086,1171.889Z" transform="translate(-301.552 -1168.643)" fill="#564141"/>
    </g>
    <path id="Path_14980" data-name="Path 14980" d="M311.729,1312.119s-1.011-7.355-4.484-8.725c-4.605-1.818-11.149.121-12.24,1.575s.727,7.15.727,7.15Z" transform="translate(-6165.137 1569.702)" fill="#ffdfba"/>
    <path id="Path_14981" data-name="Path 14981" d="M208.9,1313.688s1.847-8.306-1.361-8.617c-5.725-.555-17.264,2.042-18.18,3.5s.818,5.12.818,5.12Z" transform="translate(-6094.299 1568.133)" fill="#ffb054"/>
    <g id="Group_14028" data-name="Group 14028" transform="translate(-5914.073 2843.145)">
      <path id="Path_14982" data-name="Path 14982" d="M179.578,1258.554c-6.591.729-12.925-7.639-14.147-18.69-.7-6.289.415-12.088,2.715-16.056a22.442,22.442,0,0,0-2.352,3.348c-2.3,4-2.673,14.182-2.673,14.182l-.963-.669c-.242,5.272,3.809,10.422,3.809,10.422h-1.5l2.247,2.787-1.5.364s2.122,3.03,7.366,4.969h9.469l.733-1.8A7.6,7.6,0,0,1,179.578,1258.554Z" transform="translate(-162.148 -1220.534)" fill="#f29e46"/>
      <path id="Path_14983" data-name="Path 14983" d="M186.993,1213.858c-.23-.005-.458,0-.684.015l.277.36C186.72,1214.1,186.855,1213.977,186.993,1213.858Z" transform="translate(-178.361 -1213.855)" fill="#f29e46"/>
    </g>
    <path id="Path_14984" data-name="Path 14984" d="M342.846,1211.783a11.052,11.052,0,0,0-2.82.386c.6,3.5,2.026,6.193,3.707,6.374,1.732.186,2.992-2.409,3.212-5.97A12.743,12.743,0,0,0,342.846,1211.783Z" transform="translate(-6195.582 1630.68)" fill="#d85d5d"/>
    <path id="Path_14985" data-name="Path 14985" d="M229.706,1313.818s-.28-6.749-2.681-8.119c-3.184-1.818-10.307,1.7-11.061,3.15s-.922,4.969-.922,4.969Z" transform="translate(-6111.714 1568.003)" fill="#ffdfba"/>
    <path id="Path_14986" data-name="Path 14986" d="M264.077,1242.06a63.88,63.88,0,0,1-24.518-4.671l-.2.066c4.484,3.03,17.769,5.574,17.769,5.574l-.863,1a76.642,76.642,0,0,0,17.633,1.727,94.423,94.423,0,0,0,15.391-6,22.08,22.08,0,0,0,6.771-6.29C287.936,1238.768,276.61,1242.06,264.077,1242.06Z" transform="translate(-6128.029 1616.13)" fill="#f29e46"/>
    <path id="Path_14987" data-name="Path 14987" d="M345.446,1250.655c9.756-3.151,13.573-6.241,13.573-6.241l-8.241-.666Z" transform="translate(-6199.218 1609.231)" fill="#ffb054"/>
    <path id="Path_14988" data-name="Path 14988" d="M319.437,1253.669c10.115-1.671,14.348-4.161,14.348-4.161l-8.051-1.88Z" transform="translate(-6181.766 1606.627)" fill="#ffb054"/>
    <path id="Path_14989" data-name="Path 14989" d="M342.708,1177.584a1.09,1.09,0,0,1-.835.129s-3.137-2.228-2.976-2.841c.113-.43,5.728-1.076,6.055-.245C345.076,1174.944,342.708,1177.584,342.708,1177.584Z" transform="translate(-6194.82 1655.882)" fill="#ef7878"/>
    <path id="Path_14990" data-name="Path 14990" d="M340.542,1178.222c1.318-.863,2-.727,2.318-.272s-.568,1.727-.568,1.727Z" transform="translate(-6195.927 1653.624)" fill="#d85d5d"/>
    <path id="Path_14991" data-name="Path 14991" d="M353.1,1177.379a4.1,4.1,0,0,0-.067,1.663l1.1-1.448C353.683,1176.784,353.338,1176.931,353.1,1177.379Z" transform="translate(-6204.271 1654.01)" fill="#d85d5d"/>
    <path id="Path_14992" data-name="Path 14992" d="M234.617,1214.278c-.036.261-.051.423-.051.423l3.151-1.091a20.9,20.9,0,0,0-1.939,5.453l.132.039a41.9,41.9,0,0,1,6.231-9.431Z" transform="translate(-6124.815 1632.096)" fill="#f29e46"/>
    <path id="Path_14993" data-name="Path 14993" d="M353.2,1262.315a28.448,28.448,0,0,0,9.046-6l-5.757,1.185Z" transform="translate(-6204.423 1600.799)" fill="#f29e46"/>
    <path id="Path_14994" data-name="Path 14994" d="M373.443,1251.923a50.5,50.5,0,0,0,8.877-8.453l-7.241,3.242Z" transform="translate(-6218.004 1609.417)" fill="#f29e46"/>
    <path id="Path_14995" data-name="Path 14995" d="M345.186,1213.357a9.944,9.944,0,0,1,1.659.248c.042-.334.077-.677.1-1.032a12.733,12.733,0,0,0-4.1-.79,11.052,11.052,0,0,0-2.82.386,17.744,17.744,0,0,0,.487,2.089A9.181,9.181,0,0,1,345.186,1213.357Z" transform="translate(-6195.582 1630.68)" fill="#bf4141"/>
    <g id="Group_14029" data-name="Group 14029" transform="translate(-5892.673 2817.248)">
      <path id="Path_14996" data-name="Path 14996" d="M234.735,1170.2l1.491-.481-4.12-1.212a20.9,20.9,0,0,1,1.939-5.453l-3.151,1.091a10.034,10.034,0,0,1,1.212-4l-3.393.728a14.563,14.563,0,0,1,3.878-8.362c3.48-3.712,14.172-16.3,15.08-17.37-.736.281-1.2.464-1.2.464s-11.725,13.346-15.361,17.224a15.826,15.826,0,0,0-3.908,9.044l3.272-.727a6.458,6.458,0,0,0-.848,3.545l2.575-.591a16.815,16.815,0,0,0-1.727,5.135Z" transform="translate(-227.198 -1135.138)" fill="#f29e46"/>
    </g>
    <path id="Path_14997" data-name="Path 14997" d="M240.173,1242.861l3.605-1.969-4.423,1.545Z" transform="translate(-6128.029 1611.147)" fill="#665252"/>
    <path id="Path_8607" data-name="Path 8607" d="M236.183,164.983c-1.006-2.486-2.59-8.7,1.352-9.321s3.04,5.593,3.04,5.593,2.708-1.243,2.68,1.035S236.183,164.983,236.183,164.983Z" transform="translate(-6093.394 2644.325)" fill="#ff717f"/>
    <path id="Path_8608" data-name="Path 8608" d="M208.349,195.2s3.894-6.546,3.644-8.456-4.662,2.182-4.662,2.182-4.332-2.728-5.731.274S208.349,195.2,208.349,195.2Z" transform="translate(-6094.441 2614.438)" fill="#ff717f"/>
    <path id="Path_8609" data-name="Path 8609" d="M264.562,193.231c.727-5.013-9.994-2.672-8.033,1a24.447,24.447,0,0,0,5.937,6.683s8.72-2.675,9.088-5.681S264.562,193.231,264.562,193.231Z" transform="translate(-6084.377 2655.562)" fill="#ff717f"/>
  </g>
</svg>
