<svg xmlns="http://www.w3.org/2000/svg" width="301.393" height="171.309" viewBox="0 0 301.393 171.309">
  <g id="Group_14208" data-name="Group 14208" transform="translate(-48.398 -292.968)">
    <path id="Path_8815" data-name="Path 8815" d="M305.561,282.9H606.954s-39.512,10.18-150.927,10.18S305.561,282.9,305.561,282.9Z" transform="translate(-257.163 171.194)" fill="#e6d4bf"/>
    <path id="Path_8816" data-name="Path 8816" d="M378.662,268.229c1.1,11.877-6.761,23.756-8.223,25.948s.915,3.472,5.3,3.472,18.274-15.167,18.274-15.167-2.375-2.192-4.934-9.684S379.211,254.706,378.662,268.229Z" transform="translate(-111.469 159.428)" fill="#cf9c7a"/>
    <path id="Path_8817" data-name="Path 8817" d="M389.7,229.409c-.731,3.289-22.659-7.858-22.659-7.858a46.456,46.456,0,0,1-5.68-6.082c-10.525-13.332-15.8-32.424-14.239-35.4,1.828-3.472,22.564,5.431,32.892,21.745,5.482,8.662,8.136,15.685,9.225,20.62A17.73,17.73,0,0,1,389.7,229.409Z" transform="translate(-124.335 113.643)" fill="#ffb054"/>
    <g id="Group_14207" data-name="Group 14207" transform="translate(73.23 335.172)">
      <path id="Path_15322" data-name="Path 15322" d="M3080.811,880.861c4.211-7.657,16.544-11.605,17.447-11.551s-.151,19.433-.151,19.433Z" transform="translate(-3023.5 -867.057)" fill="#ffb054"/>
      <path id="Path_15323" data-name="Path 15323" d="M3087.09,889.064c3.443-6.259,13.524-9.486,14.262-9.442s-.124,15.885-.124,15.885Z" transform="translate(-3028.154 -874.7)" fill="#ffb054"/>
      <path id="Path_15324" data-name="Path 15324" d="M3090.229,891.436c3.058-5.56,12.014-8.427,12.669-8.388s-.109,14.112-.109,14.112Z" transform="translate(-3030.48 -877.238)" fill="#ffdfba"/>
      <path id="Path_15325" data-name="Path 15325" d="M3121.695,895.132c-.3.536-.616,1.058-.935,1.573l4.655,2.121s.591-10.877.288-13.53A41.28,41.28,0,0,1,3121.695,895.132Z" transform="translate(-3053.106 -878.904)" fill="#f2c89b"/>
      <path id="Path_15326" data-name="Path 15326" d="M2881.845,1090.636c-16.388,2.176-11.139-42.89-8.45-57.229,2.327-12.409-3.283-24.286-12.035-19.076-5.377,3.2,2.191,7.315,4.688,12.06,2.881,5.473-7.761,43.76-2.384,58.228,3.818,10.271,8.065,10.883,8.065,10.883h12.419Z" transform="translate(-2859.473 -973.596)" fill="#e68e3a"/>
      <path id="Path_15327" data-name="Path 15327" d="M2871.116,1050.413c.623-6.9,1.546-13.1,2.279-17.006,2.327-12.409-3.283-24.286-12.035-19.076-5.377,3.2,2.191,7.315,4.688,12.06,2.175,4.134-3.361,26.986-3.885,44.156A86.318,86.318,0,0,0,2871.116,1050.413Z" transform="translate(-2859.473 -973.596)" fill="#e68e3a"/>
      <path id="Path_15328" data-name="Path 15328" d="M2967.383,1091.039h-45.707s-14.549-16.479-11.011-33.288c.512-2.433,19.333-39.946,20.613-48.908l27.142-1.792c3.713,19.2,18.052,47.884,18.436,51.98C2978.538,1076.965,2967.383,1091.039,2967.383,1091.039Z" transform="translate(-2896.999 -969.134)" fill="#ffb054"/>
      <path id="Path_15329" data-name="Path 15329" d="M2973.909,1078.948a44.458,44.458,0,0,0,2.947-19.916c-.384-4.1-14.723-32.776-18.436-51.98l-27.143,1.792c-1.279,8.962-20.1,46.475-20.612,48.908-1.733,8.229.87,16.377,3.979,22.553q-.14-2.848-.106-5.781c.371-29.061,14-52.62,30.439-52.62s29.466,23.559,29.095,52.62Q2974.043,1076.759,2973.909,1078.948Z" transform="translate(-2896.998 -969.134)" fill="#e68e3a"/>
      <path id="Path_15330" data-name="Path 15330" d="M3109.974,1201.808a81.108,81.108,0,0,0-.664,12.115h5.68s11.138-9.6,11.138-31.24c0-2.564-2.3-8.578-4.966-9.813C3116.133,1177.609,3111.665,1188.612,3109.974,1201.808Z" transform="translate(-3044.606 -1092.017)" fill="#e68e3a"/>
      <path id="Path_15331" data-name="Path 15331" d="M2924.706,1196.409a115.409,115.409,0,0,0-1.908-22.331c-1.755-10.006-4.386-18.831-7.169-24.842-3.84.057-6.912,10.683-7.168,13.628-1.489,17.113,11.907,33.544,11.907,33.544Z" transform="translate(-2895.69 -1074.503)" fill="#e68e3a"/>
      <path id="Path_15332" data-name="Path 15332" d="M2969.056,1174.477l1.472-4.129,2.568,6.337.648,13.539a55.83,55.83,0,0,0-4.353-12.291l1.418-.288Z" transform="translate(-2940.682 -1090.149)" fill="#ffdfba"/>
      <path id="Path_15333" data-name="Path 15333" d="M3113.053,1170.521l-1.344-4.129-2.881,6.337-1.2,13.539a57.282,57.282,0,0,1,4.945-12.291l-1.44-.288Z" transform="translate(-3043.374 -1087.217)" fill="#ffdfba"/>
      <path id="Path_15334" data-name="Path 15334" d="M3054.239,1160.578c-.179.623-11.327,31.9-11.941,39.38H3056s4.954-34.406,7.251-41.5a2.014,2.014,0,0,0,.064-.278c.732-4.419-5.9-5.85-7.532-1.638C3054.908,1158.789,3054.288,1160.405,3054.239,1160.578Z" transform="translate(-2994.959 -1078.052)" fill="#e68e3a"/>
      <path id="Path_15335" data-name="Path 15335" d="M2983.206,1165.273c.156.651,9.752,30.451,10.08,38.262h-13.748s-3.674-32.271-5.705-39.679a1.958,1.958,0,0,1-.048-.259c-.648-5.152,6.844-6.674,8.384-1.716C2982.768,1163.816,2983.171,1165.125,2983.206,1165.273Z" transform="translate(-2944.157 -1081.629)" fill="#e68e3a"/>
      <path id="Path_15336" data-name="Path 15336" d="M2950.683,1311.806h-15.076s-2.6-4.182,1.441-6.058A10.192,10.192,0,0,1,2950.683,1311.806Z" transform="translate(-2915.283 -1189.901)" fill="#ffb054"/>
      <path id="Path_15337" data-name="Path 15337" d="M3117.8,1315.653h-14.163s-.392-3.361,4.327-4.87C3112.14,1309.446,3118.859,1309.828,3117.8,1315.653Z" transform="translate(-3040.408 -1193.748)" fill="#ffb054"/>
      <path id="Path_15338" data-name="Path 15338" d="M3003.682,1315.555h-15.076s-1.358-3.382,3.242-4.9C2995.924,1309.309,3003.181,1309.694,3003.682,1315.555Z" transform="translate(-2955.031 -1193.65)" fill="#ffb054"/>
      <path id="Path_15339" data-name="Path 15339" d="M3061.108,1315.555h-15.481s-1.037-3.382,3.848-4.9C3053.8,1309.309,3061.216,1309.694,3061.108,1315.555Z" transform="translate(-2997.359 -1193.65)" fill="#ffb054"/>
      <path id="Path_15340" data-name="Path 15340" d="M3060.253,1310.129a5.66,5.66,0,0,0-3.591,5.43h12.691C3069.441,1310.736,3064.439,1309.623,3060.253,1310.129Z" transform="translate(-3005.604 -1193.654)" fill="#ffdfba"/>
      <path id="Path_15341" data-name="Path 15341" d="M3000.085,1008.354a106.549,106.549,0,0,0-4.894,13.05l1.226-.122s-2.157,7.805-1.707,10.854l1.248-.732s-.183,8.537.935,11.587l2.4-1.83s.077,7.44.923,8.659l2.105-3.049s.156,5.122,2.176,7.806l2.356-3.9,1.1,6.829s3.795-6.952,4.105-9.513l.7,2.2a48.369,48.369,0,0,0,2.321-6.1l1.27,1.83a43.629,43.629,0,0,0,.868-5.854l1.493,1.83a53.546,53.546,0,0,0,.967-5.488l1.564-.244s-.628-7.562-1.352-9.147h1.223s-2.333-12.928-4.959-17.319S3000.085,1008.354,3000.085,1008.354Z" transform="translate(-2959.647 -969.336)" fill="#ffb054"/>
      <path id="Path_15342" data-name="Path 15342" d="M3019.926,1088.415l1.493,1.83a53.6,53.6,0,0,0,.967-5.489l.963-.15c-2.818-7.22-7.892-12.038-13.684-12.038-4.438,0-8.455,2.83-11.358,7.4l.362-.212s-.183,8.537.934,11.586l2.4-1.829s.077,7.44.924,8.659l2.1-3.049s.157,5.122,2.176,7.806l2.356-3.9,1.1,6.83s3.795-6.952,4.105-9.513l.7,2.2a48.336,48.336,0,0,0,2.321-6.1l1.271,1.83A43.673,43.673,0,0,0,3019.926,1088.415Z" transform="translate(-2962.359 -1017.686)" fill="#ffdfba"/>
      <path id="Path_15343" data-name="Path 15343" d="M2953.915,884.659c-3.815-10.5,1.66-24,2.678-24.047,1.884-.088,6.777,7.156,13.136,11.671C2974.395,875.595,2953.915,884.659,2953.915,884.659Z" transform="translate(-2928.473 -860.611)" fill="#ffb054"/>
      <path id="Path_15344" data-name="Path 15344" d="M2959.591,888.5c-3.161-8.7,1.375-19.887,2.219-19.926,1.562-.073,5.616,5.929,10.885,9.67C2976.561,880.986,2959.591,888.5,2959.591,888.5Z" transform="translate(-2932.849 -866.51)" fill="#ffb054"/>
      <path id="Path_15345" data-name="Path 15345" d="M2963,890.8c-2.77-7.62,1.205-17.419,1.944-17.454,1.367-.064,4.807,5.609,9.422,8.886C2977.747,884.634,2963,890.8,2963,890.8Z" transform="translate(-2935.473 -870.047)" fill="#ffdfba"/>
      <path id="Path_15346" data-name="Path 15346" d="M2984.174,882.73c-4.115-2.922-7.295-7.746-8.905-8.712a36.246,36.246,0,0,1,2.887,14.765C2981.984,886.794,2986.143,884.127,2984.174,882.73Z" transform="translate(-2945.287 -870.546)" fill="#f2c89b"/>
      <path id="Path_15347" data-name="Path 15347" d="M2987.423,911.47c-.252-1.149-6.3-6.113-6.3-6.113s3.262.164,2.552-.656-4.309-3.775-4.309-3.775a32.93,32.93,0,0,0-11.033-6.564A56.124,56.124,0,0,0,2962,892.8a25.773,25.773,0,0,0-7.207-4.54l.287,3.486a28.446,28.446,0,0,0-6.805-3.978l.795,4.261c-1.449,0-2.34.033-2.34.033l-13.655,8.943s-8.394,3.692-8.723,4.513,2.883,4.1,2.883,4.1-5.556,7.056-5.291,7.877,5.3,1.149,5.3,1.149-1.214.657-.937,1.149,6.092,3.774,6.092,3.774l-2.52-.164c3.423,3.61,22.864,9.887,28.388,9.231,6.651-.791,23.928-6.646,23.819-7.63s-1.792-2.585-1.792-2.585,5.888-2.338,5.927-3.323-3.652-3.446-3.652-3.446S2987.674,912.618,2987.423,911.47Z" transform="translate(-2905.764 -880.739)" fill="#ffdfba"/>
      <g id="Group_14061" data-name="Group 14061" transform="translate(16.173 7.033)">
        <path id="Path_15348" data-name="Path 15348" d="M2952.66,890.064a24.76,24.76,0,0,0-4.383-2.293l.8,4.261c-1.449,0-2.339.033-2.339.033l-13.655,8.943s-8.394,3.692-8.724,4.513,2.883,4.1,2.883,4.1-5.555,7.056-5.29,7.877,5.3,1.149,5.3,1.149-1.215.657-.937,1.149a1.979,1.979,0,0,0,.445.378C2961.936,907.005,2957.025,901.444,2952.66,890.064Z" transform="translate(-2921.937 -887.771)" fill="#ffb054"/>
        <path id="Path_15349" data-name="Path 15349" d="M3091.3,934.554c1.427-.692,2.816-1.485,2.834-1.961.04-.984-3.652-3.446-3.652-3.446s5.1-3.036,4.847-4.185-6.3-6.112-6.3-6.112,3.262.164,2.552-.657-4.308-3.774-4.308-3.774a32.931,32.931,0,0,0-11.033-6.564,56.121,56.121,0,0,0-6.334-1.559c-.129-.111-.255-.212-.382-.318C3060.621,922.674,3084.178,925.49,3091.3,934.554Z" transform="translate(-3029.841 -901.263)" fill="#ffb054"/>
      </g>
      <g id="Group_14062" data-name="Group 14062" transform="translate(33.674 25.586)">
        <path id="Path_15350" data-name="Path 15350" d="M2992.366,962.024a9.255,9.255,0,0,1-2.427-.287.564.564,0,1,1,.3-1.088c3.483.956,9.473-1.17,9.533-1.192a.564.564,0,0,1,.382,1.062A26.909,26.909,0,0,1,2992.366,962.024Z" transform="translate(-2989.524 -959.425)" fill="#5e4b4b"/>
      </g>
      <g id="Group_14063" data-name="Group 14063" transform="translate(59.765 25.189)">
        <path id="Path_15351" data-name="Path 15351" d="M3098.659,961.09c-1.641,0-5.394-.232-8.131-2.171a.564.564,0,0,1,.652-.921c3.189,2.259,8.167,1.946,8.217,1.944a.564.564,0,1,1,.079,1.126C3099.426,961.071,3099.13,961.09,3098.659,961.09Z" transform="translate(-3090.29 -957.894)" fill="#5e4b4b"/>
      </g>
      <path id="Path_15357" data-name="Path 15357" d="M3019.076,978.943c-1.915,2.624-6.457,7.09-8.454,6.552s-6.693-3.437-6.81-4.726,9.511-5.479,12.329-4.4S3019.076,978.943,3019.076,978.943Z" transform="translate(-2966.438 -946.264)" fill="#ead5be"/>
      <path id="Path_15358" data-name="Path 15358" d="M3018.494,982.593c-2.112,2.647-6.125,6.415-7.968,5.919a18.352,18.352,0,0,1-6.186-3.727c-.349.288-.545.54-.529.729.118,1.289,4.814,4.19,6.81,4.727s6.539-3.928,8.453-6.553A2.1,2.1,0,0,0,3018.494,982.593Z" transform="translate(-2966.438 -951.009)" fill="#dbba9a"/>
      <path id="Path_15359" data-name="Path 15359" d="M3064.538,978.943c1.921,2.624,6.477,7.09,8.48,6.552s6.712-3.437,6.83-4.727-9.539-5.478-12.366-4.4S3064.538,978.943,3064.538,978.943Z" transform="translate(-3011.442 -946.264)" fill="#ead5be"/>
      <path id="Path_15360" data-name="Path 15360" d="M3073.338,988.294c-1.886.506-6.042-3.43-8.122-6.082a2.215,2.215,0,0,0-.678,1.193c1.921,2.624,6.477,7.09,8.48,6.553s6.712-3.437,6.83-4.727c.015-.159-.121-.363-.374-.6A18.549,18.549,0,0,1,3073.338,988.294Z" transform="translate(-3011.442 -950.726)" fill="#dbba9a"/>
      <path id="Path_15362" data-name="Path 15362" d="M3051.938,1004.46c1.985,1.664,6.082-.128,6.082-.128a3.026,3.026,0,0,1-2.881,2.368A3.556,3.556,0,0,1,3051.938,1004.46Z" transform="translate(-3002.103 -967.119)" fill="#665252"/>
      <path id="Path_15363" data-name="Path 15363" d="M3056.2,973.77c-.426-.936-7.173-.971-7.415,0-.2.794,1.907,2.7,3.207,3.36a1.325,1.325,0,0,1,1.166-.032C3054.2,976.46,3056.677,974.825,3056.2,973.77Z" transform="translate(-2999.755 -943.94)" fill="#5e4b4b"/>
      <path id="Path_15364" data-name="Path 15364" d="M3058.2,974.127c-.338-.743-5.7-.772-5.889,0-.158.631,1.514,2.143,2.547,2.669a1.053,1.053,0,0,1,.926-.026C3056.618,976.264,3058.581,974.965,3058.2,974.127Z" transform="translate(-3002.372 -944.313)" fill="#a58888"/>
      <path id="Path_15365" data-name="Path 15365" d="M3054.445,980.148c.353-1.249.512-1.569.064-2.017s-1.953.128-1.953.128A5.7,5.7,0,0,0,3054.445,980.148Z" transform="translate(-3002.562 -947.576)" fill="#5e4b4b"/>
      <path id="Path_15366" data-name="Path 15366" d="M3066.917,980.046c-.156-1.283-.263-1.621.221-2.005s1.818.386,1.818.386A5.557,5.557,0,0,1,3066.917,980.046Z" transform="translate(-3013.107 -947.555)" fill="#5e4b4b"/>
      <g id="Group_14065" data-name="Group 14065" transform="translate(15.61 20.626)">
        <path id="Path_15367" data-name="Path 15367" d="M2931.428,972.632s-5.141-3.283-5.417-3.784,1.344-1.728,1.344-1.728-5.86.171-6.129-.663,5.985-7.883,5.985-7.883-4.072-3.373-3.861-4.262a1.807,1.807,0,0,0-.609.521c-.33.82,2.884,4.1,2.884,4.1s-6.12,7.219-5.855,8.04,5.869.986,5.869.986-1.538,1.019-1.26,1.511c.223.4,4.339,2.227,5.823,3.076Z" transform="translate(-2919.76 -950.676)" fill="#e68e3a"/>
        <path id="Path_15368" data-name="Path 15368" d="M3010.817,950.425c-.251-1.149-6.434-6-6.434-6s2.753,0,2.043-.816c-.541-.625-2.753-2.484-3.779-3.336,1,1.169,2.033,2.371,2.36,2.761.7.834-3.5.382-3.5.382s7.227,5.457,7.489,6.626-5.426,3.985-5.426,3.985,4.163,2.651,4.141,3.653-6.589,3.068-6.589,3.068,2.57,1.938,2.692,2.94-16.471,6.957-22.884,7.761c-5.173.649-23.135-5.355-27.246-9.065l-1.049-.068c3.423,3.61,22.864,9.887,28.388,9.23,6.652-.791,23.929-6.646,23.819-7.631a7.678,7.678,0,0,0-1.32-2.591s5.417-2.332,5.456-3.316-3.151-3.453-3.151-3.453S3011.068,951.573,3010.817,950.425Z" transform="translate(-2944.121 -940.271)" fill="#e68e3a"/>
      </g>
      <path id="Path_15369" data-name="Path 15369" d="M2986.482,1037.242c-9.24,0-17.94-3.573-25.418-5.735,6.118,4.038,21.375,8.511,26.155,7.943,6.232-.741,21.844-6.221,23.69-7.682C3003.644,1033.768,2995.343,1037.242,2986.482,1037.242Z" transform="translate(-2934.759 -987.257)" fill="#e68e3a"/>
      <path id="Path_15370" data-name="Path 15370" d="M2976.953,1008.6c-2.8.689-4.183-.394-4.183-.394a7.682,7.682,0,0,1,3.4-4.2s-2.18,2.54-2.317,3.564S2976.953,1008.6,2976.953,1008.6Z" transform="translate(-2943.435 -966.874)" fill="#fff"/>
      <path id="Path_15371" data-name="Path 15371" d="M2963.771,955.937c-3.112-.617-3.833-1.906-3.833-1.906a8.175,8.175,0,0,1,3.987-3.051s-2.747,2-3.089,2.8S2963.771,955.937,2963.771,955.937Z" transform="translate(-2933.927 -927.58)" fill="#fff"/>
      <path id="Path_15372" data-name="Path 15372" d="M2950.174,997.439a16.236,16.236,0,0,1-4.831-.955,6.858,6.858,0,0,1,2.948-3.116s-1.68,1.9-1.664,2.588S2950.174,997.439,2950.174,997.439Z" transform="translate(-2923.108 -958.994)" fill="#fff"/>
      <path id="Path_15373" data-name="Path 15373" d="M3133.345,996.63c2.936.333,4.207-.915,4.207-.915a7.772,7.772,0,0,0-4-3.745s2.546,2.247,2.816,3.245S3133.345,996.63,3133.345,996.63Z" transform="translate(-3062.432 -957.958)" fill="#fff"/>
      <path id="Path_15374" data-name="Path 15374" d="M3136.838,963.509c3,.189,3.7-.705,3.7-.705a10.588,10.588,0,0,0-3.813-3.383,20.319,20.319,0,0,1,2.95,2.981C3140,963.131,3136.838,963.509,3136.838,963.509Z" transform="translate(-3064.94 -933.836)" fill="#fff"/>
      <path id="Path_15375" data-name="Path 15375" d="M3102.133,942.363c-7.169-.448-9.154-2.368-9.154-2.368l1.28-1.92A19.9,19.9,0,0,0,3102.133,942.363Z" transform="translate(-3032.518 -918.016)" fill="#fff"/>
      <path id="Path_15376" data-name="Path 15376" d="M2991.916,942.114c7.579.256,9.844-1.462,9.844-1.462l-1.168-2.038A21.372,21.372,0,0,1,2991.916,942.114Z" transform="translate(-2957.624 -918.417)" fill="#fff"/>
      <path id="Path_15377" data-name="Path 15377" d="M2994.638,1310.285a13.166,13.166,0,0,0-2.79.572c-4.6,1.518-3.242,4.9-3.242,4.9h11.139A6.691,6.691,0,0,0,2994.638,1310.285Z" transform="translate(-2955.031 -1193.852)" fill="#ffdfba"/>
    </g>
    <path id="Path_8818" data-name="Path 8818" d="M352.79,187.474c-2.151,3.947,6.031,22.659,13.889,30.335s14.071,4.751,14.071,4.751-2.5-11.885-9.685-20.832C362.109,190.581,353.886,185.464,352.79,187.474Z" transform="translate(-121.23 117.932)" fill="#ffdfba"/>
    <path id="Path_8819" data-name="Path 8819" d="M360.943,219.389l-6.761,14.253s-2.011-1.549-4.715-3.874c-3.611-3.093-8.442-7.588-11.367-11.659-5.116-7.126-14.618-27.592-8.587-30.333,5.13-2.332,16.219,10.028,26.276,24.122C357.551,214.36,359.283,216.882,360.943,219.389Z" transform="translate(-135.048 118.18)" fill="#ffb054"/>
    <path id="Path_8820" data-name="Path 8820" d="M356.1,220.016c-.366-.913-14.436-20.1-21.014-23.573s-.366,10.415,8.04,20.831,18.274,9.138,18.274,9.138Z" transform="translate(-132.402 122.852)" fill="#ffdfba"/>
    <path id="Path_8821" data-name="Path 8821" d="M347.969,203.18c1.763,2.463,3.494,4.984,5.154,7.492l-6.761,14.253s-2.011-1.549-4.715-3.874A109.46,109.46,0,0,0,347.969,203.18Z" transform="translate(-127.228 126.897)" fill="#bf7b2c" opacity="0.2" style="mix-blend-mode: multiply;isolation: isolate"/>
    <path id="Path_8822" data-name="Path 8822" d="M384.519,216.5c-.731,3.289-22.659-7.858-22.659-7.858a46.451,46.451,0,0,1-5.68-6.082l27.879,6.966A17.731,17.731,0,0,1,384.519,216.5Z" transform="translate(-119.153 126.552)" fill="#bf7b2c" opacity="0.2" style="mix-blend-mode: multiply;isolation: isolate"/>
    <path id="Path_8825" data-name="Path 8825" d="M446.2,304.5a78.909,78.909,0,0,1-3.121,9.656c-2.369,5.971-6.037,12.688-10.767,13.733-8.691,1.931-27.418-15.5-41.979-29.8-.138-.138-.278-.271-.417-.409-14.618-14.379-41.416-19.5-41.416-19.5a113.937,113.937,0,0,0,.3-11.593c-.043-2.01-.132-4.02-.255-6.022-.286-4.788-.761-9.5-1.308-13.91-1.63-13.12-3.889-23.507-3.612-24.758.49-2.192,7.069-12.425,8.282-14.128s21.928-2.193,23.149-1.952,23.148,14.138,42.635,14.869c5.116,8.522,1.952,22.658,1.952,22.658s17.543,16.564,23.879,33.376S446.2,304.5,446.2,304.5Z" transform="translate(-126.14 128.333)" fill="#ffb054"/>
    <path id="Path_8826" data-name="Path 8826" d="M441.783,308.69c-2.369,5.97-6.037,12.688-10.767,13.733-.146.03-.293.059-.447.089-2.587.409-5.986-.366-9.846-2.069a.1.1,0,0,0-.044-.014c-8.948-3.976-20.387-12.952-30.056-23.859-.636-.716-1.265-1.433-1.879-2.164-13.245-15.656-41.54-21.687-41.54-21.687a113.973,113.973,0,0,0,.3-11.593c-.044-1.988-.132-3.984-.255-5.964V255.1c-.286-4.788-.761-9.5-1.308-13.91a40.712,40.712,0,0,0,3.7-3.8c.241-.972,18.767-13.3,18.767-13.3,4.634-10.235,30.206-13.013,33.371,1.848a24.257,24.257,0,0,1,.482,3.464,36.939,36.939,0,0,1-6.205,22.242s13.033,4.751,22.535,21.8a200.361,200.361,0,0,1,14.618,33.382A40.74,40.74,0,0,0,441.783,308.69Z" transform="translate(-124.841 133.799)" fill="#ffdfba"/>
    <path id="Path_8827" data-name="Path 8827" d="M444.452,299.169a78.906,78.906,0,0,1-3.121,9.656c-2.369,5.97-6.037,12.688-10.767,13.733-.146.03-.293.059-.447.089-2.486.372-5.9-.425-9.846-2.069a.1.1,0,0,0-.044-.014c-8.948-3.976-20.387-12.952-30.056-23.859-.636-.716-1.265-1.433-1.879-2.164-13.245-15.656-41.54-21.687-41.54-21.687a113.955,113.955,0,0,0,.3-11.593c-.044-1.988-.132-3.984-.255-5.964v-.058c6.571-7.472,24.954-16.337,24.954-16.337.555.263,1.1.512,1.644.739,15.146,6.4,27.2-.484,28.412-10.1,0-.014.008-.037.008-.051,12.666,0,14.128-14.128,14.128-14.128,5.116,8.522,1.952,22.658,1.952,22.658s17.543,16.564,23.879,33.376S444.452,299.169,444.452,299.169Z" transform="translate(-124.39 133.664)" fill="#bf7b2c" opacity="0.2" style="mix-blend-mode: multiply;isolation: isolate"/>
    <path id="Path_8828" data-name="Path 8828" d="M418.856,238.017c-3.334,2.822-11.183,8.172-20.614,13.333-.534.117-1.1.263-1.68.431-21.074,5.972-25.459,3.53-25.459,3.53s-5.775,7.332-12.324,9.262c-6.4-.168-11.417-2.567-13.749-8.407,0,0,23.331-12.871,29.325-16.525,15.146,6.4,27.2-.484,28.412-10.1,0-.014.008-.037.008-.051,12.666,0,14.128-14.128,14.128-14.128C422.02,223.881,418.856,238.017,418.856,238.017Z" transform="translate(-125.348 133.664)" fill="#bf7b2c" opacity="0.2" style="mix-blend-mode: multiply;isolation: isolate"/>
    <path id="Path_8829" data-name="Path 8829" d="M367.251,220.78c-.3,1.206-2.039,2.8-4.152,4.093-3.018,1.842-6.79,3.085-8.273,1.755-1.118-1.008-1.988-4.4-2-7.858-.008-4.042,1.147-8.186,4.437-8.713C363.355,209.084,367.982,217.857,367.251,220.78Z" transform="translate(-121.014 130.677)" fill="#fff"/>
    <path id="Path_8830" data-name="Path 8830" d="M353.006,226.346c-.753,2.134-2.186,2.939-3.589,2.725a4.638,4.638,0,0,1-3.472-3.457c-1.221-3.9.731-13.4,4.385-12.426a3.958,3.958,0,0,1,2.435,2.419C354.1,218.554,354.036,223.422,353.006,226.346Z" transform="translate(-125.042 132.42)" fill="#fff"/>
    <path id="Path_8836" data-name="Path 8836" d="M363.1,223.476c-3.018,1.842-6.79,3.085-8.273,1.755-1.118-1.008-1.988-4.4-2-7.858.461-2.543,1.929-4.474,3.939-4.824,2.887-.5,5.8,2.449,6.513,6.579A9.867,9.867,0,0,1,363.1,223.476Z" transform="translate(-121.014 132.073)" fill="#453727"/>
    <path id="Path_8837" data-name="Path 8837" d="M352.143,225.458c-.753,2.134-2.186,2.939-3.589,2.725a10,10,0,0,1-1.389-6.19c.277-4.035,2.368-7.207,4.737-7.274C353.238,217.665,353.172,222.533,352.143,225.458Z" transform="translate(-124.178 133.309)" fill="#453727"/>
    <path id="Path_8838" data-name="Path 8838" d="M413.119,287.046c-5.116-2.559.366-6.213.366-6.213a25.591,25.591,0,0,1,2.449-1.484c2.251-1.2,5.4-2.4,6.688-.526a1.877,1.877,0,0,1,.271.585C423.863,282.661,417.927,289.451,413.119,287.046Z" transform="translate(-88.728 168.387)" fill="#ffb054"/>
    <path id="Path_8839" data-name="Path 8839" d="M413.119,286.511c-5.116-2.559.366-6.213.366-6.213a25.585,25.585,0,0,1,2.449-1.484c-1.587,4.759,3.354,5.775,6.747.447.079-.132.152-.263.212-.387C423.863,282.126,417.927,288.916,413.119,286.511Z" transform="translate(-88.728 168.922)" fill="#bf7b2c" opacity="0.2" style="mix-blend-mode: multiply;isolation: isolate"/>
    <path id="Path_8840" data-name="Path 8840" d="M402.64,286.824s-10.417,10.782-14.8,10.782a15.182,15.182,0,0,1-2.441-.17c-.089-.006-.176-.022-.263-.036-2.581-.439-3.721-1.587-2.595-3.267,1.461-2.193,4.751-9.138,3.471-23.39.146-3.678,1.148-5.761,2.581-6.688,3.611-2.369,9.984,2.645,12.243,7.806.124.3.241.591.344.891A31.829,31.829,0,0,1,402.64,286.824Z" transform="translate(-104.747 160.386)" fill="#ffdfba"/>
    <path id="Path_8842" data-name="Path 8842" d="M379.109,220.682l-.484,12.669s-4.874,15.107-18.761,21.927a19.067,19.067,0,0,1-17.968-.666c-5.62-3.077-9.341-8.172-9.079-11.271.249-2.974,6.923-7.711,16.118-12.192A133.421,133.421,0,0,1,379.109,220.682Z" transform="translate(-132.141 136.622)" fill="#ffdfba"/>
    <path id="Path_8844" data-name="Path 8844" d="M360.162,228.424c2.83,5.958,6.919,4.373,8.979,2.27C364.963,232.05,360.162,228.424,360.162,228.424Z" transform="translate(-116.94 140.924)" fill="#571b14"/>
    <path id="Path_8845" data-name="Path 8845" d="M341.9,250.873c-4.86-2.66-8.3-6.834-8.968-9.919a4.385,4.385,0,0,1-.11-1.352c.219-2.631,5.46-6.636,13.019-10.62.994-.526,2.032-1.053,3.1-1.571C350.281,242.19,347.934,248.14,341.9,250.873Z" transform="translate(-132.141 140.361)" fill="#453727"/>
    <path id="Path_8846" data-name="Path 8846" d="M367.63,230.892c-2.551,6.849-11.257,13.713-13.413,15.328a.216.216,0,0,1-.044.03A42.669,42.669,0,0,0,366.2,229.774Z" transform="translate(-120.267 141.674)" fill="#571b14"/>
    <path id="Path_8847" data-name="Path 8847" d="M401.559,283.82s-10.417,10.782-14.8,10.782a15.64,15.64,0,0,1-2.7-.205c8.976-3,15.13-13.494,15.13-20.993a18.093,18.093,0,0,1,.569-4.546c.124.3.241.591.344.891A31.828,31.828,0,0,1,401.559,283.82Z" transform="translate(-103.666 163.39)" fill="#bf7b2c" opacity="0.2" style="mix-blend-mode: multiply;isolation: isolate"/>
    <path id="Path_8848" data-name="Path 8848" d="M421.569,294.265c-1.1,3.538-21.687,3.413-23.149,1.828-.818-.891-.285-3.114,1.016-4.788a4.459,4.459,0,0,1,4.225-1.988c-2.923-12.191,5.666-22.44,10.964-24.2a1.441,1.441,0,0,1,.929-.016l.008.008a1.955,1.955,0,0,1,.694.4l.008.006a8.7,8.7,0,0,1,2.053,3.466.1.1,0,0,1,.014.036C421.122,276.386,422.373,291.684,421.569,294.265Z" transform="translate(-95.9 161.263)" fill="#ffb054"/>
    <path id="Path_8849" data-name="Path 8849" d="M385.4,297.225c-.089-.006-.176-.022-.263-.036-2.581-.439-3.721-1.587-2.595-3.267,1.461-2.193,4.751-9.138,3.471-23.39.146-3.678,1.148-5.761,2.581-6.688C400.6,263.143,393.488,293.257,385.4,297.225Z" transform="translate(-104.747 160.598)" fill="#ffdfba" opacity="0.4" style="mix-blend-mode: screen;isolation: isolate"/>
    <path id="Path_8850" data-name="Path 8850" d="M350.882,219.948c.355,1.08.157,2.113-.443,2.31s-1.372-.518-1.727-1.6-.156-2.113.443-2.31S350.528,218.87,350.882,219.948Z" transform="translate(-123.4 135.309)" fill="#fff"/>
    <path id="Path_8851" data-name="Path 8851" d="M356.991,218.363c.355,1.078.156,2.113-.443,2.309s-1.372-.518-1.727-1.6-.157-2.113.443-2.31S356.636,217.284,356.991,218.363Z" transform="translate(-120.005 134.428)" fill="#fff"/>
    <path id="Path_8852" data-name="Path 8852" d="M354.113,222.886c4.724-3.657,14.939-6.171,14.939-6.171s-4.4,4.871-7.072,5.815-5.656,3.457-6.442,2.985S354.113,222.886,354.113,222.886Z" transform="translate(-120.301 134.418)" fill="#ffb054"/>
    <path id="Path_8853" data-name="Path 8853" d="M353.783,221.725c-3.142-.943-7.543,2.357-7.543,2.357l1.571,1.885S353.312,224.4,353.783,221.725Z" transform="translate(-124.676 137.108)" fill="#ffb054"/>
    <path id="Path_8854" data-name="Path 8854" d="M409.949,265.453a5.213,5.213,0,0,1-.65-.373,1.955,1.955,0,0,1,.694.4Z" transform="translate(-89.638 161.291)" fill="#ffb054"/>
    <path id="Path_8855" data-name="Path 8855" d="M421.569,292.843c-1.1,3.538-21.687,3.413-23.149,1.828-.818-.891-.285-3.114,1.016-4.788-.152,2.1,4.7,4.32,17.748.249,3.091-.964,3.267-15.563,1.147-22.543C421.122,274.964,422.373,290.262,421.569,292.843Z" transform="translate(-95.9 162.685)" fill="#bf7b2c" opacity="0.2" style="mix-blend-mode: multiply;isolation: isolate"/>
    <path id="Path_8856" data-name="Path 8856" d="M345.837,228.421a4.266,4.266,0,0,1-.1.628c-1.411,6.243-8.472,15.972-12.806,11.344a4.385,4.385,0,0,1-.11-1.352C333.037,236.411,338.278,232.4,345.837,228.421Z" transform="translate(-132.141 140.922)" fill="#453727" style="mix-blend-mode: screen;isolation: isolate"/>
    <g id="Group_14206" data-name="Group 14206" transform="translate(167.006 428.123)">
      <path id="Path_8841" data-name="Path 8841" d="M323.181,295.526s16.385,1.647,32.415,1.647,30.629-1.647,30.629-1.647-3.838-21.563-6.03-23.39-12.608-5.116-24.669-5.848c-9.15-.554-21.2,1.828-22.477,3.107S323.181,295.526,323.181,295.526Z" transform="translate(-323.181 -266.206)" fill="#0d4b61"/>
      <g id="Group_7327" data-name="Group 7327" transform="translate(22.44 1.545)" opacity="0.5" style="mix-blend-mode: screen;isolation: isolate">
        <path id="Path_8857" data-name="Path 8857" d="M350.046,273.613l-2.879,16.7h-9.561c.818-4.437,2.1-11.323,3.231-17.507Z" transform="translate(-337.606 -264.082)" fill="#0d4b61"/>
        <path id="Path_8858" data-name="Path 8858" d="M350.246,267.645l-1,5.824c-2.01-.174-6.265-.532-9.181-.751.373-2.011.709-3.875.994-5.46a47.34,47.34,0,0,1,5,.014C347.483,267.359,348.887,267.484,350.246,267.645Z" transform="translate(-336.241 -267.199)" fill="#0d4b61"/>
      </g>
    </g>
  </g>
</svg>
