<svg xmlns="http://www.w3.org/2000/svg" width="158.065" height="141.394" viewBox="0 0 158.065 141.394">
  <g id="Group_91310" data-name="Group 91310" transform="translate(-305.561 -179.325)">
    <path id="Path_8815" data-name="Path 8815" d="M305.561,282.9H463.626s-20.722,8.4-79.153,8.4S305.561,282.9,305.561,282.9Z" transform="translate(0 29.414)" fill="#e6d4bf"/>
    <path id="Path_8816" data-name="Path 8816" d="M377.151,267.094c.905,9.8-5.58,19.608-6.787,21.417s.755,2.866,4.374,2.866,15.083-12.519,15.083-12.519-1.961-1.809-4.073-7.993S377.6,255.932,377.151,267.094Z" transform="translate(18.301 23.4)" fill="#cf9c7a"/>
    <path id="Path_8817" data-name="Path 8817" d="M382.219,220.663c-.6,2.714-18.7-6.485-18.7-6.485a38.343,38.343,0,0,1-4.688-5.02c-8.687-11-13.044-26.762-11.752-29.217,1.509-2.866,18.624,4.482,27.148,17.947,4.525,7.149,6.715,12.946,7.614,17.019A14.634,14.634,0,0,1,382.219,220.663Z" transform="translate(11.726 0)" fill="#ffb054"/>
    <path id="Path_8818" data-name="Path 8818" d="M352.729,187.4c-1.776,3.257,4.978,18.7,11.463,25.038s11.614,3.921,11.614,3.921-2.062-9.81-7.994-17.194C360.421,189.963,353.634,185.74,352.729,187.4Z" transform="translate(13.313 2.192)" fill="#ffdfba"/>
    <path id="Path_8819" data-name="Path 8819" d="M355.115,213.819l-5.58,11.764s-1.66-1.279-3.892-3.2a62.3,62.3,0,0,1-9.382-9.623c-4.223-5.882-12.066-22.774-7.088-25.036,4.235-1.925,13.387,8.277,21.688,19.909C352.316,209.668,353.745,211.749,355.115,213.819Z" transform="translate(6.251 2.319)" fill="#ffb054"/>
    <path id="Path_8820" data-name="Path 8820" d="M351.953,215.8c-.3-.754-11.915-16.59-17.344-19.456s-.3,8.6,6.636,17.194,15.083,7.542,15.083,7.542Z" transform="translate(7.603 4.707)" fill="#ffdfba"/>
    <path id="Path_8821" data-name="Path 8821" d="M346.865,203.18c1.455,2.033,2.884,4.114,4.254,6.184l-5.58,11.764s-1.66-1.279-3.892-3.2A90.348,90.348,0,0,0,346.865,203.18Z" transform="translate(10.248 6.774)" fill="#bf7b2c" opacity="0.2" style="mix-blend-mode: multiply;isolation: isolate"/>
    <path id="Path_8822" data-name="Path 8822" d="M379.57,214.065c-.6,2.714-18.7-6.485-18.7-6.485a38.343,38.343,0,0,1-4.688-5.02l23.01,5.75A14.634,14.634,0,0,1,379.57,214.065Z" transform="translate(14.375 6.598)" fill="#bf7b2c" opacity="0.2" style="mix-blend-mode: multiply;isolation: isolate"/>
    <path id="Path_8823" data-name="Path 8823" d="M333.24,264.613s-.755-4.675,0-5.58,2.564-.3,2.564-.3.3-3.921,3.016-3.62c.452-2.414,1.055-3.771,2.112-3.771s1.961,3.016,1.961,3.016a22.584,22.584,0,0,1,2.262.151c1.357.15,1.961,3.62,1.961,3.62s1.357-.905,3.168,1.207.452,4.826.452,4.826Z" transform="translate(7.765 20.451)" fill="#833e1e"/>
    <path id="Path_8824" data-name="Path 8824" d="M332.466,270.787s-1.81-7.994-.754-8.6,4.373.151,4.373.151.905-4.375,2.262-4.525,3.017,1.659,3.017,1.659,3.166-3.318,4.525-2.714,1.357,3.62,3.62,4.071c3.318-1.357,6.033-2.262,6.636-.754a5.515,5.515,0,0,1,0,3.318s4.223.152,5.28,1.509-.453,3.77-.453,3.77a3.451,3.451,0,0,1,3.168,3.771C364.139,276.066,332.466,270.787,332.466,270.787Z" transform="translate(7.332 21.969)" fill="#ae5228"/>
    <path id="Path_8825" data-name="Path 8825" d="M428.286,287.258a65.128,65.128,0,0,1-2.576,7.97c-1.955,4.928-4.983,10.472-8.886,11.335-7.174,1.593-22.63-12.79-34.648-24.6-.114-.114-.23-.223-.344-.338-12.066-11.868-34.183-16.091-34.183-16.091a94.06,94.06,0,0,0,.248-9.568c-.036-1.659-.109-3.318-.211-4.97-.236-3.952-.628-7.844-1.08-11.481-1.346-10.829-3.21-19.4-2.981-20.434.4-1.809,5.834-10.255,6.836-11.661s18.1-1.81,19.107-1.611,19.106,11.669,35.19,12.272c4.223,7.034,1.611,18.7,1.611,18.7s14.479,13.672,19.709,27.548S428.286,287.258,428.286,287.258Z" transform="translate(10.804 7.508)" fill="#ffb054"/>
    <path id="Path_8826" data-name="Path 8826" d="M425.047,292.434c-1.955,4.928-4.983,10.472-8.886,11.335l-.369.073c-2.135.338-4.941-.3-8.126-1.708a.084.084,0,0,0-.036-.012c-7.385-3.282-16.826-10.69-24.808-19.692-.525-.591-1.044-1.183-1.551-1.786-10.932-12.922-34.286-17.9-34.286-17.9a94.06,94.06,0,0,0,.248-9.568c-.036-1.641-.109-3.288-.211-4.923v-.048c-.236-3.952-.628-7.844-1.08-11.481a33.6,33.6,0,0,0,3.052-3.137c.2-.8,15.49-10.979,15.49-10.979,3.825-8.447,24.931-10.74,27.544,1.525a20.018,20.018,0,0,1,.4,2.859,30.488,30.488,0,0,1-5.122,18.358s10.757,3.921,18.6,18A165.371,165.371,0,0,1,417.969,290.9,33.626,33.626,0,0,0,425.047,292.434Z" transform="translate(11.467 10.302)" fill="#ffdfba"/>
    <path id="Path_8827" data-name="Path 8827" d="M427.392,284.533a65.129,65.129,0,0,1-2.576,7.97c-1.955,4.928-4.983,10.472-8.886,11.335l-.369.073c-2.052.307-4.869-.351-8.126-1.708a.084.084,0,0,0-.036-.012c-7.385-3.282-16.826-10.69-24.808-19.692-.525-.591-1.044-1.182-1.551-1.786-10.932-12.922-34.286-17.9-34.286-17.9a94.059,94.059,0,0,0,.248-9.568c-.036-1.641-.109-3.288-.211-4.923v-.048c5.424-6.167,20.6-13.484,20.6-13.484.458.217.91.422,1.357.61,12.5,5.278,22.449-.4,23.451-8.338,0-.012.006-.031.006-.042,10.454,0,11.661-11.661,11.661-11.661,4.223,7.034,1.611,18.7,1.611,18.7s14.479,13.672,19.709,27.548S427.392,284.533,427.392,284.533Z" transform="translate(11.698 10.233)" fill="#bf7b2c" opacity="0.2" style="mix-blend-mode: multiply;isolation: isolate"/>
    <path id="Path_8828" data-name="Path 8828" d="M405.964,234.06a118.678,118.678,0,0,1-17.014,11c-.44.1-.9.217-1.387.356-17.394,4.929-21.014,2.913-21.014,2.913s-4.766,6.051-10.172,7.645c-5.278-.139-9.423-2.119-11.348-6.939,0,0,19.257-10.624,24.2-13.64,12.5,5.278,22.449-.4,23.451-8.338,0-.012.006-.031.006-.042,10.454,0,11.661-11.661,11.661-11.661C408.575,222.393,405.964,234.06,405.964,234.06Z" transform="translate(11.208 10.233)" fill="#bf7b2c" opacity="0.2" style="mix-blend-mode: multiply;isolation: isolate"/>
    <path id="Path_8829" data-name="Path 8829" d="M364.732,218.894c-.247,1-1.683,2.311-3.427,3.378-2.491,1.52-5.6,2.546-6.828,1.448-.923-.832-1.641-3.632-1.647-6.485-.006-3.336.946-6.756,3.662-7.192C361.517,209.241,365.336,216.482,364.732,218.894Z" transform="translate(13.423 8.706)" fill="#fff"/>
    <path id="Path_8830" data-name="Path 8830" d="M351.709,224.037c-.621,1.762-1.8,2.425-2.962,2.25a3.828,3.828,0,0,1-2.866-2.853c-1.008-3.216.6-11.059,3.62-10.256a3.266,3.266,0,0,1,2.009,2A13.787,13.787,0,0,1,351.709,224.037Z" transform="translate(11.365 9.597)" fill="#fff"/>
    <path id="Path_8831" data-name="Path 8831" d="M360.834,244.47c-1.093.3-3.545,3.243-3.469,3.847s3.092.376,3.846,0S361.363,244.324,360.834,244.47Z" transform="translate(14.71 18.498)" fill="#ae5228"/>
    <path id="Path_8832" data-name="Path 8832" d="M366.317,241.584c-.211.211-.58,2.848.053,3.058s2.057-.368,2.11-.9S366.581,241.319,366.317,241.584Z" transform="translate(17.168 17.673)" fill="#ae5228"/>
    <path id="Path_8833" data-name="Path 8833" d="M369.079,248.565c-.759,1.01-1.283,5.278-.6,5.58s2.942-2.866,2.64-4.449A1.363,1.363,0,0,0,369.079,248.565Z" transform="translate(17.777 19.607)" fill="#ae5228"/>
    <path id="Path_8834" data-name="Path 8834" d="M374.762,242.66c-.561,1.5,3.017.376,2.866-.679S374.988,242.056,374.762,242.66Z" transform="translate(19.635 17.67)" fill="#ae5228"/>
    <path id="Path_8835" data-name="Path 8835" d="M373.516,231.86c0,1.057,3.921.227,4.072-.074a.791.791,0,0,0-.376-1.055C376.758,230.579,373.516,231.333,373.516,231.86Z" transform="translate(19.298 14.592)" fill="#ae5228"/>
    <path id="Path_8836" data-name="Path 8836" d="M361.306,221.559c-2.491,1.52-5.6,2.546-6.828,1.448-.923-.832-1.641-3.632-1.647-6.485.38-2.1,1.592-3.693,3.251-3.982,2.383-.411,4.79,2.021,5.376,5.43A8.143,8.143,0,0,1,361.306,221.559Z" transform="translate(13.423 9.419)" fill="#453727"/>
    <path id="Path_8837" data-name="Path 8837" d="M351.268,223.582c-.621,1.762-1.8,2.425-2.962,2.25a8.251,8.251,0,0,1-1.147-5.109c.229-3.331,1.954-5.949,3.91-6A13.787,13.787,0,0,1,351.268,223.582Z" transform="translate(11.806 10.051)" fill="#453727"/>
    <path id="Path_8838" data-name="Path 8838" d="M412.737,285.441c-4.223-2.112.3-5.128.3-5.128a21.122,21.122,0,0,1,2.021-1.225c1.858-.989,4.458-1.979,5.52-.434a1.547,1.547,0,0,1,.223.483C421.606,281.821,416.706,287.426,412.737,285.441Z" transform="translate(29.924 27.979)" fill="#ffb054"/>
    <path id="Path_8839" data-name="Path 8839" d="M412.737,285.167c-4.223-2.112.3-5.128.3-5.128a21.122,21.122,0,0,1,2.021-1.225c-1.31,3.928,2.768,4.766,5.569.369.065-.109.126-.217.175-.32C421.606,281.548,416.706,287.152,412.737,285.167Z" transform="translate(29.924 28.252)" fill="#bf7b2c" opacity="0.2" style="mix-blend-mode: multiply;isolation: isolate"/>
    <path id="Path_8840" data-name="Path 8840" d="M399.054,282.743s-8.6,8.9-12.217,8.9a12.536,12.536,0,0,1-2.015-.14c-.073-.005-.145-.018-.217-.03-2.13-.362-3.071-1.31-2.142-2.7,1.206-1.81,3.921-7.542,2.865-19.306.121-3.035.948-4.755,2.13-5.52,2.98-1.956,8.241,2.183,10.1,6.443.1.247.2.488.284.736A26.271,26.271,0,0,1,399.054,282.743Z" transform="translate(21.737 23.89)" fill="#ffdfba"/>
    <path id="Path_8841" data-name="Path 8841" d="M323.181,290.406s13.524,1.36,26.754,1.36,25.28-1.36,25.28-1.36-3.168-17.8-4.977-19.306-10.407-4.223-20.361-4.826c-7.552-.457-17.5,1.509-18.552,2.564S323.181,290.406,323.181,290.406Z" transform="translate(5.004 24.672)" fill="#0d4b61"/>
    <path id="Path_8842" data-name="Path 8842" d="M371.023,220.682l-.4,10.457s-4.023,12.469-15.485,18.1a15.737,15.737,0,0,1-14.83-.55c-4.639-2.54-7.71-6.745-7.493-9.3.205-2.455,5.714-6.365,13.3-10.063A110.123,110.123,0,0,1,371.023,220.682Z" transform="translate(7.736 11.744)" fill="#ffdfba"/>
    <path id="Path_8843" data-name="Path 8843" d="M355.524,242.975a46.611,46.611,0,0,0,2.865-4.807,7,7,0,0,0,.966-2.459c.055-.968-.9-2.061-.924-2.808-.033-1.148.57-1.6,1.317-2.375,1.029-1.061,1.036-.713,1.609-2.157,1.18-2.979,1.546-1.708,4.378-1.955,1.276-.112.7-1.139,1.855-.155.637.541.19,1.617,1.252,2.167,1.876.972,4.7-1.927,4.335,2.257-.143,1.611-.366,1.676.126,2.832.451,1.062,1.163,1.325.924,2.8-.438,2.686-3.182,2.361-5.475,2.017-1.4-.211-2.3-.791-3.53.4-.923.891-.747,2.614-1.646,3.5C361.853,243.934,357.762,240.877,355.524,242.975Z" transform="translate(14.188 13.208)" fill="#ae5228"/>
    <path id="Path_8844" data-name="Path 8844" d="M360.162,228.424c2.336,4.918,5.711,3.609,7.411,1.873C364.124,231.417,360.162,228.424,360.162,228.424Z" transform="translate(15.505 13.943)" fill="#571b14"/>
    <path id="Path_8845" data-name="Path 8845" d="M340.309,246.776c-4.011-2.2-6.854-5.64-7.4-8.187a3.621,3.621,0,0,1-.091-1.116c.181-2.171,4.507-5.477,10.746-8.766.82-.434,1.677-.869,2.558-1.3C347.229,239.609,345.292,244.52,340.309,246.776Z" transform="translate(7.736 13.655)" fill="#453727"/>
    <path id="Path_8846" data-name="Path 8846" d="M365.28,230.7c-2.106,5.653-9.291,11.318-11.07,12.651a.181.181,0,0,1-.036.024,35.218,35.218,0,0,0,9.924-13.6Z" transform="translate(13.805 14.326)" fill="#571b14"/>
    <path id="Path_8847" data-name="Path 8847" d="M398.5,281.207s-8.6,8.9-12.217,8.9a12.91,12.91,0,0,1-2.232-.169c7.409-2.479,12.488-11.137,12.488-17.327a14.934,14.934,0,0,1,.47-3.752c.1.247.2.488.284.736A26.271,26.271,0,0,1,398.5,281.207Z" transform="translate(22.29 25.425)" fill="#bf7b2c" opacity="0.2" style="mix-blend-mode: multiply;isolation: isolate"/>
    <path id="Path_8848" data-name="Path 8848" d="M417.458,289.16c-.905,2.92-17.9,2.817-19.107,1.509-.675-.736-.235-2.57.838-3.952a3.68,3.68,0,0,1,3.487-1.641c-2.413-10.063,4.676-18.521,9.049-19.975a1.189,1.189,0,0,1,.767-.013l.006.006a1.613,1.613,0,0,1,.573.326l.006.005a7.178,7.178,0,0,1,1.695,2.861.079.079,0,0,1,.012.029C417.089,274.4,418.122,287.03,417.458,289.16Z" transform="translate(26.259 24.338)" fill="#ffb054"/>
    <path id="Path_8849" data-name="Path 8849" d="M384.823,291.394c-.073-.005-.145-.018-.217-.03-2.13-.362-3.071-1.31-2.142-2.7,1.206-1.81,3.921-7.542,2.865-19.306.121-3.035.948-4.755,2.13-5.52C397.371,263.263,391.5,288.118,384.823,291.394Z" transform="translate(21.737 23.998)" fill="#ffdfba" opacity="0.4" style="mix-blend-mode: screen;isolation: isolate"/>
    <path id="Path_8850" data-name="Path 8850" d="M350.472,219.663c.293.891.13,1.744-.366,1.907s-1.132-.428-1.425-1.317-.128-1.744.366-1.907S350.181,218.774,350.472,219.663Z" transform="translate(12.204 11.073)" fill="#fff"/>
    <path id="Path_8851" data-name="Path 8851" d="M356.581,218.079c.293.89.128,1.744-.366,1.905s-1.132-.428-1.425-1.317-.13-1.744.366-1.907S356.289,217.188,356.581,218.079Z" transform="translate(13.939 10.623)" fill="#fff"/>
    <path id="Path_8852" data-name="Path 8852" d="M354.113,221.809c3.9-3.019,12.33-5.094,12.33-5.094s-3.631,4.02-5.837,4.8-4.669,2.853-5.317,2.464S354.113,221.809,354.113,221.809Z" transform="translate(13.788 10.618)" fill="#ffb054"/>
    <path id="Path_8853" data-name="Path 8853" d="M352.466,221.7c-2.594-.778-6.226,1.945-6.226,1.945l1.3,1.556S352.077,223.9,352.466,221.7Z" transform="translate(11.552 11.993)" fill="#ffb054"/>
    <path id="Path_8854" data-name="Path 8854" d="M409.836,265.388a4.31,4.31,0,0,1-.537-.308,1.613,1.613,0,0,1,.573.326Z" transform="translate(29.459 24.352)" fill="#ffb054"/>
    <path id="Path_8855" data-name="Path 8855" d="M417.458,288.433c-.905,2.92-17.9,2.817-19.107,1.509-.675-.736-.235-2.57.838-3.952-.126,1.732,3.88,3.566,14.649.205,2.551-.8,2.7-12.845.946-18.606C417.089,273.676,418.122,286.3,417.458,288.433Z" transform="translate(26.259 25.065)" fill="#bf7b2c" opacity="0.2" style="mix-blend-mode: multiply;isolation: isolate"/>
    <path id="Path_8856" data-name="Path 8856" d="M343.561,228.421a3.508,3.508,0,0,1-.085.519c-1.165,5.153-6.993,13.183-10.57,9.363a3.621,3.621,0,0,1-.091-1.116C333,235.016,337.322,231.709,343.561,228.421Z" transform="translate(7.736 13.942)" fill="#453727" style="mix-blend-mode: screen;isolation: isolate"/>
    <g id="Group_7327" data-name="Group 7327" transform="translate(346.706 292.153)" opacity="0.5" style="mix-blend-mode: screen;isolation: isolate">
      <path id="Path_8857" data-name="Path 8857" d="M347.874,273.473,345.5,287.259h-7.891c.675-3.662,1.732-9.346,2.667-14.45Z" transform="translate(-337.606 -265.606)" fill="#0d4b61"/>
      <path id="Path_8858" data-name="Path 8858" d="M348.468,267.567l-.827,4.807c-1.659-.144-5.171-.439-7.578-.62.308-1.66.586-3.2.82-4.507a39.073,39.073,0,0,1,4.127.012C346.188,267.331,347.346,267.434,348.468,267.567Z" transform="translate(-336.908 -267.199)" fill="#0d4b61"/>
    </g>
  </g>
</svg>
