<svg xmlns="http://www.w3.org/2000/svg" width="316" height="112.582" viewBox="0 0 316 112.582">
  <g id="Group_14125" data-name="Group 14125" transform="translate(-35 -527.278)">
    <g id="Group_14102" data-name="Group 14102" transform="translate(226.789 534.644)">
      <path id="Path_15594" data-name="Path 15594" d="M288.594,138.532h118.04s-15.384,3.924-59.02,3.924S288.594,138.532,288.594,138.532Z" transform="translate(-282.423 -38.1)" fill="#e6d4bf"/>
      <g id="Group_14100" data-name="Group 14100" transform="translate(0 0)">
        <path id="Path_15005" data-name="Path 15005" d="M1061.784,1190.153c11.913,12.155,24.186,7.821,26.329,8.377s7.011,2.276,8.723,6.258c1.025,2.385,6.14,1.314,5.082-3.139s-4.746-9.95-7.322-10.228-6.728-3.439-8.346-5.675-6.338-15.762-11.686-18.076S1048.942,1177.05,1061.784,1190.153Z" transform="translate(-995.637 -1114.261)" fill="#e68e3a"/>
        <path id="Path_15006" data-name="Path 15006" d="M1054.641,960.027c1.961,4.072-1.511,5.613-1.511,5.613s7.932,2.083,13.924,12.305c5.505,9.391-.788,30.3-17.195,32.46l-2.666-3.964a17.181,17.181,0,0,0,12.558-23.195c-2.59-6.8-20.654-7.352-21.193-17.607C1038.02,955.438,1051.834,954.2,1054.641,960.027Z" transform="translate(-957.779 -956.545)" fill="#e68e3a"/>
        <path id="Path_15007" data-name="Path 15007" d="M1059.158,960.027c1.961,4.072-1.512,5.613-1.512,5.613s7.933,2.083,13.925,12.305a12.208,12.208,0,0,1,.811,1.678,25.764,25.764,0,0,1-8.217,16.581,17.306,17.306,0,0,0,.1-12.957c-2.591-6.8-20.654-7.352-21.193-17.607C1042.537,955.438,1056.351,954.2,1059.158,960.027Z" transform="translate(-962.297 -956.545)" fill="#e68e3a"/>
        <path id="Path_15008" data-name="Path 15008" d="M1360.443,1056.021c.459.75-.353,6.3-3.307,11.02-.946,1.511-11.649-.307-11.649-.307C1348.291,1062.124,1359.883,1055.106,1360.443,1056.021Z" transform="translate(-1326.668 -1030.899)" fill="#ffb054"/>
        <path id="Path_15009" data-name="Path 15009" d="M1351.453,1205.705c-24.467,9.355-34.4,7.484-34.4,7.484s-9.355-9.5-8.347-11.514,8.491,3.31,8.491,3.31,16.407-5.9,18.566-8.923S1351.453,1205.705,1351.453,1205.705Z" transform="translate(-1308.274 -1135.372)" fill="#e68e3a"/>
        <path id="Path_15010" data-name="Path 15010" d="M1392.686,1215.744c1.007-2.015,8.491,3.31,8.491,3.31s6.2-2.231,11.481-4.651a5.829,5.829,0,0,1,1.616,3.86c0,4.33-5.694,7.955-13.336,8.9C1399.969,1226.167,1391.737,1217.641,1392.686,1215.744Z" transform="translate(-1392.252 -1149.44)" fill="#ffb054"/>
        <path id="Path_15011" data-name="Path 15011" d="M1452.405,1220.462a15.541,15.541,0,0,1-.137,8.125c-2.447-1.487-10-9.233-8.276-11.472C1445.7,1214.9,1451.089,1219.554,1452.405,1220.462Z" transform="translate(-1443.738 -1151.028)" fill="#ffdfba"/>
        <path id="Path_15012" data-name="Path 15012" d="M1126.592,1150.657a55.96,55.96,0,0,1,13.277-2.051l-1.088,1.451a40.374,40.374,0,0,1,8.536-1.127l-1.079,1.3a35.558,35.558,0,0,1,11.442-2.051l-1.62,1.619a33.43,33.43,0,0,1,10.039-.324s7.448,25.15-1.727,29.36-30.354,10.3-49.329.54c-13.16-6.768-18.242-14.14-19.213-21.048C1094.9,1151.719,1113.208,1146.879,1126.592,1150.657Z" transform="translate(-1072.152 -1099.897)" fill="#ffb054"/>
        <path id="Path_15013" data-name="Path 15013" d="M1095.8,1149.071c1.832-.222,3.682-.371,5.447-.465l-1.088,1.451a40.371,40.371,0,0,1,8.536-1.127l-1.079,1.3a35.557,35.557,0,0,1,11.442-2.051l-1.619,1.619a33.429,33.429,0,0,1,10.039-.324s4.3,14.517,2.339,23.339c-4.558.77-14.349,4.568-18.54.668C1100.833,1163.759,1099.306,1154.111,1095.8,1149.071Z" transform="translate(-1033.531 -1099.897)" fill="#ffb054"/>
        <path id="Path_15014" data-name="Path 15014" d="M1113.6,1150.813a19.141,19.141,0,0,0-.314,3.446c0,12.281,11.7,22.236,26.122,22.236s20.128-11.424,20.128-23.7c0-1.066,3.083-2.582,6.1-2.687.971,2.32,6.532,26.182-2.159,30.169-9.175,4.21-31.218,10.8-50.193,1.044-13.16-6.768-17.378-14.644-18.35-21.552C1094.271,1155.045,1103.432,1151.228,1113.6,1150.813Z" transform="translate(-1071.258 -1101.34)" fill="#e68e3a"/>
        <path id="Path_15015" data-name="Path 15015" d="M1166.77,1267.807c-9.292,3.705-26.464,7.953-42.507,2.15,14.336,1.387,29.34-.232,37.544-4.01C1164.349,1264.775,1165.451,1267.3,1166.77,1267.807Z" transform="translate(-1077.142 -1187.769)" fill="#ffb054"/>
        <path id="Path_15016" data-name="Path 15016" d="M1307.821,1197.307a18.346,18.346,0,0,0,4.105,8.22l.8-.657s3.3,6.23,8.788,7.835c5.882,1.72,6.008-2.935,6.008-2.935l-3.59-6.771.939-.2s-.1-2.469-4.724-4.675C1315.945,1196.119,1307.821,1197.307,1307.821,1197.307Z" transform="translate(-1284.144 -1136.39)" fill="#ffdfba"/>
        <path id="Path_15017" data-name="Path 15017" d="M1264.735,1078.56c.283,1.345-.828,8.869-6.61,14.791l-9.516-9.068C1253.634,1079.58,1264.453,1077.215,1264.735,1078.56Z" transform="translate(-1206.475 -1047.541)" fill="#ffb054"/>
        <path id="Path_15018" data-name="Path 15018" d="M1267.561,1083.491c.239,1.137-1.121,7.938-6.008,12.943l-8.043-7.664C1257.757,1084.8,1267.322,1082.354,1267.561,1083.491Z" transform="translate(-1210.521 -1051.3)" fill="#ffb054"/>
        <path id="Path_15019" data-name="Path 15019" d="M1268.381,1086.044c.22,1.047-1.033,7.313-5.535,11.924l-7.409-7.06C1259.349,1087.246,1268.161,1085,1268.381,1086.044Z" transform="translate(-1211.824 -1053.227)" fill="#ffdfba"/>
        <path id="Path_15020" data-name="Path 15020" d="M1261.315,1092.569a18.672,18.672,0,0,0-.959,1.791l-3.619-3.448c3.528-3.3,11.036-5.454,12.64-5.078A15.017,15.017,0,0,0,1261.315,1092.569Z" transform="translate(-1213.125 -1053.23)" fill="#f2c89b"/>
        <path id="Path_15021" data-name="Path 15021" d="M1360.124,1087.307a6.018,6.018,0,0,0-2.445,1.835l-3.309-.8c1.74-1.349,4.614-1.327,5.687-1.27A.128.128,0,0,1,1360.124,1087.307Z" transform="translate(-1328.524 -1054.175)" fill="#e68e3a"/>
        <path id="Path_15022" data-name="Path 15022" d="M1376.588,1086.645c-.409.31-1.268.967-2.365,1.832l-3.374-.388c1.792-1.472,4.693-1.634,5.669-1.644A.111.111,0,0,1,1376.588,1086.645Z" transform="translate(-1349.128 -1053.719)" fill="#e68e3a"/>
        <path id="Path_15023" data-name="Path 15023" d="M1256.822,1118.665a58.938,58.938,0,0,0,20.225-2.687l-1.217-.677a50.279,50.279,0,0,0,6.757-1.653l-.636-1.174s5.822-1.025,6.045-1.51-.862-.808-.862-.808,4.043-.609,4.027-1.087-4.3-3.565-4.3-3.565,1.074-.035,1.174-.636-4.378-2.367-4.378-2.367,2.24-.909,2.217-1.625-3.461-1.485-3.461-1.485a21.188,21.188,0,0,0-10.013-8.713,20.308,20.308,0,0,0,.745-2.812c-.016-.477-3.2.913-3.2.913s.489-1.065.235-1.534-5.737,1.181-5.737,1.181,1.525-.885,1.27-1.355-5.579,1.136-5.579,1.136-9.133-.147-10.191.365-7.165,6.052-7.25,7.13,1.086.323,1.086.323l-3.118,3.327c-1.155,1.232,1.1.8,1.1.8a16,16,0,0,0-2.385,1.989.9.9,0,0,0,.826,1.526s-2.475,2.888-2.575,3.489,2.074,1.307,2.074,1.307-1.053.691-1.038,1.169,2.9.981,2.9.981-1.582.947-.97,1.406a15.977,15.977,0,0,0,3.733.895s-2.6.8-1.382,1.6C1244.6,1115.591,1252.308,1118.542,1256.822,1118.665Z" transform="translate(-1230.094 -1054.124)" fill="#e68e3a"/>
        <path id="Path_15024" data-name="Path 15024" d="M1388.66,1105.9a16.028,16.028,0,0,1,2.385-1.989s-2.256.432-1.1-.8l3.118-3.327s-1.171.755-1.086-.323,6.191-6.618,7.25-7.13a12.944,12.944,0,0,1,3.119-.322,11.341,11.341,0,0,1,.035,6.482c-1.827,6.794-8.644,12.337-15.413,12.644a.318.318,0,0,1-.056-.218c.1-.6,2.575-3.489,2.575-3.489A.9.9,0,0,1,1388.66,1105.9Z" transform="translate(-1379.375 -1057.881)" fill="#ffb054"/>
        <path id="Path_15025" data-name="Path 15025" d="M1238.445,1096.207c1.328-2.846,3.344-7.006,8.3-8.992.951-.207,1.734-.316,1.828-.143a4.759,4.759,0,0,0-2.008,1.731s6.22-2.026,6.474-1.557c-.7.4-1.419,2.313-1.419,2.313s4.371-2.17,4.386-1.692-1.958,2.926-1.958,2.926c4.218,1.854,8.835,4.565,11.225,8.6,0,0,3.438.769,3.461,1.485s-2.218,1.625-2.218,1.625,4.478,1.766,4.378,2.367-1.174.636-1.174.636,4.243,3.06,4.294,3.557a48.138,48.138,0,0,1-10.174,1.078C1248.848,1110.139,1233.987,1105.76,1238.445,1096.207Z" transform="translate(-1212.952 -1054.124)" fill="#ffb054"/>
        <path id="Path_15026" data-name="Path 15026" d="M1379.492,1155.626c1.289,5.463,3.12,7.852,4.871,7.852,1.736,0,.067-6.638.067-6.638l-3.254-2.7Z" transform="translate(-1359.826 -1104.358)" fill="#3d2e2e"/>
        <path id="Path_15027" data-name="Path 15027" d="M1382.594,1172.025a9.645,9.645,0,0,1,1.29-.374c.293,1.375.823,4.407-.2,4.407-.982,0-2-.989-2.857-3.164A9.372,9.372,0,0,1,1382.594,1172.025Z" transform="translate(-1359.293 -1117.459)" fill="#d85d5d"/>
        <path id="Path_15028" data-name="Path 15028" d="M1347.324,1149.432c2.539,2.163,5.056,4.922,10.392,3.606,3.786-.933,1.1-4.815-.232-5.309a40.791,40.791,0,0,0-8.217-.988C1348.2,1146.954,1346.648,1148.857,1347.324,1149.432Z" transform="translate(-1326.185 -1098.809)" fill="#ead5be"/>
        <path id="Path_15029" data-name="Path 15029" d="M1403.564,1148.472c-.785,1.834-4.3,3.972-5.307,4.107-1.036.139-3.091-2.675-2.3-3.825.751-1.094,4.372-2.353,5.524-2.391C1402.587,1146.327,1403.854,1147.794,1403.564,1148.472Z" transform="translate(-1382.382 -1098.542)" fill="#ead5be"/>
        <path id="Path_15030" data-name="Path 15030" d="M1396.835,1151.464c1.974-1.064,3.067-2.868,2.441-4.029a1.605,1.605,0,0,0-.788-.694,7.622,7.622,0,0,1,1.726-.378c1.107-.036,2.374,1.43,2.084,2.109-.784,1.834-4.3,3.972-5.307,4.107a1.714,1.714,0,0,1-1.212-.657A6.7,6.7,0,0,0,1396.835,1151.464Z" transform="translate(-1381.117 -1098.542)" fill="#dbba9a"/>
        <path id="Path_15031" data-name="Path 15031" d="M1389.156,1146.529c1.451-.193,2.809-1.823,2.491-2.411s-5.177-1.206-6.4-.091C1384.581,1144.641,1387.372,1146.767,1389.156,1146.529Z" transform="translate(-1367.792 -1096.332)" fill="#d85d5d"/>
        <path id="Path_15032" data-name="Path 15032" d="M1411.549,1131.385l-2.1.068s.121,2.64,1.966,2.348C1412.461,1133.635,1411.549,1131.385,1411.549,1131.385Z" transform="translate(-1394.138 -1087.337)" fill="#564141"/>
        <path id="Path_15033" data-name="Path 15033" d="M1359.138,1128.286l-2.271.074s.144,3.26,2.14,2.909C1360.138,1131.069,1359.138,1128.286,1359.138,1128.286Z" transform="translate(-1328.519 -1085.019)" fill="#564141"/>
        <path id="Path_15034" data-name="Path 15034" d="M1263.745,1205.9c-11.226,12.953-33.343,12.7-41.532,11.133-2.58-.493-10.753-6.412-8.744-8.959,1.4-1.769,8.394,2.045,8.394,2.045s17.412-7.074,23.989-13.595C1254.641,1187.809,1268.768,1200.983,1263.745,1205.9Z" transform="translate(-1197.564 -1133.889)" fill="#e68e3a"/>
        <path id="Path_15035" data-name="Path 15035" d="M1312.015,1231.724a134.3,134.3,0,0,0,18.272-9.227c5.338,1.623-.758,16.141-12.562,16.141a49.323,49.323,0,0,1-6.583-.433c-3.271-1.51-9.275-6.3-7.521-8.526C1305.017,1227.91,1312.015,1231.724,1312.015,1231.724Z" transform="translate(-1287.716 -1155.495)" fill="#ffb054"/>
        <path id="Path_15036" data-name="Path 15036" d="M1162.572,1177.4l-1.529,20.161-6.908,1.188C1152.624,1188.5,1155.538,1181.588,1162.572,1177.4Z" transform="translate(-1080.373 -1121.761)" fill="#ffdfba"/>
        <path id="Path_15037" data-name="Path 15037" d="M997.314,1184.474c13.218,10.815,25.69,5.181,27.957,5.5s7.448,1.511,9.5,5.289c1.228,2.263,6.477.648,5.073-3.67s-5.613-9.391-8.311-9.391-7.592-4.569-9.427-6.62-8.1-13.96-13.816-15.687S983.066,1172.816,997.314,1184.474Z" transform="translate(-917.184 -1108.563)" fill="#e68e3a"/>
        <path id="Path_15038" data-name="Path 15038" d="M992.209,1246.6a4.846,4.846,0,0,0,2,.568c2.7,0,6.908,5.073,8.311,9.391s-3.845,5.933-5.073,3.67a7.709,7.709,0,0,0-1.848-2.22C996.977,1256.566,999.505,1253.686,992.209,1246.6Z" transform="translate(-879.857 -1173.53)" fill="#ffdfba"/>
        <path id="Path_15039" data-name="Path 15039" d="M1067.258,1159.9c5.721,1.727,11.981,13.636,13.817,15.687a36.46,36.46,0,0,0,3.118,3.031,9.733,9.733,0,0,1-1.335,4.212c-3.9,6.491-14.845,7.077-24.454,1.308a28.653,28.653,0,0,1-6.531-5.336C1047.856,1168.6,1062.441,1158.445,1067.258,1159.9Z" transform="translate(-976.154 -1108.563)" fill="#ffb054"/>
        <path id="Path_15041" data-name="Path 15041" d="M1374.284,1248.249c1.813-2.338,8.311,1.835,8.311,1.835s.483.341.617.285c2.563,1.621,2.743,6.8,1.425,7.218-.658-.061-2.164-.186-2.8-.271C1378.57,1255.805,1372.207,1250.927,1374.284,1248.249Z" transform="translate(-1358.703 -1174.227)" fill="#ffdfba"/>
        <path id="Path_15042" data-name="Path 15042" d="M1345.292,1125.674a37.467,37.467,0,0,1-9.673,1.254h0a1.7,1.7,0,0,1,1.789-1.692Z" transform="translate(-1308.912 -1082.735)" fill="#564141"/>
        <path id="Path_15043" data-name="Path 15043" d="M1404.644,1129.8a20.953,20.953,0,0,1-7.165,1.254h0a1.662,1.662,0,0,1,1.786-1.657Z" transform="translate(-1383.849 -1085.847)" fill="#564141"/>
        <path id="Path_15044" data-name="Path 15044" d="M1391.533,1146.555c1.181-.171,2.285-1.573,2.026-2.075s-4.218-1.012-5.209-.052C1387.8,1144.956,1390.079,1146.765,1391.533,1146.555Z" transform="translate(-1370.48 -1096.689)" fill="#ef7878"/>
        <path id="Path_15045" data-name="Path 15045" d="M1390.9,1148.264a2.583,2.583,0,0,0-2.332-.39c-.478.2.9,1.5.9,1.5A1.537,1.537,0,0,0,1390.9,1148.264Z" transform="translate(-1367.84 -1099.573)" fill="#d85d5d"/>
        <path id="Path_15046" data-name="Path 15046" d="M1404.837,1149s-.079-1.473-.4-1.473a3.153,3.153,0,0,0-1.035.478A3.11,3.11,0,0,0,1404.837,1149Z" transform="translate(-1385.534 -1099.41)" fill="#d85d5d"/>
        <path id="Path_15047" data-name="Path 15047" d="M1377.939,1253.554c2.251.343,5.085,1.964,7.561,4.534a18.674,18.674,0,0,1,2.955,3.981c-.726-.065-2.014-.175-2.59-.252C1382.9,1260.448,1377.4,1256.311,1377.939,1253.554Z" transform="translate(-1362.728 -1178.728)" fill="#ffdfba"/>
        <path id="Path_15048" data-name="Path 15048" d="M1163.029,1197.141c2.645-5.451,5.883-7.232,5.883-7.232a5.433,5.433,0,0,0-3.67.378C1163.191,1191.2,1163.029,1197.141,1163.029,1197.141Z" transform="translate(-1089.052 -1130.999)" fill="#ffdfba"/>
        <path id="Path_15049" data-name="Path 15049" d="M1145.914,1182.075a21.286,21.286,0,0,1,9.81-4.828,9.138,9.138,0,0,0-4.728-.88C1148.116,1176.54,1145.914,1182.075,1145.914,1182.075Z" transform="translate(-1071.551 -1120.972)" fill="#ffdfba"/>
        <path id="Path_15050" data-name="Path 15050" d="M1132.878,1171.281a21.282,21.282,0,0,1,10.559-2.835,9.138,9.138,0,0,0-4.467-1.78C1136.111,1166.278,1132.878,1171.281,1132.878,1171.281Z" transform="translate(-1055.98 -1113.714)" fill="#ffdfba"/>
        <path id="Path_15051" data-name="Path 15051" d="M1115.234,1161.551a21.285,21.285,0,0,1,10.932-.182,9.138,9.138,0,0,0-3.9-2.813C1119.586,1157.484,1115.234,1161.551,1115.234,1161.551Z" transform="translate(-1034.264 -1107.528)" fill="#ffdfba"/>
        <path id="Path_15052" data-name="Path 15052" d="M1213.9,1203.707c.671,8.867-3.966,12.416-3.966,12.416s7.277-1.119,7.381-4.474C1217.5,1205.626,1213.9,1203.707,1213.9,1203.707Z" transform="translate(-1149.279 -1141.439)" fill="#ffdfba"/>
        <path id="Path_15053" data-name="Path 15053" d="M1217.674,1186.521c1.889,8.689-2.212,12.845-2.212,12.845s7.053-2.113,6.692-5.451C1221.507,1187.924,1217.674,1186.521,1217.674,1186.521Z" transform="translate(-1155.516 -1128.583)" fill="#ffdfba"/>
        <path id="Path_15054" data-name="Path 15054" d="M1228.555,1186.554c4.525,5.017,3.389,9.306,3.389,9.306s3.854-4.056,2.356-6.121C1231.612,1186.033,1228.555,1186.554,1228.555,1186.554Z" transform="translate(-1171.294 -1128.589)" fill="#ffdfba"/>
        <path id="Path_15055" data-name="Path 15055" d="M1242.075,1187.708c4.929,2.728,5.2,6.418,5.2,6.418s1.938-4.243.2-5.464C1244.343,1186.469,1242.075,1187.708,1242.075,1187.708Z" transform="translate(-1188.247 -1129.21)" fill="#ffdfba"/>
        <path id="Path_15056" data-name="Path 15056" d="M1249.253,1173.031c.182.184.3.33.3.405.016.477-4.027,1.087-4.027,1.087s1.086.323.862.808a.245.245,0,0,1-.087.084l-8.677-.749A113.684,113.684,0,0,0,1249.253,1173.031Z" transform="translate(-1188.489 -1118.491)" fill="#ffdfba"/>
        <path id="Path_15057" data-name="Path 15057" d="M1259.724,1141.128a.392.392,0,0,1,.139.25c.023.716-2.217,1.625-2.217,1.625a33.492,33.492,0,0,1,3.634,1.683l-8.3-.732S1255.216,1143.639,1259.724,1141.128Z" transform="translate(-1204.08 -1094.626)" fill="#ffdfba"/>
        <path id="Path_15058" data-name="Path 15058" d="M1375.484,1188.387c2.06.751,2.582-.918,2.176-2.073C1377.558,1187.726,1376.886,1188.479,1375.484,1188.387Z" transform="translate(-1351.45 -1128.428)" fill="#665252"/>
        <path id="Path_15059" data-name="Path 15059" d="M1347.752,1153.676c3.478.951,6.411.26,6.55-1.542.081-1.051-.808-2.245-2.25-3.249a14.129,14.129,0,0,1,2.257.463c1.33.494,4.017,4.376.232,5.309a8.611,8.611,0,0,1-7.383-1.16C1347.354,1153.561,1347.551,1153.621,1347.752,1153.676Z" transform="translate(-1323.01 -1100.429)" fill="#dbba9a"/>
      </g>
    </g>
    <g id="Group_14124" data-name="Group 14124" transform="translate(35 527.278)">
      <path id="Path_8557" data-name="Path 8557" d="M323.172,135.717H147.4s22.909,6.165,87.887,6.165S323.172,135.717,323.172,135.717Z" transform="translate(-147.397 -29.3)" fill="#e6d4bf"/>
      <path id="Path_8558" data-name="Path 8558" d="M259.062,103.966c.19,3.358,5.368-1.379,5.368-1.379,1.972-.86,3.216-3.157,3.418-5.561a6.6,6.6,0,0,0-1.883-5.494c-1.972-1.794-4.159,1.912-5.535,5.856A21.177,21.177,0,0,0,259.062,103.966Z" transform="translate(-233.648 -42.895)" fill="#ffb054"/>
      <path id="Path_8559" data-name="Path 8559" d="M259.087,102.575c.19,3.358,5.368-1.379,5.368-1.379,1.972-.86,3.216-3.157,3.418-5.561-1.928,4-5.892,2.5-7.417.361A21.178,21.178,0,0,0,259.087,102.575Z" transform="translate(-233.673 -41.504)" fill="#bf7b2c" opacity="0.2" style="mix-blend-mode: multiply;isolation: isolate"/>
      <path id="Path_8560" data-name="Path 8560" d="M215.038,84.781a58.454,58.454,0,0,0,3.021,13.2,37,37,0,0,0,5.034,9.888l10.932-10.457c-.093-1.124-.2-2.267-.322-3.415-1.882-17.94-7.084-37.686-11.951-38.427C216.573,54.786,213.311,69.588,215.038,84.781Z" transform="translate(-143.404 -53.71)" fill="#ffb054"/>
      <path id="Path_8561" data-name="Path 8561" d="M228.062,95.578s-4.6-28.223-8.823-30.591-5.754,20.524,2.3,32.959A11.44,11.44,0,0,0,228.062,95.578Z" transform="translate(-138.975 -50.887)" fill="#ffdfba"/>
      <path id="Path_8562" data-name="Path 8562" d="M199.766,93.207q-.027,1.6,0,3.251l9.4.2s1.031-2.931,2.325-7.229c.725-2.386,1.525-5.2,2.278-8.165,2.112-8.29-.576-28.621-3.257-27.04C207.936,55.735,200.106,69.879,199.766,93.207Z" transform="translate(-105.119 -54.138)" fill="#ffb054"/>
      <path id="Path_8563" data-name="Path 8563" d="M202.174,92.986c.193-15.592,4.029-29.013,6.521-30S211.764,84.3,204.86,94.96C202.367,96.144,202.174,92.986,202.174,92.986Z" transform="translate(-104.074 -51.454)" fill="#ffdfba"/>
      <path id="Path_8564" data-name="Path 8564" d="M213.883,81.193c-3.113,1.2-7.324,2.522-11.721,3.776q-.027,1.6,0,3.251l9.4.2S212.589,85.491,213.883,81.193Z" transform="translate(-107.515 -45.901)" fill="#bf7b2c" opacity="0.2" style="mix-blend-mode: multiply;isolation: isolate"/>
      <path id="Path_8565" data-name="Path 8565" d="M214.572,89.008a37,37,0,0,0,5.034,9.888l10.932-10.457c-.093-1.124-.2-2.267-.322-3.415C223.835,86.758,217.7,88.262,214.572,89.008Z" transform="translate(-139.918 -44.735)" fill="#bf7b2c" opacity="0.2" style="mix-blend-mode: multiply;isolation: isolate"/>
      <path id="Path_8566" data-name="Path 8566" d="M264.911,128.879l-6.328,4.144s7.288,3.356,6.9,6.119-10.357,2.368-12.275,1.183-4.41-6.118-4.6-7.7,3.645-6.71,3.645-6.71Z" transform="translate(-218.02 -32.283)" fill="#cf9c7a"/>
      <path id="Path_8567" data-name="Path 8567" d="M228.047,124.512c.383.592,5.177,11.25,7.288,12.828s4.6,3.158,3.836,4.341-10.357.592-13.234.592-11.315-11.051-12.275-14.6S218.073,117.6,228.047,124.512Z" transform="translate(-147.399 -33.639)" fill="#cf9c7a"/>
      <path id="Path_8568" data-name="Path 8568" d="M186.723,129.582a9.394,9.394,0,0,0,1.11,1.586,18.72,18.72,0,0,0,4.114,3.446l.811.32c4.828,1.9,9.414,3.512,13.763,4.867,1.445.457,2.86.877,4.247,1.273,3.476,1,6.79,1.817,9.942,2.486,1.307.279,2.583.534,3.838.758,17.163,3.12,29.246,1.581,36.824-1.616.569-.243,1.11-.48,1.623-.728.148-.065.293-.137.431-.207.662-.32,1.278-.651,1.858-.984.254-.141.5-.29.742-.437a26.944,26.944,0,0,0,3.188-2.274l.311-.266c.927-.788,1.778-1.606,2.624-2.464.1-.1.19-.194.281-.29l.57-.586.288-.3c.212-.226.431-.457.649-.681.087-.1.179-.19.271-.279q.4-.425.828-.852c.093-.1.19-.2.283-.291.961-.977,2.013-1.995,3.227-3.079.242-.219.494-.438.754-.657.581-.5,1.2-1.006,1.858-1.533.512-.408,1.059-.823,1.628-1.25q.785-.585,1.657-1.19c.65-.457,1.33-.918,2.055-1.392l-2.393-5.956L279.593,105.8s-4.816-1.687-10.753-3.611c-7.98-2.576-18-5.583-21.081-5.466-2.907.107-6.819,5.75-11.29,11.629-3.792,5-7.98,10.159-12.3,12.249-4.1,1.984-11.059,2.233-17.589,1.889a139.462,139.462,0,0,1-16.168-1.889S183.8,124.181,186.723,129.582Z" transform="translate(-159.629 -41.174)" fill="#ffdfba"/>
      <path id="Path_8569" data-name="Path 8569" d="M196.4,130.212l2.106,4.606c1.307.279,2.583.534,3.838.758,17.163,3.12,29.246,1.581,36.824-1.616.569-.243,1.11-.48,1.623-.728.148-.065.293-.137.431-.207.662-.32,1.278-.651,1.858-.984.254-.141.5-.29.742-.437a26.949,26.949,0,0,0,3.188-2.274l.311-.266c.927-.788,1.779-1.606,2.624-2.464.1-.1.19-.194.281-.29l.57-.586.288-.3C237.635,137.514,196.4,130.212,196.4,130.212Z" transform="translate(-137.423 -32.433)" fill="#bf7b2c" opacity="0.2" style="mix-blend-mode: multiply;isolation: isolate"/>
      <path id="Path_8570" data-name="Path 8570" d="M185.977,108.975s9.017,12.588,22.469,14.092c.512-.408,1.058-.823,1.628-1.25q.785-.585,1.657-1.19c.65-.457,1.33-.918,2.055-1.392Z" transform="translate(-86.917 -37.442)" fill="#bf7b2c" opacity="0.2" style="mix-blend-mode: multiply;isolation: isolate"/>
      <path id="Path_8571" data-name="Path 8571" d="M192.685,106.856c6.715,1.578,21.483,12.039,21.483,12.039-4.212.394-9.189-1.229-13.309-3.639-4.183-1.149-7.425-.6-8.363-1.888C191.345,111.789,192.685,106.856,192.685,106.856Z" transform="translate(-94.971 -38.087)" fill="#80674a"/>
      <path id="Path_8572" data-name="Path 8572" d="M203.414,112.99c.569,4.109,4.959,5.269,9.545,2.351a17.738,17.738,0,0,0,4.648-4.524l-4.027-3.358a21.862,21.862,0,0,0-6.951,1.208C204.656,109.46,203.108,110.787,203.414,112.99Z" transform="translate(-112.793 -37.904)" fill="#ff7547"/>
      <path id="Path_8573" data-name="Path 8573" d="M209.7,115.341a17.737,17.737,0,0,0,4.648-4.524l-4.027-3.358a21.861,21.861,0,0,0-6.951,1.208C207.345,108.868,213.254,110.159,209.7,115.341Z" transform="translate(-109.539 -37.904)" fill="#c75b37" opacity="0.3" style="mix-blend-mode: multiply;isolation: isolate"/>
      <path id="Path_8574" data-name="Path 8574" d="M231.024,128.728a12.845,12.845,0,0,0,1.2,3.215c2.291,4.643,7.163,11.392,9.414,11.392,1.128,0,3.286.089,5.541.13,3.487.059,7.215-.007,7.762-.723.9-1.184-1.41-2.765-3.343-4.345a6.95,6.95,0,0,1-1.346-1.937,68.855,68.855,0,0,1-3.125-7.3,10.078,10.078,0,0,0-7.617-6.513,7.617,7.617,0,0,0-6.986,2.185A4.979,4.979,0,0,0,231.024,128.728Z" transform="translate(-185.334 -33.317)" fill="#ffdfba"/>
      <path id="Path_8575" data-name="Path 8575" d="M154.472,132.621c2.445,14.8,21.018,10.6,19.706,0a14.6,14.6,0,0,0-1.07-4.05c-3.544-8.337-13.94-9.337-17.572-3.309v.007A10.6,10.6,0,0,0,154.472,132.621Z" transform="translate(-7.178 -33.657)" fill="#9aeb5c"/>
      <path id="Path_8576" data-name="Path 8576" d="M237.271,122.188a14.986,14.986,0,0,0,5.224,5.033q7.691,3.054,14.574,5.187c2.291,4.643,7.163,11.392,9.414,11.392,1.128,0,3.286.089,5.541.13-5.063-2.155-8.492-6.371-10.708-10.249a35.661,35.661,0,0,1-3.481-8.437s-.167.023-.466.053c-1.806.172-8.5.509-13.918-3.209C241.115,120.488,238.859,120.768,237.271,122.188Z" transform="translate(-210.177 -33.781)" fill="#bf7b2c" opacity="0.2" style="mix-blend-mode: multiply;isolation: isolate"/>
      <path id="Path_8577" data-name="Path 8577" d="M194.267,153.211c3.452,1.184,9.942,1.161,10.932-.2,1.335-1.835-.236-4.333-1.795-6.11-.07-.077-.138-.159-.213-.236s-.138-.149-.208-.226a20.478,20.478,0,0,0-1.623-1.558c-.057-.053-.109-.089-.138-.117s-.051-.042-.051-.042,9.591-1.777,12.657-6.122a.447.447,0,0,0,.046-.072c2.624-3.778,2.682-9.58,3.032-11.031.052-.224.11-.343.185-.343.575,0,28.55,5.613,36.248,3.748,2.41-.58,6.824-11.989,9.573-18.272.961-2.2,1.72-3.771,2.123-4.026,1.536-.989,35.673.787,35.673.787s-4.027-16.383-6.139-18.354-8.435-5.725-11.121-6.117-18.413,2.961-22.825,8.881-10.932,15-18.792,11.445c-1.922,7.3,3.257,10.657,3.257,10.657a19.925,19.925,0,0,1-13.038,1.38,13.6,13.6,0,0,1-2.481-.918c-6.938-3.262-15.851-12.433-18.233-13.487-2.687-1.184-13.81,9.473-15.535,15.2s.576,18.354.576,18.354l-.305.35c-.034.048-.075.1-.12.149a31.864,31.864,0,0,0-2.216,2.983c-.063.1-.126.2-.189.3-.253.4-.5.818-.725,1.238-.115.213-.224.42-.328.634-.057.129-.12.26-.172.385a9.055,9.055,0,0,0-.467,1.218,5.774,5.774,0,0,0-.276,1.427C191.391,148.67,190.815,152.027,194.267,153.211Z" transform="translate(-180.746 -44.774)" fill="#ffb054"/>
      <path id="Path_8578" data-name="Path 8578" d="M211.965,103.667l.006-.005c3.6-2.949-.1-11.818-4.638-13.8a3.924,3.924,0,0,0-3.809.189C197.771,93.6,206.4,108.2,211.965,103.667Z" transform="translate(-106.385 -43.384)" fill="#fff"/>
      <path id="Path_8579" data-name="Path 8579" d="M199.449,101.824c.8.753,1.53,1.1,2.042.811,3.866-2.19-.788-9.254-4.183-11.959l-.023-.023c-1.478-1.173-2.715-1.511-2.888-.254C193.966,93.518,197.021,99.533,199.449,101.824Z" transform="translate(-86.706 -43.341)" fill="#fff"/>
      <path id="Path_8580" data-name="Path 8580" d="M202.318,97.967c1.284,3.778,3.925,6.271,5.921,5.607l.006-.005c3.6-2.949-.1-11.818-4.638-13.8-.005,0-.011.005-.016.005C201.594,90.495,201.024,94.166,202.318,97.967Z" transform="translate(-102.659 -43.29)" fill="#453727"/>
      <path id="Path_8581" data-name="Path 8581" d="M201.12,101.824a1.327,1.327,0,0,0,.4-.117c1.421-.687,1.294-4.044-.281-7.5a13.983,13.983,0,0,0-2.256-3.535l-.023-.023c-1.478-1.173-2.715-1.511-2.888-.254C195.636,93.518,198.691,99.533,201.12,101.824Z" transform="translate(-88.377 -43.341)" fill="#453727"/>
      <path id="Path_8582" data-name="Path 8582" d="M168.637,103.795l13.423,4.932s7.48,7.892,22.825,13.422a18.862,18.862,0,0,0,4.275,1c7.17.81,14.241-2.458,18.832-6.637a21.127,21.127,0,0,0,3.107-3.488c2.146-3.06,2.808-6.157,1.214-8.242-1.617-2.113-7.986-3.268-16.14-3.766-3.975-.243-8.377-.331-12.865-.29-3.25.023-6.541.112-9.752.249-11,.485-20.978,1.568-24.637,2.729C168.821,103.735,168.723,103.765,168.637,103.795Z" transform="translate(-84.346 -39.958)" fill="#ffdfba"/>
      <path id="Path_8583" data-name="Path 8583" d="M168.638,100.941c1.266,10.671,8.367,15.531,11.818,15.5,2.883-2.623,4.788-5.6,5.144-8.159a4.645,4.645,0,0,0-.823-3.57c-1.5-1.966-7.1-3.1-14.425-3.647C169.789,101.018,169.22,100.978,168.638,100.941Z" transform="translate(-36.81 -39.888)" fill="#453727"/>
      <path id="Path_8584" data-name="Path 8584" d="M168.638,101.032c1.415,3.309,12.065,10.937,15.247,7.218a4.645,4.645,0,0,0-.823-3.57C181.56,102.713,175.962,101.582,168.638,101.032Z" transform="translate(-35.095 -39.861)" fill="#453727" style="mix-blend-mode: screen;isolation: isolate"/>
      <path id="Path_8585" data-name="Path 8585" d="M211.729,106.5c.55,1.981-4.6,2.392-4.6,1.578C207.127,107.488,211.347,105.12,211.729,106.5Z" transform="translate(-111.712 -38.325)" fill="#80674a"/>
      <path id="Path_8586" data-name="Path 8586" d="M170.291,138.938c2.554-.822,7.3.5,11.548,3.215-.07-.077-.138-.159-.213-.236s-.138-.149-.208-.226a20.475,20.475,0,0,0-1.623-1.558c-.057-.053-.109-.089-.138-.117s-.051-.042-.051-.042,9.591-1.777,12.658-6.122a.452.452,0,0,0,.046-.072c4.828,1.9,9.414,3.512,13.763,4.867,2.291,4.643,7.163,11.392,9.414,11.392,1.128,0,3.286.089,5.541.13.628.012,1.266.017,1.893.017-2.647-3.487-7.629-10.373-6.49-11.4,1.536-1.385,4.029-1.184,7.671,4.375,17.163,3.12,29.246,1.581,36.824-1.616.569-.243,1.11-.48,1.623-.728.148-.065.293-.137.431-.207.662-.32,1.278-.651,1.858-.984.254-.141.5-.29.742-.437a26.946,26.946,0,0,0,3.188-2.274l.311-.266c.927-.788,1.779-1.606,2.624-2.464.091-.1.19-.194.281-.29l.57-.586c.091-.1.189-.2.288-.3.212-.226.431-.457.649-.681.092-.1.179-.19.271-.279q.405-.425.828-.852c.093-.1.19-.2.283-.291.961-.977,2.013-1.995,3.227-3.079.247-.219.494-.438.754-.657,1.029-.887,2.18-1.812,3.486-2.782q.785-.585,1.657-1.19c7.17.81,14.241-2.458,18.832-6.637a21.124,21.124,0,0,0,3.107-3.488c-3.769,2.908-11.012,4.671-22.278,2.777-13.522-1.457-26.761-7.069-26.761-7.069s-7.388-.042-15.546-.907c-1.761-.189-3.561-.42-5.328-.686-7.583-1.167-14.591-3.192-15.753-6.7-1.922,7.3,3.257,10.657,3.257,10.657a19.925,19.925,0,0,1-13.038,1.38,13.6,13.6,0,0,1-2.481-.918c5.611,5.761,2.6,8.461-1.875,9.716a41.38,41.38,0,0,1-10.6,1.072s-.063.124-.185.343c-.742,1.362-3.722,6.312-7.957,7.265a6.658,6.658,0,0,1-4.712-.7c-7.48-3.95-8.435-15.986-8.435-15.986-1.727,5.719.576,18.354.576,18.354l-.305.35c-.034.042-.075.1-.12.149a31.865,31.865,0,0,0-2.216,2.983c-.063.1-.126.2-.189.3-.254.4-.5.818-.725,1.238-.115.213-.224.42-.328.634-.057.129-.12.26-.172.385-.092.2-.179.408-.259.609S170.354,138.737,170.291,138.938Z" transform="translate(-159.181 -40.022)" fill="#bf7b2c" opacity="0.2" style="mix-blend-mode: multiply;isolation: isolate"/>
      <path id="Path_8587" data-name="Path 8587" d="M154.472,131.72c2.445,14.8,21.018,10.6,19.706,0a14.6,14.6,0,0,0-1.07-4.05c1.772,11.919-18.86,6.454-17.572-3.3A10.6,10.6,0,0,0,154.472,131.72Z" transform="translate(-7.178 -32.756)" fill="#79c43f"/>
      <path id="Path_8588" data-name="Path 8588" d="M207.745,93.841c-.216,1.481-1.511.814-1.582,0S207.961,92.36,207.745,93.841Z" transform="translate(-106.481 -42.317)" fill="#fff"/>
      <path id="Path_8589" data-name="Path 8589" d="M200.937,92.933c-.215,1.481-1.51.814-1.582,0S201.153,91.454,200.937,92.933Z" transform="translate(-91.042 -42.594)" fill="#fff"/>
    </g>
  </g>
</svg>
