<svg xmlns="http://www.w3.org/2000/svg" width="206.479" height="186.221" viewBox="0 0 206.479 186.221">
  <g id="Group_14098" data-name="Group 14098" transform="translate(8548 -2973)">
    <path id="Path_15322" data-name="Path 15322" d="M3080.811,886.955c6.433-11.7,25.272-17.728,26.651-17.645s-.23,29.685-.23,29.685Z" transform="translate(-11541.265 2107.131)" fill="#ffb054"/>
    <path id="Path_15323" data-name="Path 15323" d="M3087.09,894.046c5.258-9.561,20.659-14.491,21.786-14.423s-.188,24.266-.188,24.266Z" transform="translate(-11545.061 2100.897)" fill="#ffb054"/>
    <path id="Path_15324" data-name="Path 15324" d="M3090.229,895.861c4.671-8.493,18.352-12.874,19.353-12.813s-.167,21.557-.167,21.557Z" transform="translate(-11546.958 2098.827)" fill="#ffdfba"/>
    <path id="Path_15325" data-name="Path 15325" d="M3122.188,900.321c-.462.819-.94,1.616-1.428,2.4l7.11,3.24s.9-16.616.44-20.668A63.05,63.05,0,0,1,3122.188,900.321Z" transform="translate(-11565.413 2097.468)" fill="#f2c89b"/>
    <path id="Path_15326" data-name="Path 15326" d="M2893.648,1131.558c-25.033,3.325-17.015-65.518-12.907-87.423,3.554-18.957-5.015-37.1-18.385-29.141-8.213,4.889,3.347,11.175,7.162,18.423,4.4,8.361-11.855,66.848-3.641,88.948,5.832,15.69,12.321,16.624,12.321,16.624h18.971Z" transform="translate(-11407.474 2020.231)" fill="#e68e3a"/>
    <path id="Path_15327" data-name="Path 15327" d="M2877.259,1070.113c.951-10.539,2.361-20.005,3.482-25.978,3.554-18.957-5.015-37.1-18.385-29.141-8.213,4.889,3.347,11.175,7.162,18.423,3.323,6.315-5.135,41.223-5.935,67.453C2868.686,1092.858,2873.431,1082.3,2877.259,1070.113Z" transform="translate(-11407.474 2020.231)" fill="#e68e3a"/>
    <path id="Path_15328" data-name="Path 15328" d="M2997.6,1135.35h-69.821s-22.225-25.172-16.82-50.85c.782-3.716,29.532-61.02,31.488-74.71l41.462-2.738c5.672,29.337,27.576,73.146,28.163,79.4C3014.639,1113.851,2997.6,1135.35,2997.6,1135.35Z" transform="translate(-11438.082 2023.871)" fill="#ffb054"/>
    <path id="Path_15329" data-name="Path 15329" d="M3007.569,1116.88a67.917,67.917,0,0,0,4.5-30.424c-.587-6.259-22.491-50.068-28.163-79.4l-41.463,2.738c-1.955,13.69-30.7,70.994-31.487,74.71-2.647,12.571,1.329,25.017,6.078,34.452q-.214-4.351-.162-8.831c.567-44.394,21.385-80.382,46.5-80.382s45.012,35.988,44.445,80.382Q3007.773,1113.535,3007.569,1116.88Z" transform="translate(-11438.081 2023.871)" fill="#e68e3a"/>
    <path id="Path_15330" data-name="Path 15330" d="M3110.334,1217.075a123.873,123.873,0,0,0-1.013,18.506H3118s17.016-14.668,17.016-47.721c0-3.916-3.521-13.1-7.586-14.991C3119.743,1180.11,3112.918,1196.917,3110.334,1217.075Z" transform="translate(-11558.479 1923.639)" fill="#e68e3a"/>
    <path id="Path_15331" data-name="Path 15331" d="M2933.338,1221.3a176.311,176.311,0,0,0-2.914-34.112c-2.682-15.285-6.7-28.766-10.952-37.948-5.865.088-10.558,16.32-10.95,20.819-2.273,26.142,18.189,51.242,18.189,51.242Z" transform="translate(-11437.015 1937.925)" fill="#e68e3a"/>
    <path id="Path_15332" data-name="Path 15332" d="M2969.056,1176.655l2.249-6.307,3.922,9.681.991,20.682a85.286,85.286,0,0,0-6.65-18.775l2.165-.44Z" transform="translate(-11473.712 1925.163)" fill="#ffdfba"/>
    <path id="Path_15333" data-name="Path 15333" d="M3115.916,1172.7l-2.053-6.308-4.4,9.681-1.833,20.683a87.5,87.5,0,0,1,7.554-18.776l-2.2-.44Z" transform="translate(-11557.475 1927.555)" fill="#ffdfba"/>
    <path id="Path_15334" data-name="Path 15334" d="M3060.539,1164.034c-.274.952-17.3,48.734-18.242,60.156h20.927s7.567-52.558,11.076-63.392a3.07,3.07,0,0,0,.1-.425c1.118-6.75-9.013-8.936-11.506-2.5C3061.561,1161.3,3060.614,1163.771,3060.539,1164.034Z" transform="translate(-11517.984 1935.03)" fill="#e68e3a"/>
    <path id="Path_15335" data-name="Path 15335" d="M2988.2,1168.66c.238.994,14.9,46.516,15.4,58.448h-21s-5.612-49.3-8.715-60.613a3.007,3.007,0,0,1-.073-.4c-.989-7.87,10.455-10.2,12.806-2.621C2987.529,1166.435,2988.144,1168.434,2988.2,1168.66Z" transform="translate(-11476.547 1932.112)" fill="#e68e3a"/>
    <path id="Path_15336" data-name="Path 15336" d="M2959.071,1315.422h-23.029s-3.974-6.387,2.2-9.255C2943.714,1303.626,2955.018,1304.352,2959.071,1315.422Z" transform="translate(-11452.995 1843.799)" fill="#ffb054"/>
    <path id="Path_15337" data-name="Path 15337" d="M3125.272,1318.559h-21.635s-.6-5.134,6.61-7.44C3116.634,1309.078,3126.9,1309.661,3125.272,1318.559Z" transform="translate(-11555.055 1840.661)" fill="#ffb054"/>
    <path id="Path_15338" data-name="Path 15338" d="M3011.734,1318.479H2988.7s-2.075-5.167,4.952-7.486C2999.883,1308.939,3010.97,1309.526,3011.734,1318.479Z" transform="translate(-11485.416 1840.741)" fill="#ffb054"/>
    <path id="Path_15339" data-name="Path 15339" d="M3069.324,1318.479h-23.648s-1.583-5.167,5.878-7.486C3058.165,1308.939,3069.489,1309.526,3069.324,1318.479Z" transform="translate(-11519.942 1840.741)" fill="#ffb054"/>
    <path id="Path_15340" data-name="Path 15340" d="M3062.147,1310.188a8.646,8.646,0,0,0-5.484,8.295h19.386C3076.184,1311.115,3068.543,1309.416,3062.147,1310.188Z" transform="translate(-11526.667 1840.737)" fill="#ffdfba"/>
    <path id="Path_15341" data-name="Path 15341" d="M3002.954,1008.9c-3.834,7.825-7.476,19.935-7.476,19.935l1.873-.186s-3.3,11.924-2.608,16.581l1.906-1.118s-.28,13.041,1.427,17.7l3.66-2.795s.118,11.365,1.411,13.228l3.216-4.657s.24,7.825,3.323,11.924l3.6-5.962,1.678,10.433s5.8-10.619,6.271-14.532l1.073,3.354s2.94-6.521,3.546-9.316l1.94,2.795a66.717,66.717,0,0,0,1.326-8.943l2.28,2.795a81.735,81.735,0,0,0,1.477-8.384l2.389-.373s-.96-11.551-2.064-13.973h1.867s-3.563-19.749-7.575-26.456S3002.954,1008.9,3002.954,1008.9Z" transform="translate(-11489.182 2023.706)" fill="#ffb054"/>
    <path id="Path_15342" data-name="Path 15342" d="M3031.332,1096.776l2.281,2.795a81.865,81.865,0,0,0,1.477-8.384l1.471-.229c-4.305-11.029-12.056-18.389-20.9-18.389-6.78,0-12.916,4.323-17.351,11.3l.554-.325s-.28,13.042,1.427,17.7l3.661-2.795s.118,11.365,1.412,13.228l3.215-4.657s.24,7.825,3.324,11.924l3.6-5.962,1.678,10.433s5.8-10.619,6.271-14.532l1.073,3.354s2.94-6.521,3.545-9.316l1.941,2.795A66.694,66.694,0,0,0,3031.332,1096.776Z" transform="translate(-11491.394 1984.268)" fill="#ffdfba"/>
    <path id="Path_15343" data-name="Path 15343" d="M2954.619,897.347c-5.828-16.038,2.536-36.662,4.091-36.734,2.878-.134,10.352,10.931,20.067,17.828C2985.9,883.5,2954.619,897.347,2954.619,897.347Z" transform="translate(-11463.754 2112.389)" fill="#ffb054"/>
    <path id="Path_15344" data-name="Path 15344" d="M2960.175,899.01c-4.829-13.29,2.1-30.379,3.389-30.438,2.385-.111,8.579,9.057,16.628,14.772C2986.1,887.536,2960.175,899.01,2960.175,899.01Z" transform="translate(-11467.323 2107.578)" fill="#ffb054"/>
    <path id="Path_15345" data-name="Path 15345" d="M2963.506,900.007c-4.23-11.641,1.841-26.61,2.969-26.662,2.089-.1,7.344,8.568,14.394,13.574C2986.041,890.591,2963.506,900.007,2963.506,900.007Z" transform="translate(-11469.463 2104.692)" fill="#ffdfba"/>
    <path id="Path_15346" data-name="Path 15346" d="M2988.872,887.326c-6.287-4.464-11.144-11.833-13.6-13.308,2.719,5.89,4.392,13.819,4.41,22.555C2985.527,893.534,2991.879,889.46,2988.872,887.326Z" transform="translate(-11477.469 2104.285)" fill="#f2c89b"/>
    <path id="Path_15347" data-name="Path 15347" d="M3021.972,923.973c-.385-1.755-9.618-9.338-9.618-9.338s4.984.25,3.9-1-6.581-5.766-6.581-5.766S3004,902.1,2992.817,897.84a85.714,85.714,0,0,0-9.676-2.382,39.382,39.382,0,0,0-11.01-6.935l.438,5.326a43.47,43.47,0,0,0-10.4-6.077l1.215,6.509c-2.214,0-3.574.051-3.574.051l-20.86,13.662s-12.822,5.64-13.326,6.894,4.4,6.266,4.4,6.266-8.487,10.779-8.083,12.032,8.1,1.755,8.1,1.755-1.855,1-1.431,1.755,9.306,5.765,9.306,5.765l-3.849-.25c5.229,5.515,34.926,15.1,43.365,14.1,10.161-1.208,36.553-10.152,36.386-11.656s-2.737-3.948-2.737-3.948,8.994-3.572,9.054-5.076-5.579-5.264-5.579-5.264S3022.355,925.728,3021.972,923.973Z" transform="translate(-11445.231 2095.971)" fill="#ffdfba"/>
    <g id="Group_14061" data-name="Group 14061" transform="translate(-8523.294 2983.742)">
      <path id="Path_15348" data-name="Path 15348" d="M2968.869,891.274a37.833,37.833,0,0,0-6.7-3.5l1.215,6.509c-2.214,0-3.573.051-3.573.051l-20.859,13.662s-12.823,5.64-13.326,6.894,4.4,6.267,4.4,6.267-8.487,10.779-8.082,12.032,8.1,1.755,8.1,1.755-1.855,1-1.432,1.755a3.011,3.011,0,0,0,.68.578C2983.038,917.153,2975.537,908.657,2968.869,891.274Z" transform="translate(-2921.937 -887.771)" fill="#ffb054"/>
      <path id="Path_15349" data-name="Path 15349" d="M3103.829,949.63c2.181-1.057,4.3-2.268,4.331-3,.061-1.5-5.579-5.264-5.579-5.264s7.789-4.637,7.4-6.392-9.617-9.337-9.617-9.337,4.984.25,3.9-1-6.581-5.766-6.581-5.766-5.673-5.766-16.854-10.027a85.739,85.739,0,0,0-9.676-2.382c-.2-.169-.389-.324-.584-.486C3056.97,931.483,3092.956,935.785,3103.829,949.63Z" transform="translate(-3009.95 -898.776)" fill="#ffb054"/>
    </g>
    <g id="Group_14062" data-name="Group 14062" transform="translate(-8496.56 3012.084)">
      <path id="Path_15350" data-name="Path 15350" d="M2993.866,963.4a14.136,14.136,0,0,1-3.708-.438.862.862,0,1,1,.457-1.662c5.321,1.461,14.471-1.787,14.563-1.82a.862.862,0,0,1,.583,1.622A41.1,41.1,0,0,1,2993.866,963.4Z" transform="translate(-2989.524 -959.426)" fill="#5e4b4b"/>
    </g>
    <g id="Group_14063" data-name="Group 14063" transform="translate(-8456.705 3011.479)">
      <path id="Path_15351" data-name="Path 15351" d="M3103.075,962.776c-2.506,0-8.24-.355-12.421-3.317a.862.862,0,0,1,1-1.406c4.872,3.451,12.476,2.973,12.552,2.969a.862.862,0,0,1,.12,1.72C3104.247,962.746,3103.793,962.776,3103.075,962.776Z" transform="translate(-3090.29 -957.894)" fill="#5e4b4b"/>
    </g>
    <path id="Path_15355" data-name="Path 15355" d="M3263.278,1294.209h-77.3s-1.31-13.289,8.693-22.812a6.27,6.27,0,0,1,4.491-1.533l49.223,1.7a6,6,0,0,1,4.322,1.881A47.094,47.094,0,0,1,3263.278,1294.209Z" transform="translate(-11604.799 1865.012)" fill="#e25959"/>
    <path id="Path_15356" data-name="Path 15356" d="M3229.248,1299.46c-17.694,0-32.774-5.675-38.552-13.632a30.773,30.773,0,0,0-4.72,18.033h77.3a50.4,50.4,0,0,0-3.985-11.035C3251.8,1296.906,3241.112,1299.46,3229.248,1299.46Z" transform="translate(-11604.8 1855.359)" fill="#ce3e3e"/>
    <path id="Path_15357" data-name="Path 15357" d="M3027.13,980.4c-2.925,4.009-9.864,10.83-12.914,10.01s-10.224-5.251-10.4-7.22,14.528-8.369,18.833-6.728S3027.13,980.4,3027.13,980.4Z" transform="translate(-11494.721 2042.525)" fill="#ead5be"/>
    <path id="Path_15358" data-name="Path 15358" d="M3026.24,982.593c-3.226,4.043-9.356,9.8-12.171,9.042a28.034,28.034,0,0,1-9.449-5.693c-.533.44-.833.825-.807,1.113.179,1.969,7.354,6.4,10.4,7.22s9.989-6,12.913-10.01A3.209,3.209,0,0,0,3026.24,982.593Z" transform="translate(-11494.721 2038.655)" fill="#dbba9a"/>
    <path id="Path_15359" data-name="Path 15359" d="M3064.538,980.4c2.934,4.009,9.895,10.83,12.953,10.01s10.254-5.251,10.434-7.22-14.572-8.369-18.89-6.728S3064.538,980.4,3064.538,980.4Z" transform="translate(-11531.429 2042.525)" fill="#ead5be"/>
    <path id="Path_15360" data-name="Path 15360" d="M3077.98,991.5c-2.882.773-9.229-5.24-12.406-9.29a3.385,3.385,0,0,0-1.036,1.823c2.934,4.009,9.895,10.83,12.953,10.01s10.254-5.251,10.434-7.22c.022-.243-.185-.554-.571-.91A28.34,28.34,0,0,1,3077.98,991.5Z" transform="translate(-11531.429 2038.885)" fill="#dbba9a"/>
    <path id="Path_15361" data-name="Path 15361" d="M3281.764,1278.194c-3.317-.113-6.921-.177-10.7-.177-16.294,0-29.5,1.162-29.5,2.6s13.209,2.6,29.5,2.6c5.1,0,9.9-.114,14.083-.314A42.749,42.749,0,0,0,3281.764,1278.194Z" transform="translate(-11638.436 1860.081)" fill="#ff9c9c"/>
    <path id="Path_15362" data-name="Path 15362" d="M3051.939,1004.527c3.032,2.542,9.29-.2,9.29-.2s-.782,3.618-4.4,3.618A5.433,5.433,0,0,1,3051.939,1004.527Z" transform="translate(-11523.812 2025.514)" fill="#665252"/>
    <path id="Path_15363" data-name="Path 15363" d="M3060.116,974.147c-.65-1.429-10.957-1.483-11.327,0-.3,1.213,2.913,4.121,4.9,5.133a2.025,2.025,0,0,1,1.781-.05C3057.073,978.257,3060.849,975.76,3060.116,974.147Z" transform="translate(-11521.896 2044.42)" fill="#5e4b4b"/>
    <path id="Path_15364" data-name="Path 15364" d="M3061.313,974.427c-.516-1.136-8.7-1.179-9,0-.242.964,2.313,3.274,3.891,4.077a1.608,1.608,0,0,1,1.414-.039C3058.9,977.692,3061.895,975.708,3061.313,974.427Z" transform="translate(-11524.03 2044.116)" fill="#a58888"/>
    <path id="Path_15365" data-name="Path 15365" d="M3055.441,981.3c.538-1.907.783-2.4.1-3.08s-2.983.2-2.983.2A8.7,8.7,0,0,0,3055.441,981.3Z" transform="translate(-11524.187 2041.455)" fill="#5e4b4b"/>
    <path id="Path_15366" data-name="Path 15366" d="M3066.988,981.161c-.24-1.959-.4-2.476.338-3.063s2.778.589,2.778.589A8.494,8.494,0,0,1,3066.988,981.161Z" transform="translate(-11532.787 2041.471)" fill="#5e4b4b"/>
    <g id="Group_14065" data-name="Group 14065" transform="translate(-8524.155 3004.508)">
      <path id="Path_15367" data-name="Path 15367" d="M2937.584,982.3s-7.854-5.015-8.276-5.78,2.053-2.64,2.053-2.64-8.952.262-9.363-1.013,9.142-12.042,9.142-12.042-6.22-5.153-5.9-6.51a2.748,2.748,0,0,0-.93.8c-.5,1.253,4.4,6.267,4.4,6.267s-9.348,11.028-8.944,12.281,8.965,1.505,8.965,1.505-2.348,1.556-1.924,2.308c.341.6,6.627,3.4,8.9,4.7Z" transform="translate(-2919.761 -948.758)" fill="#e68e3a"/>
      <path id="Path_15368" data-name="Path 15368" d="M3041.515,955.781c-.385-1.755-9.828-9.168-9.828-9.168s4.206.007,3.121-1.246c-.826-.955-4.205-3.794-5.772-5.1,1.533,1.786,3.105,3.622,3.605,4.218,1.069,1.275-5.354.584-5.354.584s11.041,8.336,11.441,10.121-8.288,6.087-8.288,6.087,6.359,4.05,6.325,5.58-10.065,4.687-10.065,4.687,3.926,2.961,4.113,4.491-25.161,10.628-34.957,11.855c-7.9.991-35.34-8.181-41.621-13.848l-1.6-.1c5.229,5.515,34.926,15.1,43.365,14.1,10.161-1.208,36.553-10.153,36.386-11.656s-2.017-3.958-2.017-3.958,8.274-3.562,8.334-5.066-4.814-5.275-4.814-5.275S3041.9,957.536,3041.515,955.781Z" transform="translate(-2939.631 -940.271)" fill="#e68e3a"/>
    </g>
    <path id="Path_15369" data-name="Path 15369" d="M2999.892,1040.267c-14.115,0-27.4-5.458-38.829-8.76,9.346,6.169,32.651,13,39.954,12.134,9.521-1.131,33.368-9.5,36.188-11.734C3026.109,1034.961,3013.428,1040.267,2999.892,1040.267Z" transform="translate(-11468.882 2009.088)" fill="#e68e3a"/>
    <path id="Path_15370" data-name="Path 15370" d="M2979.16,1011.027c-4.274,1.052-6.39-.6-6.39-.6s1.4-4.533,5.2-6.422c0,0-3.331,3.88-3.54,5.444S2979.16,1011.027,2979.16,1011.027Z" transform="translate(-11475.957 2025.714)" fill="#fff"/>
    <path id="Path_15371" data-name="Path 15371" d="M2965.793,958.552c-4.753-.943-5.854-2.912-5.854-2.912a12.49,12.49,0,0,1,6.09-4.661s-4.2,3.063-4.718,4.284S2965.793,958.552,2965.793,958.552Z" transform="translate(-11468.202 2057.764)" fill="#fff"/>
    <path id="Path_15372" data-name="Path 15372" d="M2952.722,999.586a24.8,24.8,0,0,1-7.38-1.458,10.474,10.474,0,0,1,4.5-4.759s-2.566,2.9-2.542,3.953S2952.722,999.586,2952.722,999.586Z" transform="translate(-11459.378 2032.141)" fill="#fff"/>
    <path id="Path_15373" data-name="Path 15373" d="M3133.345,999.089c4.486.509,6.427-1.4,6.427-1.4s-2.006-4.322-6.114-5.721c0,0,3.889,3.432,4.3,4.958S3133.345,999.089,3133.345,999.089Z" transform="translate(-11573.021 2032.987)" fill="#fff"/>
    <path id="Path_15374" data-name="Path 15374" d="M3136.9,965.666c4.582.288,5.659-1.077,5.659-1.077a16.171,16.171,0,0,0-5.823-5.168s4.014,3.439,4.506,4.554S3136.9,965.666,3136.9,965.666Z" transform="translate(-11575.066 2052.661)" fill="#fff"/>
    <path id="Path_15375" data-name="Path 15375" d="M3106.962,944.625c-10.951-.684-13.983-3.618-13.983-3.618l1.956-2.933A30.4,30.4,0,0,0,3106.962,944.625Z" transform="translate(-11548.62 2065.565)" fill="#fff"/>
    <path id="Path_15376" data-name="Path 15376" d="M2991.916,943.96c11.578.391,15.038-2.233,15.038-2.233l-1.784-3.113A32.652,32.652,0,0,1,2991.916,943.96Z" transform="translate(-11487.531 2065.239)" fill="#fff"/>
    <path id="Path_15377" data-name="Path 15377" d="M2997.919,1310.285a20.124,20.124,0,0,0-4.262.874c-7.027,2.319-4.952,7.486-4.952,7.486h17.015A10.221,10.221,0,0,0,2997.919,1310.285Z" transform="translate(-11485.416 1840.576)" fill="#ffdfba"/>
  </g>
</svg>
