<svg xmlns="http://www.w3.org/2000/svg" width="334.673" height="140.352" viewBox="0 0 334.673 140.352">
  <g id="Group_14101" data-name="Group 14101" transform="translate(-35.068 -533.815)">
    <path id="Path_8773" data-name="Path 8773" d="M314.245,101.475l-5.776,4.2-.017.017-.37.269s-8.4-5.882-5.322-8.122a3.988,3.988,0,0,1,3.132-.371C309.55,98.186,314.245,101.475,314.245,101.475Z" transform="translate(-250.935 522.523)" fill="#ffb054"/>
    <path id="Path_8774" data-name="Path 8774" d="M310.418,103.62s-.862.986-1.949,2.05l-.017.017-.37.269s-8.4-5.882-5.322-8.122a3.988,3.988,0,0,1,3.132-.371C301.877,101.979,310.418,103.62,310.418,103.62Z" transform="translate(-250.935 522.523)" fill="#bf7b2c" opacity="0.2" style="mix-blend-mode: multiply;isolation: isolate"/>
    <path id="Path_8775" data-name="Path 8775" d="M410.7,34.533s7.281-9.242,9.382-6.722-8.332,13.024-8.332,13.024l-1.611-.911Z" transform="translate(-230.177 509.086)" fill="#ffcd69"/>
    <path id="Path_8776" data-name="Path 8776" d="M372.424,56.578l-3.361,9.242s-1.025-.151-2.729-.4c-5.169-.745-16.568-2.331-24.158-2.964a41.882,41.882,0,0,1-13.55-3.377c-3.406-1.608-5.21-3.49-3.815-5.025C327.613,50.978,348.618,48.456,372.424,56.578Z" transform="translate(-246.66 513.647)" fill="#f5a051"/>
    <path id="Path_8777" data-name="Path 8777" d="M365.644,64.355c-5.169-.745-16.568-2.331-24.158-2.964a41.882,41.882,0,0,1-13.55-3.377c16.384-2.683,35.877-.7,40.252.577C370.9,59.38,368.2,62.236,365.644,64.355Z" transform="translate(-245.968 514.716)" fill="#f5a051" opacity="0.3" style="mix-blend-mode: multiply;isolation: isolate"/>
    <path id="Path_8778" data-name="Path 8778" d="M368.773,60.194v8.962s-.32.079-.885.224c-1.384.341-4.274,1.053-7.634,1.814-4.078.925-8.85,1.922-12.486,2.443-7.981,1.142-36.128.56-35.009-6.722,1-6.52,29.419-9.9,49.421-7.713C364.511,59.455,366.728,59.785,368.773,60.194Z" transform="translate(-248.891 515.073)" fill="#ffb054"/>
    <path id="Path_8779" data-name="Path 8779" d="M365.9,63.385s-39.77-4.2-43.971,4.2c-2.024,4.047,31.647,3.361,42.57-.56S365.9,63.385,365.9,63.385Z" transform="translate(-247.139 515.802)" fill="#ffdfba"/>
    <path id="Path_8780" data-name="Path 8780" d="M361.114,60.087v6.8c-.37,1.013-.689,1.86-.885,2.391-1.384.341-4.274,1.053-7.634,1.814.818-1.58,2.447-5.612,1.926-11.993C356.852,59.348,359.069,59.678,361.114,60.087Z" transform="translate(-241.231 515.18)" fill="#bf7b2c" opacity="0.2" style="mix-blend-mode: multiply;isolation: isolate"/>
    <path id="Path_8781" data-name="Path 8781" d="M336.334,117.061a12.728,12.728,0,0,1-12.883,8.122s-2.521,7-5.6,3.641c-1.681-1.833-.944-4.084.074-5.751a5.028,5.028,0,0,1,4.307-2.371h1.5l-.56-3.921Z" transform="translate(-248.098 526.261)" fill="#cf9c7a"/>
    <path id="Path_8782" data-name="Path 8782" d="M362.5,118.043c10.082,5.322,17.923,2.521,18.484-1.4s-9.523-2.8-13.443-4.481S359.416,113.282,362.5,118.043Z" transform="translate(-239.534 525.28)" fill="#cf9c7a"/>
    <path id="Path_8783" data-name="Path 8783" d="M412.152,87.842s-10.083,7.842-21.285,31.647c-31.088,14-38.369,9.523-47.612,10.083-7.13.432-19.588,1.866-24.915,2.5-1.58.185-2.531.3-2.531.3l2.5-5.741,5.237-11.987,2.9-6.638s18.2-4.2,23.246-14a15.542,15.542,0,0,1-4.761-8.682s17.925-4.48,21.285-22.685c3.921-5.882,11.763-9.523,11.763-9.523s7.562,0,10.083.56c1.231.274,7,8.419,12.58,16.686,3.136,4.643,6.212,9.327,8.39,12.676C410.931,85.943,412.152,87.842,412.152,87.842Z" transform="translate(-248.298 514.031)" fill="#ffdfba"/>
    <path id="Path_8784" data-name="Path 8784" d="M412.152,83.021s-10.083,7.842-21.285,31.647c-31.088,14-38.369,9.523-47.612,10.083-7.13.432-19.588,1.866-24.915,2.5-1.58.185-2.531.3-2.531.3l2.5-5.741c2.761-1.77,6.644-4.245,6.644-4.245,5.976,5.411,17.739,1.68,17.739,1.68l13.443-3.736s19.79.185,29.127-4.3.56-15.868,16.619-28.006c2.414-1.826,4.823-3.507,7.153-4.991C410.931,81.122,412.152,83.021,412.152,83.021Z" transform="translate(-248.298 518.853)" fill="#bf7b2c" opacity="0.2" style="mix-blend-mode: multiply;isolation: isolate"/>
    <path id="Path_8785" data-name="Path 8785" d="M331.676,112.044s-.778,1.075-2.056,2.733c-1.663,2.179-4.183,5.366-6.9,8.447a53.424,53.424,0,0,1-8.133,7.864,11.772,11.772,0,0,1-13.163.28s-2.52,5.881-7,3.361,2.8-9.8,3.921-10.083,3.921.84,7.281,0c-1.983-8.923,1.3-16.383,4.324-21a8.944,8.944,0,0,1,8.9-3.943,32.79,32.79,0,0,0,6.5.426,19.12,19.12,0,0,0,5.478-.963Z" transform="translate(-252.683 522.876)" fill="#ffb054"/>
    <path id="Path_8786" data-name="Path 8786" d="M358.106,96.244s3.362,5.041,7.283,11.2c-8.4.56-38.93,13.443-38.93,13.443s-1.938-2.908-3.742-6.245a36.786,36.786,0,0,1-2.576-5.674,19.12,19.12,0,0,0,5.478-.963s18.2-4.2,23.246-14a15.542,15.542,0,0,1-4.761-8.682s17.925-4.48,21.285-22.685c3.921-5.882,11.763-9.523,11.763-9.523s7.562,0,10.083.56c1.231.274,7,8.419,12.58,16.686l-35.826,11.6-2.555,6.2-2.794,6.788Z" transform="translate(-247.466 514.031)" fill="#ffb054"/>
    <path id="Path_8787" data-name="Path 8787" d="M367.688,87.507a77.242,77.242,0,0,1-12.911,2.253A30.744,30.744,0,0,1,345,88.813a15.542,15.542,0,0,1-4.761-8.682c3.053,2.812,10.642,3.165,17.33,2.841a114.633,114.633,0,0,0,11.982-1.255Z" transform="translate(-243.604 519.221)" fill="#bf7b2c" opacity="0.2" style="mix-blend-mode: multiply;isolation: isolate"/>
    <path id="Path_8788" data-name="Path 8788" d="M393.547,84.224s-.314.021-.88.117a29.062,29.062,0,0,0-9.926,3.647,29.979,29.979,0,0,0-3.479,2.4c-7,5.6-8.4,5.6-9.8,1.4a10.6,10.6,0,0,1-.488-2.281c-.365-3.612,1.03-7.572,3.568-11.723L392.3,83.843Z" transform="translate(-238.096 518.77)" fill="#ae3628"/>
    <path id="Path_8789" data-name="Path 8789" d="M392.667,84.341a29.062,29.062,0,0,0-9.926,3.647c-2.5-1.826-9.561-6-13.768,1.518-.365-3.612,1.03-7.572,3.568-11.723L392.3,83.843A4.417,4.417,0,0,1,392.667,84.341Z" transform="translate(-238.096 518.77)" fill="#ae3628" opacity="0.4" style="mix-blend-mode: multiply;isolation: isolate"/>
    <path id="Path_8790" data-name="Path 8790" d="M371.284,117.713c-.18,1.636-1.781,3.277-4.033,4.532a17.918,17.918,0,0,1-3.21,1.372c-.285.089-.582.179-.879.258-4.2,1.121-16.244.28-28.568-7.281-.42-.315-.789-.616-1.115-.913-7.8-7.119,12.789-9.371,17.359-7.489a9.8,9.8,0,0,1,1.954,1.053c2.689,1.866,2.8,4.128,7.008,4.828C364.842,114.912,371.564,115.192,371.284,117.713Z" transform="translate(-245.239 524.49)" fill="#ffdfba"/>
    <path id="Path_8791" data-name="Path 8791" d="M381.187,79.286c-2.8,5.041-14.284,12.044-24.087,8.682A13.931,13.931,0,0,1,353.258,86c-5.187-3.887-3.041-9.579.482-7,3.809,2.8,12.688,4.437,20.781.952a22.1,22.1,0,0,0,2.465-1.231S383.987,74.246,381.187,79.286Z" transform="translate(-241.699 518.598)" fill="#ff7547"/>
    <path id="Path_8792" data-name="Path 8792" d="M380.688,79.286c-2.8,5.041-14.284,12.044-24.087,8.682A13.931,13.931,0,0,1,352.759,86c11.455,4.963,20.978-.548,22.327-3.848.712-1.742-.1-2.184-1.065-2.2a22.1,22.1,0,0,0,2.465-1.231S383.488,74.246,380.688,79.286Z" transform="translate(-241.2 518.598)" fill="#ae3628" opacity="0.4" style="mix-blend-mode: multiply;isolation: isolate"/>
    <path id="Path_8793" data-name="Path 8793" d="M378.47,67.759c-.051.134-.107.268-.168.4-2.09,4.313-7.713.656-10.458-2.744-2.688-3.327-3.747-7.534.992-7.59.1,0,.207.006.314.006C375.239,57.984,380.094,63.49,378.47,67.759Z" transform="translate(-238.741 514.935)" fill="#fff"/>
    <path id="Path_8794" data-name="Path 8794" d="M382.745,66.711a1.8,1.8,0,0,1-.331-.067c-3.327-.913-9.1-9.645-7.18-10.6a1.444,1.444,0,0,1,1.069.023C383.305,58.17,386.386,67.132,382.745,66.711Z" transform="translate(-236.955 514.577)" fill="#fff"/>
    <path id="Path_8795" data-name="Path 8795" d="M378.043,67.759c-1.608,1.181-4.807.173-7.377-2.393-2.661-2.666-3.647-6-2.258-7.545.1,0,.207.006.314.006C374.811,57.984,379.666,63.49,378.043,67.759Z" transform="translate(-238.314 514.935)" fill="#453727"/>
    <path id="Path_8796" data-name="Path 8796" d="M382.706,66.445a1,1,0,0,1-.292.185c-3.327-.913-9.1-9.645-7.18-10.6a12.237,12.237,0,0,1,4.795,3.483C382.6,62.35,383.8,65.453,382.706,66.445Z" transform="translate(-236.955 514.591)" fill="#453727"/>
    <path id="Path_8797" data-name="Path 8797" d="M288.594,138.532H392.267s-13.511,5.2-51.836,5.2S288.594,138.532,288.594,138.532Z" transform="translate(-253.526 530.44)" fill="#e6d4bf"/>
    <path id="Path_15594" data-name="Path 15594" d="M288.594,138.532h156.29s-20.369,5.2-78.145,5.2S288.594,138.532,288.594,138.532Z" transform="translate(-75.144 530.44)" fill="#e6d4bf"/>
    <path id="Path_8798" data-name="Path 8798" d="M404.389,41.7c.483,1.1,10.642-1.68,10.362-3.08S403.409,39.458,404.389,41.7Z" transform="translate(-231.293 511.162)" fill="#c29c50"/>
    <g id="Group_7324" data-name="Group 7324" transform="translate(182.058 545.719)">
      <path id="Path_8799" data-name="Path 8799" d="M412.177,39.622a.28.28,0,0,1-.194-.482c2.819-2.723,6.129-4.311,8.234-3.948a2.067,2.067,0,0,1,1.593,1.085.28.28,0,0,1-.5.25,1.514,1.514,0,0,0-1.186-.783c-1.613-.277-4.635.792-7.751,3.8A.28.28,0,0,1,412.177,39.622Z" transform="translate(-411.897 -35.141)" fill="#c29c50"/>
    </g>
    <g id="Group_7325" data-name="Group 7325" transform="translate(181.218 548.839)">
      <path id="Path_8800" data-name="Path 8800" d="M420.713,40.1a.28.28,0,0,1-.277-.243,1.447,1.447,0,0,0-.855-1.073c-1.441-.764-4.647-.663-7.985,1.006a.28.28,0,1,1-.25-.5c3.146-1.572,6.641-1.984,8.5-1a2,2,0,0,1,1.148,1.494.282.282,0,0,1-.241.315Z" transform="translate(-411.192 -37.759)" fill="#c29c50"/>
    </g>
    <path id="Path_8801" data-name="Path 8801" d="M411.842,41.763a1.317,1.317,0,0,0,.919-1c2.011-10.064,1.634-15.468-2.189-15.6-3.921-.141-6.209,9.523-2.8,13.3-2.008-1.073-5.6-1.68-5.742.98-.124,2.372,5.705,2.964,6.971,3.064a1.258,1.258,0,0,0,.466-.049Z" transform="translate(-231.735 508.66)" fill="#ffee94"/>
    <path id="Path_8802" data-name="Path 8802" d="M421.035,70.527c-2.974,6.6-9.012,14.531-15.381,16.766-15.965,5.6-30.808-6.162-30.808-6.162l-17.925-.56c.84-.84,25.486-10.082,34.168-13.443a141.325,141.325,0,0,1,13.936-4.486c7.534-2,15-3.221,17.152-1.395C423.617,62.461,422.984,66.209,421.035,70.527Z" transform="translate(-240.4 515.421)" fill="#ffdfba"/>
    <path id="Path_8803" data-name="Path 8803" d="M415.342,64.131a20.359,20.359,0,0,1-1.9,6.4c-6,2.493-20.854-2.184-16.009-7.886,1-.263,2-.516,2.98-.751,6.442-1.518,12.3-2.229,14.172-.644A3.369,3.369,0,0,1,415.342,64.131Z" transform="translate(-232.802 515.421)" fill="#453727"/>
    <path id="Path_8804" data-name="Path 8804" d="M369.557,78.772c.316.581,4.768-.489,4.664-.957C373.865,76.221,368.777,77.338,369.557,78.772Z" transform="translate(-237.988 518.626)" fill="#ae3628"/>
    <path id="Path_8805" data-name="Path 8805" d="M406.652,39.8c-3.171-.794-4.83,2.379-3.361,3.22S407.492,40.012,406.652,39.8Z" transform="translate(-231.596 511.449)" fill="#c29c50"/>
    <path id="Path_8806" data-name="Path 8806" d="M409.8,27.331c-2.806.216-2.381,5.531-.07,4.971S411.625,27.19,409.8,27.331Z" transform="translate(-230.617 509.077)" fill="#ff9087"/>
    <path id="Path_8807" data-name="Path 8807" d="M403.382,36.977c-.229,1.607,2.941,1.75,3.082.77S403.523,36,403.382,36.977Z" transform="translate(-231.477 510.843)" fill="#ff9087"/>
    <path id="Path_8808" data-name="Path 8808" d="M414.422,31.537c-.118,2,3.572-1.96,3.572-2.941S414.493,30.348,414.422,31.537Z" transform="translate(-229.354 509.281)" fill="#ff80b5"/>
    <path id="Path_8809" data-name="Path 8809" d="M369.3,117.459c-.18,1.636-1.781,3.277-4.033,4.532-5.506.677-13.354-1.876-18.653-4.532-7.31-3.657-5.853-9.455,4.2-8.469,2.689,1.866,2.8,4.128,7.008,4.828C362.862,114.658,369.585,114.939,369.3,117.459Z" transform="translate(-243.26 524.743)" fill="#ffdfba" opacity="0.4" style="mix-blend-mode: screen;isolation: isolate"/>
    <path id="Path_8810" data-name="Path 8810" d="M414.708,64.131c-4.722.8-14.138.839-14.934-2.241,6.442-1.518,12.3-2.229,14.172-.644A3.369,3.369,0,0,1,414.708,64.131Z" transform="translate(-232.168 515.421)" fill="#453727" style="mix-blend-mode: screen;isolation: isolate"/>
    <path id="Path_8811" data-name="Path 8811" d="M372.125,59.423c-1.1,1.012,1.05,3.08,1.961,2.379S372.965,58.652,372.125,59.423Z" transform="translate(-237.539 515.214)" fill="#fff"/>
    <path id="Path_8812" data-name="Path 8812" d="M376.076,58.34c-.35,1.174,1.559,2.736,1.889,1.9S376.343,57.447,376.076,58.34Z" transform="translate(-236.729 514.991)" fill="#fff"/>
    <path id="Path_8813" data-name="Path 8813" d="M329.62,114.055c-1.663,2.179-4.183,5.366-6.9,8.447a53.424,53.424,0,0,1-8.133,7.864,11.772,11.772,0,0,1-13.163.28s-2.52,5.881-7,3.361,2.8-9.8,3.921-10.083,3.921.84,7.281,0c-1.983-8.923,1.3-16.383,4.324-21C302.813,116.783,322.613,118.352,329.62,114.055Z" transform="translate(-252.683 523.599)" fill="#bf7b2c" opacity="0.2" style="mix-blend-mode: multiply;isolation: isolate"/>
    <path id="Path_8814" data-name="Path 8814" d="M363.759,122.308c-.285.089-.582.179-.879.257-4.2,1.121-16.244.28-28.568-7.281-.42-.315-.789-.616-1.115-.913C344.7,121.345,358.74,122.111,363.759,122.308Z" transform="translate(-244.958 525.799)" fill="#bf7b2c" opacity="0.3" style="mix-blend-mode: multiply;isolation: isolate"/>
    <g id="Group_14100" data-name="Group 14100" transform="translate(205.281 535.994)">
      <path id="Path_15005" data-name="Path 15005" d="M1063.142,1197.534c15.773,16.094,32.023,10.355,34.861,11.092s9.283,3.014,11.549,8.286c1.357,3.157,8.13,1.74,6.729-4.156s-6.284-13.174-9.694-13.543-8.908-4.553-11.05-7.514-8.391-20.87-15.473-23.933S1046.139,1180.185,1063.142,1197.534Z" transform="translate(-975.561 -1097.05)" fill="#e68e3a"/>
      <path id="Path_15006" data-name="Path 15006" d="M1059.857,961.155c2.6,5.391-2,7.432-2,7.432s10.5,2.758,18.437,16.293c7.289,12.434-1.043,40.12-22.767,42.979L1050,1022.61a22.749,22.749,0,0,0,16.628-30.711c-3.43-9-27.347-9.735-28.061-23.312C1037.851,955.08,1056.141,953.438,1059.857,961.155Z" transform="translate(-931.609 -956.545)" fill="#e68e3a"/>
      <path id="Path_15007" data-name="Path 15007" d="M1064.374,961.155c2.6,5.391-2,7.432-2,7.432s10.5,2.758,18.437,16.293a16.175,16.175,0,0,1,1.073,2.222,34.111,34.111,0,0,1-10.88,21.953,22.912,22.912,0,0,0,.137-17.156c-3.43-9-27.346-9.735-28.061-23.312C1042.368,955.08,1060.658,953.438,1064.374,961.155Z" transform="translate(-936.125 -956.545)" fill="#e68e3a"/>
      <path id="Path_15008" data-name="Path 15008" d="M1365.289,1056.048c.608.993-.468,8.347-4.379,14.591-1.253,2-15.424-.406-15.424-.406C1349.2,1064.127,1364.547,1054.836,1365.289,1056.048Z" transform="translate(-1320.57 -1022.785)" fill="#ffb054"/>
      <path id="Path_15009" data-name="Path 15009" d="M1365.328,1208.981c-32.4,12.386-45.544,9.909-45.544,9.909s-12.386-12.577-11.052-15.245,11.243,4.383,11.243,4.383,21.724-7.813,24.582-11.815S1365.328,1208.981,1365.328,1208.981Z" transform="translate(-1308.158 -1115.856)" fill="#e68e3a"/>
      <path id="Path_15010" data-name="Path 15010" d="M1392.71,1216.179c1.334-2.668,11.243,4.382,11.243,4.382s8.211-2.953,15.2-6.158a7.718,7.718,0,0,1,2.139,5.111c0,5.734-7.539,10.533-17.657,11.781C1402.354,1229.98,1391.455,1218.69,1392.71,1216.179Z" transform="translate(-1392.135 -1128.389)" fill="#ffb054"/>
      <path id="Path_15011" data-name="Path 15011" d="M1455.214,1221.737a20.576,20.576,0,0,1-.182,10.758c-3.24-1.969-13.246-12.225-10.958-15.189C1446.338,1214.377,1453.471,1220.536,1455.214,1221.737Z" transform="translate(-1443.738 -1129.803)" fill="#ffdfba"/>
      <path id="Path_15012" data-name="Path 15012" d="M1136.572,1151.462c5.09-1.634,11.7-2.4,17.579-2.716l-1.441,1.921a53.478,53.478,0,0,1,11.3-1.492l-1.429,1.715a47.079,47.079,0,0,1,15.149-2.715l-2.144,2.143a44.253,44.253,0,0,1,13.292-.429s9.861,33.3-2.287,38.874-40.191,13.635-65.314.715c-17.424-8.961-24.153-18.723-25.439-27.869C1094.611,1152.867,1118.85,1146.46,1136.572,1151.462Z" transform="translate(-1064.49 -1084.253)" fill="#ffb054"/>
      <path id="Path_15013" data-name="Path 15013" d="M1095.8,1149.362c2.425-.294,4.876-.492,7.212-.615l-1.441,1.921a53.478,53.478,0,0,1,11.3-1.492l-1.429,1.715a47.079,47.079,0,0,1,15.149-2.715l-2.144,2.143a44.253,44.253,0,0,1,13.292-.429s5.69,19.221,3.1,30.9c-6.036,1.019-19,6.048-24.548.885C1102.464,1168.809,1100.441,1156.035,1095.8,1149.362Z" transform="translate(-1013.353 -1084.253)" fill="#ffb054"/>
      <path id="Path_15014" data-name="Path 15014" d="M1119.657,1151.042a25.346,25.346,0,0,0-.415,4.563c0,16.26,15.485,29.441,34.587,29.441s26.65-15.126,26.65-31.386c0-1.411,4.082-3.419,8.079-3.557,1.286,3.072,8.648,34.666-2.858,39.946-12.148,5.574-41.334,14.3-66.457,1.382-17.424-8.961-23.01-19.389-24.3-28.536C1094.067,1156.647,1106.2,1151.593,1119.657,1151.042Z" transform="translate(-1063.596 -1085.538)" fill="#e68e3a"/>
      <path id="Path_15015" data-name="Path 15015" d="M1180.544,1268.509c-12.3,4.906-35.039,10.529-56.281,2.846,18.982,1.836,38.847-.307,49.709-5.31C1177.339,1264.5,1178.8,1267.842,1180.544,1268.509Z" transform="translate(-1061.873 -1162.535)" fill="#ffb054"/>
      <path id="Path_15016" data-name="Path 15016" d="M1307.821,1197.42a24.3,24.3,0,0,0,5.435,10.884l1.064-.87s4.369,8.249,11.636,10.374c7.787,2.277,7.955-3.886,7.955-3.886l-4.753-8.965,1.243-.265s-.127-3.27-6.255-6.19C1318.578,1195.848,1307.821,1197.42,1307.821,1197.42Z" transform="translate(-1276.471 -1116.764)" fill="#ffdfba"/>
      <path id="Path_15017" data-name="Path 15017" d="M1269.961,1078.682c.374,1.781-1.1,11.743-8.752,19.584l-12.6-12.007C1255.262,1080.032,1269.587,1076.9,1269.961,1078.682Z" transform="translate(-1192.821 -1037.61)" fill="#ffb054"/>
      <path id="Path_15018" data-name="Path 15018" d="M1272.114,1083.581c.316,1.505-1.484,10.51-7.955,17.137l-10.649-10.147C1259.133,1085.309,1271.8,1082.076,1272.114,1083.581Z" transform="translate(-1196.591 -1040.959)" fill="#ffb054"/>
      <path id="Path_15019" data-name="Path 15019" d="M1272.576,1086.128c.292,1.386-1.367,9.682-7.328,15.788l-9.811-9.348C1260.617,1087.719,1272.284,1084.741,1272.576,1086.128Z" transform="translate(-1197.692 -1042.676)" fill="#ffdfba"/>
      <path id="Path_15020" data-name="Path 15020" d="M1262.8,1094.765a24.625,24.625,0,0,0-1.27,2.371l-4.792-4.566c4.671-4.372,14.613-7.221,16.737-6.723C1269.635,1086.968,1265.635,1090.145,1262.8,1094.765Z" transform="translate(-1198.992 -1042.679)" fill="#f2c89b"/>
      <path id="Path_15021" data-name="Path 15021" d="M1361.989,1087.389c-.638.424-2.407,1.006-3.237,2.429l-4.382-1.057c2.3-1.785,6.109-1.757,7.53-1.682A.17.17,0,0,1,1361.989,1087.389Z" transform="translate(-1320.149 -1043.52)" fill="#e68e3a"/>
      <path id="Path_15022" data-name="Path 15022" d="M1378.448,1086.709c-.541.411-1.678,1.28-3.132,2.426l-4.467-.514c2.372-1.95,6.214-2.163,7.506-2.177A.147.147,0,0,1,1378.448,1086.709Z" transform="translate(-1342.089 -1043.114)" fill="#e68e3a"/>
      <path id="Path_15023" data-name="Path 15023" d="M1263.042,1128.93c16,.436,26.779-3.557,26.779-3.557l-1.611-.9s7.234-1.342,8.947-2.188l-.842-1.555s7.708-1.357,8-2-1.142-1.07-1.142-1.07,5.353-.806,5.332-1.438-5.69-4.72-5.69-4.72,1.422-.046,1.554-.842-5.8-3.134-5.8-3.134,2.967-1.2,2.936-2.152-4.582-1.966-4.582-1.966a28.053,28.053,0,0,0-13.258-11.536,26.885,26.885,0,0,0,.987-3.723c-.02-.632-4.24,1.209-4.24,1.209s.648-1.41.311-2.031-7.6,1.564-7.6,1.564,2.019-1.173,1.682-1.795-7.386,1.505-7.386,1.505-12.092-.2-13.493.483-9.487,8.013-9.6,9.441,1.438.428,1.438.428l-4.129,4.406c-1.53,1.631,1.458,1.06,1.458,1.06a21.19,21.19,0,0,0-3.158,2.634,1.192,1.192,0,0,0,1.094,2.021s-3.277,3.824-3.41,4.619,2.746,1.73,2.746,1.73-1.394.915-1.374,1.548,3.839,1.3,3.839,1.3-2.095,1.254-1.284,1.861,4.942,1.184,4.942,1.184-3.446,1.061-1.83,2.116C1246.854,1124.86,1257.065,1128.767,1263.042,1128.93Z" transform="translate(-1227.653 -1043.475)" fill="#e68e3a"/>
      <path id="Path_15024" data-name="Path 15024" d="M1389.228,1110.4a21.21,21.21,0,0,1,3.158-2.633s-2.987.571-1.458-1.06l4.129-4.405s-1.55,1-1.438-.428,8.2-8.763,9.6-9.441a17.147,17.147,0,0,1,4.13-.427,15.02,15.02,0,0,1,.046,8.583c-2.419,9-11.445,16.334-20.407,16.741a.42.42,0,0,1-.074-.289c.132-.8,3.41-4.619,3.41-4.619A1.192,1.192,0,0,1,1389.228,1110.4Z" transform="translate(-1376.933 -1046.822)" fill="#ffb054"/>
      <path id="Path_15025" data-name="Path 15025" d="M1238.706,1099.195c1.758-3.768,4.427-9.277,10.99-11.906,1.259-.274,2.3-.418,2.42-.189a6.3,6.3,0,0,0-2.658,2.291s8.235-2.683,8.572-2.061c-.93.533-1.878,3.062-1.878,3.062s5.787-2.873,5.808-2.24-2.592,3.875-2.592,3.875c5.585,2.455,11.7,6.045,14.863,11.384,0,0,4.551,1.018,4.582,1.966s-2.936,2.152-2.936,2.152,5.929,2.339,5.8,3.134-1.554.842-1.554.842,5.619,4.052,5.685,4.709a63.72,63.72,0,0,1-13.471,1.428C1252.48,1117.642,1232.8,1111.844,1238.706,1099.195Z" transform="translate(-1204.952 -1043.475)" fill="#ffb054"/>
      <path id="Path_15026" data-name="Path 15026" d="M1379.493,1156.109c1.706,7.234,4.131,10.4,6.45,10.4,2.3,0,.089-8.789.089-8.789l-4.308-3.578Z" transform="translate(-1353.453 -1088.227)" fill="#3d2e2e"/>
      <path id="Path_15027" data-name="Path 15027" d="M1383.167,1172.146a12.748,12.748,0,0,1,1.708-.5c.388,1.82,1.09,5.835-.268,5.835-1.3,0-2.644-1.309-3.783-4.19A12.376,12.376,0,0,1,1383.167,1172.146Z" transform="translate(-1352.316 -1099.898)" fill="#d85d5d"/>
      <path id="Path_15028" data-name="Path 15028" d="M1347.377,1150.311c3.362,2.864,6.694,6.517,13.76,4.775,5.012-1.236,1.454-6.375-.307-7.03a54.017,54.017,0,0,0-10.879-1.308C1348.536,1147.031,1346.482,1149.549,1347.377,1150.311Z" transform="translate(-1319.388 -1083.284)" fill="#ead5be"/>
      <path id="Path_15029" data-name="Path 15029" d="M1406.086,1149.156c-1.039,2.428-5.7,5.259-7.026,5.437-1.372.184-4.093-3.542-3.047-5.065.994-1.448,5.789-3.116,7.314-3.165C1404.793,1146.316,1406.471,1148.258,1406.086,1149.156Z" transform="translate(-1378.041 -1083.045)" fill="#ead5be"/>
      <path id="Path_15030" data-name="Path 15030" d="M1397.177,1153.117c2.614-1.409,4.061-3.8,3.232-5.334a2.126,2.126,0,0,0-1.043-.919,10.1,10.1,0,0,1,2.285-.5c1.466-.048,3.144,1.894,2.759,2.793-1.039,2.428-5.7,5.259-7.026,5.437a2.269,2.269,0,0,1-1.605-.87A8.874,8.874,0,0,0,1397.177,1153.117Z" transform="translate(-1376.365 -1083.045)" fill="#dbba9a"/>
      <path id="Path_15031" data-name="Path 15031" d="M1390.454,1147.541c1.921-.255,3.719-2.414,3.3-3.192s-6.854-1.6-8.468-.121C1384.4,1145.041,1388.092,1147.855,1390.454,1147.541Z" transform="translate(-1362.168 -1081.077)" fill="#d85d5d"/>
      <path id="Path_15032" data-name="Path 15032" d="M1412.229,1131.385l-2.778.09s.16,3.5,2.6,3.109C1413.437,1134.365,1412.229,1131.385,1412.229,1131.385Z" transform="translate(-1389.177 -1073.064)" fill="#564141"/>
      <path id="Path_15033" data-name="Path 15033" d="M1359.874,1128.286l-3.007.1s.19,4.317,2.834,3.851C1361.2,1131.971,1359.874,1128.286,1359.874,1128.286Z" transform="translate(-1319.333 -1070.999)" fill="#564141"/>
      <path id="Path_15034" data-name="Path 15034" d="M1280.138,1209.879c-14.864,17.15-44.148,16.812-54.99,14.74-3.415-.653-14.237-8.489-11.577-11.862,1.848-2.342,11.114,2.707,11.114,2.707s23.054-9.367,31.762-18C1268.085,1185.928,1286.789,1203.371,1280.138,1209.879Z" transform="translate(-1192.512 -1114.535)" fill="#e68e3a"/>
      <path id="Path_15035" data-name="Path 15035" d="M1314.837,1234.713s13.9-5.649,24.193-12.216c7.068,2.148-1,21.371-16.632,21.371a65.33,65.33,0,0,1-8.717-.574c-4.33-2-12.281-8.344-9.958-11.289C1305.571,1229.664,1314.837,1234.713,1314.837,1234.713Z" transform="translate(-1282.664 -1133.783)" fill="#ffb054"/>
      <path id="Path_15036" data-name="Path 15036" d="M1165.432,1177.4l-2.025,26.695-9.147,1.572C1152.26,1192.092,1156.118,1182.945,1165.432,1177.4Z" transform="translate(-1056.596 -1103.731)" fill="#ffdfba"/>
      <path id="Path_15037" data-name="Path 15037" d="M998.969,1192.483c17.5,14.319,34.014,6.86,37.016,7.289s9.861,2,12.577,7c1.626,3,8.575.858,6.717-4.859s-7.432-12.434-11-12.434-10.052-6.05-12.481-8.766-10.719-18.484-18.294-20.771S980.1,1177.047,998.969,1192.483Z" transform="translate(-892.872 -1091.974)" fill="#e68e3a"/>
      <path id="Path_15038" data-name="Path 15038" d="M992.209,1246.6a6.413,6.413,0,0,0,2.641.753c3.573,0,9.147,6.717,11,12.434s-5.091,7.855-6.717,4.859a10.207,10.207,0,0,0-2.447-2.94C998.522,1259.794,1001.87,1255.981,992.209,1246.6Z" transform="translate(-843.449 -1149.85)" fill="#ffdfba"/>
      <path id="Path_15039" data-name="Path 15039" d="M1072.468,1159.945c7.575,2.287,15.864,18.055,18.293,20.771a48.3,48.3,0,0,0,4.128,4.013,12.886,12.886,0,0,1-1.768,5.577c-5.16,8.595-19.656,9.37-32.379,1.732a37.938,37.938,0,0,1-8.647-7.065C1046.778,1171.462,1066.09,1158.019,1072.468,1159.945Z" transform="translate(-951.841 -1091.974)" fill="#ffb054"/>
      <path id="Path_15041" data-name="Path 15041" d="M1374.417,1248.479c2.4-3.1,11,2.429,11,2.429s.64.451.817.377c3.393,2.146,3.632,9,1.887,9.557-.871-.081-2.866-.246-3.7-.359C1380.091,1258.485,1371.666,1252.025,1374.417,1248.479Z" transform="translate(-1353.786 -1150.471)" fill="#ffdfba"/>
      <path id="Path_15042" data-name="Path 15042" d="M1348.427,1125.817a49.617,49.617,0,0,1-12.808,1.66h0a2.244,2.244,0,0,1,2.368-2.24Z" transform="translate(-1300.258 -1068.964)" fill="#564141"/>
      <path id="Path_15043" data-name="Path 15043" d="M1406.966,1129.932a27.739,27.739,0,0,1-9.487,1.66h0a2.2,2.2,0,0,1,2.365-2.194Z" transform="translate(-1379.432 -1071.736)" fill="#564141"/>
      <path id="Path_15044" data-name="Path 15044" d="M1392.591,1147.42c1.564-.226,3.026-2.083,2.682-2.747s-5.585-1.34-6.9-.069C1387.653,1145.3,1390.667,1147.7,1392.591,1147.42Z" transform="translate(-1364.716 -1081.395)" fill="#ef7878"/>
      <path id="Path_15045" data-name="Path 15045" d="M1391.693,1148.433a3.419,3.419,0,0,0-3.088-.517c-.632.264,1.19,1.993,1.19,1.993A2.034,2.034,0,0,0,1391.693,1148.433Z" transform="translate(-1361.154 -1083.964)" fill="#d85d5d"/>
      <path id="Path_15046" data-name="Path 15046" d="M1405.3,1149.474s-.105-1.95-.527-1.95a4.176,4.176,0,0,0-1.37.632A4.118,4.118,0,0,0,1405.3,1149.474Z" transform="translate(-1379.743 -1083.819)" fill="#d85d5d"/>
      <path id="Path_15047" data-name="Path 15047" d="M1377.952,1253.554c2.98.454,6.732,2.6,10.011,6a24.719,24.719,0,0,1,3.913,5.27c-.961-.087-2.667-.231-3.429-.334C1384.521,1262.682,1377.231,1257.2,1377.952,1253.554Z" transform="translate(-1357.811 -1154.481)" fill="#ffdfba"/>
      <path id="Path_15048" data-name="Path 15048" d="M1163.029,1199.536c3.5-7.218,7.789-9.576,7.789-9.576a7.2,7.2,0,0,0-4.86.5C1163.243,1191.675,1163.029,1199.536,1163.029,1199.536Z" transform="translate(-1065.079 -1111.961)" fill="#ffdfba"/>
      <path id="Path_15049" data-name="Path 15049" d="M1145.914,1183.932c6.82-5.616,12.989-6.392,12.989-6.392a12.1,12.1,0,0,0-6.26-1.166C1148.83,1176.6,1145.914,1183.932,1145.914,1183.932Z" transform="translate(-1047.454 -1103.028)" fill="#ffdfba"/>
      <path id="Path_15050" data-name="Path 15050" d="M1132.878,1172.784c7.779-4.188,13.981-3.754,13.981-3.754a12.1,12.1,0,0,0-5.915-2.357C1137.159,1166.159,1132.878,1172.784,1132.878,1172.784Z" transform="translate(-1031.063 -1096.562)" fill="#ffdfba"/>
      <path id="Path_15051" data-name="Path 15051" d="M1115.234,1162.58c8.563-2.171,14.474-.242,14.474-.242a12.1,12.1,0,0,0-5.165-3.724C1121,1157.2,1115.234,1162.58,1115.234,1162.58Z" transform="translate(-1008.025 -1091.051)" fill="#ffdfba"/>
      <path id="Path_15052" data-name="Path 15052" d="M1215.186,1203.707c.888,11.74-5.251,16.44-5.251,16.44s9.636-1.481,9.773-5.924C1219.954,1206.248,1215.186,1203.707,1215.186,1203.707Z" transform="translate(-1129.623 -1121.261)" fill="#ffdfba"/>
      <path id="Path_15053" data-name="Path 15053" d="M1218.392,1186.521c2.5,11.505-2.93,17.007-2.93,17.007s9.339-2.8,8.861-7.217C1223.465,1188.379,1218.392,1186.521,1218.392,1186.521Z" transform="translate(-1136.091 -1109.808)" fill="#ffdfba"/>
      <path id="Path_15054" data-name="Path 15054" d="M1228.556,1186.563c5.992,6.643,4.488,12.321,4.488,12.321s5.1-5.37,3.119-8.1C1232.6,1185.872,1228.556,1186.563,1228.556,1186.563Z" transform="translate(-1152.738 -1109.814)" fill="#ffdfba"/>
      <path id="Path_15055" data-name="Path 15055" d="M1242.074,1187.822c6.526,3.613,6.88,8.5,6.88,8.5s2.566-5.618.261-7.235C1245.078,1186.18,1242.074,1187.822,1242.074,1187.822Z" transform="translate(-1170.804 -1110.367)" fill="#ffdfba"/>
      <path id="Path_15056" data-name="Path 15056" d="M1253.021,1173.031c.241.243.4.436.4.536.02.632-5.332,1.438-5.332,1.438s1.438.428,1.142,1.07a.328.328,0,0,1-.115.111l-11.489-.992A150.587,150.587,0,0,0,1253.021,1173.031Z" transform="translate(-1172.566 -1100.818)" fill="#ffdfba"/>
      <path id="Path_15057" data-name="Path 15057" d="M1261.91,1141.128a.52.52,0,0,1,.184.331c.031.948-2.936,2.152-2.936,2.152a44.321,44.321,0,0,1,4.811,2.228l-10.99-.97S1255.94,1144.453,1261.91,1141.128Z" transform="translate(-1188.234 -1079.557)" fill="#ffdfba"/>
      <path id="Path_15058" data-name="Path 15058" d="M1375.483,1189.059c2.728.994,3.419-1.215,2.881-2.745C1378.23,1188.184,1377.341,1189.181,1375.483,1189.059Z" transform="translate(-1343.662 -1109.67)" fill="#665252"/>
      <path id="Path_15059" data-name="Path 15059" d="M1347.945,1155.229c4.6,1.259,8.488.345,8.673-2.041.108-1.391-1.07-2.973-2.979-4.3a18.762,18.762,0,0,1,2.989.613c1.761.655,5.319,5.794.307,7.03a11.4,11.4,0,0,1-9.775-1.536C1347.417,1155.077,1347.679,1155.156,1347.945,1155.229Z" transform="translate(-1315.185 -1084.727)" fill="#dbba9a"/>
    </g>
  </g>
</svg>
