<svg xmlns="http://www.w3.org/2000/svg" width="22" height="22" viewBox="0 0 22 22">
  <path id="pen-circle" d="M11,0A11,11,0,1,0,22,11,11.012,11.012,0,0,0,11,0Zm0,20.167A9.167,9.167,0,1,1,20.167,11,9.177,9.177,0,0,1,11,20.167ZM12.264,5.847,6.843,11.269A4.554,4.554,0,0,0,5.5,14.509v1.074a.916.916,0,0,0,.917.917H7.491a4.554,4.554,0,0,0,3.24-1.343l5.421-5.421a2.75,2.75,0,0,0-3.889-3.889ZM9.435,13.861a2.769,2.769,0,0,1-1.944.806H7.333v-.158a2.769,2.769,0,0,1,.806-1.944L11.308,9.4l1.3,1.3ZM14.856,8.44,13.9,9.4,12.6,8.1l.956-.956a.917.917,0,0,1,1.3,1.3Z" fill="#6bc100"/>
</svg>
