<svg xmlns="http://www.w3.org/2000/svg" width="21.999" height="16.5" viewBox="0 0 21.999 16.5">
  <g id="eye_" data-name="eye " transform="translate(0 -2.75)">
    <path id="Path_16824" data-name="Path 16824" d="M21.836,10.249c-.8-1.76-3.961-7.5-10.836-7.5S.969,8.489.164,10.249a1.805,1.805,0,0,0,0,1.5c.8,1.758,3.961,7.5,10.836,7.5s10.031-5.739,10.836-7.5a1.8,1.8,0,0,0,0-1.5ZM11,17.417c-5.781,0-8.479-4.919-9.167-6.407C2.521,9.5,5.218,4.583,11,4.583s8.466,4.9,9.167,6.417C19.466,12.519,16.767,17.417,11,17.417Z" fill="#6bc100"/>
    <path id="Path_16825" data-name="Path 16825" d="M11,6.417a4.589,4.589,0,1,0,3.239,1.344A4.583,4.583,0,0,0,11,6.417Zm0,7.333a2.75,2.75,0,1,1,1.945-.806A2.75,2.75,0,0,1,11,13.75Z" fill="#6bc100"/>
  </g>
</svg>
