<svg id="Group_14540" data-name="Group 14540" xmlns="http://www.w3.org/2000/svg" xmlns:xlink="http://www.w3.org/1999/xlink" width="49.26" height="118.778" viewBox="0 0 49.26 118.778">
  <defs>
    <clipPath id="clip-path">
      <rect id="Rectangle_85753" data-name="Rectangle 85753" width="49.26" height="118.778" fill="none"/>
    </clipPath>
  </defs>
  <g id="Group_14539" data-name="Group 14539" clip-path="url(#clip-path)">
    <path id="Path_17246" data-name="Path 17246" d="M9.715,15.028s.891,5.591-4.95,11.725c0,0-2.181,4.426-2.082,13.821A39.622,39.622,0,0,1,.5,54.628c-.1,0,1.479,7.3,2.964,21.9,0,.078-.4,5.979,1.683,9.4,0,.155,1.584,2.252-.594,8.852a17.227,17.227,0,0,0,.891,9.473c-.1-.078-.594,8.541-.594,8.541s-3.564,2.951,1.188,5.358c0,0,2.277,1.941,7.425,0,.1-.155,5.641-2.563.742-5.435.149-.155.149-7.61.149-7.61a9.011,9.011,0,0,0,.594-8.7s-.99-11.492,3.465-16.229c-.1,0-2.277,22.6,5.841,21.819,0,0,10.49.66,7.619-22.052.1.039,2.376.349,4.653,10.6,0,.155-2.079,10.871,0,13.123,0,0,1.683,5.28.792,8.464-.1.233-4.455,5.686,3.168,6.881-.1.03,7.326,1.117,7.821-4.473a1.777,1.777,0,0,0-1.683-1.864l-.5-9.861s1.188-8.93-.2-12.89c-.1-.078,3.168-9.861,2.376-17.782.1-.078,2.769-19.257.1-24.3-.1-.078-.2-16.694-4.455-21.586,0-.155-5.94-6.367-3.168-11.647.1-.078-.792,3.106,3.069,3.106a3.49,3.49,0,0,1,1.174-3.847c0-.057,2.628-4.288-1.886-8.079,0-.036-.456-3.9-6.566-4.4,0,.036-15.527-2-23.735,0,0,0-4.377-.429-6.429,4.471a5.9,5.9,0,0,0-1.915,7.4c0-.036,2.326,2.789,1.368,4.077C5.911,17.3,7.409,18.624,9.715,15.028Z" transform="translate(-0.417 -0.417)" fill="none" stroke="#000" stroke-miterlimit="10" stroke-width="1"/>
  </g>
</svg>
