<svg id="Group_14536" data-name="Group 14536" xmlns="http://www.w3.org/2000/svg" xmlns:xlink="http://www.w3.org/1999/xlink" width="115.22" height="130.346" viewBox="0 0 115.22 130.346">
  <defs>
    <clipPath id="clip-path">
      <rect id="Rectangle_85751" data-name="Rectangle 85751" width="115.22" height="130.346" fill="none"/>
    </clipPath>
  </defs>
  <g id="Group_14535" data-name="Group 14535" clip-path="url(#clip-path)">
    <path id="Path_17244" data-name="Path 17244" d="M113.793,72.711c0,.219-8.793-20.163-10.114-28.858-2-13.166-12.439-23.269-26.28-22.523-3.6.194-5.535,2.061-8.543,3.667a44.078,44.078,0,0,1-6.307,2.83,19.3,19.3,0,0,1-13.509.152c-3.69-1.25-6.92-5.366-6.92-5.366S40.159,20,38.7,17.874a1.227,1.227,0,0,1,1.247-1.9l3.06,3.456c5.817,6.842,4.331-1.268,4.331-1.268C45.673,11.622,39.9,8.262,38.208,7.4a4.4,4.4,0,0,1-.927-.631,9.819,9.819,0,0,1-.843-.859A8.274,8.274,0,0,0,32.165,3.49c0,.09-3.241-5.582-17.555-1.531,0,.09-8.733.36-8.643,10.083-.09-.09,1.35,4.141.45,5.4,0,.09-8.913,4.951-4.861,8.282.09.09-.99,9.543,8.192,9.273.09,0,7.022-.63,7.022-.63s2.881,3.691,2.251,11.253c0,.18-3.512,10.263,2.339,26.918-.09-.09,3.691,6.842,3.781,13.684.18.18-2.253,24.757-2.253,24.757s.721,5.582-1.259,5.852c0,0-3.418,6.662,3.964,6.482,0-.09,6.392.36,7.652-5.852-.09-.18,1.08-24.307,1.08-24.307s2.161-13.594,3.421-14.4c.09-.09,10.353,2.251,10.713,9.723.09.09,2.251,22.326,2.251,22.326s.72,8.733-1.62,10.8c0,.09-5.852,4.771-2.521,8.1.09.09,5.4,3.6,9.453-3.421-.09-.09,1.26-7.922,2.161-11.974,0-.18,1.441-23.227,1.441-23.227s1.8-14.134,3.6-15.484c0,.09,8.913-2.881,9.093-7.022.09-.09,6.662,5.221,5.942,15.034.09.09-1.17,7.562-1.17,7.562s.09,2.431-3.421,3.511c-.09.18-5.311,6.032,2.251,6.032.09,0,5.492,2.071,7.382-5.492,0-.09,1.62-11.7,1.62-11.7s3.421-8.012-.54-12.424c0-.09-4.231-7.742.54-11.883.09,0,5.4,13.054,8.822,14.854-.09,0,5.222,6.482,3.871,19a17.508,17.508,0,0,1,.22,3.061s-1.12,2.971-3.461,3.421c0,.18-6.032,4.951,3.961,6.122.18,0,5.4,1.8,6.3-10.443-.09.09.54-11.794,1.35-14.4.09,0,.2-2.518-2.775-9,0,0-.513-.636-.644-4.671,0,0,.076-.324.179-.908l.363-1.045a31.114,31.114,0,0,0,7.355,15.114S119.149,89.139,113.793,72.711Z" transform="translate(-0.409 -0.409)" fill="none" stroke="#000" stroke-miterlimit="10" stroke-width="1"/>
  </g>
</svg>
