<svg id="Group_14538" data-name="Group 14538" xmlns="http://www.w3.org/2000/svg" xmlns:xlink="http://www.w3.org/1999/xlink" width="48.603" height="118.778" viewBox="0 0 48.603 118.778">
  <defs>
    <clipPath id="clip-path">
      <rect id="Rectangle_85752" data-name="Rectangle 85752" width="48.603" height="118.778" fill="none"/>
    </clipPath>
  </defs>
  <g id="Group_14537" data-name="Group 14537" clip-path="url(#clip-path)">
    <path id="Path_17245" data-name="Path 17245" d="M48.129,51.883c-.057-.049-.933-16.148-5.172-23.079,0,0-3.623-2.058-4.369-11.443,0,0-.373-2.237,1.864-.746,0,0,.593,7.117,3.839,10.19a.664.664,0,0,0,1.068-.233c1.061-2.586,4.007-10.713.192-15.9,0-.049-2.921-3.042-3.666-5.2,0,.049-.057-3.336-7.905-3.532.057,0-10.082-3.238-19.706,0,0,0-5.327.441-6.989,3.336-.057.1-1.26,3.876-3.38,5.151,0-.049-3.036,1.178-1.031,7.016,0,.1-1.382,9.95,2.156,9.446C7.645,25.07,9.649,16.615,9.649,16.615c2.237-1.492,1.864.746,1.864.746-1,6.713-3.26,9.611-4.41,10.688a11.418,11.418,0,0,0-2.168,2.736A27.1,27.1,0,0,0,1.911,46.211s.792,5.623-.869,9.99a8.637,8.637,0,0,0,1.547,8.635c.057,0-.917,7.653.687,11.823a125.376,125.376,0,0,1,.309,12.658c.034,0-.378,8.929,0,13.884-.023-.049,1.065,7.163,1.065,7.163s.447,1.374-1.065,3.581c-.023,0-2.944,3.876,3.643,4.955.057,0,6.416.049,6.244-4.17-.057-.1-1.317-10.45-1.317-10.45s-.344-10.793.344-12.756c0,0,7.733.049,4.3-5.495.115.049-.057-10.793-.057-10.793a21.281,21.281,0,0,1,17.7,0c0-.049.344,10.744.344,10.744s-3.208,4.464,3.151,5.249c0,.049.63,13.737.229,16.582,0,.049-2.463,6.966-1.088,9.567-.057-.049,6.015,4.808,10.311-1.521a2.722,2.722,0,0,0-.974-2.895c-.057-.049-1.317-1.472-.4-4.71a98.973,98.973,0,0,0,.63-13.835c0-.1.77-18.348.843-20.016-.1-.049.188-9.763,1.047-11.627C48.53,62.823,49.675,56.3,48.129,51.883Z" transform="translate(-0.417 -0.418)" fill="none" stroke="#000" stroke-miterlimit="10" stroke-width="1"/>
  </g>
</svg>
