<svg id="Group_14610" data-name="Group 14610" xmlns="http://www.w3.org/2000/svg" xmlns:xlink="http://www.w3.org/1999/xlink" width="122.687" height="300.238" viewBox="0 0 122.687 300.238">
  <defs>
    <clipPath id="clip-path">
      <rect id="Rectangle_88138" data-name="Rectangle 88138" width="122.687" height="300.238" fill="none" stroke="#000" stroke-width="1"/>
    </clipPath>
  </defs>
  <g id="Group_14609" data-name="Group 14609" clip-path="url(#clip-path)">
    <path id="Path_17290" data-name="Path 17290" d="M121.673,130.257c-.347-3.188-.756-6.372-1.165-9.552-1.612-12.538-3.254-25.2-7.6-37.068A97.366,97.366,0,0,0,101.85,62.909c-3.829-5.715-4.155-13.056-4.769-19.686a3.638,3.638,0,0,1,.45-2.682c.929-1.13,2.9-.656,3.772.516a8.258,8.258,0,0,1,1.14,4.177,43.207,43.207,0,0,0,7.669,20.319c.737,1.041,1.891,2.172,3.093,1.744.867-.309,1.262-1.287,1.555-2.159,2.1-6.243,4.112-12.585,4.64-19.149s-.548-13.45-4.213-18.921c-2.224-3.32-5.319-6.016-7.339-9.465-1.484-2.533-2.365-5.435-4.23-7.7-3.743-4.554-9.195-4.384-14.465-5.206-6.8-1.061-13.311-2.867-20.231-3.384a111.226,111.226,0,0,0-28.832,1.6c-7.075,1.332-17.7,2.61-21.683,9.5-1.751,3.026-2.857,6.449-5.066,9.158-2.469,3.028-6.252,5.1-7.682,8.734-1.527,3.883.129,8.192.65,12.331.9,7.181-1.62,14.928,1.468,21.473.817,1.732,2.486,3.478,4.345,3.02a4.854,4.854,0,0,0,2.647-2.484,68.141,68.141,0,0,0,8.346-20.586,6.7,6.7,0,0,1,1.394-3.338c.854-.875,2.512-1.076,3.206-.069a2.894,2.894,0,0,1,.4,1.263c1.137,8.119-2.611,16.129-7.147,22.958S10.953,78.031,7.9,85.639c-6.243,15.554-1.3,33.341-4.392,49.814-1.476,7.872-4.635,16.612-.332,23.368a19.823,19.823,0,0,1,2.144,3.464,10.958,10.958,0,0,1,.457,3.97c-.07,8.535-.026,16.289,1.392,24.7a146.458,146.458,0,0,1,1.608,26c-.19,17.209-1.872,34.594,1.145,51.663.987,5.583,2.412,11.639-.187,16.678-.862,1.672-2.148,3.166-2.56,5-.731,3.253,1.653,6.579,4.685,7.966s6.521,1.262,9.836.908c3.369-.359,6.976-1.06,9.29-3.533,3.442-3.679,2.591-9.475,1.722-14.437a180.982,180.982,0,0,1-1.637-50.812c4.775,0,10.72-.776,12.286-5.288.645-1.861.307-3.9,0-5.847a138.288,138.288,0,0,1-1.387-29.965,54.684,54.684,0,0,1,44.569.1c.662,9.194,1.32,18.492-.2,27.583a19.029,19.029,0,0,0-.463,5.852,8.471,8.471,0,0,0,9.279,6.879,166.553,166.553,0,0,1-1.933,54.325c-.856,4.225-1.713,9.142,1.1,12.407a9.94,9.94,0,0,0,4.247,2.684,18.372,18.372,0,0,0,16.611-2.3c2.366-1.689,4.434-4.313,4.162-7.207-.206-2.188-1.687-4.019-2.485-6.066-.99-2.542-.9-5.358-.8-8.085l2.119-57.148c.586-15.807,1.173-31.623,2.614-47.375.817-8.925,1.909-17.852,1.807-26.814C122.547,139.493,122.175,134.87,121.673,130.257Z" transform="translate(-0.459 -0.459)" fill="none" stroke="#000" stroke-miterlimit="10" stroke-width="2"/>
  </g>
</svg>
