<svg id="Group_14542" data-name="Group 14542" xmlns="http://www.w3.org/2000/svg" xmlns:xlink="http://www.w3.org/1999/xlink" width="163.575" height="125.355" viewBox="0 0 163.575 125.355">
  <defs>
    <clipPath id="clip-path">
      <rect id="Rectangle_85754" data-name="Rectangle 85754" width="163.575" height="125.355" fill="none"/>
    </clipPath>
  </defs>
  <g id="Group_14541" data-name="Group 14541" clip-path="url(#clip-path)">
    <path id="Path_17247" data-name="Path 17247" d="M46.193,13.237s7.734,10.224,12.035,11.808c-.038,0,9.675,2.5,14.871,5.181a125.086,125.086,0,0,0,26.5,1.386s26.066-5.542,42.52,12.211c0,0,6.953,7,12.427,19.918,0,0,3.154,6.345,8.665,17.84,0-.087,3.848,11.6-6.717,10.045.086,0-9.857-5.61-13.6-24.075.086,0-6.216,11.053-3.119,15.478-.087.087,3.9,7.494,3.238,10.73-.173,0,5.012,5.174.682,13.141-.086.087-3.832,11.778-5.3,14.635-.087,0,0,4.763-6.062,4.07,0-.087-7.534.92-8.227-3.756,0,.087-.087-5.542,8.054-4.59.087-.087.953-2.685.953-2.685s-7.707,1.992-9.526-1.559c0,0-4.88-6.335,5.3-6.008a13.4,13.4,0,0,0-3.1-8.974,73.245,73.245,0,0,0-7.362-12.449c0,.087-5.456-6.668-5.456-6.668s-4.33-3.551-11.258.606c.086-.087-23.425,3.1-39.186-1.58A73.477,73.477,0,0,0,61.3,95.317,50.088,50.088,0,0,1,57.451,111.6c-.049-.087-2.474,7.361-2.474,7.361s-2.749,5.228-10.37,3.41c-.173,0-9.764-1.905-3.529-5.975-.087-.087,1.472-1.039,3.9-.779-.087.087.152-1.905-.022-3.551,0-.087-3.789-.087-.931-3.81-.087,0,2.685-1.905,2.685-1.905s-2.078-20.611-2.771-23.642a132.688,132.688,0,0,1-8.509-19.918s-1.818-5.369-3.464-6.928a53.419,53.419,0,0,1-3.118-13.769c-.087-.173-1.126-9.7-7.015-15.068a9.073,9.073,0,0,0-6.322.26c-.173-.087-7.794,3.291-12.9-5.542C2.606,21.653.614,16.8.614,16.8a2.179,2.179,0,0,1,2.165-2.944c0-.087,6.582-1.992,6.582-1.992s3.464-.779.953-3.031c-.087.087-1.992-1.3,3.031-3.9,0,0,14.029-8.92,23.468-1.472A121.483,121.483,0,0,1,46.193,13.237Z" transform="translate(-0.409 -0.41)" fill="none" stroke="#000" stroke-miterlimit="10" stroke-width="1"/>
  </g>
</svg>
