<svg id="Group_14544" data-name="Group 14544" xmlns="http://www.w3.org/2000/svg" xmlns:xlink="http://www.w3.org/1999/xlink" width="160.527" height="123.019" viewBox="0 0 160.527 123.019">
  <defs>
    <clipPath id="clip-path">
      <rect id="Rectangle_85755" data-name="Rectangle 85755" width="160.527" height="123.019" fill="none"/>
    </clipPath>
  </defs>
  <g id="Group_14543" data-name="Group 14543" clip-path="url(#clip-path)">
    <path id="Path_17248" data-name="Path 17248" d="M116.009,13s-7.59,10.033-11.81,11.588c.037,0-9.495,2.45-14.594,5.085A122.756,122.756,0,0,1,63.6,31.033S38.018,25.594,21.87,43.016c0,0-6.823,6.868-12.2,19.547,0,0-3.1,6.227-8.5,17.507,0-.085-3.777,11.388,6.591,9.858-.085,0,9.673-5.506,13.343-23.626-.085,0,6.1,10.847,3.061,15.189.085.085-3.827,7.354-3.178,10.53.17,0-4.919,5.078-.669,12.9.085.085,3.761,11.558,5.205,14.363.085,0,0,4.674,5.949,3.994,0-.085,7.394.9,8.074-3.686,0,.085.085-5.439-7.9-4.5-.085-.085-.935-2.635-.935-2.635s7.564,1.955,9.349-1.53c0,0,4.789-6.217-5.206-5.9a13.153,13.153,0,0,1,3.038-8.807A71.866,71.866,0,0,1,45.114,84c0,.085,5.354-6.544,5.354-6.544s4.249-3.484,11.048.595c-.085-.085,22.988,3.039,38.456-1.55a72.107,72.107,0,0,1,1.211,17.05,49.166,49.166,0,0,0,3.776,15.977c.049-.085,2.428,7.224,2.428,7.224s2.7,5.131,10.177,3.346c.17,0,9.582-1.87,3.463-5.864.085-.085-1.445-1.02-3.824-.765.085.085-.149-1.87.021-3.484,0-.085,3.718-.085.914-3.739.085,0-2.635-1.87-2.635-1.87s2.04-20.227,2.72-23.2a130.216,130.216,0,0,0,8.35-19.547s1.785-5.269,3.4-6.8a52.412,52.412,0,0,0,3.06-13.513c.085-.17,1.1-9.518,6.884-14.788a8.9,8.9,0,0,1,6.2.255c.17-.085,7.649,3.229,12.663-5.439,0-.085,1.955-4.844,1.955-4.844a2.139,2.139,0,0,0-2.125-2.89c0-.085-6.459-1.955-6.459-1.955s-3.4-.765-.935-2.974c.085.085,1.955-1.275-2.975-3.824,0,0-13.768-8.754-23.031-1.445A119.254,119.254,0,0,0,116.009,13Z" transform="translate(-0.411 -0.411)" fill="none" stroke="#000" stroke-miterlimit="10" stroke-width="1"/>
  </g>
</svg>
