<svg id="Group_14547" data-name="Group 14547" xmlns="http://www.w3.org/2000/svg" xmlns:xlink="http://www.w3.org/1999/xlink" width="238.981" height="101.841" viewBox="0 0 238.981 101.841">
  <defs>
    <clipPath id="clip-path">
      <rect id="Rectangle_85756" data-name="Rectangle 85756" width="238.981" height="101.841" fill="none"/>
    </clipPath>
  </defs>
  <g id="Group_14546" data-name="Group 14546" clip-path="url(#clip-path)">
    <path id="Path_17249" data-name="Path 17249" d="M858.136,174.919a.818.818,0,0,0,.073-.422" transform="translate(-697.54 -141.841)" fill="none" stroke="#000" stroke-miterlimit="10" stroke-width="1"/>
    <path id="Path_17250" data-name="Path 17250" d="M291.958,127.377a.824.824,0,0,0-.512-.683c-7.611-3.327-10.975-5.513-22.536-8.468-15.363-3.927-31.74,3.7-42.17,4.848-6.581.722-12.1-1-17.483-2.868s-10.632-3.927-16.561-3.653a35.328,35.328,0,0,0-23.459,9.834c-5.333,5.253-8.082,11.646-7.683,16.9" transform="translate(-131.288 -94.721)" fill="none" stroke="#000" stroke-miterlimit="10" stroke-width="1"/>
    <path id="Path_17251" data-name="Path 17251" d="M155.575,359.792a.794.794,0,0,0,.057.221c2.093,7.638,5.647,13.852,10.961,18.1s12.361,6.474,21.341,6.317c11.418-.2,21.479-6.369,33.8-7.137,4.383-.273,9.781,1.73,16.493,3.483a58.269,58.269,0,0,0,24.483,1.707c4.744-.732,9.866-3.122,14.444-5.394s8.713-4.388,10.857-4.644a.82.82,0,0,0,.741-.891.893.893,0,0,0-.024-.133" transform="translate(-126.46 -292.459)" fill="none" stroke="#000" stroke-miterlimit="10" stroke-width="1"/>
    <path id="Path_17252" data-name="Path 17252" d="M96.587,57.581a.825.825,0,0,0-.922-.717c-3.5.388-6.046-.138-8.2-1.469S83.553,51.9,81.8,48.84c-1.452-2.542-1.7-6.828-1.3-10.859a35.161,35.161,0,0,1,2.152-9.39c1.977-4.268,5.146-7.467,7.99-10.141s5.429-4.718,5.908-7.341a.8.8,0,0,0,.033-.273" transform="translate(-65.298 -8.807)" fill="none" stroke="#000" stroke-miterlimit="10" stroke-width="1"/>
    <path id="Path_17253" data-name="Path 17253" d="M31.7,2.434a.809.809,0,0,0-.171-.375C30.55.683,28.769.349,26.847.556A21.4,21.4,0,0,0,20.5,2.537C16,4.6,11.384,7.814,8.988,10.8A40.8,40.8,0,0,0,.964,30.16c-1.664,12.28,1.05,23,9.834,30.8a33.165,33.165,0,0,0,9.971,5.6c3.732,1.379,7.35,2.165,9.834,1.331" transform="translate(-0.407 -0.406)" fill="none" stroke="#000" stroke-miterlimit="10" stroke-width="1"/>
    <path id="Path_17254" data-name="Path 17254" d="M1116.67,192.235c-.336-5-1.782-8.836-4.029-11.576a13.885,13.885,0,0,0-8.707-4.882" transform="translate(-897.337 -142.881)" fill="none" stroke="#000" stroke-miterlimit="10" stroke-width="1"/>
    <path id="Path_17255" data-name="Path 17255" d="M1161.5,320.449a.819.819,0,0,0,.8.838c2.077.016,6.621.983,10.723-.1a9.523,9.523,0,0,0,5.463-3.62c1.43-1.99,2.291-4.83,2.321-8.775" transform="translate(-944.13 -251.001)" fill="none" stroke="#000" stroke-miterlimit="10" stroke-width="1"/>
    <path id="Path_17256" data-name="Path 17256" d="M1183.7,244.274c.144-4.527-.6-7.694-1.979-9.937a9.328,9.328,0,0,0-5.5-4.1,21.832,21.832,0,0,0-6.317-.683,28.082,28.082,0,0,1-4.848-.136" transform="translate(-947.022 -186.485)" fill="none" stroke="#000" stroke-miterlimit="10" stroke-width="1"/>
    <path id="Path_17257" data-name="Path 17257" d="M1099.779,346.115a.67.67,0,0,0,.128-.024,17.349,17.349,0,0,0,13.386-18.4c0-.035,0-.069,0-.1" transform="translate(-893.961 -266.278)" fill="none" stroke="#000" stroke-miterlimit="10" stroke-width="1"/>
    <path id="Path_17258" data-name="Path 17258" d="M1102.287,162.669v-.023a37.057,37.057,0,0,1,.854-6.112,9.844,9.844,0,0,0,.1-2.834" transform="translate(-895.999 -124.936)" fill="none" stroke="#000" stroke-miterlimit="10" stroke-width="1"/>
    <path id="Path_17259" data-name="Path 17259" d="M982.308,72.124a6.649,6.649,0,0,0-1.092-2.868.807.807,0,0,0-.068-.1c-5.486-5.8-10-7.833-15.434-11.439-1.335-2.325-2.736-3.73-4.235-4.2a4.273,4.273,0,0,0-4.234,1.2c-2.262,2.142-3.56,6.093-3.585,9.526,0,0-.035,0-.035,0-.005.039,0,.064,0,.1a14.052,14.052,0,0,0,1.6,8.639c1.131,2.13,2.416,3.764,3.04,5.5a6.727,6.727,0,0,0-.58,5.531" transform="translate(-775.064 -43.36)" fill="none" stroke="#000" stroke-miterlimit="10" stroke-width="1"/>
    <path id="Path_17260" data-name="Path 17260" d="M965.768,386.975a.737.737,0,0,0-.038.085,6.983,6.983,0,0,0-.068,6.077c.638,1.469,1.31,2.5,1.024,4.439,0,.007,0,.028,0,.035-1.007,2.846-6.123,12.113.206,18.439a.8.8,0,0,0,.512.239c2.16.168,3.98-1.234,5.7-2.594s3.432-2.744,4.951-3.108a.817.817,0,0,0,.512-.376,6.025,6.025,0,0,1,2.22-1.741c1.138-.624,2.573-1.284,4.029-2.083,2.913-1.6,5.993-3.851,6.862-7.786a4.1,4.1,0,0,0,.035-1.57" transform="translate(-783.413 -314.555)" fill="none" stroke="#000" stroke-miterlimit="10" stroke-width="1"/>
    <path id="Path_17261" data-name="Path 17261" d="M1105.044,422.614a6.206,6.206,0,0,0-.41-1.469c-.395-.924-.952-1.786-1.435-2.7" transform="translate(-896.74 -340.138)" fill="none" stroke="#000" stroke-miterlimit="10" stroke-width="1"/>
    <path id="Path_17262" data-name="Path 17262" d="M931.865,169.148a.819.819,0,0,0-.751-.786c-3.829-.4-7.862,1.06-10.551,1.332" transform="translate(-748.285 -136.798)" fill="none" stroke="#000" stroke-miterlimit="10" stroke-width="1"/>
    <path id="Path_17263" data-name="Path 17263" d="M918.46,416.8a.826.826,0,0,0,.615.991,71.7,71.7,0,0,0,11.132,2.014.819.819,0,0,0,.922-.7.858.858,0,0,0,0-.219" transform="translate(-746.557 -338.799)" fill="none" stroke="#000" stroke-miterlimit="10" stroke-width="1"/>
    <path id="Path_17264" data-name="Path 17264" d="M982.986,424.819a.82.82,0,0,0-.751-.718" transform="translate(-798.414 -344.733)" fill="none" stroke="#000" stroke-miterlimit="10" stroke-width="1"/>
    <path id="Path_17265" data-name="Path 17265" d="M863.15,169.861c-4.876.186-7.91-.988-12.293-1.332a.82.82,0,0,0-1.009.57" transform="translate(-690.803 -136.965)" fill="none" stroke="#000" stroke-miterlimit="10" stroke-width="1"/>
    <path id="Path_17266" data-name="Path 17266" d="M858.891,419.113c4.116-.337,7.824-.958,11.644-1.024a.821.821,0,0,0,.826-.814,1.035,1.035,0,0,0-.007-.109" transform="translate(-698.154 -339.095)" fill="none" stroke="#000" stroke-miterlimit="10" stroke-width="1"/>
    <path id="Path_17267" data-name="Path 17267" d="M1251.139,273.092c-1.965.411-2.222,9.843.221,10.364,3.9-.856,4.867-8.379-.221-10.364" transform="translate(-1015.741 -221.984)" fill="none" stroke="#000" stroke-miterlimit="10" stroke-width="1"/>
  </g>
</svg>
