<?xml version="1.0" encoding="utf-8"?>
<!-- Generator: Adobe Illustrator 27.9.0, SVG Export Plug-In . SVG Version: 6.00 Build 0)  -->
<svg version="1.1" id="Layer_1" xmlns="http://www.w3.org/2000/svg" xmlns:xlink="http://www.w3.org/1999/xlink" x="0px" y="0px"
	 viewBox="0 0 29.7 29.7" style="enable-background:new 0 0 29.7 29.7;" xml:space="preserve">
<style type="text/css">
	.st0{fill:#191717;}
	.st1{clip-path:url(#SVGID_00000115475960741435893200000006180702733761305277_);}
	.st2{fill:#FFFFFF;}
</style>
<circle class="st0" cx="14.9" cy="14.9" r="14.9"/>
<g>
	<defs>
		<rect id="SVGID_1_" x="8.6" y="9.3" width="12.4" height="10.6"/>
	</defs>
	<clipPath id="SVGID_00000120552849836376605970000009095018433620646069_">
		<use xlink:href="#SVGID_1_"  style="overflow:visible;"/>
	</clipPath>
	<g style="clip-path:url(#SVGID_00000120552849836376605970000009095018433620646069_);">
		<g id="Group_14521-2">
			<path id="Path_17234" class="st2" d="M8.6,19.2v-7.1c0.2-0.5,0.7-0.8,1.2-0.8c0.8,0,1.7,0,2.5,0c0.2,0,0.3-0.1,0.4-0.3
				c0.1-0.3,0.2-0.6,0.4-0.9c0.1-0.5,0.6-0.9,1.2-0.8h1.9c0.5,0,1,0.3,1.1,0.8c0.1,0.3,0.3,0.6,0.4,1c0,0.2,0.2,0.3,0.3,0.2
				c0.6,0,1.2,0,1.8,0c0.6-0.1,1.1,0.3,1.2,0.9c0,0.1,0,0.2,0,0.3v6.2c0.1,0.5-0.3,1.1-0.8,1.2c-0.1,0-0.2,0-0.3,0
				c-3.3,0-6.7,0-10,0C9.3,20,8.8,19.7,8.6,19.2 M18.4,15.6c0-2-1.6-3.6-3.6-3.6s-3.6,1.6-3.6,3.6c0,2,1.6,3.6,3.6,3.6
				S18.4,17.6,18.4,15.6C18.4,15.6,18.4,15.6,18.4,15.6 M19.4,13.3c0.5,0,0.7-0.2,0.7-0.5s-0.2-0.5-0.7-0.5s-0.7,0.2-0.7,0.5
				S19,13.3,19.4,13.3"/>
			<path id="Path_17235" class="st2" d="M11.5,11.1H9.8c0-0.3,0.2-0.5,0.5-0.5c0.2,0,0.5,0,0.7,0C11.3,10.6,11.5,10.8,11.5,11.1
				C11.5,11.1,11.5,11.1,11.5,11.1"/>
			<path id="Path_17236" class="st2" d="M14.8,13.6V13l1.2,0.9l-1.2,0.9l0-0.6c-0.8,0-1.4,0.6-1.4,1.4c0,0.2,0.1,0.4,0.1,0.6
				c0,0.1,0.1,0.2,0.1,0.2c0,0.1,0,0.3,0,0.4c-0.1,0.1-0.3,0-0.4-0.1c-0.4-0.5-0.5-1.1-0.3-1.6c0.2-0.8,0.8-1.4,1.6-1.5L14.8,13.6"
				/>
			<path id="Path_17237" class="st2" d="M14.9,16.5v0.6c0.5,0,0.9-0.3,1.2-0.7c0.3-0.4,0.3-1,0-1.5c-0.1-0.2-0.3-0.4,0-0.6
				c0.3-0.2,0.4,0.1,0.5,0.3c0.5,0.9,0.2,2.2-0.7,2.7c-0.2,0.1-0.4,0.2-0.7,0.2c-0.1,0-0.2,0-0.3,0v0.6l-1.2-0.9L14.9,16.5"/>
		</g>
	</g>
</g>
<g>
	<path class="st2" d="M4.4,23.1l0.9-1.9l-0.5-0.6l-1.5,1.2L2.7,21l3.8-3.2l1.1,1.4c0.7,0.9,0.8,1.8,0,2.4c-0.5,0.4-1,0.5-1.6,0.2
		l-1,2.1L4.4,23.1L4.4,23.1z M5.9,20.5c0.4,0.5,0.7,0.6,1.1,0.3c0.4-0.3,0.3-0.7-0.1-1.1l-0.4-0.5l-1,0.8C5.5,20,5.9,20.5,5.9,20.5z
		"/>
	<path class="st2" d="M9,25.8C8.6,26,8.1,26,7.5,25.6c-0.9-0.6-1-1.4-0.5-2.2L7.3,23c0.6-0.9,1.3-1.1,2.1-0.6c0.9,0.5,1,1.3,0.4,2.2
		l-0.2,0.4l-1.8-1.1c-0.2,0.4-0.3,0.8,0.1,1.1c0.3,0.2,0.5,0.2,0.7,0.1L9,25.8L9,25.8z M8.1,23.3l1,0.6C9.3,23.5,9.3,23.2,9,23
		C8.7,22.9,8.4,23,8.1,23.3L8.1,23.3z"/>
	<path class="st2" d="M10.7,24.4l1.8,0.5l-0.2,0.8l-1.8-0.5L10.7,24.4z"/>
	<path class="st2" d="M16.5,22.6l0,0.9l-1.4,0L15,27.6l-1,0l0.1-4.1l-1.4,0l0-0.9L16.5,22.6L16.5,22.6z"/>
	<path class="st2" d="M18,25l0.7-0.2l-0.1-0.2c-0.1-0.4-0.3-0.5-0.8-0.3c-0.3,0.1-0.5,0.2-0.6,0.5l-0.8-0.3c0.1-0.5,0.5-0.8,1.2-1
		c0.9-0.2,1.5-0.1,1.8,0.9l0.6,2.3l-0.9,0.2l-0.1-0.3c-0.1,0.3-0.2,0.5-0.6,0.6c-0.7,0.2-1.3,0-1.5-0.8C16.8,25.7,17.2,25.2,18,25
		L18,25z M18.8,25.5l-0.6,0.2c-0.4,0.1-0.5,0.3-0.4,0.5c0.1,0.3,0.3,0.3,0.6,0.2c0.4-0.1,0.5-0.3,0.4-0.8
		C18.9,25.6,18.8,25.5,18.8,25.5z"/>
	<path class="st2" d="M22.2,21.3L22,23.2l2.4,0.9l-0.9,0.6l-1.6-0.6l0,0.4l0.6,0.9L21.7,26l-2.8-4.1l0.8-0.5l1.5,2.2l0.1-1.6
		L22.2,21.3L22.2,21.3z"/>
	<path class="st2" d="M26.6,20.7c0.2,0.5,0.1,0.9-0.4,1.4c-0.7,0.8-1.5,0.8-2.3,0.2L23.6,22c-0.9-0.7-0.9-1.4-0.3-2.2
		c0.6-0.8,1.4-0.8,2.2-0.1l0.3,0.3l-1.3,1.6c0.4,0.3,0.8,0.4,1.1,0c0.2-0.3,0.2-0.5,0.2-0.7L26.6,20.7L26.6,20.7z M24,21.2l0.7-0.9
		c-0.4-0.3-0.6-0.2-0.9,0C23.6,20.7,23.7,21,24,21.2z"/>
</g>
</svg>
