<svg xmlns="http://www.w3.org/2000/svg" xmlns:xlink="http://www.w3.org/1999/xlink" width="133.29" height="146.56" viewBox="0 0 133.29 146.56">
  <defs>
    <clipPath id="clip-path">
      <rect id="Rectangle_85583" data-name="Rectangle 85583" width="133.29" height="146.56" fill="#fff"/>
    </clipPath>
  </defs>
  <g id="Dog" clip-path="url(#clip-path)">
    <path id="Path_16737" data-name="Path 16737" d="M56.86,79.88l-3.24,8.38L50.38,101.1l.81,18.24,2.43,9.86,4.19,10.41-5.54-1.76-2.3-.81H43.89l-4.86,3.65-1.22,4.87H65.78l-1.62-4.19.14-3.65,1.08-2.97,3.24-1.76,5.41-.68,4.46.27,3.24.81,5.13,2.84,5.41,3.65,5.13,6.08,23.52.27-2.3-5.95-4.87-2.29-6.48.81-4.19,1.35-7.97-9.05-4.06-6.08,4.73-4.06,5.04-4.03-3.34-2.15L92,116.93l-4.28.71-4.37-11.41-1.66-8.15,2.26-3.05,2.55-5.22,1.19-6.49L87.39,79l-1.38-5.21L83.16,67.2l1.97-6.69,21.04-25.86L97,25.43l-5.81-4.6-3.92-2.97-5-3.24-4.46-2.17L73.49,10.7,53.76,12.81l-1.57,4.53-.4,4.92,1.38,6.39,3.14,6,4.34,5.64,6.21,5.81,5.78,3.59L70.48,55.2l-2.67,6.58-5.13,6.48Z" fill="#fff"/>
    <path id="Path_16738" data-name="Path 16738" d="M65.04,5.32c-.11,1.33-2.02,2.25-4.25,2.06s-3.96-1.42-3.85-2.75,2.02-2.25,4.25-2.06S65.15,3.99,65.04,5.32Z" fill="#8ed8f8"/>
    <path id="Path_16739" data-name="Path 16739" d="M65.55,54.25l25.56,8.56-2.96,6.77L64.12,59.73Z" fill="#ed1c24"/>
    <path id="Path_16740" data-name="Path 16740" d="M68.95,58.44a.99.99,0,1,1-.99-.99A.986.986,0,0,1,68.95,58.44Z" fill="#fff200"/>
    <path id="Path_16741" data-name="Path 16741" d="M74.59,60.35a1.22,1.22,0,1,1-1.22-1.22A1.225,1.225,0,0,1,74.59,60.35Z" fill="#fff200"/>
    <path id="Path_16742" data-name="Path 16742" d="M80.76,62.56a1.37,1.37,0,1,1-1.37-1.37A1.372,1.372,0,0,1,80.76,62.56Z" fill="#fff200"/>
    <path id="Path_16743" data-name="Path 16743" d="M87.39,64.92a1.6,1.6,0,1,1-1.6-1.6A1.6,1.6,0,0,1,87.39,64.92Z" fill="#fff200"/>
    <path id="Path_16744" data-name="Path 16744" d="M74.16,28.55a1.08,1.08,0,1,1-1.08-1.08A1.076,1.076,0,0,1,74.16,28.55Z" fill="#fad5e5"/>
    <path id="Path_16745" data-name="Path 16745" d="M70.53,23.46a.97.97,0,1,1-.97-.97A.98.98,0,0,1,70.53,23.46Z" fill="#fad5e5"/>
    <path id="Path_16746" data-name="Path 16746" d="M68.91,29.25a1.135,1.135,0,1,1-1.13-1.14A1.137,1.137,0,0,1,68.91,29.25Z" fill="#fad5e5"/>
    <path id="Path_16747" data-name="Path 16747" d="M71.93,101.97c-1.28,12.21-5.85,21.74-10.22,21.28s-6.88-10.73-5.6-22.94,5.85-21.74,10.23-21.28,6.88,10.73,5.6,22.94Z" fill="#fbd9e8"/>
    <path id="Path_16748" data-name="Path 16748" d="M28.88,38.48,66.25,63.56l-3.94,6.78L24.65,39.37l2.95.29Z" fill="#fff"/>
    <path id="Path_16749" data-name="Path 16749" d="M25.57,19.2l.58,20.14,1.29.13,1.04-.84.97-1.36L28.8,21.78l-.65-1.93-1.03-.58Z" fill="#d3bd8b"/>
    <path id="Path_16750" data-name="Path 16750" d="M29.32,25.27l6.28-.84L35.55,34.5l-6.17-.2Z" fill="#d3bd8b"/>
    <path id="Path_16751" data-name="Path 16751" d="M23.77,19.07l-1.42-2.26-3.81.97-.58,2.78Z" fill="#d3bd8b"/>
    <path id="Path_16752" data-name="Path 16752" d="M27.9,19.46v-2l-.97-1.03-1.29-.78-1.36.13-.71.58-.64,1.1,1.09,2,2.59-.39Z" fill="#fff"/>
    <path id="Path_16753" data-name="Path 16753" d="M17.96,20.56l7.55-1.55.64,20.33-13.1-1.1s-1.22-.77-1.22-.97-.65-6.39-.65-6.39l.13-5.61,1.61-3.94Z" fill="#0083b4"/>
    <path id="Path_16754" data-name="Path 16754" d="M20.57,28.41v2.07l-3.17.18-.11-1.79Z" fill="#fff"/>
    <path id="Path_16755" data-name="Path 16755" d="M35.5,26.8l-6.14.43-.08,1.29,6.32-.21Z" fill="#fff"/>
    <path id="Path_16756" data-name="Path 16756" d="M51.08,30.6l-6.87-3.88,5.41-5.7L43.07,21l2.12-9.43L38.1,18.66l-5.39-6.95-.33,7.83-2.95-.43,1.71,4.2.92-.22-.76-2.14,1.94.13.63-5.39,4.4,4.74,4.8-4.68-1.14,6.17,4.74.4-3.88,4.86,5.03,3.31-4.98,1.55,3.38,4.97-5.09-1.6-.8,4.91-3.6-3.08-2.46,1.48-.52-2.81-.6-.1.52,4.41,2.66-1.78,4.97,5.2.69-6.52,7.71,2.12-5.03-6.52Z" fill="#ffcb05"/>
    <path id="Path_16757" data-name="Path 16757" d="M62.24,4.61c-.05.45-.9.73-1.89.62s-1.76-.56-1.71-1.01.89-.73,1.89-.62,1.76.56,1.71,1.02Z" fill="#fff"/>
    <path id="Path_16758" data-name="Path 16758" d="M35.32,23.09l-5.81,1.27V22.44a4.643,4.643,0,0,0-1.49-3.43,2.48,2.48,0,0,0-2-.56s-.73.12-1.85.32l-1.59-2.5-.33.07-5.87,1.21-1.21,2.76-2.72.46c-1.26.21-2.15,1.9-2.07,3.91l.41,10.5c.08,2.02,1.09,3.62,2.36,3.74l13.71,1.26a2.483,2.483,0,0,0,1.95-.71,4.632,4.632,0,0,0,1.22-3.53l-.04-.95,5.67.55s2.67-6.43-.35-12.45Zm-4,2.36.32,8.4H29.81l-.31-8.12,1.82-.27Zm3.47,8.46-2.64-.06-.33-8.47,2.69-.41c1.61,3.93.27,8.94.27,8.94ZM17.19,18.59c.24-.05,1.75-.36,3.05-.63l.89,1.52c-1.54.26-3.22.55-4.68.8.29-.65.64-1.46.74-1.68Zm4.8,19.96c-3.84-.35-8.56-.79-8.56-.79-.42-.04-.89-.56-1.18-1.34l9.68.65Zm-.07-1.72-9.75-.66A4.213,4.213,0,0,1,11.98,35l-.4-10.29v-.14l9.82-1.34Zm-.54-13.84-9.8,1.34c.05-1.36.65-2.38,1.23-2.48l8.47-1.45Zm-.63-5.15c.66-.14,1.2-.25,1.38-.29.18.28.67,1.05.99,1.57-.46.08-.96.16-1.48.25l-.9-1.53Zm1.58,5.33c.27-.01.62-.02.74-.03,0,.23.52,13.41.53,13.64-.12,0-.47.02-.74.03Zm3.46,8.2c-.23,0-.95.04-1.12.04,0-.21-.11-2.79-.12-3,.17,0,.94-.04,1.14-.04l.09,3Zm-.1-3.24-1.26.05h-.12l.13,3.48,1.35-.05.23,7.31c-.71-.07-1.82-.17-3.09-.29l-.06-1.58.97-.04-.55-14.12h-.12l-.85.04-.1-2.69,3.21-.55Zm3.25,7.69a3.628,3.628,0,0,1-.91,2.74,1.485,1.485,0,0,1-1.17.44s-.22-.02-.6-.06l-.59-19.29.44-.08a1.486,1.486,0,0,1,1.2.35,3.614,3.614,0,0,1,1.11,2.66l.51,13.23Z" fill="#0a0203"/>
    <path id="Path_16759" data-name="Path 16759" d="M17.88,23.14l-.07-1.68-2.79.48.11,1.54Z" fill="#0a0203"/>
    <path id="Path_16760" data-name="Path 16760" d="M20.7,28.3h-.13l-3.36.37.08,2.14,3.5-.09Zm-.15,2.19c-.21,0-2.81.08-3.02.08,0-.19-.06-1.5-.06-1.68.2-.02,2.79-.3,3.01-.32,0,.21.07,1.72.08,1.92Z" fill="#0a0203"/>
    <path id="Path_16761" data-name="Path 16761" d="M66.03,7.07c7.36,1.32,16.34,6.14,23.79,11.57a114.218,114.218,0,0,1,17.36,15.98L85.81,60.9l-1.75-.48L105.03,34.6A108.379,108.379,0,0,0,88.76,20.09C76.98,11.7,62.54,4.76,56.22,11.19,50.84,16.67,52.5,28,58.09,36.01S73.54,49,73.54,49l-2.55,7.44-1.43-.8,2.11-6.18S61.84,45.14,56.12,36.9c-5.7-8.2-7.39-20.59-1.53-27.19L66.03,7.06Z" fill="#0a0203"/>
    <path id="Path_16762" data-name="Path 16762" d="M69.4,5.73C66.11,2.55,60.99.75,57.22,2.22c-3.6,1.41-5.27,5.85-4.25,9.44,1.17,4.1,5.35,7.29,5.35,7.29s1.49-3.3,4.43-3.49c3.62-.24,7.88,3.14,10.35.17,1.39-1.67-.25-6.56-3.71-9.9Zm-5.03-.25c-.17,1.03-1.84,1.61-3.71,1.29s-3.25-1.42-3.07-2.45,1.84-1.61,3.71-1.29S64.55,4.45,64.37,5.48Z" fill="#0a0203"/>
    <path id="Path_16763" data-name="Path 16763" d="M106.19,33.99s14.24-9.93,20.84-5.42c7.2,4.93,7.78,15.35,3.82,16.6s-4.51-7.5-10-10.91-13.89.42-13.89.42l-.76-.7Z" fill="#0a0203"/>
    <path id="Path_16764" data-name="Path 16764" d="M105.7,33.22s10.56-5.97,11.95-14.1-8.8-24.73-12.3-17.23c-2.86,6.13,4.17,9.66,4.66,18.27s-5.14,12.36-5.14,12.36Z" fill="#0a0203"/>
    <path id="Path_16765" data-name="Path 16765" d="M68.46,23.49a1.1,1.1,0,1,0,1.1-1.1A1.1,1.1,0,0,0,68.46,23.49Zm.24,0a.865.865,0,1,1,.86.87A.869.869,0,0,1,68.7,23.49Z" fill="#0a0203"/>
    <path id="Path_16766" data-name="Path 16766" d="M71.86,28.51a1.2,1.2,0,1,0,1.2-1.19A1.195,1.195,0,0,0,71.86,28.51Zm.24,0a.955.955,0,1,1,.96.96A.96.96,0,0,1,72.1,28.51Z" fill="#0a0203"/>
    <path id="Path_16767" data-name="Path 16767" d="M66.58,29.23a1.193,1.193,0,0,0,1.19,1.19,1.19,1.19,0,1,0,0-2.38A1.193,1.193,0,0,0,66.58,29.23Zm.24,0a.955.955,0,1,1,.95.96A.958.958,0,0,1,66.82,29.23Z" fill="#0a0203"/>
    <path id="Path_16768" data-name="Path 16768" d="M94.52,46.85c-.96-.54-2.32.05-3.04,1.32s-.53,2.74.43,3.29a.939.939,0,0,0,.15.06l3.21-3.71a1.669,1.669,0,0,0-.75-.95Z" fill="#0a0203"/>
    <path id="Path_16769" data-name="Path 16769" d="M98.81,40.44c-.57.86-1.47,1.26-2.01.91s-.52-1.34.05-2.2,1.47-1.26,2.01-.91.51,1.34-.06,2.2Z" fill="#0a0203"/>
    <path id="Path_16770" data-name="Path 16770" d="M65.38,53.33l-1.96,6.73L88.58,70.81l3.93-8.22L65.37,53.33ZM87.72,68.78,64.91,59.2l1.25-4.07,23.83,8.25Z" fill="#0a0203"/>
    <path id="Path_16771" data-name="Path 16771" d="M115.323,142.044l-.884.348,1.241,3.155.884-.348Z" fill="#0a0203"/>
    <path id="Path_16772" data-name="Path 16772" d="M111.958,142.047l-.884.347,1.24,3.155.884-.347Z" fill="#0a0203"/>
    <path id="Path_16773" data-name="Path 16773" d="M108.6,142.058l-.884.348,1.242,3.155.884-.348Z" fill="#0a0203"/>
    <path id="Path_16774" data-name="Path 16774" d="M44.212,142.054l-1.241,3.155.884.347L45.1,142.4Z" fill="#0a0203"/>
    <path id="Path_16775" data-name="Path 16775" d="M47.572,142.057l-1.241,3.155.884.348,1.241-3.155Z" fill="#0a0203"/>
    <path id="Path_16776" data-name="Path 16776" d="M50.933,142.057l-1.24,3.155.884.348,1.24-3.156Z" fill="#0a0203"/>
    <path id="Path_16777" data-name="Path 16777" d="M87.37,116.16c12.52.9,17.14-10.92,17.14-10.92,1.43,14.01-14.21,19.37-14.21,19.37l-.63-2.01c12.53-3.45,13.99-13.95,13.99-13.95a17.589,17.589,0,0,1-14.79,9.32Z" fill="#0a0203"/>
    <path id="Path_16778" data-name="Path 16778" d="M96.41,115.63c-.32,2.81,3.05,1.94,3.05,1.94l2.63-3.86,1.63-3.41.21-2.5-3.58,4.4-3.95,3.43Z" fill="#0a0203"/>
    <path id="Path_16779" data-name="Path 16779" d="M78.51,101.06c0,1.69-.68,3.05-1.52,3.05s-1.53-1.36-1.53-3.05.68-3.05,1.53-3.05S78.51,99.38,78.51,101.06Z" fill="#0a0203"/>
    <path id="Path_16780" data-name="Path 16780" d="M78.53,91.61c0,1.37-.61,2.47-1.36,2.47s-1.36-1.11-1.36-2.47.61-2.47,1.36-2.47S78.53,90.25,78.53,91.61Z" fill="#0a0203"/>
    <path id="Path_16781" data-name="Path 16781" d="M89.27,132.57c.5.68.6,1.45.22,1.73s-1.08-.06-1.58-.73-.6-1.45-.22-1.73S88.77,131.89,89.27,132.57Z" fill="#0a0203"/>
    <path id="Path_16782" data-name="Path 16782" d="M79.9,119.3c.31,1.7-.14,3.2-1.01,3.36s-1.83-1.09-2.14-2.78.14-3.2,1.01-3.37S79.59,117.6,79.9,119.3Z" fill="#0a0203"/>
    <path id="Path_16783" data-name="Path 16783" d="M87.69,124.64c.93,1.61,1.05,3.27.29,3.71s-2.14-.5-3.06-2.11-1.05-3.27-.29-3.71S86.76,123.03,87.69,124.64Z" fill="#0a0203"/>
    <path id="Path_16784" data-name="Path 16784" d="M85.55,110.33c.57,2.38-.2,4.6-1.71,4.96s-3.2-1.27-3.77-3.64.2-4.59,1.71-4.96S84.98,107.96,85.55,110.33Z" fill="#0a0203"/>
    <path id="Path_16785" data-name="Path 16785" d="M95.36,132.02c.68,1.1.68,2.33.01,2.75s-1.76-.15-2.44-1.25-.68-2.33-.01-2.75,1.76.15,2.45,1.25Z" fill="#0a0203"/>
    <path id="Path_16786" data-name="Path 16786" d="M88.25,28.65c3.58,3.04,5.21-1.06,5.21-1.06l-.34-.28c-2.23,3.95-5.34-.25-5.34-.25l-1,.55a8.712,8.712,0,0,0,5.81,6.66l.12-.42a7.32,7.32,0,0,1-4.46-5.21Z" fill="#0a0203"/>
    <path id="Path_16787" data-name="Path 16787" d="M79.53,22.58c3.4,2.89,4.95-1.01,4.95-1.01l-.32-.26c-2.12,3.75-5.07-.23-5.07-.23l-.96.52a8.277,8.277,0,0,0,5.52,6.33l.12-.4a6.991,6.991,0,0,1-4.24-4.94Z" fill="#0a0203"/>
    <path id="Path_16788" data-name="Path 16788" d="M99.48,19.81a5.212,5.212,0,0,1,.45,5.57l.45.23a5.473,5.473,0,0,0,1.21-6.63Z" fill="#0a0203"/>
    <path id="Path_16789" data-name="Path 16789" d="M90.61,14.61a5.214,5.214,0,0,0-5.59-.09l-.25-.44a5.462,5.462,0,0,1,6.53-1.64l-.69,2.16Z" fill="#0a0203"/>
    <path id="Path_16790" data-name="Path 16790" d="M88.48,36.23a7.169,7.169,0,0,0,6.33,5.12l-.68,1.66c-5.88-1.58-6.48-6.55-6.48-6.55Z" fill="#0a0203"/>
    <path id="Path_16791" data-name="Path 16791" d="M78.54,44.82a14.452,14.452,0,0,1-13.04-8.4l-.65.21a14.452,14.452,0,0,0,25.76,2.9l-.6-.5a14.3,14.3,0,0,1-11.46,5.79Z" fill="#0a0203"/>
    <path id="Path_16792" data-name="Path 16792" d="M73.04,44.52s3.14,11.77,9.62,11.16,6.73-14.7,6.73-14.7l-1.28.6s-.38,12.88-5.65,13.18-8.29-9.87-8.29-9.87l-1.13-.38Z" fill="#0a0203"/>
    <path id="Path_16793" data-name="Path 16793" d="M83.57,44.68l.45,9.87.34-.02-.46-9.87Z" fill="#0a0203"/>
    <path id="Path_16794" data-name="Path 16794" d="M78.859,45.617l-.325.057,1.584,9.113.325-.056Z" fill="#0a0203"/>
    <path id="Path_16795" data-name="Path 16795" d="M75.87,49.86l-.09.32c.08.02,7.68,2.08,12.44-2.75l-.24-.23c-4.62,4.69-12.04,2.69-12.11,2.67Z" fill="#0a0203"/>
    <path id="Path_16796" data-name="Path 16796" d="M107.45,112.11c-1.05,6.01-6.03,10.3-6.03,10.3,6.01-2.88,7.11-9.98,7.11-9.98Z" fill="#0a0203"/>
    <path id="Path_16797" data-name="Path 16797" d="M99.15,102.84c-.73,6.06-5.48,10.6-5.48,10.6,5.85-3.18,6.58-10.34,6.58-10.34Z" fill="#0a0203"/>
    <path id="Path_16798" data-name="Path 16798" d="M103.62,123.98a11.345,11.345,0,0,0,5.54-5.98l.81.46A9.64,9.64,0,0,1,103.62,123.98Z" fill="#0a0203"/>
    <path id="Path_16799" data-name="Path 16799" d="M91.63,112.32a11.4,11.4,0,0,0,2.86-7.64l.93.12a9.627,9.627,0,0,1-3.78,7.52Z" fill="#0a0203"/>
    <path id="Path_16800" data-name="Path 16800" d="M103.44,139.65S80.78,118.11,81.11,82.47l-1.42-.16c-1.06,38.24,23.47,58.74,23.47,58.74,14-6.32,16.1,3.86,16.1,3.86l-21.03.27s-10.54-16.92-29.94-13.04c-9.32,1.86-3.46,13.17-3.46,13.17l-25.42-.53c2.11-12,19.7-3.86,19.7-3.86-20.76-45.25,9.51-79.24,9.51-79.24l-1.75-.77S35.06,96.7,56.63,138.44c0,0-17.15-9.18-20.25,8.11H67.54s-7.79-11.62,4.26-13.06c15.49-1.85,25.13,13.06,25.13,13.06h25.3s-2-15.53-18.78-6.91Z" fill="#0a0203"/>
    <path id="Path_16801" data-name="Path 16801" d="M84.46,68.24c9.83,16.85-2.81,31.54-2.81,31.54l-.51-2.04c10.98-14.17,1.79-29.62,1.79-29.62l1.53.13Z" fill="#0a0203"/>
    <path id="Path_16802" data-name="Path 16802" d="M86.62,89.54c-.3,1.95-1.23,3.43-2.06,3.3s-1.27-1.82-.96-3.77,1.23-3.43,2.06-3.3S86.93,87.59,86.62,89.54Z" fill="#0a0203"/>
    <path id="Path_16803" data-name="Path 16803" d="M85.23,78.83c0,1.13-.46,2.04-1.02,2.04s-1.02-.91-1.02-2.04.46-2.04,1.02-2.04S85.23,77.7,85.23,78.83Z" fill="#0a0203"/>
    <path id="Path_16804" data-name="Path 16804" d="M14.67,12.04c-2.21.09-3.92,2.62-3.8,5.67s2.01,5.45,4.22,5.36,3.92-2.62,3.8-5.67-2.01-5.45-4.23-5.36Z" fill="#0a0203"/>
    <path id="Path_16805" data-name="Path 16805" d="M7.64,18.47c-1.75,1.03-2.18,3.56-.94,5.66s3.65,2.97,5.4,1.94,2.18-3.56.95-5.66-3.65-2.97-5.4-1.94Z" fill="#0a0203"/>
    <path id="Path_16806" data-name="Path 16806" d="M9.15,24.91c-2.33-.26-4.39,1.11-4.62,3.07s1.48,3.76,3.81,4.03,4.39-1.11,4.62-3.07S11.48,25.18,9.15,24.91Z" fill="#0a0203"/>
    <path id="Path_16807" data-name="Path 16807" d="M23.21,18.15a2.435,2.435,0,0,1,2.93-1.72,2.349,2.349,0,0,1,1.05,2.9l1.04.58a3.535,3.535,0,0,0-1.65-4.56,3.515,3.515,0,0,0-4.28,2.01l.8,1.17c.04-.12.07-.25.12-.37Z" fill="#0a0203"/>
    <path id="Path_16808" data-name="Path 16808" d="M15.14,21.62c-1.48.06-2.75-1.74-2.84-4.02s1.04-4.17,2.52-4.23,2.75,1.75,2.84,4.02S16.62,21.56,15.14,21.62Z" fill="#fff"/>
    <path id="Path_16809" data-name="Path 16809" d="M11.43,24.92c-1.12.66-2.72,0-3.57-1.46s-.65-3.18.47-3.83,2.72,0,3.57,1.46S12.55,24.27,11.43,24.92Z" fill="#fff"/>
    <path id="Path_16810" data-name="Path 16810" d="M8.49,30.72c-1.62-.18-2.82-1.35-2.68-2.61s1.57-2.12,3.2-1.94,2.82,1.35,2.68,2.61S10.12,30.9,8.5,30.72Z" fill="#fff"/>
    <path id="Path_16811" data-name="Path 16811" d="M66.3,62.62,28.88,37.89l-.86.96,37.1,25.37Z" fill="#0a0203"/>
    <path id="Path_16812" data-name="Path 16812" d="M62.25,68.91,24.83,39.27l-2.21.08L61.09,70.74Z" fill="#0a0203"/>
    <path id="Path_16813" data-name="Path 16813" d="M58.47,64.58c-.38.72-1.87.69-3.32-.08s-2.31-1.98-1.92-2.7,1.87-.69,3.31.08S58.85,63.86,58.47,64.58Z" fill="#0a0203"/>
    <path id="Path_16814" data-name="Path 16814" d="M52.21,57.83c-.2.47-.97.6-1.73.29s-1.21-.96-1.01-1.43.97-.6,1.72-.28,1.21.95,1.01,1.42Z" fill="#0a0203"/>
    <path id="Path_16815" data-name="Path 16815" d="M21.9,24.89l-7.5.52-1.96,2.13" fill="none" stroke="#0a0203" stroke-width="0.24"/>
    <path id="Path_16816" data-name="Path 16816" d="M20.81,31.5a.25.25,0,1,1-.25-.25A.248.248,0,0,1,20.81,31.5Z" fill="#0a0203"/>
    <path id="Path_16817" data-name="Path 16817" d="M19.91,31.53a.25.25,0,0,1-.5,0,.25.25,0,0,1,.5,0Z" fill="#0a0203"/>
    <path id="Path_16818" data-name="Path 16818" d="M18.94,31.55a.25.25,0,1,1-.25-.25A.248.248,0,0,1,18.94,31.55Z" fill="#0a0203"/>
    <path id="Path_16819" data-name="Path 16819" d="M18.02,31.57a.25.25,0,1,1-.25-.25A.248.248,0,0,1,18.02,31.57Z" fill="#0a0203"/>
    <path id="Path_16820" data-name="Path 16820" d="M14.32,38.6C11.91,50.89,2.37,57.25.38,54.81c-1.26-1.55,6.05-3.9,9.64-9.27a26.691,26.691,0,0,0,3.2-7.06" fill="none" stroke="#231f20" stroke-width="0.47"/>
  </g>
</svg>
