<svg xmlns="http://www.w3.org/2000/svg" width="46.939" height="51.22" viewBox="0 0 46.939 51.22">
  <g id="Group_14605" data-name="Group 14605" transform="translate(-2331 994.115)">
    <path id="Path_17286" data-name="Path 17286" d="M46.939,23.969a7,7,0,0,0-6.991-6.991H28.962V6.993a3.995,3.995,0,0,0-7.99,0V25.482a15.826,15.826,0,0,0-3.995-.514H11.984A4.993,4.993,0,0,0,7.02,30.5a5.112,5.112,0,0,0,5.148,4.45c3.609.03,6.334.939,8.1,2.7l3.7,3.7v2.587a1.006,1.006,0,0,0,1,1l18.975,0a1,1,0,0,0,1-1V41.326a8.49,8.49,0,0,0,2-5.373Zm-2,11.967a6.565,6.565,0,0,1-1.729,4.328,1,1,0,0,0-.269.682v2l-16.978,0v-2a1,1,0,0,0-.293-.706l-3.995-3.995c-2.147-2.147-5.342-3.255-9.495-3.289a3.118,3.118,0,0,1-3.178-2.664,3,3,0,0,1,2.977-3.329h4.994a13.953,13.953,0,0,1,4.661.808,1,1,0,0,0,1.332-.942V6.993a2,2,0,0,1,3.995,0V17.977a1,1,0,0,0,1,1H39.948a5,5,0,0,1,4.994,4.994ZM9.987,12.987V6.995a1,1,0,0,1,2,0v3.581L17.271,5.29A1,1,0,0,1,18.683,6.7L13.4,11.988h3.581a1,1,0,1,1,0,2H10.986A1,1,0,0,1,9.987,12.987Zm-3,8.988V18.394L1.7,23.68A1,1,0,0,1,.293,22.268l5.286-5.286H2a1,1,0,1,1,0-2H7.99a1,1,0,0,1,1,1v5.992a1,1,0,0,1-2,0Z" transform="translate(2331 -994)" fill="#fff"/>
    <line id="Line_555" data-name="Line 555" x2="39" y2="49.99" transform="translate(2337.5 -993.5)" fill="none" stroke="#fff" stroke-width="2"/>
  </g>
</svg>
