<svg xmlns="http://www.w3.org/2000/svg" width="26" height="24" viewBox="0 0 26 24">
  <g id="Group_3474" data-name="Group 3474" transform="translate(-1662 -335)">
    <rect id="Rectangle_1584" data-name="Rectangle 1584" width="26" height="24" rx="5" transform="translate(1662 335)" fill="#ededee" opacity="0.5"/>
    <g id="Group_3119" data-name="Group 3119" transform="translate(362.297 -117.643)">
      <path id="Path_3952" data-name="Path 3952" d="M1318,461.486h.67a1.194,1.194,0,0,1,1.194,1.194v9.632a1.194,1.194,0,0,1-1.194,1.194H1306.73a1.194,1.194,0,0,1-1.194-1.194V462.68a1.194,1.194,0,0,1,1.194-1.194h8.774" transform="translate(0 -2.2)" fill="none" stroke="#4b4b5a" stroke-linecap="round" stroke-linejoin="round" stroke-width="1"/>
      <g id="Group_2963" data-name="Group 2963" transform="translate(1309.643 457.83)">
        <line id="Line_27" data-name="Line 27" x2="0.002" y2="2.998" transform="translate(6.115)" fill="none" stroke="#4b4b5a" stroke-linecap="round" stroke-linejoin="round" stroke-width="1"/>
        <line id="Line_28" data-name="Line 28" x1="0.002" y2="2.998" transform="translate(0 0)" fill="none" stroke="#4b4b5a" stroke-linecap="round" stroke-linejoin="round" stroke-width="1"/>
      </g>
      <g id="Group_2968" data-name="Group 2968" transform="translate(1309.643 464.428)">
        <g id="Group_2964" data-name="Group 2964" transform="translate(0 0)">
          <path id="Path_3953" data-name="Path 3953" d="M1315.853,474.428" transform="translate(-1315.853 -474.419)" fill="none" stroke="#4b4b5a" stroke-linecap="round" stroke-linejoin="round" stroke-width="1"/>
          <line id="Line_29" data-name="Line 29" y1="0.018" fill="none" stroke="#4b4b5a" stroke-linecap="round" stroke-linejoin="round" stroke-width="1"/>
          <path id="Path_3954" data-name="Path 3954" d="M1315.853,482.23" transform="translate(-1315.853 -479.115)" fill="none" stroke="#4b4b5a" stroke-linecap="round" stroke-linejoin="round" stroke-width="1"/>
          <line id="Line_30" data-name="Line 30" y1="0.018" transform="translate(0 3.106)" fill="none" stroke="#4b4b5a" stroke-linecap="round" stroke-linejoin="round" stroke-width="1"/>
        </g>
        <g id="Group_2966" data-name="Group 2966" transform="translate(3.049 0)">
          <g id="Group_2965" data-name="Group 2965">
            <path id="Path_3955" data-name="Path 3955" d="M1323.536,474.428" transform="translate(-1323.527 -474.419)" fill="none" stroke="#4b4b5a" stroke-linecap="round" stroke-linejoin="round" stroke-width="1"/>
            <line id="Line_31" data-name="Line 31" x1="0.019" y1="0.018" fill="none" stroke="#4b4b5a" stroke-linecap="round" stroke-linejoin="round" stroke-width="1"/>
            <path id="Path_3956" data-name="Path 3956" d="M1323.536,482.23" transform="translate(-1323.527 -479.115)" fill="none" stroke="#4b4b5a" stroke-linecap="round" stroke-linejoin="round" stroke-width="1"/>
            <line id="Line_32" data-name="Line 32" x1="0.019" y1="0.018" transform="translate(0 3.106)" fill="none" stroke="#4b4b5a" stroke-linecap="round" stroke-linejoin="round" stroke-width="1"/>
          </g>
          <path id="Path_3957" data-name="Path 3957" d="M1323.536,474.428" transform="translate(-1323.527 -474.419)" fill="none" stroke="#4b4b5a" stroke-linecap="round" stroke-linejoin="round" stroke-width="1"/>
          <path id="Path_3958" data-name="Path 3958" d="M1323.536,482.23" transform="translate(-1323.527 -479.115)" fill="none" stroke="#4b4b5a" stroke-linecap="round" stroke-linejoin="round" stroke-width="1"/>
        </g>
        <g id="Group_2967" data-name="Group 2967" transform="translate(6.117 0)">
          <line id="Line_33" data-name="Line 33" y1="0.018" fill="none" stroke="#4b4b5a" stroke-linecap="round" stroke-linejoin="round" stroke-width="1"/>
          <line id="Line_34" data-name="Line 34" y1="0.018" transform="translate(0 3.106)" fill="none" stroke="#4b4b5a" stroke-linecap="round" stroke-linejoin="round" stroke-width="1"/>
        </g>
      </g>
    </g>
  </g>
</svg>
