<svg xmlns="http://www.w3.org/2000/svg" width="37.873" height="49.721" viewBox="0 0 37.873 49.721">
  <g id="file" transform="translate(-61)">
    <path id="Path_17041" data-name="Path 17041" d="M91.91,7.371,87.22,0H65.37A4.364,4.364,0,0,0,61,4.37V45.351a4.364,4.364,0,0,0,4.37,4.37H94.5a4.364,4.364,0,0,0,4.37-4.37v-33.7Z" fill="#cae8f9"/>
    <path id="Path_17042" data-name="Path 17042" d="M274.937,11.653v33.7a4.364,4.364,0,0,1-4.37,4.37H256V0h7.283l4.69,7.371Z" transform="translate(-176.063)" fill="#b7e0f6"/>
    <path id="Path_17043" data-name="Path 17043" d="M331,0h0V10.2a1.443,1.443,0,0,0,1.457,1.457h10.2Z" transform="translate(-243.78)" fill="#57555c"/>
    <path id="Path_17044" data-name="Path 17044" d="M122.377,329.133a5.827,5.827,0,0,1-4.12-9.948l1.935-1.935a5.969,5.969,0,0,1,8.236,0,5.828,5.828,0,0,1,0,8.245l-1.935,1.935A5.786,5.786,0,0,1,122.377,329.133Zm1.935-10.675a2.91,2.91,0,0,0-2.063.854l-1.932,1.933a2.916,2.916,0,0,0,0,4.123,2.982,2.982,0,0,0,4.12,0l1.935-1.935a2.911,2.911,0,0,0-2.06-4.973Z" transform="translate(-50.155 -284.952)" fill="#1689fc"/>
    <path id="Path_17045" data-name="Path 17045" d="M262.255,189.241a5.827,5.827,0,0,1-4.12-9.948l1.935-1.935a5.966,5.966,0,0,1,8.242,0,5.83,5.83,0,0,1,0,8.241l-1.935,1.935A5.787,5.787,0,0,1,262.255,189.241Zm1.935-10.676a2.9,2.9,0,0,0-2.06.854l-1.935,1.935a2.914,2.914,0,0,0,0,4.121,2.982,2.982,0,0,0,4.12,0l1.935-1.935a2.913,2.913,0,0,0-2.06-4.975Z" transform="translate(-176.45 -158.644)" fill="#136ef1"/>
    <path id="Path_17046" data-name="Path 17046" d="M186.529,258.354a1.457,1.457,0,0,1-1.03-2.487l10.862-10.862a1.457,1.457,0,0,1,2.06,2.06l-10.862,10.862A1.452,1.452,0,0,1,186.529,258.354Z" transform="translate(-112.024 -220.827)" fill="#17ace8"/>
    <path id="Path_17047" data-name="Path 17047" d="M256,253.526l6.461-6.461a1.457,1.457,0,0,0-2.06-2.06l-4.4,4.4Z" transform="translate(-176.063 -220.827)" fill="#1689fc"/>
  </g>
</svg>
