<svg xmlns="http://www.w3.org/2000/svg" width="215.915" height="152.008" viewBox="0 0 215.915 152.008">
  <g id="Group_14690" data-name="Group 14690" transform="translate(709.795 214.953)">
    <g id="Group_14547" data-name="Group 14547" transform="translate(-637.802 -80.711)">
      <g id="Group_14527" data-name="Group 14527" transform="translate(17.836 3.406)">
        <path id="Path_17037" data-name="Path 17037" d="M1489.154,2551.945a6.286,6.286,0,0,0-.247,2.758,6.955,6.955,0,0,0,2.135,3.949c2.326,2.225,5.993,3.292,8.838,1.871a6.614,6.614,0,0,0,3.15-3.469,7.13,7.13,0,0,0,.276-4.375A7.689,7.689,0,0,0,1501,2548.9a7.95,7.95,0,0,0-4.04-1.927,7.048,7.048,0,0,0-4.276.644,7.126,7.126,0,0,0-3.025,3.1A7.59,7.59,0,0,0,1489.154,2551.945Z" transform="translate(-1488.85 -2546.885)" fill="#f26a5c"/>
      </g>
      <g id="Group_14529" data-name="Group 14529" transform="translate(23.113 3.336)">
        <g id="Group_14528" data-name="Group 14528">
          <path id="Path_17038" data-name="Path 17038" d="M1533.57,2560.255a11.163,11.163,0,0,0,1.762-13.833.256.256,0,0,0-.442.258,10.645,10.645,0,0,1-1.682,13.213c-.241.225.121.586.362.362Z" transform="translate(-1533.129 -2546.299)" fill="#3c3544"/>
        </g>
      </g>
      <g id="Group_14531" data-name="Group 14531" transform="translate(24.343 3.505)">
        <g id="Group_14530" data-name="Group 14530">
          <path id="Path_17039" data-name="Path 17039" d="M1543.876,2561.9a12.4,12.4,0,0,0,1.826-14.052c-.146-.294-.588-.036-.442.258a11.872,11.872,0,0,1-1.746,13.432c-.225.24.136.6.362.362Z" transform="translate(-1543.443 -2547.719)" fill="#3c3544"/>
        </g>
      </g>
      <g id="Group_14533" data-name="Group 14533" transform="translate(29.184 13.346)">
        <g id="Group_14532" data-name="Group 14532">
          <path id="Path_17040" data-name="Path 17040" d="M1585.488,2630.4a5.591,5.591,0,0,1-1.353,1.6.258.258,0,0,0,0,.362.262.262,0,0,0,.362,0,6.075,6.075,0,0,0,1.433-1.7.256.256,0,0,0-.442-.258Z" transform="translate(-1584.061 -2630.277)" fill="#3c3544"/>
        </g>
      </g>
      <g id="Group_14535" data-name="Group 14535" transform="translate(28.092 15.563)">
        <g id="Group_14534" data-name="Group 14534">
          <path id="Path_17041" data-name="Path 17041" d="M1575.2,2648.917l-.174.1a.189.189,0,0,0-.072.066.264.264,0,0,0-.02.284l.04.052a.256.256,0,0,0,.113.066l.068.009a.253.253,0,0,0,.129-.035l.174-.1a.264.264,0,0,0,.092-.35l-.04-.052a.256.256,0,0,0-.113-.066l-.068-.009a.255.255,0,0,0-.129.035Z" transform="translate(-1574.898 -2648.882)" fill="#3c3544"/>
        </g>
      </g>
      <g id="Group_14537" data-name="Group 14537" transform="translate(16.28 6.892)">
        <g id="Group_14536" data-name="Group 14536">
          <path id="Path_17042" data-name="Path 17042" d="M1477.163,2579.322a.755.755,0,0,1-.749-.476,1.959,1.959,0,0,1-.048-1.158,3.983,3.983,0,0,1,.178-.637.486.486,0,0,1,.252-.326,2.122,2.122,0,0,1,.563-.046l.7-.035c.328-.016.33-.528,0-.511l-.847.042a1.535,1.535,0,0,0-.739.141,1.07,1.07,0,0,0-.4.556,3.964,3.964,0,0,0-.215.8,2.261,2.261,0,0,0,.168,1.523,1.236,1.236,0,0,0,1.144.64.263.263,0,0,0,.256-.256.257.257,0,0,0-.256-.256Z" transform="translate(-1475.797 -2576.132)" fill="#3c3544"/>
        </g>
      </g>
      <g id="Group_14539" data-name="Group 14539" transform="translate(0 5.384)">
        <g id="Group_14538" data-name="Group 14538">
          <path id="Path_17043" data-name="Path 17043" d="M1355.625,2567.17a30.729,30.729,0,0,1-8.295.757,31.066,31.066,0,0,1-4.165-.468,7.122,7.122,0,0,1-3.509-1.34l-.249.427c5.3.894,10.842,2.118,16.181.845a.257.257,0,0,0-.068-.5,31.618,31.618,0,0,1-7.481-1q-1.721-.411-3.423-.9a8.294,8.294,0,0,1-3.091-1.441l-.249.427,7.117,1.866,3.451.905a16.8,16.8,0,0,0,3.452.666c.329.016.328-.5,0-.511a17.218,17.218,0,0,1-3.532-.7l-3.451-.9-6.9-1.81c-.231-.06-.454.257-.249.427a8.027,8.027,0,0,0,2.788,1.414c1.229.386,2.486.7,3.738,1.007a32.64,32.64,0,0,0,7.831,1.065l-.068-.5c-5.245,1.251-10.7.033-15.909-.845-.226-.038-.462.243-.249.427a6.815,6.815,0,0,0,3.228,1.375,31.819,31.819,0,0,0,4.383.56,31.25,31.25,0,0,0,8.855-.754c.321-.074.185-.567-.136-.493Z" transform="translate(-1339.212 -2563.48)" fill="#3c3544"/>
        </g>
      </g>
      <g id="Group_14541" data-name="Group 14541" transform="translate(3.122 1.142)">
        <g id="Group_14540" data-name="Group 14540">
          <path id="Path_17044" data-name="Path 17044" d="M1378.677,2535.333a45.476,45.476,0,0,1-6.98-3.021c-2.083-1.12-4.385-2.345-5.8-4.3l-.289.375a9.655,9.655,0,0,1,3.338,1.794c1.041.675,2.074,1.362,3.119,2.03a39.1,39.1,0,0,0,6.4,3.43c.305.124.438-.371.136-.493a39.849,39.849,0,0,1-6.611-3.6c-1.015-.653-2.02-1.322-3.034-1.977a9.092,9.092,0,0,0-3.207-1.682c-.193-.03-.435.175-.289.376,1.438,1.984,3.69,3.237,5.8,4.385a46.207,46.207,0,0,0,7.285,3.171c.313.105.447-.388.136-.493Z" transform="translate(-1365.408 -2527.891)" fill="#3c3544"/>
        </g>
      </g>
      <g id="Group_14543" data-name="Group 14543" transform="translate(7.111 0)">
        <g id="Group_14542" data-name="Group 14542">
          <path id="Path_17045" data-name="Path 17045" d="M1408.349,2526.468a51.239,51.239,0,0,1-5.093-3.664c-1.468-1.2-3.15-2.5-3.875-4.314l-.376.289a10.586,10.586,0,0,1,2.3,1.843l2.356,2.249,2.291,2.186a8.4,8.4,0,0,0,2.16,1.76c.3.135.558-.306.258-.442a8.9,8.9,0,0,1-2.252-1.868l-2.356-2.248-2.291-2.186a10.093,10.093,0,0,0-2.206-1.736c-.177-.093-.464.066-.376.289.747,1.868,2.366,3.188,3.878,4.434a52.287,52.287,0,0,0,5.325,3.85c.279.176.536-.266.258-.442Z" transform="translate(-1398.871 -2518.31)" fill="#3c3544"/>
        </g>
      </g>
      <g id="Group_14544" data-name="Group 14544" transform="translate(19.488 8.206)">
        <path id="Path_17046" data-name="Path 17046" d="M1502.748,2587.917c.247-.788,1.69-1,3.222-.462s2.575,1.6,2.328,2.393-1.689,1-3.222.462S1502.5,2588.706,1502.748,2587.917Z" transform="translate(-1502.712 -2587.16)" fill="#3c3544"/>
      </g>
      <g id="Group_14545" data-name="Group 14545" transform="translate(21.01 5.285)">
        <path id="Path_17047" data-name="Path 17047" d="M1515.486,2563.463c.052-.587,1.008-.936,2.136-.779s2,.761,1.949,1.349-1.008.936-2.136.779S1515.434,2564.051,1515.486,2563.463Z" transform="translate(-1515.484 -2562.646)" fill="#3c3544"/>
      </g>
      <g id="Group_14546" data-name="Group 14546" transform="translate(19.861 11.906)">
        <path id="Path_17048" data-name="Path 17048" d="M1505.958,2618.457c.35-.465,1.385-.286,2.311.4s1.393,1.619,1.042,2.084-1.385.286-2.311-.4S1505.607,2618.922,1505.958,2618.457Z" transform="translate(-1505.841 -2618.198)" fill="#3c3544"/>
      </g>
    </g>
    <g id="Group_14621" data-name="Group 14621" transform="translate(-632.415 -214.953)">
      <g id="Group_14617" data-name="Group 14617" transform="translate(7.515 0)">
        <g id="Group_14584" data-name="Group 14584">
          <g id="Group_14566" data-name="Group 14566" transform="translate(0 10.737)">
            <path id="Path_17054" data-name="Path 17054" d="M1510.445,1503.637s.765-6.2,2.366-8.15a20.423,20.423,0,0,1,5-3.78l13.054-2.061,18.277-.186s12.319-.944,17.042-2.882a38.681,38.681,0,0,0,8.011-4.454s.437,10.119.8,12.293,1.933,9.291-.342,12.112-4.446.582-5.382,1.631-2.425,3.917-4.033,3.574-3.42-1.512-4.659.028-2.239,3.079-5.061,2.51-2.7-.942-3.383-.229-2.324,2.342-3.523,1.574-4.433-3.612-5.023-3.553-.064.808-.064.808l3.121,9.773s5.734,18.936,4.2,29.791a56.173,56.173,0,0,1-5.784,18.293s-6.172,9.592-6.88,13.918-.994,8.417-.994,8.417l1.073,4.128s2.205-2.28,3.816-1.258-1.221,4.085-2.912,4.776a2.394,2.394,0,0,1-3.461-1.214c-.7-1.374-3.461-9.854-3.461-9.854s-1.676-7.422-2.713-9.253a7.67,7.67,0,0,0-1.472-2.132s-10.552,9.321-13.97,9.911c0,0-1.078,7.484-2.13,8.7,0,0,3.147-1.419,4.44.251s-1.7,3.027-1.7,3.027-7.275,1.076-9.753.568-17.951-.609-21.6-6.062c0,0-4.234-3.213-5.295-10.645s-1.336-10.045-1.336-10.045-9.66,10.431-15.883.551c0,0-7.8,3.95-11.731-2.965,0,0-2.571-6.06,1.547-10.185,0,0-6.648-4.558-.754-11.932,0,0-5.33-9.143,3.979-16.242,0,0,1.836,17.285,5.219,23.263s5.585,8.181,5.585,8.181,9.037,8.79,12.237,8.318c0,0-.674-6.9,7.978-13.9s20.1-17.576,20.12-17.755,6.808-8.812,7.8-15.361S1510.445,1503.637,1510.445,1503.637Z" transform="translate(-1447.458 -1482.125)" fill="#ecae6d"/>
          </g>
          <g id="Group_14583" data-name="Group 14583" transform="translate(29.457)">
            <g id="Group_14568" data-name="Group 14568" transform="translate(53.629 33.729)">
              <g id="Group_14567" data-name="Group 14567">
                <path id="Path_17055" data-name="Path 17055" d="M2188.963,1675.206a4.3,4.3,0,0,1-2.037,2.28c-1.044.461-1.971-.251-3.014-.053-1.443.273-2,1.907-2.824,2.924a2.222,2.222,0,0,1-2.244.911,17.77,17.77,0,0,0-2.841-.62c-1.727-.012-2.583,1.52-3.652,2.612a2.211,2.211,0,0,1-2.26.761,13.773,13.773,0,0,0-2.658-.848,2.614,2.614,0,0,0-2.106,1.123,3.982,3.982,0,0,1-.958.913,1.847,1.847,0,0,1-1.737-.035c-1.823-.87-2.727-2.961-4.762-3.512a2.222,2.222,0,0,0-2.219.517,5.556,5.556,0,0,0-1.011,1.88c-.352.857-.779,1.574-1.787,1.045a3.7,3.7,0,0,0-1.239-.542,1.662,1.662,0,0,0-1.211.427,2.58,2.58,0,0,1-3.2-.169,7.976,7.976,0,0,1-2.053-3.11c-.182-.394-.763-.052-.583.34.836,1.81,1.935,3.856,4.146,4.092a2.838,2.838,0,0,0,1.26-.137c.481-.173.905-.735,1.411-.782.447-.042.873.345,1.251.531a1.833,1.833,0,0,0,1.108.221c1.537-.244,1.466-2.4,2.378-3.32.814-.82,2.017-.276,2.813.28.917.641,1.572,1.572,2.459,2.251a3.429,3.429,0,0,0,2.549.875c.993-.161,1.5-.957,2.158-1.623.864-.88,1.8-.547,2.813-.129a3.584,3.584,0,0,0,2.591.337c1.569-.556,2.105-2.4,3.55-3.116,1.009-.5,2.122.025,3.123.28a3.214,3.214,0,0,0,2.474-.162,5.429,5.429,0,0,0,1.65-1.873c.422-.653.929-1.576,1.785-1.693a9.41,9.41,0,0,1,1.784.27,2.992,2.992,0,0,0,1.533-.354,4.985,4.985,0,0,0,2.137-2.453c.174-.393-.407-.737-.583-.34Z" transform="translate(-2144.537 -1675.03)" fill="#3c3544"/>
              </g>
            </g>
            <g id="Group_14569" data-name="Group 14569" transform="translate(27.653 26.868)">
              <path id="Path_17056" data-name="Path 17056" d="M1926.928,1632.853c.938-4.634,3.781-8.629,6.674-12.37a7.905,7.905,0,0,1,3.254-2.868,2.7,2.7,0,0,1,3.389,1.729l2.369,6.781a6.527,6.527,0,0,1,.474,2.037,21.153,21.153,0,0,1-.431,2.605,22.379,22.379,0,0,0,.4,4.13c.1,1.383-.3,3-1.557,3.585-.4.186-.846.251-1.232.458-1.732.931-1.227,3.964-2.945,4.921-1.36.758-3.256-.33-4.553.532-.4.263-.676.68-1.086.92a2.045,2.045,0,0,1-2.2-.264,4.854,4.854,0,0,1-1.351-1.9A16.794,16.794,0,0,1,1926.928,1632.853Z" transform="translate(-1926.602 -1617.466)" fill="#3c3544"/>
            </g>
            <g id="Group_14570" data-name="Group 14570" transform="translate(50.267 20.99)">
              <path id="Path_17057" data-name="Path 17057" d="M2116.334,1570.188a2.04,2.04,0,1,0,2.04-2.04A2.04,2.04,0,0,0,2116.334,1570.188Z" transform="translate(-2116.334 -1568.148)" fill="#3c3544"/>
            </g>
            <g id="Group_14571" data-name="Group 14571" transform="translate(95.767)">
              <path id="Path_17058" data-name="Path 17058" d="M2499.152,1403.987s8.667-7.416,2.5-11.3S2499.152,1403.987,2499.152,1403.987Z" transform="translate(-2498.072 -1392.047)" fill="#3c3544"/>
            </g>
            <g id="Group_14572" data-name="Group 14572" transform="translate(34.279 47.959)">
              <path id="Path_17059" data-name="Path 17059" d="M2019.418,1794.414a56.209,56.209,0,0,1-34.4,3.212l-2.819.189v4.724s20.407,5.857,38.735-2.457Z" transform="translate(-1982.194 -1794.414)" fill="#3c3544"/>
            </g>
            <g id="Group_14574" data-name="Group 14574" transform="translate(44.99 94.541)">
              <g id="Group_14573" data-name="Group 14573">
                <path id="Path_17060" data-name="Path 17060" d="M2088.406,2217.09a5.055,5.055,0,0,1,1.747-1.8c.642-.313,1.692-.29,2.031.456.4.88-.446,1.855-.99,2.469a6.6,6.6,0,0,1-1.875,1.6c-1.825.921-3.028-.751-3.716-2.223a30.15,30.15,0,0,1-1.688-4.75c-.9-3.254-1.471-6.595-2.521-9.807a24.423,24.423,0,0,0-1.888-4.408,31.061,31.061,0,0,0-2.672-3.811c-2.031-2.6-4.6-5.614-4.034-9.162.068-.425-.582-.608-.651-.179-.563,3.509,1.585,6.448,3.623,9.07a36.148,36.148,0,0,1,3.194,4.5,25.782,25.782,0,0,1,2.151,5.389c1.094,3.773,1.684,7.687,3.031,11.387.557,1.53,1.19,3.43,2.562,4.427,1.53,1.111,3.239.192,4.41-.97,1.045-1.036,2.967-3.39,1-4.556-1.792-1.062-3.37.7-4.3,2.028-.249.357.336.694.583.34Z" transform="translate(-2072.059 -2185.228)" fill="#3c3544"/>
              </g>
            </g>
            <g id="Group_14576" data-name="Group 14576" transform="translate(16.98 97.016)">
              <g id="Group_14575" data-name="Group 14575">
                <path id="Path_17061" data-name="Path 17061" d="M1849.218,2206.563a24.778,24.778,0,0,1,7.457,21.346,22.9,22.9,0,0,1-1.843,6.375c-.107.234.077.614.381.5a5.3,5.3,0,0,1,2.888-.576,1.7,1.7,0,0,1,1.484,1.526c-.028,1.45-2.185,1.869-3.287,1.969a66.923,66.923,0,0,1-11.925,0,67.958,67.958,0,0,1-6.894-.969c-.424-.082-.606.568-.179.65a68.86,68.86,0,0,0,14.122,1.245q1.845-.03,3.687-.16a12.653,12.653,0,0,0,2.742-.374c1.266-.378,2.747-1.336,2.349-2.874a2.454,2.454,0,0,0-1.77-1.631,5.48,5.48,0,0,0-3.4.539l.381.5a25.466,25.466,0,0,0-1.413-23.206,23.6,23.6,0,0,0-4.306-5.333c-.319-.294-.8.182-.477.477Z" transform="translate(-1837.056 -2205.993)" fill="#3c3544"/>
              </g>
            </g>
            <g id="Group_14577" data-name="Group 14577" transform="translate(58.04 59.91)">
              <path id="Path_17062" data-name="Path 17062" d="M2181.544,1900.069c0,2.811,3.283,5.385,6.094,5.385a5.09,5.09,0,0,0,5.09-5.09c0-2.811-2.279-5.68-5.09-5.68S2181.544,1897.258,2181.544,1900.069Z" transform="translate(-2181.544 -1894.684)" fill="#3c3544"/>
            </g>
            <g id="Group_14578" data-name="Group 14578" transform="translate(43.182 63.595)">
              <path id="Path_17063" data-name="Path 17063" d="M2056.886,1929.14c0,1.957,1,5.073,2.954,5.073s5.011-3.116,5.011-5.073-2.466-3.543-4.422-3.543A3.543,3.543,0,0,0,2056.886,1929.14Z" transform="translate(-2056.886 -1925.597)" fill="#3c3544"/>
            </g>
            <g id="Group_14579" data-name="Group 14579" transform="translate(45.31 71.976)">
              <path id="Path_17064" data-name="Path 17064" d="M2074.74,2002.566c0,3.672,2.165,8.35,5.837,8.35s8.476-4.678,8.476-8.35-3.992-6.648-7.664-6.648A6.648,6.648,0,0,0,2074.74,2002.566Z" transform="translate(-2074.74 -1995.918)" fill="#3c3544"/>
            </g>
            <g id="Group_14580" data-name="Group 14580" transform="translate(0 96.408)">
              <path id="Path_17065" data-name="Path 17065" d="M1694.6,2207.54c0,3.672,2.165,8.35,5.837,8.35s8.476-4.678,8.476-8.35-3.992-6.648-7.664-6.648A6.648,6.648,0,0,0,1694.6,2207.54Z" transform="translate(-1694.6 -2200.891)" fill="#3c3544"/>
            </g>
            <g id="Group_14581" data-name="Group 14581" transform="translate(31.793 66.429)">
              <path id="Path_17066" data-name="Path 17066" d="M1961.336,1953.627a2.692,2.692,0,0,0,2.692,2.692c1.487,0,4.14-1.205,4.14-2.692s-2.653-4.251-4.14-4.251S1961.336,1952.141,1961.336,1953.627Z" transform="translate(-1961.336 -1949.376)" fill="#3c3544"/>
            </g>
            <g id="Group_14582" data-name="Group 14582" transform="translate(19.924 81.593)">
              <path id="Path_17067" data-name="Path 17067" d="M1861.757,2081.978a4.391,4.391,0,0,0,4.39,4.391c2.425,0,5.666-1.966,5.666-4.391s-3.241-5.382-5.666-5.382S1861.757,2079.553,1861.757,2081.978Z" transform="translate(-1861.757 -2076.596)" fill="#3c3544"/>
            </g>
          </g>
        </g>
        <g id="Group_14586" data-name="Group 14586" transform="translate(96.374 93.626)">
          <g id="Group_14585" data-name="Group 14585">
            <path id="Path_17068" data-name="Path 17068" d="M2257.526,2177.656a3.34,3.34,0,0,0-.715,1.333c-.036.105-.073.211-.113.314-.012.031-.024.063-.037.093.018-.043-.005.011-.012.027-.023.051-.048.1-.074.151a1.555,1.555,0,0,1-.457.546.339.339,0,0,0,0,.477.346.346,0,0,0,.477,0,2.738,2.738,0,0,0,.823-1.3c.037-.1.072-.21.109-.315.02-.058.041-.115.063-.172l.03-.077c.039-.1-.013.029.011-.027a1.81,1.81,0,0,1,.372-.57.338.338,0,0,0-.477-.477Z" transform="translate(-2256.02 -2177.556)" fill="#3c3544"/>
          </g>
        </g>
        <g id="Group_14588" data-name="Group 14588" transform="translate(98.135 89.403)">
          <g id="Group_14587" data-name="Group 14587">
            <path id="Path_17069" data-name="Path 17069" d="M2271.5,2142.465c0,.078,0,.155-.009.232,0,.015-.019.138-.005.054-.006.038-.012.076-.02.114a2.727,2.727,0,0,1-.132.444q-.022.054,0,0l-.024.053c-.017.035-.033.07-.051.1q-.053.1-.116.2c-.021.033-.042.065-.064.1-.007.011-.08.108-.033.048-.048.061-.1.119-.151.176a.337.337,0,0,0,.478.477,2.942,2.942,0,0,0,.8-2,.337.337,0,0,0-.675,0Z" transform="translate(-2270.798 -2142.128)" fill="#3c3544"/>
          </g>
        </g>
        <g id="Group_14590" data-name="Group 14590" transform="translate(96.375 91.163)">
          <g id="Group_14589" data-name="Group 14589">
            <path id="Path_17070" data-name="Path 17070" d="M2256.378,2157.23a1.435,1.435,0,0,1,0,.375l.012-.09a1.172,1.172,0,0,1-.076.28l.034-.081a1.218,1.218,0,0,1-.158.267l.053-.069a1.536,1.536,0,0,1-.121.134.337.337,0,0,0,.477.477,1.534,1.534,0,0,0,.451-1.294.372.372,0,0,0-.1-.238.337.337,0,0,0-.477,0,.321.321,0,0,0-.1.238Z" transform="translate(-2256.028 -2156.893)" fill="#3c3544"/>
          </g>
        </g>
        <g id="Group_14592" data-name="Group 14592" transform="translate(94.613 94.332)">
          <g id="Group_14591" data-name="Group 14591">
            <path id="Path_17071" data-name="Path 17071" d="M2241.768,2183.522a1.27,1.27,0,0,0-.387.431,1.242,1.242,0,0,0-.132.564.349.349,0,0,0,.1.238.337.337,0,0,0,.576-.238,1.075,1.075,0,0,1,.008-.137c0,.03-.008.06-.012.09a.85.85,0,0,1,.058-.212l-.034.081a.84.84,0,0,1,.105-.179l-.053.068a1.018,1.018,0,0,1,.172-.169l-.068.053.009-.007a.378.378,0,0,0,.155-.2.346.346,0,0,0-.034-.26.341.341,0,0,0-.2-.155.323.323,0,0,0-.26.034Z" transform="translate(-2241.249 -2183.476)" fill="#3c3544"/>
          </g>
        </g>
        <g id="Group_14594" data-name="Group 14594" transform="translate(93.205 98.555)">
          <g id="Group_14593" data-name="Group 14593">
            <path id="Path_17072" data-name="Path 17072" d="M2229.79,2219.246c0,.055-.009.109-.016.164,0-.03.008-.06.012-.09a2.2,2.2,0,0,1-.146.537l.034-.081a2.328,2.328,0,0,1-.189.355.34.34,0,0,0,.121.462.345.345,0,0,0,.461-.121,2.562,2.562,0,0,0,.4-1.226.339.339,0,0,0-.337-.337.345.345,0,0,0-.337.337Z" transform="translate(-2229.438 -2218.909)" fill="#3c3544"/>
          </g>
        </g>
        <g id="Group_14596" data-name="Group 14596" transform="translate(62.237 111.581)">
          <g id="Group_14595" data-name="Group 14595">
            <path id="Path_17073" data-name="Path 17073" d="M1970.64,2330.99a12.978,12.978,0,0,0,.034-1.318,2.12,2.12,0,0,0-.2-.675,1.8,1.8,0,0,1-.2-.561.34.34,0,0,0-.415-.236.346.346,0,0,0-.235.415,2.162,2.162,0,0,0,.219.62c.021.045.043.091.064.137a.756.756,0,0,1,.037.095,1.332,1.332,0,0,1,.042.148c.005.024.01.049.014.074,0-.029,0-.022,0,.021.031.428-.042.853-.038,1.28a.337.337,0,0,0,.675,0Z" transform="translate(-1969.621 -2328.191)" fill="#3c3544"/>
          </g>
        </g>
        <g id="Group_14598" data-name="Group 14598" transform="translate(62.936 108.761)">
          <g id="Group_14597" data-name="Group 14597">
            <path id="Path_17074" data-name="Path 17074" d="M1976.506,2306.285a2.313,2.313,0,0,0-.133-.8c-.078-.233-.172-.461-.231-.7a.337.337,0,0,0-.65.179c.057.232.147.453.224.679a2.811,2.811,0,0,1,.092.327c.006.03.011.061.017.091s0,.031,0-.02c0,.016,0,.031,0,.047a1.723,1.723,0,0,1,0,.195.34.34,0,0,0,.337.337.344.344,0,0,0,.337-.337Z" transform="translate(-1975.481 -2304.539)" fill="#3c3544"/>
          </g>
        </g>
        <g id="Group_14600" data-name="Group 14600" transform="translate(60.467 104.891)">
          <g id="Group_14599" data-name="Group 14599">
            <path id="Path_17075" data-name="Path 17075" d="M1956.053,2273.22a3.456,3.456,0,0,1-.269-.307l.053.068a3.386,3.386,0,0,1-.428-.732l.034.081-.007-.017a.373.373,0,0,0-.155-.2.345.345,0,0,0-.26-.034.341.341,0,0,0-.2.155.323.323,0,0,0-.034.26,3.594,3.594,0,0,0,.791,1.2.337.337,0,0,0,.477-.477Z" transform="translate(-1954.77 -2272.065)" fill="#3c3544"/>
          </g>
        </g>
        <g id="Group_14602" data-name="Group 14602" transform="translate(60.121 107.708)">
          <g id="Group_14601" data-name="Group 14601">
            <path id="Path_17076" data-name="Path 17076" d="M1953.229,2297.006a3.607,3.607,0,0,0-.791-1.2.337.337,0,0,0-.477.477,3.515,3.515,0,0,1,.269.307l-.053-.068a3.391,3.391,0,0,1,.428.732l-.034-.081.007.017a.373.373,0,0,0,.155.2.337.337,0,0,0,.461-.121.324.324,0,0,0,.034-.26Z" transform="translate(-1951.865 -2295.704)" fill="#3c3544"/>
          </g>
        </g>
        <g id="Group_14604" data-name="Group 14604" transform="translate(60.822 116.155)">
          <g id="Group_14603" data-name="Group 14603">
            <path id="Path_17077" data-name="Path 17077" d="M1958.77,2367.614a1.241,1.241,0,0,0-.132-.564,1.275,1.275,0,0,0-.387-.431.338.338,0,0,0-.26-.034.345.345,0,0,0-.2.155.34.34,0,0,0-.034.26l.034.081a.339.339,0,0,0,.121.121l.009.007-.068-.053a1.009,1.009,0,0,1,.172.169l-.053-.068a.838.838,0,0,1,.105.179l-.034-.081a.857.857,0,0,1,.057.212c0-.03-.008-.06-.012-.09a1.074,1.074,0,0,1,.008.137.346.346,0,0,0,.1.239.337.337,0,0,0,.576-.239Z" transform="translate(-1957.743 -2366.573)" fill="#3c3544"/>
          </g>
        </g>
        <g id="Group_14606" data-name="Group 14606" transform="translate(60.475 36.609)">
          <g id="Group_14605" data-name="Group 14605">
            <path id="Path_17078" data-name="Path 17078" d="M1955.543,1699.434c-.142.734-.553,1.381-.7,2.112a.337.337,0,1,0,.651.179c.151-.731.562-1.378.7-2.112a.337.337,0,0,0-.651-.18Z" transform="translate(-1954.832 -1699.19)" fill="#ece1d7"/>
          </g>
        </g>
        <g id="Group_14608" data-name="Group 14608" transform="translate(62.936 33.087)">
          <g id="Group_14607" data-name="Group 14607">
            <path id="Path_17079" data-name="Path 17079" d="M1976.2,1669.886l-.007.017.034-.081a3.387,3.387,0,0,1-.428.733l.053-.068a3.549,3.549,0,0,1-.269.307.337.337,0,0,0,.477.477,3.6,3.6,0,0,0,.791-1.2.337.337,0,0,0-.034-.26.344.344,0,0,0-.2-.155.34.34,0,0,0-.26.034l-.068.053a.336.336,0,0,0-.087.149Z" transform="translate(-1975.482 -1669.64)" fill="#ece1d7"/>
          </g>
        </g>
        <g id="Group_14610" data-name="Group 14610" transform="translate(62.911 36.253)">
          <g id="Group_14609" data-name="Group 14609">
            <path id="Path_17080" data-name="Path 17080" d="M1976.1,1696.306a2.452,2.452,0,0,0-.637.692,1.465,1.465,0,0,0-.153,1.044.34.34,0,0,0,.415.236.345.345,0,0,0,.236-.415c0-.019-.008-.037-.011-.055-.011-.067.01,0,0,.014.009-.013-.006-.085-.006-.1s0-.068,0-.1,0,.019-.005.031c0-.019.006-.039.01-.058a1.289,1.289,0,0,1,.052-.175c.014-.039-.034.072-.008.019l.021-.043c.015-.029.03-.057.047-.084s.031-.049.048-.073l.029-.04c.024-.034-.048.059-.01.014s.087-.1.134-.149a3.274,3.274,0,0,1,.312-.274.337.337,0,0,0,.1-.239.343.343,0,0,0-.1-.239.338.338,0,0,0-.239-.1.394.394,0,0,0-.239.1Z" transform="translate(-1975.276 -1696.207)" fill="#ece1d7"/>
          </g>
        </g>
        <g id="Group_14612" data-name="Group 14612" transform="translate(65.75 33.79)">
          <g id="Group_14611" data-name="Group 14611">
            <path id="Path_17081" data-name="Path 17081" d="M1999.613,1675.586a1.274,1.274,0,0,0-.387.431,1.239,1.239,0,0,0-.132.564.347.347,0,0,0,.1.238.337.337,0,0,0,.576-.238,1.075,1.075,0,0,1,.008-.137l-.012.09a.849.849,0,0,1,.057-.212l-.034.081a.833.833,0,0,1,.105-.179l-.053.068a1,1,0,0,1,.172-.169l-.068.053.009-.007a.379.379,0,0,0,.155-.2.345.345,0,0,0-.034-.26.341.341,0,0,0-.2-.155.326.326,0,0,0-.26.034Z" transform="translate(-1999.094 -1675.541)" fill="#ece1d7"/>
          </g>
        </g>
        <g id="Group_14614" data-name="Group 14614" transform="translate(63.993 38.717)">
          <g id="Group_14613" data-name="Group 14613">
            <path id="Path_17082" data-name="Path 17082" d="M1984.7,1717.215a1.642,1.642,0,0,1,0,.194c0,.016,0,.031-.005.047.007-.051.008-.058,0-.02s-.01.06-.017.091a2.836,2.836,0,0,1-.093.328c-.077.226-.167.446-.224.679a.337.337,0,1,0,.651.179c.059-.239.153-.467.231-.7a2.31,2.31,0,0,0,.133-.8.337.337,0,1,0-.675,0Z" transform="translate(-1984.347 -1716.878)" fill="#ece1d7"/>
          </g>
        </g>
        <g id="Group_14616" data-name="Group 14616" transform="translate(61.526 41.533)">
          <g id="Group_14615" data-name="Group 14615">
            <path id="Path_17083" data-name="Path 17083" d="M1963.656,1740.84v1.056a.337.337,0,1,0,.675,0v-1.056a.337.337,0,1,0-.675,0Z" transform="translate(-1963.656 -1740.503)" fill="#ece1d7"/>
          </g>
        </g>
      </g>
      <g id="Group_14618" data-name="Group 14618" transform="translate(3.383 70.343)">
        <path id="Path_17084" data-name="Path 17084" d="M1414.9,1991.071a.337.337,0,0,1-.264-.127,8.223,8.223,0,0,1-1.123-8.546.337.337,0,0,1,.6.31,7.409,7.409,0,0,0,1.052,7.816.337.337,0,0,1-.264.548Z" transform="translate(-1412.793 -1982.216)" fill="#3c3544"/>
      </g>
      <g id="Group_14619" data-name="Group 14619" transform="translate(15.906 60.891)">
        <path id="Path_17085" data-name="Path 17085" d="M1519.589,1911.721a.345.345,0,0,1-.123-.023.338.338,0,0,1-.192-.437,7.511,7.511,0,0,0-1.317-7.774.337.337,0,0,1,.48-.474,8.223,8.223,0,0,1,1.466,8.494A.338.338,0,0,1,1519.589,1911.721Z" transform="translate(-1517.859 -1902.913)" fill="#3c3544"/>
      </g>
      <g id="Group_14620" data-name="Group 14620" transform="translate(0 75.176)">
        <path id="Path_17086" data-name="Path 17086" d="M1386.434,2027.2a.335.335,0,0,1-.2-.062,4.192,4.192,0,0,1-1.779-4.1.337.337,0,0,1,.661.132,3.522,3.522,0,0,0,1.508,3.42.337.337,0,0,1-.2.612Z" transform="translate(-1384.41 -2022.766)" fill="#3c3544"/>
      </g>
    </g>
    <g id="Group_14689" data-name="Group 14689" transform="translate(-709.795 -201.779)">
      <g id="Group_14654" data-name="Group 14654" transform="translate(0 0)">
        <g id="Group_14622" data-name="Group 14622" transform="translate(3.611 0.134)">
          <path id="Path_17087" data-name="Path 17087" d="M829.081,1552.661s-5.46-17.12-11.876-26.9-12.646-12.348-12.646-12.348l-2.553-8.662s-1.071-1.478-1.348-.945-2.321,3.947-2.321,3.947l-1.836,4.983s-7.966,1.12-9.951,5.192c0,0-10.076-2.217-10.372-1.432a2.052,2.052,0,0,0-.184,1.165l4.286,5.7,3.238,2.6s-.493,7.056.228,9.667,4.608,21.167,4.33,26.1-2.8,14.63-5.519,20.44-4.884,11.35-4.884,11.35l-1.088,4.782s-3.549,1.247-6.536-8.667,1.762-24.677,1.762-24.677,5.529-19.38,4.672-20.781-8.609,1.979-8.609,1.979-.42,14.582-1.5,21.359-1.525,18.351.825,25.1,7.216,7.958,8.739,8.182c0,0-.642,9.348,5.292,14.791s14.823,5.021,14.823,5.021l19.622-1.081,6.3-1.563s6.643-2.79,8.708-11.469a204.143,204.143,0,0,0,3.362-21.216l-.671-12.938S830.2,1555.973,829.081,1552.661Z" transform="translate(-765.503 -1503.689)" fill="#9ea4a5"/>
        </g>
        <g id="Group_14623" data-name="Group 14623" transform="translate(26.756 39.239)">
          <path id="Path_17088" data-name="Path 17088" d="M986.717,1908.5l-13.157,1.253-10.074-.351s-5.046-8.342-3.507-26.868,7.51-34.212,11.673-41.271,6.228-9.823,9.06-9.455a9.107,9.107,0,0,1,3.073,1.25,22.077,22.077,0,0,1,6.841,6.354l4.943,6.955,8.847,14.948s2.412,16.132-1.3,29.8-5.722,13.262-5.722,13.262Z" transform="translate(-959.686 -1831.78)" fill="#ece1d7"/>
        </g>
        <g id="Group_14653" data-name="Group 14653">
          <g id="Group_14625" data-name="Group 14625" transform="translate(35.569 68.382)">
            <g id="Group_14624" data-name="Group 14624">
              <path id="Path_17089" data-name="Path 17089" d="M1033.628,2085.344c1.09,6.361,1.772,12.772,2.6,19.169.417,3.208.891,6.408,1.444,9.6a50.623,50.623,0,0,0,2.168,8.985,21.887,21.887,0,0,0,1.884,3.93c.571.922,1.44,2.562,2.72,2.524,1.3-.039,1.518-1.611,1.649-2.593.23-1.725.408-3.456.542-5.191.544-7.031.394-14.089.4-21.134,0-3.557.048-7.115.243-10.667a76.353,76.353,0,0,1,1.115-10.4,3.755,3.755,0,0,1,.937-2.1,1.442,1.442,0,0,1,2.132-.039,3.547,3.547,0,0,1,.662,1.65,22.443,22.443,0,0,1,.347,2.86,83,83,0,0,1-.35,10.558,103.6,103.6,0,0,0,.9,21.188,41.909,41.909,0,0,0,2.257,9.719c.414,1.025.962,2.8,2.264,2.975,1.112.148,1.777-.967,2.1-1.866a36.009,36.009,0,0,0,1.159-4.833q.491-2.409.84-4.845c.45-3.107.744-6.234.978-9.364.474-6.34.779-12.7,1.829-18.976q.426-2.551,1-5.073c.1-.423-.554-.6-.651-.179a124.381,124.381,0,0,0-2.5,19.1,150.139,150.139,0,0,1-2.028,18.54c-.33,1.687-.691,3.38-1.155,5.036a3.27,3.27,0,0,1-.764,1.51c-.669.637-1.314.047-1.672-.593-1.589-2.833-2.182-6.215-2.7-9.381a102.58,102.58,0,0,1-1.28-20.88c.142-3.49.547-6.971.53-10.467a28.94,28.94,0,0,0-.418-5.06c-.191-1.043-.6-2.3-1.713-2.668a2.48,2.48,0,0,0-2.8,1.358,12.85,12.85,0,0,0-.97,4.438c-.461,3.447-.7,6.92-.829,10.394-.247,6.9-.032,13.811-.154,20.715-.061,3.481-.208,6.963-.544,10.429q-.115,1.191-.261,2.378a7.046,7.046,0,0,1-.434,2.245c-.872,1.761-2.643-1.381-3.076-2.132a28.924,28.924,0,0,1-3-8.552c-.653-3.081-1.142-6.2-1.6-9.32-.889-6.1-1.487-12.233-2.381-18.329q-.356-2.424-.77-4.839c-.073-.427-.723-.246-.651.179Z" transform="translate(-1033.622 -2076.282)" fill="#3c3544"/>
            </g>
          </g>
          <g id="Group_14627" data-name="Group 14627" transform="translate(34.342)">
            <g id="Group_14626" data-name="Group 14626">
              <path id="Path_17090" data-name="Path 17090" d="M1024,1511.371a26.93,26.93,0,0,1,1.681-4.341q.525-1.065,1.142-2.08c.205-.338.417-.673.638-1,.177-.262.433-.718.8-.694.591.039.791,1.439.923,1.87q.372,1.212.732,2.427.734,2.475,1.422,4.964a.338.338,0,0,0,.651-.179q-.626-2.262-1.289-4.513-.331-1.126-.673-2.248c-.207-.681-.378-1.393-.649-2.052a1.414,1.414,0,0,0-.9-.926,1.331,1.331,0,0,0-1.311.611,19.029,19.029,0,0,0-2.1,3.558,27.958,27.958,0,0,0-1.711,4.426.338.338,0,0,0,.651.179Z" transform="translate(-1023.333 -1502.568)" fill="#3c3544"/>
            </g>
          </g>
          <g id="Group_14629" data-name="Group 14629" transform="translate(13.642 12.325)">
            <g id="Group_14628" data-name="Group 14628">
              <path id="Path_17091" data-name="Path 17091" d="M857.614,1615.4q-2-1.761-3.833-3.706-.912-.973-1.775-1.99a9.465,9.465,0,0,1-1.563-2.049c-.511-1.158,1.009-1.009,1.689-.963a27.51,27.51,0,0,1,2.918.369c1.865.33,3.7.806,5.532,1.281a.338.338,0,0,0,.18-.651c-1.669-.433-3.34-.865-5.034-1.189-.791-.151-1.587-.277-2.388-.371a10.539,10.539,0,0,0-2.4-.129,1.387,1.387,0,0,0-1.2.784,1.8,1.8,0,0,0,.386,1.662,35.19,35.19,0,0,0,3.047,3.585,55.045,55.045,0,0,0,3.963,3.845c.325.286.8-.19.477-.477Z" transform="translate(-849.657 -1605.974)" fill="#3c3544"/>
            </g>
          </g>
          <g id="Group_14630" data-name="Group 14630" transform="translate(36.788 17.994)">
            <path id="Path_17092" data-name="Path 17092" d="M1050.121,1654.255c.454.914-.557,2.341-2.26,3.187s-3.45.79-3.9-.124.557-2.341,2.26-3.187S1049.667,1653.341,1050.121,1654.255Z" transform="translate(-1043.848 -1653.531)" fill="#3c3544"/>
          </g>
          <g id="Group_14632" data-name="Group 14632" transform="translate(40.542 20.938)">
            <g id="Group_14631" data-name="Group 14631">
              <path id="Path_17093" data-name="Path 17093" d="M1075.392,1678.738a24.845,24.845,0,0,1,1.474,2.58.337.337,0,0,0,.583-.341,24.835,24.835,0,0,0-1.474-2.58.345.345,0,0,0-.462-.121.341.341,0,0,0-.121.461Z" transform="translate(-1075.345 -1678.232)" fill="#3c3544"/>
            </g>
          </g>
          <g id="Group_14633" data-name="Group 14633" transform="translate(40.345 23.762)">
            <path id="Path_17094" data-name="Path 17094" d="M1073.7,1707.272a4.086,4.086,0,0,0,.24,1.8,3.1,3.1,0,0,0,4,1.582,4.261,4.261,0,0,0,2.161-3.343,5.338,5.338,0,0,0-.725-3.73,3.739,3.739,0,0,0-2.573-1.639c-1.133-.14-1.8.629-2.2,1.607a13.116,13.116,0,0,0-.819,2.936C1073.752,1706.747,1073.72,1707.009,1073.7,1707.272Z" transform="translate(-1073.692 -1701.93)" fill="#3c3544"/>
          </g>
          <g id="Group_14634" data-name="Group 14634" transform="translate(28.282 18.633)">
            <path id="Path_17095" data-name="Path 17095" d="M975.247,1660.5a1.388,1.388,0,1,1-1.154-1.589A1.388,1.388,0,0,1,975.247,1660.5Z" transform="translate(-972.488 -1658.893)" fill="#3c3544"/>
          </g>
          <g id="Group_14635" data-name="Group 14635" transform="translate(39.862 13.51)">
            <path id="Path_17096" data-name="Path 17096" d="M1072.4,1617.521a1.388,1.388,0,1,1-1.154-1.589A1.388,1.388,0,0,1,1072.4,1617.521Z" transform="translate(-1069.644 -1615.915)" fill="#3c3544"/>
          </g>
          <g id="Group_14637" data-name="Group 14637" transform="translate(28.345 24.982)">
            <g id="Group_14636" data-name="Group 14636">
              <path id="Path_17097" data-name="Path 17097" d="M981.646,1712.186q-4.39,2.438-8.551,5.254c-.179.121-.01.413.17.291q4.158-2.814,8.551-5.254c.19-.105.02-.4-.17-.291Z" transform="translate(-973.019 -1712.163)" fill="#ece1d7"/>
            </g>
          </g>
          <g id="Group_14639" data-name="Group 14639" transform="translate(29.95 25.975)">
            <g id="Group_14638" data-name="Group 14638">
              <path id="Path_17098" data-name="Path 17098" d="M994.506,1720.528a47.432,47.432,0,0,0-7.982,7.25c-.143.163.1.4.239.239a47.074,47.074,0,0,1,7.914-7.2c.175-.125.006-.418-.17-.291Z" transform="translate(-986.479 -1720.497)" fill="#ece1d7"/>
            </g>
          </g>
          <g id="Group_14641" data-name="Group 14641" transform="translate(32.602 27.427)">
            <g id="Group_14640" data-name="Group 14640">
              <path id="Path_17099" data-name="Path 17099" d="M1014.879,1732.708a29.036,29.036,0,0,0-6.115,6.1c-.129.175.163.343.291.17a28.5,28.5,0,0,1,5.994-5.98c.173-.128,0-.42-.17-.291Z" transform="translate(-1008.732 -1732.676)" fill="#ece1d7"/>
            </g>
          </g>
          <g id="Group_14643" data-name="Group 14643" transform="translate(46.083 18.004)">
            <g id="Group_14642" data-name="Group 14642">
              <path id="Path_17100" data-name="Path 17100" d="M1122.091,1657.079a36.956,36.956,0,0,1,8.637-3.131c.213-.039.123-.365-.09-.325a37.3,37.3,0,0,0-8.717,3.165c-.2.091-.026.382.17.291Z" transform="translate(-1121.834 -1653.619)" fill="#ece1d7"/>
            </g>
          </g>
          <g id="Group_14645" data-name="Group 14645" transform="translate(47.05 20.252)">
            <g id="Group_14644" data-name="Group 14644">
              <path id="Path_17101" data-name="Path 17101" d="M1130.155,1674.7a93.469,93.469,0,0,1,9.321-1.9c.214-.032.123-.357-.09-.325a93.5,93.5,0,0,0-9.321,1.9.169.169,0,0,0,.09.325Z" transform="translate(-1129.946 -1672.478)" fill="#ece1d7"/>
            </g>
          </g>
          <g id="Group_14647" data-name="Group 14647" transform="translate(47.974 22.778)">
            <g id="Group_14646" data-name="Group 14646">
              <path id="Path_17102" data-name="Path 17102" d="M1137.859,1694.677l4.673-.489a15.88,15.88,0,0,1,4.652-.01c.212.041.3-.284.09-.325a15.6,15.6,0,0,0-4.564-.021q-2.425.25-4.85.507c-.214.022-.216.36,0,.337Z" transform="translate(-1137.697 -1693.674)" fill="#ece1d7"/>
            </g>
          </g>
          <g id="Group_14648" data-name="Group 14648" transform="translate(37.003 4.528)">
            <path id="Path_17103" data-name="Path 17103" d="M1045.653,1544.9s1.093-4.331,1.529-4.343,1.348,4.672,1.348,4.672Z" transform="translate(-1045.653 -1540.557)" fill="#ece1d7"/>
          </g>
          <g id="Group_14649" data-name="Group 14649" transform="translate(18.599 15.044)">
            <path id="Path_17104" data-name="Path 17104" d="M896.184,1629.891s-4.8-1.384-4.933-1.053,3.643,4.584,3.643,4.584Z" transform="translate(-891.248 -1628.787)" fill="#ece1d7"/>
          </g>
          <g id="Group_14650" data-name="Group 14650" transform="translate(38.621 95.919)">
            <path id="Path_17105" data-name="Path 17105" d="M1059.233,2308.856s6.717,0,10.027-1.545c0,0,.761,24.082-1.685,25.165s-4.428-4.906-4.428-4.906S1059.064,2311.7,1059.233,2308.856Z" transform="translate(-1059.228 -2307.311)" fill="#3c3544"/>
          </g>
          <g id="Group_14651" data-name="Group 14651" transform="translate(54.307 95.576)">
            <path id="Path_17106" data-name="Path 17106" d="M1190.851,2304.434s7.074,1,10.018.331c0,0-1.714,22.3-4.856,22.233S1190.594,2306.085,1190.851,2304.434Z" transform="translate(-1190.831 -2304.434)" fill="#3c3544"/>
          </g>
          <g id="Group_14652" data-name="Group 14652" transform="translate(0 17.268)">
            <path id="Path_17107" data-name="Path 17107" d="M741.136,1674.344s5.717,1.76,8.369-.1c0,0,3.055-17.736-7.634-26.115,0,0-3.418-1.713-5.6.305s-.321,5.575-.321,5.575S741.082,1668.6,741.136,1674.344Z" transform="translate(-735.205 -1647.448)" fill="#ece1d7"/>
          </g>
        </g>
      </g>
      <g id="Group_14656" data-name="Group 14656" transform="translate(26.248 45.276)">
        <g id="Group_14655" data-name="Group 14655">
          <path id="Path_17108" data-name="Path 17108" d="M955.474,1882.937a1.732,1.732,0,0,1,.121.2c.019.036-.018-.053,0,.007l.018.051c.013.039.024.078.034.117a4.153,4.153,0,0,1,.082.47,2.085,2.085,0,0,0,.314.958.345.345,0,0,0,.461.121.341.341,0,0,0,.121-.462,1.569,1.569,0,0,1-.119-.2c-.018-.036.018.053,0-.007l-.018-.051c-.013-.039-.024-.078-.034-.117a4.313,4.313,0,0,1-.081-.471,2.05,2.05,0,0,0-.318-.955.345.345,0,0,0-.462-.121.341.341,0,0,0-.121.461Z" transform="translate(-955.424 -1882.428)" fill="#3c3544"/>
        </g>
      </g>
      <g id="Group_14658" data-name="Group 14658" transform="translate(25.989 41.239)">
        <g id="Group_14657" data-name="Group 14657">
          <path id="Path_17109" data-name="Path 17109" d="M953.307,1848.8l-.044.279a.256.256,0,0,0-.006.135.25.25,0,0,0,.04.125.379.379,0,0,0,.2.155l.09.012a.336.336,0,0,0,.17-.046l.068-.053a.336.336,0,0,0,.087-.149l.044-.279a.255.255,0,0,0,.006-.134.25.25,0,0,0-.04-.125.379.379,0,0,0-.2-.155l-.09-.012a.335.335,0,0,0-.17.046l-.068.053a.338.338,0,0,0-.087.149Z" transform="translate(-953.251 -1848.557)" fill="#3c3544"/>
        </g>
      </g>
      <g id="Group_14660" data-name="Group 14660" transform="translate(27.871 43.268)">
        <g id="Group_14659" data-name="Group 14659">
          <path id="Path_17110" data-name="Path 17110" d="M969.181,1865.824l-.133.837a.368.368,0,0,0,.034.26.337.337,0,0,0,.462.121.326.326,0,0,0,.155-.2l.133-.837a.367.367,0,0,0-.034-.26.337.337,0,0,0-.461-.121.327.327,0,0,0-.155.2Z" transform="translate(-969.039 -1865.577)" fill="#3c3544"/>
        </g>
      </g>
      <g id="Group_14662" data-name="Group 14662" transform="translate(29.155 46.88)">
        <g id="Group_14661" data-name="Group 14661">
          <path id="Path_17111" data-name="Path 17111" d="M980.139,1896.556a.338.338,0,0,0,0-.675.338.338,0,0,0,0,.675Z" transform="translate(-979.813 -1895.881)" fill="#3c3544"/>
        </g>
      </g>
      <g id="Group_14664" data-name="Group 14664" transform="translate(28.202 50.463)">
        <g id="Group_14663" data-name="Group 14663">
          <path id="Path_17112" data-name="Path 17112" d="M971.912,1926.195l-.088.558a.255.255,0,0,0-.006.134.252.252,0,0,0,.04.126.344.344,0,0,0,.2.155.341.341,0,0,0,.26-.034.326.326,0,0,0,.155-.2l.088-.558a.257.257,0,0,0,.006-.134.252.252,0,0,0-.04-.125.337.337,0,0,0-.462-.121.327.327,0,0,0-.155.2Z" transform="translate(-971.812 -1925.948)" fill="#3c3544"/>
        </g>
      </g>
      <g id="Group_14666" data-name="Group 14666" transform="translate(65.599 64.097)">
        <g id="Group_14665" data-name="Group 14665">
          <path id="Path_17113" data-name="Path 17113" d="M1285.671,2040.9l.053.054c.019.021.041.048.012.01a.894.894,0,0,1,.073.114c.008.015.016.031.024.046.036.072-.012-.042,0,0s.026.078.036.119a.392.392,0,0,0,.022.109c-.006-.045-.007-.055,0-.029s0,.024,0,.036,0,.033,0,.049c.007.081.009.162.011.244a2.727,2.727,0,0,0,.054.516,1.231,1.231,0,0,0,.282.536.339.339,0,0,0,.477,0,.346.346,0,0,0,0-.477c-.055-.063.021.036,0,0-.011-.018-.024-.034-.034-.052s-.02-.035-.029-.053l-.011-.022c-.01-.023-.007-.014.011.026-.019-.015-.026-.078-.032-.1-.01-.038-.015-.077-.024-.115s.008.086,0,.008c0-.016,0-.032,0-.047,0-.04-.005-.08-.007-.12,0-.081-.005-.162-.009-.243a1.544,1.544,0,0,0-.428-1.085.337.337,0,0,0-.477.477Z" transform="translate(-1285.574 -2040.33)" fill="#3c3544"/>
        </g>
      </g>
      <g id="Group_14668" data-name="Group 14668" transform="translate(64.175 60.439)">
        <g id="Group_14667" data-name="Group 14667">
          <path id="Path_17114" data-name="Path 17114" d="M1273.671,2010.145l.7.97a.368.368,0,0,0,.2.155.345.345,0,0,0,.26-.034.339.339,0,0,0,.155-.2.331.331,0,0,0-.034-.26l-.7-.969a.366.366,0,0,0-.2-.155.346.346,0,0,0-.26.034.341.341,0,0,0-.155.2.33.33,0,0,0,.034.26Z" transform="translate(-1273.626 -2009.638)" fill="#3c3544"/>
        </g>
      </g>
      <g id="Group_14670" data-name="Group 14670" transform="translate(63.509 62.904)">
        <g id="Group_14669" data-name="Group 14669">
          <path id="Path_17115" data-name="Path 17115" d="M1268.364,2031a.337.337,0,0,0,0-.675.337.337,0,0,0,0,.675Z" transform="translate(-1268.038 -2030.327)" fill="#3c3544"/>
        </g>
      </g>
      <g id="Group_14672" data-name="Group 14672" transform="translate(61.732 57.764)">
        <g id="Group_14671" data-name="Group 14671">
          <path id="Path_17116" data-name="Path 17116" d="M1253.133,1987.533a1.844,1.844,0,0,0,.245.969.939.939,0,0,0,.042.093c-.043-.071-.016-.039-.007-.014l.018.048a1.62,1.62,0,0,1,.059.209c.014.063-.01,0,0-.016a.34.34,0,0,0,0,.065c0,.038,0,.075,0,.113,0,.079.016-.075,0,0,0,.016-.006.033-.01.049a1.262,1.262,0,0,1-.046.154.339.339,0,0,0,.236.415.346.346,0,0,0,.415-.236,1.3,1.3,0,0,0,.074-.574,1.9,1.9,0,0,0-.16-.556c-.028-.066-.059-.131-.088-.2l-.021-.046c-.011-.025-.022-.08,0,.006-.009-.032-.026-.063-.037-.095s-.024-.071-.034-.107a.455.455,0,0,0-.024-.111c.013.018.006.078,0,.016,0-.018,0-.036,0-.054a1,1,0,0,1,.007-.135.338.338,0,0,0-.337-.337.347.347,0,0,0-.337.337Z" transform="translate(-1253.127 -1987.196)" fill="#3c3544"/>
        </g>
      </g>
      <g id="Group_14674" data-name="Group 14674" transform="translate(40.965 102.231)">
        <g id="Group_14673" data-name="Group 14673">
          <path id="Path_17117" data-name="Path 17117" d="M1078.907,2360.7a4.735,4.735,0,0,1,.148.609l-.012-.09a1.359,1.359,0,0,1,0,.339l.012-.09a1.339,1.339,0,0,1-.048.211.341.341,0,0,0,.236.415.345.345,0,0,0,.415-.236,1.654,1.654,0,0,0,.045-.74,4.906,4.906,0,0,0-.147-.6.337.337,0,0,0-.651.179Z" transform="translate(-1078.895 -2360.274)" fill="#ece1d7"/>
        </g>
      </g>
      <g id="Group_14676" data-name="Group 14676" transform="translate(41.051 99.957)">
        <g id="Group_14675" data-name="Group 14675">
          <path id="Path_17118" data-name="Path 17118" d="M1079.943,2341.868a.338.338,0,0,0,0-.675.338.338,0,0,0,0,.675Z" transform="translate(-1079.617 -2341.193)" fill="#ece1d7"/>
        </g>
      </g>
      <g id="Group_14678" data-name="Group 14678" transform="translate(42.86 101.104)">
        <g id="Group_14677" data-name="Group 14677">
          <path id="Path_17119" data-name="Path 17119" d="M1094.89,2351.387l.039.047-.053-.068a.893.893,0,0,1,.11.187l-.034-.081a.839.839,0,0,1,.054.2l-.012-.09a.916.916,0,0,1,0,.222l.012-.09a1.12,1.12,0,0,1-.056.226.341.341,0,0,0,.034.26.337.337,0,0,0,.461.121.378.378,0,0,0,.155-.2,1.293,1.293,0,0,0,.055-.641,1.152,1.152,0,0,0-.288-.569.337.337,0,0,0-.576.239.376.376,0,0,0,.1.239Z" transform="translate(-1094.791 -2350.811)" fill="#ece1d7"/>
        </g>
      </g>
      <g id="Group_14680" data-name="Group 14680" transform="translate(42.443 105.612)">
        <g id="Group_14679" data-name="Group 14679">
          <path id="Path_17120" data-name="Path 17120" d="M1091.622,2389.308a.337.337,0,0,0,0-.675.337.337,0,0,0,0,.675Z" transform="translate(-1091.296 -2388.633)" fill="#ece1d7"/>
        </g>
      </g>
      <g id="Group_14682" data-name="Group 14682" transform="translate(55.077 101.33)">
        <g id="Group_14681" data-name="Group 14681">
          <path id="Path_17121" data-name="Path 17121" d="M1197.351,2352.962l-.044.279a.257.257,0,0,0-.006.135.25.25,0,0,0,.04.125.377.377,0,0,0,.2.155l.09.012a.336.336,0,0,0,.17-.046l.068-.053a.337.337,0,0,0,.087-.149l.044-.279a.256.256,0,0,0,.006-.135.251.251,0,0,0-.04-.125.377.377,0,0,0-.2-.155l-.09-.012a.336.336,0,0,0-.17.046l-.068.053a.341.341,0,0,0-.087.149Z" transform="translate(-1197.295 -2352.714)" fill="#ece1d7"/>
        </g>
      </g>
      <g id="Group_14684" data-name="Group 14684" transform="translate(55.843 98.584)">
        <g id="Group_14683" data-name="Group 14683">
          <path id="Path_17122" data-name="Path 17122" d="M1203.763,2330.184l.235.323a.257.257,0,0,0,.087.094.251.251,0,0,0,.115.06.376.376,0,0,0,.26-.034l.068-.053a.339.339,0,0,0,.087-.149l.012-.09a.335.335,0,0,0-.046-.17l-.235-.323a.373.373,0,0,0-.2-.155.382.382,0,0,0-.26.034l-.068.053a.334.334,0,0,0-.087.149l-.012.09a.334.334,0,0,0,.046.17Z" transform="translate(-1203.717 -2329.676)" fill="#ece1d7"/>
        </g>
      </g>
      <g id="Group_14686" data-name="Group 14686" transform="translate(56.721 103.871)">
        <g id="Group_14685" data-name="Group 14685">
          <path id="Path_17123" data-name="Path 17123" d="M1211.084,2374.37a2.137,2.137,0,0,0,.067.458,3.626,3.626,0,0,1,.081.374c0-.03-.008-.06-.012-.09a1.314,1.314,0,0,1,.01.139.337.337,0,1,0,.675,0,2.112,2.112,0,0,0-.067-.458,3.7,3.7,0,0,1-.081-.374c0,.03.008.06.012.089a1.357,1.357,0,0,1-.01-.139.337.337,0,0,0-.675,0Z" transform="translate(-1211.084 -2374.033)" fill="#ece1d7"/>
        </g>
      </g>
      <g id="Group_14688" data-name="Group 14688" transform="translate(58.271 101.26)">
        <g id="Group_14687" data-name="Group 14687">
          <path id="Path_17124" data-name="Path 17124" d="M1224.107,2352.368a1.073,1.073,0,0,0,.019.5,1.1,1.1,0,0,0,.258.428.345.345,0,0,0,.239.1.338.338,0,0,0,.337-.337.359.359,0,0,0-.1-.239q-.03-.032-.058-.067l.053.069a.741.741,0,0,1-.094-.159l.034.081a.655.655,0,0,1-.044-.163c0,.03.008.06.012.09a.745.745,0,0,1,0-.185l-.012.09,0-.029a.255.255,0,0,0,.006-.134.251.251,0,0,0-.04-.125.337.337,0,0,0-.461-.121.327.327,0,0,0-.155.2Z" transform="translate(-1224.086 -2352.121)" fill="#ece1d7"/>
        </g>
      </g>
    </g>
  </g>
</svg>
