<svg xmlns="http://www.w3.org/2000/svg" width="32" height="32" viewBox="0 0 32 32">
  <g id="Group_14485" data-name="Group 14485" transform="translate(493 4429)">
    <g id="Ellipse_673" data-name="Ellipse 673" transform="translate(-493 -4429)" fill="#cce8b0" stroke="#6bc100" stroke-width="1">
      <circle cx="16" cy="16" r="16" stroke="none"/>
      <circle cx="16" cy="16" r="15.5" fill="none"/>
    </g>
    <g id="_01" data-name="01" transform="translate(-485.926 -4421.926)">
      <path id="Path_17032" data-name="Path 17032" d="M4.82,6.07A1.964,1.964,0,1,0,6.784,4.107,1.964,1.964,0,0,0,4.82,6.07Zm2.856,0a.893.893,0,1,1-.893-.892.893.893,0,0,1,.893.892Zm8.39.893a.536.536,0,0,0-.536.536V9.118l-.279-.24a2.127,2.127,0,0,0-2.713,0l-2.97,2.548a1.059,1.059,0,0,1-1.317,0l-.237-.2a2.132,2.132,0,0,0-2.533-.137L2.534,13.068a7.993,7.993,0,0,1-.213-2V6.784c0-3.3,1.168-4.463,4.463-4.463H9.64a.536.536,0,1,0,0-1.071H6.784c-3.879,0-5.534,1.655-5.534,5.534v4.284c0,3.879,1.655,5.534,5.534,5.534h4.284c3.879,0,5.534-1.655,5.534-5.534V7.5A.536.536,0,0,0,16.067,6.963Zm-.536,4.105c0,3.295-1.168,4.463-4.463,4.463H6.784c-1.969,0-3.173-.422-3.828-1.46l3.122-2.1a1.071,1.071,0,0,1,1.239.061l.237.2a2.123,2.123,0,0,0,2.713,0L13.239,9.69a1.058,1.058,0,0,1,1.317,0l.977.838ZM11.543,7.32a1.085,1.085,0,0,0,.166-.012l.993-.143a1.433,1.433,0,0,0,.734-.368L16.028,4.2A1.744,1.744,0,0,0,16.6,3.146a1.637,1.637,0,0,0-.571-1.323,1.527,1.527,0,0,0-2.381,0L11.055,4.416a1.428,1.428,0,0,0-.368.737l-.143.99a1.03,1.03,0,0,0,.276.887,1.008,1.008,0,0,0,.723.29ZM14.4,2.582c.325-.324.5-.371.866,0,.126.127.275.309.26.46a.785.785,0,0,1-.26.407l-.119.119a1.809,1.809,0,0,1-.87-.866ZM11.746,5.307a.428.428,0,0,1,.066-.133L13.5,3.493a2.917,2.917,0,0,0,.867.867L12.685,6.039a.442.442,0,0,1-.133.068l-.935.132Z" transform="translate(0)" fill="#6bc100"/>
    </g>
  </g>
</svg>
