<svg xmlns="http://www.w3.org/2000/svg" width="25.439" height="25.433" viewBox="0 0 25.439 25.433">
  <g id="Group_13994" data-name="Group 13994" transform="translate(12967.291 -7164.039)">
    <path id="Path_14919" data-name="Path 14919" d="M-12966.789,7170.5v-3.281a2.634,2.634,0,0,1,2.382-2.679c.007,0,3.427,0,3.427,0" transform="translate(0 0)" fill="none" stroke="#fff" stroke-linecap="round" stroke-width="1"/>
    <path id="Path_14922" data-name="Path 14922" d="M-12966.789,7164.538v3.281a2.633,2.633,0,0,0,2.382,2.679c.007,0,3.427,0,3.427,0" transform="translate(0 18.472)" fill="none" stroke="#fff" stroke-linecap="round" stroke-width="1"/>
    <path id="Path_14920" data-name="Path 14920" d="M-12960.98,7170.5v-3.281a2.635,2.635,0,0,0-2.382-2.679c-.007,0-3.427,0-3.427,0" transform="translate(18.628 0)" fill="none" stroke="#fff" stroke-linecap="round" stroke-width="1"/>
    <path id="Path_14921" data-name="Path 14921" d="M-12960.98,7164.538v3.281a2.634,2.634,0,0,1-2.382,2.679c-.007,0-3.427,0-3.427,0" transform="translate(18.628 18.472)" fill="none" stroke="#fff" stroke-linecap="round" stroke-width="1"/>
    <path id="Path_14923" data-name="Path 14923" d="M-12920.606,7213.581v1.774" transform="translate(-38.953 -41.365)" fill="none" stroke="#fff" stroke-linecap="round" stroke-width="1"/>
    <path id="Path_14924" data-name="Path 14924" d="M-12920.606,7213.581v1.774" transform="translate(-28.935 -41.365)" fill="none" stroke="#fff" stroke-linecap="round" stroke-width="1"/>
    <path id="Path_14925" data-name="Path 14925" d="M-12896.02,7213.581l-.044,5.315s.1,1.212-.7,1.232c-.006,0-1.274,0-1.274,0" transform="translate(-57.987 -41.365)" fill="none" stroke="#fff" stroke-linecap="round" stroke-width="1"/>
    <path id="Path_14926" data-name="Path 14926" d="M-12914.846,7280.146a6.256,6.256,0,0,0,8.006,0" transform="translate(-43.812 -97.51)" fill="none" stroke="#fff" stroke-linecap="round" stroke-width="1"/>
  </g>
</svg>
