<svg id="Group_621" data-name="Group 621" xmlns="http://www.w3.org/2000/svg" width="147.726" height="109.959" viewBox="0 0 147.726 109.959">
  <path id="Path_1141" data-name="Path 1141" d="M455.5,417.019a31.564,31.564,0,0,0-26-7.044l-31.765,5.313c-1.474.244-4.608,1.069-6.349-.361l-10.118-8.113a7.177,7.177,0,1,0-8.986,11.195l6.169,4.955a4.755,4.755,0,0,1,1.089,6.072L360.66,469.772a11.668,11.668,0,1,0,21.173,9.811s10.207-22.122,10.8-23.318a3.442,3.442,0,0,1,3.963-1.821c1.784.314,35.063,6.108,45.238,7.886a3.4,3.4,0,0,1,2.937,3.733v8.611a11.669,11.669,0,0,0,23.338,0V445.984A37.576,37.576,0,0,0,455.5,417.019Z" transform="translate(-359.575 -376.39)" fill="#5b629f"/>
  <path id="Path_1142" data-name="Path 1142" d="M435.566,421.392c-1.671-.611-7.993-2.917-14.035-5.133L409.324,411.8a3.846,3.846,0,0,1-1.844-1.738l-2.022-4.307c-.785-1.671-2.282-4.855-3.325-7.077s-2.72-2.339-3.716-.234l-8.454,17.841a20.5,20.5,0,0,0-1.9,7.017,10.815,10.815,0,0,0-.251,2.149,16.1,16.1,0,0,0,16.1,16.1,3.491,3.491,0,0,0,.421-.017.561.561,0,0,0,.113.017h20.167a7.823,7.823,0,0,0,6.683-3.372l2.86-6.135c.705-1.517,2-4.281,2.867-6.145a3.195,3.195,0,0,0-1.457-4.5Z" transform="translate(-289.72 -396.931)" fill="#3fd68e"/>
</svg>
