<svg xmlns="http://www.w3.org/2000/svg" xmlns:xlink="http://www.w3.org/1999/xlink" width="50" height="49" viewBox="0 0 50 49">
  <defs>
    <filter id="Rectangle_223" x="0" y="0" width="50" height="49" filterUnits="userSpaceOnUse">
      <feOffset dx="-2" dy="1" input="SourceAlpha"/>
      <feGaussianBlur stdDeviation="1" result="blur"/>
      <feFlood flood-color="#b8cee2"/>
      <feComposite operator="in" in2="blur"/>
      <feComposite in="SourceGraphic"/>
    </filter>
  </defs>
  <g id="Group_13873" data-name="Group 13873" transform="translate(-80 -287)">
    <g transform="matrix(1, 0, 0, 1, 80, 287)" filter="url(#Rectangle_223)">
      <g id="Rectangle_223-2" data-name="Rectangle 223" transform="translate(5 2)" fill="rgba(255,255,255,0)" stroke="#5c6d80" stroke-width="1">
        <rect width="44" height="43" rx="4" stroke="none"/>
        <rect x="0.5" y="0.5" width="43" height="42" rx="3.5" fill="none"/>
      </g>
    </g>
    <g id="camera" transform="translate(95 297)">
      <path id="Path_16973" data-name="Path 16973" d="M19,4h-.508L16.308,1.168A3.023,3.023,0,0,0,13.932,0H10.068A3.023,3.023,0,0,0,7.692,1.168L5.508,4H5A5.006,5.006,0,0,0,0,9V19a5.006,5.006,0,0,0,5,5H19a5.006,5.006,0,0,0,5-5V9a5.006,5.006,0,0,0-5-5ZM9.276,2.39A1.006,1.006,0,0,1,10.068,2h3.864a1.008,1.008,0,0,1,.792.39L15.966,4H8.034ZM22,19a3,3,0,0,1-3,3H5a3,3,0,0,1-3-3V9A3,3,0,0,1,5,6H19a3,3,0,0,1,3,3Z" fill="#5b6e80"/>
      <path id="Path_16974" data-name="Path 16974" d="M12,8a6,6,0,1,0,6,6,6,6,0,0,0-6-6Zm0,10a4,4,0,1,1,4-4A4,4,0,0,1,12,18Z" fill="#5b6e80"/>
    </g>
  </g>
</svg>
