<svg xmlns="http://www.w3.org/2000/svg" width="17.21" height="17.21" viewBox="0 0 17.21 17.21">
  <g id="Group_91333" data-name="Group 91333" transform="translate(-310.5 -586.153)">
    <g id="Path_36411" data-name="Path 36411" transform="translate(310.5 586.153)" fill="#6bc100">
      <path d="M 8.605079650878906 16.71015930175781 C 4.135919570922852 16.71015930175781 0.4999996423721313 13.07423973083496 0.4999996423721313 8.605079650878906 C 0.4999996423721313 4.135919570922852 4.135919570922852 0.4999996423721313 8.605079650878906 0.4999996423721313 C 13.07423973083496 0.4999996423721313 16.71015930175781 4.135919570922852 16.71015930175781 8.605079650878906 C 16.71015930175781 13.07423973083496 13.07423973083496 16.71015930175781 8.605079650878906 16.71015930175781 Z" stroke="none"/>
      <path d="M 8.605079650878906 1 C 4.411619186401367 1 1 4.411619186401367 1 8.605079650878906 C 1 12.79854011535645 4.411619186401367 16.21015930175781 8.605079650878906 16.21015930175781 C 12.79854011535645 16.21015930175781 16.21015930175781 12.79854011535645 16.21015930175781 8.605079650878906 C 16.21015930175781 4.411619186401367 12.79854011535645 1 8.605079650878906 1 M 8.605079650878906 0 C 13.35752964019775 0 17.21015930175781 3.852629661560059 17.21015930175781 8.605079650878906 C 17.21015930175781 13.35752964019775 13.35752964019775 17.21015930175781 8.605079650878906 17.21015930175781 C 3.852629661560059 17.21015930175781 0 13.35752964019775 0 8.605079650878906 C 0 3.852629661560059 3.852629661560059 0 8.605079650878906 0 Z" stroke="none" fill="#4c8603"/>
    </g>
    <text id="_" data-name="+" transform="translate(315.417 598.383)" fill="#fff" font-size="12" font-family="Sen-Bold, Sen" font-weight="700"><tspan x="0" y="0">+</tspan></text>
  </g>
</svg>
