<svg xmlns="http://www.w3.org/2000/svg" width="33" height="32" viewBox="0 0 33 32">
  <g id="Group_13990" data-name="Group 13990" transform="translate(9607 8436)">
    <g id="Rectangle_85477" data-name="Rectangle 85477" transform="translate(-9607 -8436)" fill="#73c923" stroke="#73c923" stroke-width="1">
      <path d="M4,0H33a0,0,0,0,1,0,0V32a0,0,0,0,1,0,0H4a4,4,0,0,1-4-4V4A4,4,0,0,1,4,0Z" stroke="none"/>
      <path d="M4,.5H32.5a0,0,0,0,1,0,0v31a0,0,0,0,1,0,0H4A3.5,3.5,0,0,1,.5,28V4A3.5,3.5,0,0,1,4,.5Z" fill="none"/>
    </g>
    <path id="Path_14915" data-name="Path 14915" d="M13.8,15.678h-.6V10.9a.8.8,0,0,0-.8-.8H10.084a.8.8,0,1,0,0,1.591h1.527v3.985H10.084a.8.8,0,1,0,0,1.591H13.8a.8.8,0,1,0,0-1.591ZM11.942,8.373A1.193,1.193,0,1,0,10.749,7.18,1.193,1.193,0,0,0,11.942,8.373Zm0-6.373a9.942,9.942,0,1,0,9.942,9.942A9.953,9.953,0,0,0,11.942,2Zm5.83,15.912a8.344,8.344,0,1,1,2.521-5.97,8.344,8.344,0,0,1-2.521,5.97Z" transform="translate(-9602.544 -8431.88)" fill="#fff"/>
  </g>
</svg>
