<svg xmlns="http://www.w3.org/2000/svg" width="298" height="228" viewBox="0 0 298 228">
  <g id="Group_13990" data-name="Group 13990" transform="translate(1144 -2201)">
    <rect id="Rectangle_85478" data-name="Rectangle 85478" width="298" height="228" rx="55" transform="translate(-1144 2201)" fill="#e0eeff"/>
    <g id="Group_2157" data-name="Group 2157" transform="translate(-1094.008 2243.044)">
      <path id="Path_2579" data-name="Path 2579" d="M886,498.189c7.014,6.721,24.089,20.155,38.739,8.5,0,0,8.332,3.736,26.293-7.759s59.343-31.339,59.343-31.339,27.138-14.641,26.869-15.5-55.032-30.317-68.538-29.168-87.27,34.484-87.27,34.484l1.154,33.108A11.153,11.153,0,0,0,886,498.189Z" transform="translate(-860.381 -367.04)" fill="#12292d" opacity="0.28"/>
      <path id="Path_2580" data-name="Path 2580" d="M1056.168,406.407c-.948,6.048-2.558,12.211-3.909,18.2-1.2,5.32-2.983,10.654-6.417,14.892-6.366,7.858-17.262,11.178-25.954,15.723-11.415,5.968-23.16,11.383-34.72,17.07-21.333,10.5-44.025,21.269-67.718,19.262-.737,4.336-5.288,7.21-9.68,7.445s-8.62-1.56-12.573-3.489a91.1,91.1,0,0,1-22-14.432c-6.24-5.751-12.251-13.962-14.345-22.33-1.2-4.8,1.261-11.2,6.205-11.32a148.039,148.039,0,0,1-1.023-32.655c.2-2.54.527-5.223,2.086-7.239,1.626-2.1,4.278-3.079,6.786-3.955L980.2,366.109c4.639-1.62,9.331-3.252,14.219-3.747,5.591-.565,11.229.383,16.674,1.772,15.959,4.072,31.407,12.465,40.728,26.044,2.3,3.345,4.232,7.084,4.591,11.125A20.863,20.863,0,0,1,1056.168,406.407Z" transform="translate(-858.555 -362.197)" fill="#081921"/>
      <path id="Path_2581" data-name="Path 2581" d="M865.626,454.814s9.34,24.394,52.389,44.127" transform="translate(-859.12 -369.587)" fill="none" stroke="#030d11" stroke-linecap="round" stroke-miterlimit="10" stroke-width="1"/>
      <path id="Path_2582" data-name="Path 2582" d="M865.1,455.387s9.339,24.394,52.388,44.127" transform="translate(-859.077 -369.633)" fill="none" stroke="#071f26" stroke-linecap="round" stroke-miterlimit="10" stroke-width="1"/>
      <path id="Path_2583" data-name="Path 2583" d="M1055.941,402.441c-.046-.115-.093-.23-.141-.344a3.328,3.328,0,0,0-1.384-1.776,3.733,3.733,0,0,0-3.07.368L980.589,431.33l-24.058,10.418c-7.724,3.345-15.674,6.389-23.112,10.343a17.281,17.281,0,0,1-6.357,2.409c-2.471.225-4.893-.669-7.192-1.6a143.175,143.175,0,0,1-30.755-16.814,59.837,59.837,0,0,1-11.208-10.121,33.262,33.262,0,0,1-4.252-6.508c-1.169-2.388-1.606-5.049-3.072-7.323-2.01-3.121-4.153-1.353-5.219,1.58a12.872,12.872,0,0,0-.664,3.523c-.093,1.131-.283,2.691-.447,3.808-.144,1.005-.079,2.371-.129,3.285s.017,1.261,0,2.168a4.555,4.555,0,0,0,.6,2.284A25.439,25.439,0,0,0,869.56,435a142.792,142.792,0,0,0,25.734,20.608c8.6,5.481,18.587,12.553,29.192,12.232,11.483-.348,21.689-6.679,32.115-10.785,23.009-9.062,46.822-15.721,69.525-25.628q2.731-1.191,5.441-2.426,8.426-3.836,16.611-8.169c3.4-1.813,6.59-3.67,7.929-7.462A15.725,15.725,0,0,0,1055.941,402.441Z" transform="translate(-858.998 -365.222)" fill="#12292d"/>
      <path id="Path_2584" data-name="Path 2584" d="M1056,401.2c-.046-.112-.093-.224-.142-.336a3.266,3.266,0,0,0-1.379-1.737,3.779,3.779,0,0,0-3.06.36l-70.546,29.969-23.986,10.188c-7.7,3.273-15.627,6.249-23.043,10.117a17.463,17.463,0,0,1-6.338,2.356c-2.463.22-4.879-.655-7.17-1.568A143.582,143.582,0,0,1,889.668,434.1a59.291,59.291,0,0,1-11.173-9.9,32.528,32.528,0,0,1-4.241-6.365c-1.164-2.335-1.6-4.939-3.061-7.162-2-3.054-4.141-1.324-5.2,1.545a12.317,12.317,0,0,0-.661,3.446c-.094,1.106-.283,2.632-.445,3.724-.145.983-.08,2.319-.13,3.213s.016,1.234,0,2.12a4.394,4.394,0,0,0,.6,2.234,24.944,24.944,0,0,0,4.822,6.085A141.949,141.949,0,0,0,895.829,453.2c8.577,5.361,18.531,12.277,29.1,11.963,11.448-.341,21.624-6.533,32.017-10.548,22.943-8.862,46.682-15.376,69.318-25.065q2.721-1.166,5.425-2.372,8.4-3.752,16.56-7.991c3.392-1.773,6.571-3.59,7.9-7.3A15.11,15.11,0,0,0,1056,401.2Z" transform="translate(-859.048 -365.127)" fill="#061419"/>
      <path id="Path_2585" data-name="Path 2585" d="M868.546,444.395v12.824s12.946,15.244,20.568,16.937l1.452-14.033S876.653,454.195,868.546,444.395Z" transform="translate(-859.352 -368.756)" fill="#0d2126"/>
      <path id="Path_2586" data-name="Path 2586" d="M869.429,446.112s10.831,13.047,20.4,15.138l-1.076,11.465s-18.685-12.667-18.685-15.834S869.429,446.112,869.429,446.112Z" transform="translate(-859.423 -368.893)" fill="#080e0f"/>
      <path id="Path_2587" data-name="Path 2587" d="M871.681,456.81s9.413,7.563,14.017,10.7" transform="translate(-859.603 -369.746)" fill="none" stroke="#d4d8d8" stroke-miterlimit="10" stroke-width="1" opacity="0.38"/>
    </g>
    <circle id="Ellipse_566" data-name="Ellipse 566" cx="50" cy="50" r="50" transform="translate(-1046 2266)" fill="#15d0ac" opacity="0.497"/>
    <path id="Path_14915" data-name="Path 14915" d="M-308.4,2315.417v29.162l25.09-14.6Z" transform="translate(-698 -16)" fill="#fff"/>
  </g>
</svg>
