<svg xmlns="http://www.w3.org/2000/svg" xmlns:xlink="http://www.w3.org/1999/xlink" width="25.429" height="25.417" viewBox="0 0 25.429 25.417">
  <defs>
    <linearGradient id="linear-gradient" x1="0.5" y1="-0.774" x2="0.5" y2="2.296" gradientUnits="objectBoundingBox">
      <stop offset="0" stop-color="#fff"/>
      <stop offset="1" stop-color="#fff"/>
    </linearGradient>
  </defs>
  <g id="Group_14023" data-name="Group 14023" transform="translate(-274.456 -192.46)">
    <g id="Group_13999" data-name="Group 13999" transform="translate(274.456 192.46)">
      <g id="Group_13998" data-name="Group 13998" transform="translate(0 0)">
        <g id="Group_13995" data-name="Group 13995" transform="translate(0 6.746)">
          <path id="Path_14927" data-name="Path 14927" d="M275.036,373.939a.334.334,0,0,1-.327-.268,12.657,12.657,0,0,1,1.142-8.3.334.334,0,0,1,.595.3,11.988,11.988,0,0,0-1.082,7.861.335.335,0,0,1-.328.4Z" transform="translate(-274.456 -365.191)" fill="url(#linear-gradient)"/>
        </g>
        <g id="Group_13996" data-name="Group 13996" transform="translate(2.383)">
          <path id="Path_14928" data-name="Path 14928" d="M335.815,198.21a.334.334,0,0,1-.27-.531,12.71,12.71,0,0,1,15.856-3.919.334.334,0,0,1-.294.6,12.042,12.042,0,0,0-15.021,3.712A.334.334,0,0,1,335.815,198.21Z" transform="translate(-335.481 -192.46)" fill="url(#linear-gradient)"/>
        </g>
        <g id="Group_13997" data-name="Group 13997" transform="translate(19.487 2.251)">
          <path id="Path_14929" data-name="Path 14929" d="M778.782,258.45a.334.334,0,0,1-.327-.268,11.987,11.987,0,0,0-4.885-7.475.334.334,0,0,1,.384-.547,12.654,12.654,0,0,1,5.156,7.89.334.334,0,0,1-.328.4Z" transform="translate(-773.428 -250.099)" fill="url(#linear-gradient)"/>
        </g>
      </g>
    </g>
    <g id="Group_14003" data-name="Group 14003" transform="translate(274.709 202.392)">
      <g id="Group_14002" data-name="Group 14002">
        <g id="Group_14000" data-name="Group 14000" transform="translate(24.261)">
          <path id="Path_14930" data-name="Path 14930" d="M902.729,450.141h-.006a.334.334,0,0,1-.328-.34,12.117,12.117,0,0,0-.238-2.624.334.334,0,0,1,.655-.132,12.791,12.791,0,0,1,.251,2.769A.334.334,0,0,1,902.729,450.141Z" transform="translate(-902.151 -446.776)" fill="url(#linear-gradient)"/>
        </g>
        <g id="Group_14001" data-name="Group 14001" transform="translate(0 4.892)">
          <path id="Path_14931" data-name="Path 14931" d="M281.387,573.237a.334.334,0,0,1-.324-.254c-.045-.183-.086-.365-.122-.542a.334.334,0,0,1,.655-.132c.034.167.073.34.115.514a.334.334,0,0,1-.245.4A.339.339,0,0,1,281.387,573.237Z" transform="translate(-280.935 -572.04)" fill="url(#linear-gradient)"/>
        </g>
      </g>
    </g>
    <g id="Group_14004" data-name="Group 14004" transform="translate(283.638 204.839)">
      <path id="Path_14932" data-name="Path 14932" d="M509.909,522.05a.334.334,0,0,1-.251-.555,13.73,13.73,0,0,0,2.9-5.367,13.448,13.448,0,0,0,.218-6.3.334.334,0,0,1,.655-.132,14.108,14.108,0,0,1-.229,6.614,14.4,14.4,0,0,1-3.045,5.63A.333.333,0,0,1,509.909,522.05Z" transform="translate(-509.575 -509.424)" fill="url(#linear-gradient)"/>
    </g>
    <g id="Group_14005" data-name="Group 14005" transform="translate(282.038 212.084)">
      <path id="Path_14933" data-name="Path 14933" d="M468.942,699.774a.334.334,0,0,1-.239-.568,12.041,12.041,0,0,0,2.612-4.052.334.334,0,1,1,.623.243,12.7,12.7,0,0,1-2.756,4.276A.333.333,0,0,1,468.942,699.774Z" transform="translate(-468.608 -694.942)" fill="url(#linear-gradient)"/>
    </g>
    <g id="Group_14006" data-name="Group 14006" transform="translate(285.278 203.283)">
      <path id="Path_14934" data-name="Path 14934" d="M551.987,484.113a.334.334,0,0,1-.263-.54,15.133,15.133,0,0,0,2.918-12.324l-.022-.112a1.221,1.221,0,0,0-2.388.427l.033.163a12.637,12.637,0,0,1-.027,5.173.334.334,0,0,1-.654-.14,11.954,11.954,0,0,0,.086-4.579h-.007l-.065-.322a1.889,1.889,0,0,1,3.7-.747l.059.291-.008,0a15.8,15.8,0,0,1-3.1,12.576A.333.333,0,0,1,551.987,484.113Z" transform="translate(-551.56 -469.598)" fill="url(#linear-gradient)"/>
    </g>
    <g id="Group_14007" data-name="Group 14007" transform="translate(280.577 206.147)">
      <path id="Path_14935" data-name="Path 14935" d="M431.513,552.962a.334.334,0,0,1-.228-.578,10.523,10.523,0,0,0,3.242-9.079.334.334,0,1,1,.662-.09,11.192,11.192,0,0,1-3.448,9.657A.333.333,0,0,1,431.513,552.962Z" transform="translate(-431.179 -542.925)" fill="url(#linear-gradient)"/>
    </g>
    <g id="Group_14008" data-name="Group 14008" transform="translate(283.797 201.737)">
      <path id="Path_14936" data-name="Path 14936" d="M520.378,436.5a.334.334,0,0,1-.334-.333,16.821,16.821,0,0,0-.332-3.269l-.026-.129a2.767,2.767,0,0,0-5.392.111.334.334,0,0,1-.654-.137,3.435,3.435,0,0,1,6.73.022l.054.268,0,0a17.459,17.459,0,0,1,.293,3.13.334.334,0,0,1-.333.335Z" transform="translate(-513.633 -430.007)" fill="url(#linear-gradient)"/>
    </g>
    <g id="Group_14009" data-name="Group 14009" transform="translate(287.228 209.523)">
      <path id="Path_14937" data-name="Path 14937" d="M601.837,637.729a.334.334,0,0,1-.275-.523,16.76,16.76,0,0,0,2.815-7.534.334.334,0,0,1,.664.076,17.428,17.428,0,0,1-2.927,7.836A.334.334,0,0,1,601.837,637.729Z" transform="translate(-601.503 -629.376)" fill="url(#linear-gradient)"/>
    </g>
    <g id="Group_14010" data-name="Group 14010" transform="translate(279.256 200.192)">
      <path id="Path_14938" data-name="Path 14938" d="M397.694,405.538a.334.334,0,0,1-.219-.587,8.954,8.954,0,0,0,2.981-8.229h0l-.064-.318a4.985,4.985,0,0,1,5.271-5.951.334.334,0,0,1-.052.666A4.314,4.314,0,0,0,401,396l.055.27a9.623,9.623,0,0,1-3.14,9.185A.333.333,0,0,1,397.694,405.538Z" transform="translate(-397.359 -390.439)" fill="url(#linear-gradient)"/>
    </g>
    <g id="Group_14011" data-name="Group 14011" transform="translate(289.094 200.779)">
      <path id="Path_14939" data-name="Path 14939" d="M649.707,422.353a.334.334,0,0,1-.288-.5,18.2,18.2,0,0,0,2.145-12.828l-.029-.145a4.312,4.312,0,0,0-2.1-2.772.334.334,0,0,1,.326-.584,4.979,4.979,0,0,1,2.459,3.367l.057.284,0,0A18.87,18.87,0,0,1,650,422.188.334.334,0,0,1,649.707,422.353Z" transform="translate(-649.265 -405.48)" fill="url(#linear-gradient)"/>
    </g>
    <g id="Group_14012" data-name="Group 14012" transform="translate(278.081 210.387)">
      <path id="Path_14940" data-name="Path 14940" d="M367.607,655.367a.334.334,0,0,1-.212-.593,7.458,7.458,0,0,0,2.221-3.063.334.334,0,0,1,.623.242,8.128,8.128,0,0,1-2.421,3.338A.332.332,0,0,1,367.607,655.367Z" transform="translate(-367.273 -651.498)" fill="url(#linear-gradient)"/>
    </g>
    <g id="Group_14013" data-name="Group 14013" transform="translate(280.639 198.645)">
      <path id="Path_14941" data-name="Path 14941" d="M445.514,363.716a.334.334,0,0,1-.33-.388,19.711,19.711,0,0,0-.133-7.12l-.018-.09a5.858,5.858,0,0,0-11.518,2.108l.06.3a8.07,8.07,0,0,1,.115,2.457.334.334,0,0,1-.665-.071,7.377,7.377,0,0,0-.047-1.925l-.066-.327a6.526,6.526,0,1,1,12.794-2.58l.031.156h0a20.369,20.369,0,0,1,.106,7.2A.334.334,0,0,1,445.514,363.716Z" transform="translate(-432.781 -350.837)" fill="url(#linear-gradient)"/>
    </g>
    <g id="Group_14014" data-name="Group 14014" transform="translate(291.273 212.782)">
      <path id="Path_14942" data-name="Path 14942" d="M705.392,717.1a.334.334,0,0,1-.3-.481,19.817,19.817,0,0,0,1.326-3.549.334.334,0,1,1,.646.173,20.478,20.478,0,0,1-1.371,3.669A.334.334,0,0,1,705.392,717.1Z" transform="translate(-705.058 -712.821)" fill="url(#linear-gradient)"/>
    </g>
    <g id="Group_14015" data-name="Group 14015" transform="translate(293.091 200.285)">
      <path id="Path_14943" data-name="Path 14943" d="M752.285,408.529a.334.334,0,0,1-.312-.454,21.263,21.263,0,0,0,1-11.735l-.017-.085a7.349,7.349,0,0,0-1.269-2.894.334.334,0,0,1,.54-.393,8.006,8.006,0,0,1,1.355,3.017h0l.028.137a21.931,21.931,0,0,1-1.009,12.19A.334.334,0,0,1,752.285,408.529Z" transform="translate(-751.617 -392.831)" fill="url(#linear-gradient)"/>
    </g>
    <g id="Group_14016" data-name="Group 14016" transform="translate(283.603 197.1)">
      <path id="Path_14944" data-name="Path 14944" d="M517.139,313.7a.332.332,0,0,1-.211-.076,7.417,7.417,0,0,0-7.785-1,.334.334,0,0,1-.278-.608,8.086,8.086,0,0,1,8.487,1.095.334.334,0,0,1-.212.593Z" transform="translate(-508.669 -311.275)" fill="url(#linear-gradient)"/>
    </g>
    <g id="Group_14017" data-name="Group 14017" transform="translate(277.056 198.828)">
      <path id="Path_14945" data-name="Path 14945" d="M341.356,369.774a.334.334,0,0,1-.21-.595,5.846,5.846,0,0,0,2.127-5.47l-.053-.261a8.056,8.056,0,0,1,2.828-7.867.334.334,0,0,1,.421.519,7.388,7.388,0,0,0-2.648,6.922l.059.293a6.513,6.513,0,0,1-2.316,6.386A.333.333,0,0,1,341.356,369.774Z" transform="translate(-341.021 -355.506)" fill="url(#linear-gradient)"/>
    </g>
    <g id="Group_14018" data-name="Group 14018" transform="translate(276.182 205.207)">
      <path id="Path_14946" data-name="Path 14946" d="M318.991,525.461a.334.334,0,0,1-.216-.589,4.322,4.322,0,0,0,1.479-3.95l-.04-.2a9.75,9.75,0,0,1-.184-1.519.334.334,0,1,1,.668-.028,9.078,9.078,0,0,0,.117,1.124l.058.29a4.99,4.99,0,0,1-1.667,4.792A.333.333,0,0,1,318.991,525.461Z" transform="translate(-318.657 -518.855)" fill="url(#linear-gradient)"/>
    </g>
    <g id="Group_14019" data-name="Group 14019" transform="translate(277.684 195.553)">
      <path id="Path_14947" data-name="Path 14947" d="M375.92,280.982a.334.334,0,0,1-.33-.285c-.051-.344-.11-.688-.176-1.025l-.033-.16a8.95,8.95,0,0,0-17.592.238.334.334,0,0,1-.658-.114,9.619,9.619,0,0,1,18.854-.5h0l.05.241c.081.4.152.809.213,1.219a.334.334,0,0,1-.281.38A.343.343,0,0,1,375.92,280.982Z" transform="translate(-357.125 -271.661)" fill="url(#linear-gradient)"/>
    </g>
    <g id="Group_14020" data-name="Group 14020" transform="translate(295.617 206.155)">
      <path id="Path_14948" data-name="Path 14948" d="M816.633,551.2a.335.335,0,0,1-.323-.42,22.7,22.7,0,0,0,.723-7.294.334.334,0,1,1,.667-.042,23.37,23.37,0,0,1-.744,7.508A.334.334,0,0,1,816.633,551.2Z" transform="translate(-816.299 -543.131)" fill="url(#linear-gradient)"/>
    </g>
    <g id="Group_14021" data-name="Group 14021" transform="translate(275.452 194.008)">
      <path id="Path_14949" data-name="Path 14949" d="M300.307,248.467a.334.334,0,0,1-.245-.561,2.781,2.781,0,0,0,.707-2.317l-.024-.114A11.171,11.171,0,0,1,313.183,232.2a.334.334,0,1,1-.09.662,10.5,10.5,0,0,0-11.73,12.291l.04.186a3.449,3.449,0,0,1-.852,3.019A.333.333,0,0,1,300.307,248.467Z" transform="translate(-299.973 -232.103)" fill="url(#linear-gradient)"/>
    </g>
    <g id="Group_14022" data-name="Group 14022" transform="translate(290.13 194.522)">
      <path id="Path_14950" data-name="Path 14950" d="M683.766,262.066l-.042,0a.334.334,0,0,1-.29-.373,24.375,24.375,0,0,0-.258-7.635l-.045-.214a10.513,10.513,0,0,0-7.092-7.924.334.334,0,0,1,.2-.636,11.183,11.183,0,0,1,7.476,8.117h0l.066.313a25.054,25.054,0,0,1,.309,8.065A.334.334,0,0,1,683.766,262.066Z" transform="translate(-675.806 -245.264)" fill="url(#linear-gradient)"/>
    </g>
  </g>
</svg>
