<svg xmlns="http://www.w3.org/2000/svg" xmlns:xlink="http://www.w3.org/1999/xlink" width="50" height="49" viewBox="0 0 50 49">
  <defs>
    <filter id="Rectangle_222" x="0" y="0" width="50" height="49" filterUnits="userSpaceOnUse">
      <feOffset dx="-2" dy="1" input="SourceAlpha"/>
      <feGaussianBlur stdDeviation="1" result="blur"/>
      <feFlood flood-color="#b8cee2"/>
      <feComposite operator="in" in2="blur"/>
      <feComposite in="SourceGraphic"/>
    </filter>
  </defs>
  <g id="Group_14469" data-name="Group 14469" transform="translate(-248 -287)">
    <g id="Group_13874" data-name="Group 13874">
      <g transform="matrix(1, 0, 0, 1, 248, 287)" filter="url(#Rectangle_222)">
        <g id="Rectangle_222-2" data-name="Rectangle 222" transform="translate(5 2)" fill="rgba(255,255,255,0)" stroke="#5c6d80" stroke-width="1">
          <rect width="44" height="43" rx="4" stroke="none"/>
          <rect x="0.5" y="0.5" width="43" height="42" rx="3.5" fill="none"/>
        </g>
      </g>
    </g>
    <path id="video-camera-alt" d="M22.9,6.538a1.97,1.97,0,0,0-2.077.188,1.009,1.009,0,0,0-.11.1L18.959,8.6A4.99,4.99,0,0,0,14,4H5A5,5,0,0,0,0,9v6a5.006,5.006,0,0,0,5,5h9a4.99,4.99,0,0,0,4.962-4.627l1.756,1.754a1.178,1.178,0,0,0,.107.092A1.985,1.985,0,0,0,24,15.632V8.314a1.972,1.972,0,0,0-1.1-1.775ZM14,18H5a3,3,0,0,1-3-3V9A3,3,0,0,1,5,6h9a3,3,0,0,1,3,3v6A3,3,0,0,1,14,18Zm5-5.417V11.394l3-3.028.025,7.238L19,12.582Z" transform="translate(262 297.999)" fill="#5b6e80"/>
  </g>
</svg>
