<svg xmlns="http://www.w3.org/2000/svg" xmlns:xlink="http://www.w3.org/1999/xlink" width="45.384" height="34.817" viewBox="0 0 45.384 34.817">
  <defs>
    <clipPath id="clip-path">
      <path id="Path_17015" data-name="Path 17015" d="M49.966,136.7l-11.19.772h11.19Z" transform="translate(-38.776 -136.701)" fill="#3d1e74"/>
    </clipPath>
    <clipPath id="clip-path-2">
      <path id="Path_17014" data-name="Path 17014" d="M2034.527,0,2023.39.771V3.134h11.137Z" transform="translate(-2023.39 -0.003)" fill="#3d1e74"/>
    </clipPath>
    <clipPath id="clip-path-3">
      <path id="Path_17016" data-name="Path 17016" d="M713.481,91.135l-11.137.768v.79h11.137Z" transform="translate(-702.344 -91.135)" fill="#3d1e74"/>
    </clipPath>
    <clipPath id="clip-path-4">
      <path id="Path_17017" data-name="Path 17017" d="M1362.867,46.336v1.576H1374V45.568Z" transform="translate(-1362.867 -45.568)" fill="#3d1e74"/>
    </clipPath>
    <clipPath id="clip-path-5">
      <rect id="Rectangle_85735" data-name="Rectangle 85735" width="33.72" height="31.411" fill="#3d1e74"/>
    </clipPath>
  </defs>
  <g id="Group_14481" data-name="Group 14481" transform="translate(953 4394)">
    <g id="Group_14465" data-name="Group 14465" transform="translate(-1259.706 -4647.497)">
      <g id="Group_14459" data-name="Group 14459" transform="translate(306.706 255.859)">
        <g id="Group_14458" data-name="Group 14458" clip-path="url(#clip-path)">
          <rect id="Rectangle_85717" data-name="Rectangle 85717" width="11.19" height="0.772" fill="#3d1e74"/>
        </g>
      </g>
      <g id="Group_14457" data-name="Group 14457" transform="translate(340.953 253.5)">
        <g id="Group_14456" data-name="Group 14456" clip-path="url(#clip-path-2)">
          <rect id="Rectangle_85716" data-name="Rectangle 85716" width="11.137" height="3.131" fill="#3d1e74"/>
        </g>
      </g>
      <g id="Group_14461" data-name="Group 14461" transform="translate(318.156 255.073)">
        <g id="Group_14460" data-name="Group 14460" clip-path="url(#clip-path-3)">
          <rect id="Rectangle_85718" data-name="Rectangle 85718" width="11.137" height="1.558" fill="#3d1e74"/>
        </g>
      </g>
      <g id="Group_14463" data-name="Group 14463" transform="translate(329.555 254.286)">
        <g id="Group_14462" data-name="Group 14462" clip-path="url(#clip-path-4)">
          <rect id="Rectangle_85719" data-name="Rectangle 85719" width="11.137" height="2.345" fill="#3d1e74"/>
        </g>
      </g>
      <g id="Group_14480" data-name="Group 14480" transform="translate(313.706 256.903)">
        <g id="Group_14479" data-name="Group 14479" clip-path="url(#clip-path-5)">
          <path id="Path_17029" data-name="Path 17029" d="M33,25.02a5.1,5.1,0,0,0-1.381-2.235,14.41,14.41,0,0,1-1.221-1.556,1.592,1.592,0,0,1-.156-.848,9.735,9.735,0,0,0-.584-3.453,5.861,5.861,0,0,1-.309-1.32,3.63,3.63,0,0,1,.137-1.351c.808-1.479,1.645-2.445,2.346-3.979.886-1.941,1.678-3.8,1.149-6.069A5.548,5.548,0,0,0,29.133.054c-.257-.082-.708-.109-.853.2-.333.72.618,1.3,1.016,1.723a4.47,4.47,0,0,1,1.325,1.8,4.256,4.256,0,0,1,.215,2.905c-.451,1.685-1.919,4.85-3.346,5.957-.654.507-1.051.229-1.549.095a53.75,53.75,0,0,0-5.2-1.621,18.563,18.563,0,0,0-5.931-.133c-.856.128-1.453.465-2.451.682C5.759,13.1,8.04,9,7.474,4.479c-.072-.578-.4-1.924-.787-1.6-.526.437.387,2.063-.844,1.951-.385-.035-1.248-.282-1.463-.306a2.2,2.2,0,0,0-1.4.194c-.127.045-.454.464-.786.491a7.686,7.686,0,0,0-1.414.037A.943.943,0,0,0,.4,5.42a1.182,1.182,0,0,0-.282.69c-.032.224-.068.411-.092.611a2.986,2.986,0,0,0,.2,1.492.839.839,0,0,0,.422.417,6.416,6.416,0,0,1,1.385.836,4.162,4.162,0,0,1,1.3,2.891,23.509,23.509,0,0,0,2.994,8.086,18.369,18.369,0,0,1,1.321,2.081c.828,2.031.53,3.817.209,5.912a2.454,2.454,0,0,1-.445.907c-.256.307-.465.183-.813.31a1.165,1.165,0,0,0-.68.942,1.112,1.112,0,0,0,.006.433,12.481,12.481,0,0,0,2.592-.172c.787-.667,2.433-7.168,2.439-7.163,1.044.787,1.443,3.514,2.187,4.952a2.088,2.088,0,0,1,.21,1.175c-.044.2-.491.191-.538.233a.912.912,0,0,0-.411.769,1.162,1.162,0,0,0,.163.59c.755-.01,1.509-.027,2.26-.037a1.088,1.088,0,0,0,.387-.4c.12-.2.068-.371.116-.7.265-1.8-1.611-6.99-1.166-8.057.79-1.9,4.427-1.673,5.89-1.056.526.221,1.684,3.988,2.152,4.809a1.4,1.4,0,0,1,.005,1.371,4.39,4.39,0,0,1-.811,1.163,3.78,3.78,0,0,1-.9.709,1.355,1.355,0,0,1-.662.128,1.018,1.018,0,0,0-.8.348,1.16,1.16,0,0,0-.084.961c.8,0,1.61-.04,2.4-.03.488-.34.634-.234,1.152-.721.979-.922,2.472-2.029,2.8-3.754.051-.265-.384-2.453-.411-3-.494-.806,1.484.873,1.784,1.1a25.755,25.755,0,0,0,2.646,1.758,6.832,6.832,0,0,1,2.036,1.415A2.236,2.236,0,0,1,31.7,28.5a3.3,3.3,0,0,1,.052,1.06c0,.009-.332.011-.466.137a1.375,1.375,0,0,0-.392,1.335c.8,0,1.612-.054,2.429-.018.223-.638.483-.318.373-1.32s-.443-3.466-.7-4.676" transform="translate(0 0)" fill="#3d1e74"/>
        </g>
      </g>
    </g>
  </g>
</svg>
