<svg xmlns="http://www.w3.org/2000/svg" xmlns:xlink="http://www.w3.org/1999/xlink" width="45.385" height="44.3" viewBox="0 0 45.385 44.3">
  <defs>
    <clipPath id="clip-path">
      <rect id="Rectangle_85711" data-name="Rectangle 85711" width="1.165" height="3.625" fill="#3d1e74"/>
    </clipPath>
    <clipPath id="clip-path-2">
      <rect id="Rectangle_85712" data-name="Rectangle 85712" width="1.797" height="5.336" fill="#3d1e74"/>
    </clipPath>
    <clipPath id="clip-path-3">
      <rect id="Rectangle_85713" data-name="Rectangle 85713" width="1.721" height="5.251" fill="#3d1e74"/>
    </clipPath>
    <clipPath id="clip-path-4">
      <rect id="Rectangle_85714" data-name="Rectangle 85714" width="2.281" height="1.172" fill="#3d1e74"/>
    </clipPath>
    <clipPath id="clip-path-5">
      <path id="Path_17015" data-name="Path 17015" d="M49.966,136.7l-11.19.772h11.19Z" transform="translate(-38.776 -136.701)" fill="#3d1e74"/>
    </clipPath>
    <clipPath id="clip-path-6">
      <path id="Path_17014" data-name="Path 17014" d="M2034.527,0,2023.39.771V3.134h11.137Z" transform="translate(-2023.39 -0.003)" fill="#3d1e74"/>
    </clipPath>
    <clipPath id="clip-path-7">
      <path id="Path_17016" data-name="Path 17016" d="M713.481,91.135l-11.137.768v.79h11.137Z" transform="translate(-702.344 -91.135)" fill="#3d1e74"/>
    </clipPath>
    <clipPath id="clip-path-8">
      <path id="Path_17017" data-name="Path 17017" d="M1362.867,46.336v1.576H1374V45.568Z" transform="translate(-1362.867 -45.568)" fill="#3d1e74"/>
    </clipPath>
  </defs>
  <g id="Group_14465" data-name="Group 14465" transform="translate(-306.706 -253.5)">
    <g id="Group_14464" data-name="Group 14464" transform="translate(310.1 195.929)">
      <path id="Path_16990" data-name="Path 16990" d="M377.252,666.309c-.565,2.146,2.52,1.03,2.348,2.844a10.845,10.845,0,0,0,1.087,6.419,8.7,8.7,0,0,1,1.061,2.666,15.452,15.452,0,0,1,.079,4.288c-.023.208-.013.524-.228.695a1.439,1.439,0,0,0-.616,1.626c.26.457.728.553,1.439.491a2.65,2.65,0,0,0,.826-.215,2.339,2.339,0,0,0,1.4-2.122,31.956,31.956,0,0,0,.5-5.177c-.1-.5-1.423-2.151-1.624-2.854s.527-2.786.728-4.82.5-5.5-.326-6.15-6.677,2.31-6.677,2.31" transform="translate(-354.688 -584.322)" fill="#3d1e74"/>
      <path id="Path_16991" data-name="Path 16991" d="M155.585,770.99a37.445,37.445,0,0,1,1.677,8.231c.4,4.064.524,4.306.181,4.633-.569.544-1.142,1.234-.784,2.105.046.112.222.186.338.221a4.845,4.845,0,0,0,2.322-.126c2.149-.451,1.766-12.424,1.766-12.424Z" transform="translate(-146.306 -685.02)" fill="#3d1f74"/>
      <path id="Path_16992" data-name="Path 16992" d="M165.241,590.138a24.166,24.166,0,0,1-2.947-7.009c-1.242-4.7-2.962-6.826-8.127-6.859-4.064-.026-9.5.786-11.1.129a1.443,1.443,0,0,1-.828-1.061.252.252,0,0,1,.149-.271c-2.474-.7-5.673-.963-7.684.66.452.124.547.422.547.595,0,.466-.155,3.2-.078,4.866s.129,6.807,3.7,8.671c1.222.638,2.167.188,3.313,0a13.889,13.889,0,0,0,5.94-2.44c2.368-1.4,4.18-2.789,4.8-2.633s5.488,2.984,6.847,2.168a5.819,5.819,0,0,0,5.375,3.371.121.121,0,0,0,.094-.187" transform="translate(-126.667 -500.265)" fill="#5a02ff"/>
      <path id="Path_16993" data-name="Path 16993" d="M281.686,735.551a7.47,7.47,0,0,0,2.841-.861,23.894,23.894,0,0,0,3.54-2.387c1.126-.945,2.247-2.058,2.808-2.179l-.485,1.784a29.27,29.27,0,0,0-5.526,3,6.778,6.778,0,0,1-3.2,1.042Z" transform="translate(-264.862 -646.591)" fill="#3d1e74"/>
      <g id="Group_14444" data-name="Group 14444" transform="translate(23.567 80.777)" opacity="0.6">
        <g id="Group_14443" data-name="Group 14443">
          <g id="Group_14442" data-name="Group 14442" clip-path="url(#clip-path)">
            <path id="Path_16994" data-name="Path 16994" d="M395.156,687.54c.6-.366,1.112-1.4,1.164-3.035.027-.858-.388-.585-.4-.38a10.373,10.373,0,0,1-.22,2,3.427,3.427,0,0,1-.547,1.414" transform="translate(-395.156 -683.915)" fill="#3d1e74"/>
          </g>
        </g>
      </g>
      <g id="Group_14447" data-name="Group 14447" transform="translate(19.46 82.113)" opacity="0.6">
        <g id="Group_14446" data-name="Group 14446">
          <g id="Group_14445" data-name="Group 14445" clip-path="url(#clip-path-2)">
            <path id="Path_16995" data-name="Path 16995" d="M326.3,711.647c.748-.4,1.5-1.909,1.781-4.651.061-.595-.062-.726-.2-.674-.107.04-.218.137-.285.556a21.074,21.074,0,0,1-.523,2.959,6.439,6.439,0,0,1-.773,1.811" transform="translate(-326.305 -706.311)" fill="#3d1e74"/>
          </g>
        </g>
      </g>
      <g id="Group_14450" data-name="Group 14450" transform="translate(21.326 81.287)" opacity="0.6">
        <g id="Group_14449" data-name="Group 14449">
          <g id="Group_14448" data-name="Group 14448" clip-path="url(#clip-path-3)">
            <path id="Path_16996" data-name="Path 16996" d="M357.588,697.718c1.1-.684,1.456-1.984,1.706-4.548.06-.613-.062-.768-.2-.681-.091.056-.178.173-.23.531a26.521,26.521,0,0,1-.449,2.867,3.707,3.707,0,0,1-.823,1.831" transform="translate(-357.588 -692.467)" fill="#3d1e74"/>
          </g>
        </g>
      </g>
      <path id="Path_16997" data-name="Path 16997" d="M436.065,668.158a10.054,10.054,0,0,0-.233,5.824,17,17,0,0,0,3.209,5.125,6.968,6.968,0,0,1,1.314,2.227,7.829,7.829,0,0,1,.265,3.519c-.024.215-.049.542-.181.634a1.492,1.492,0,0,0-.7,1.825.588.588,0,0,0,.394.276,2.777,2.777,0,0,1,.415.117.935.935,0,0,0,.641.047c.161-.03.259-.033.424-.052.788-.09,1.739-.686,1.99-2.329a21.066,21.066,0,0,0,.181-5.047c-.1-.518-1.283-2.521-1.423-3.261-.425-2.242.089-3.452.3-5.548s.991-5.09.137-5.763-6.73,2.407-6.73,2.407" transform="translate(-409.523 -585.967)" fill="#5a02ff"/>
      <path id="Path_16998" data-name="Path 16998" d="M530.929,1015.181c-.026-.712.079-1.27.388-1.326s-.055.514.036,1.275a1.3,1.3,0,0,1-.424.052" transform="translate(-499.261 -913.397)" fill="#3d1e74"/>
      <path id="Path_16999" data-name="Path 16999" d="M513.209,1014.233c-.029-.5.066-1.1.3-1.194.329-.129.123.352.1.759a2.443,2.443,0,0,0,.011.553.9.9,0,0,1-.415-.118" transform="translate(-482.598 -912.613)" fill="#3d1e74"/>
      <path id="Path_17000" data-name="Path 17000" d="M430.619,704.208a11.892,11.892,0,0,1-.94-5.662c.127-1.36.666-2.957.5-2.8a7.565,7.565,0,0,0-1.035,4.879c.283,2.676,1.475,3.585,1.475,3.585" transform="translate(-403.507 -614.253)" fill="#3d1e74"/>
      <path id="Path_17001" data-name="Path 17001" d="M543.679,664.663a18.982,18.982,0,0,1-.186,6.028c-.447,2.423-.731,3.286-.331,5.127a8.918,8.918,0,0,0,1.035,2.511c.751,1.488.666,1.566.55,4.154-.038.845.078.833.168.052a20.351,20.351,0,0,0,.142-2.989c-.1-1.061-1.143-2.369-1.43-3.6-.355-1.52-.112-2.733.306-4.976a11.482,11.482,0,0,0-.255-6.309" transform="translate(-510.588 -585.034)" fill="#3d1e74"/>
      <path id="Path_17002" data-name="Path 17002" d="M192.149,792.664a47.4,47.4,0,0,1,1.514,7.881c.194,2.64.621,3.688-.078,4.038a1.941,1.941,0,0,0-1.126,2.252.369.369,0,0,0,.314.207,1.1,1.1,0,0,1,.362.083,1.083,1.083,0,0,0,.693.05,2.259,2.259,0,0,1,.418-.01,3.127,3.127,0,0,0,2.309-1.048,2.655,2.655,0,0,0,.546-1.221c.476-2.867.177-8.266.211-10.406.039-2.446-5.008-1.825-5.008-1.825Z" transform="translate(-180.689 -705.335)" fill="#5a02ff"/>
      <path id="Path_17003" data-name="Path 17003" d="M188.56,786.209a14,14,0,0,0-.874-3.352c-.233-.252.33,2.207.447,3.022s.427.33.427.33" transform="translate(-176.441 -696.162)" fill="#3d1e74"/>
      <path id="Path_17004" data-name="Path 17004" d="M265.368,770.729c.155.7.82,1.7.776,2.116a20.122,20.122,0,0,0-.1,2.465c0,1.476.024,4.9,0,6.969a14.162,14.162,0,0,1-.155,2.329,7.989,7.989,0,0,0,.466-2.6c.077-1.424.117-6.307.123-6.93a16.3,16.3,0,0,1,.155-2.174c.1-.569-1.315-2.382-1.268-2.174" transform="translate(-249.54 -684.759)" fill="#3d1e74"/>
      <path id="Path_17005" data-name="Path 17005" d="M220.31,1015.074c-.249-.04-.437.44-.349,1.31a2.089,2.089,0,0,0,.418-.01,4.749,4.749,0,0,1-.01-.7c.029-.408.061-.582-.058-.6" transform="translate(-206.822 -914.545)" fill="#3d1e74"/>
      <path id="Path_17006" data-name="Path 17006" d="M202.262,1014.846a2.325,2.325,0,0,1,.014-1.124c.1-.388-.33-.281-.4.252a2.152,2.152,0,0,0,.023.789,1.22,1.22,0,0,0,.362.083" transform="translate(-189.816 -913.057)" fill="#3d1e74"/>
      <g id="Group_14453" data-name="Group 14453" transform="translate(27.815 77.13)" opacity="0.6">
        <g id="Group_14452" data-name="Group 14452">
          <g id="Group_14451" data-name="Group 14451" clip-path="url(#clip-path-4)">
            <path id="Path_17007" data-name="Path 17007" d="M466.392,623.946a1.749,1.749,0,0,1,2.044-.571c.691.271-.24-.932-1.383-.511-.651.24-.661,1.082-.661,1.082" transform="translate(-466.392 -622.773)" fill="#3d1e74"/>
          </g>
        </g>
      </g>
      <path id="Path_17008" data-name="Path 17008" d="M19.588,410.1c-.116-.349-.135-.416-.135-.416.661-.21,2.717-.839,2.392-4.1-.309-3.1-1.369-4.793-2.608-5.826a5.851,5.851,0,0,0-4.224-1.26c-2.768.083-4.366,1.3-5.006,2.768s-.695,1.57-1.961,1.691c-.8.076-1.281.067-1.974.133-.985.095-1.532.49-1.507,1.587.067,3,1.641,3.522,1.641,3.522.4.84,1.28,1.881,3.8,1.881a6.63,6.63,0,0,1,1.811.093,1.265,1.265,0,0,1,1.034,1.113c.005.152,0,.463-.016.868,2.717-.6,4.182-1.1,6.853-1.863a.811.811,0,0,1-.1-.2" transform="translate(-4.291 -334.741)" fill="#5a02ff"/>
      <path id="Path_17009" data-name="Path 17009" d="M198.639,441.974a23.454,23.454,0,0,0-.5,5.054,2.923,2.923,0,0,0,2.775,2.634,2.2,2.2,0,0,0,2.244-1.89,6.311,6.311,0,0,0,.2-1.579,5.58,5.58,0,0,1,.122.975,2.634,2.634,0,0,1-2.64,3.077,3.149,3.149,0,0,1-2.291-.924,4.3,4.3,0,0,1-.883-3.7c.324-2.3,1.242-5.2.973-3.644" transform="translate(-185.813 -375.213)" fill="#3d1e74"/>
      <path id="Path_17010" data-name="Path 17010" d="M32.088,561.255a6.13,6.13,0,0,0,2.105.275,9.516,9.516,0,0,1,2.045.041,5.514,5.514,0,0,1-3.8.289Z" transform="translate(-30.174 -487.793)" fill="#3d1e74"/>
      <path id="Path_17011" data-name="Path 17011" d="M1.78,475.437a1.418,1.418,0,0,1-.2,1.336,2.972,2.972,0,0,1-.7.661c-.153.135-.021.5-.5.725a4.009,4.009,0,0,1-.32-2.254c.215-.584,1.721-.467,1.721-.467" transform="translate(0 -407.085)" fill="#603227"/>
      <path id="Path_17012" data-name="Path 17012" d="M119.933,448.828a1.045,1.045,0,0,1,1.319.931,1.156,1.156,0,0,1-1.12,1.4c-.856.069-.2-2.329-.2-2.329" transform="translate(-112.554 -382.048)" fill="#fff"/>
      <path id="Path_17013" data-name="Path 17013" d="M111.131,449.346c-.386-.018-.853.362-.834,1.235a1,1,0,0,0,1,1.085c.416-.029.667-.831.5-1.55s-.665-.77-.665-.77" transform="translate(-103.718 -382.558)" fill="#603227"/>
    </g>
    <g id="Group_14459" data-name="Group 14459" transform="translate(306.706 255.859)">
      <g id="Group_14458" data-name="Group 14458" clip-path="url(#clip-path-5)">
        <rect id="Rectangle_85717" data-name="Rectangle 85717" width="11.19" height="0.772" transform="translate(0)" fill="#3d1e74"/>
      </g>
    </g>
    <g id="Group_14457" data-name="Group 14457" transform="translate(340.953 253.5)">
      <g id="Group_14456" data-name="Group 14456" clip-path="url(#clip-path-6)">
        <rect id="Rectangle_85716" data-name="Rectangle 85716" width="11.137" height="3.131" transform="translate(0)" fill="#3d1e74"/>
      </g>
    </g>
    <g id="Group_14461" data-name="Group 14461" transform="translate(318.156 255.073)">
      <g id="Group_14460" data-name="Group 14460" clip-path="url(#clip-path-7)">
        <rect id="Rectangle_85718" data-name="Rectangle 85718" width="11.137" height="1.558" fill="#3d1e74"/>
      </g>
    </g>
    <g id="Group_14463" data-name="Group 14463" transform="translate(329.555 254.286)">
      <g id="Group_14462" data-name="Group 14462" clip-path="url(#clip-path-8)">
        <rect id="Rectangle_85719" data-name="Rectangle 85719" width="11.137" height="2.345" transform="translate(0)" fill="#3d1e74"/>
      </g>
    </g>
  </g>
</svg>
