<svg xmlns="http://www.w3.org/2000/svg" xmlns:xlink="http://www.w3.org/1999/xlink" width="35.371" height="42.119" viewBox="0 0 35.371 42.119">
  <defs>
    <clipPath id="clip-path">
      <rect id="Rectangle_85733" data-name="Rectangle 85733" width="32.783" height="41.512" fill="#f5b054"/>
    </clipPath>
  </defs>
  <g id="Group_14474" data-name="Group 14474" transform="translate(-138.629 -289.287)">
    <g id="Group_14473" data-name="Group 14473" transform="translate(141.217 289.287)">
      <g id="Group_14409" data-name="Group 14409" transform="translate(0 0)">
        <g id="Group_14410" data-name="Group 14410" transform="translate(0 0)">
          <path id="Path_16700" data-name="Path 16700" d="M83.719,15.58a.349.349,0,0,1-.072.044,1.544,1.544,0,0,1-.217.125c-.044.024-.1.048-.153.072.028-.048.06-.092.089-.141.012,0,.024,0,.036-.008.181-.044.289-.085.318-.092" transform="translate(-57.699 -15.58)" fill="#f5b054"/>
          <path id="Path_16714" data-name="Path 16714" d="M22.6,121.807a1.644,1.644,0,0,1-.233-.181.086.086,0,0,1,.012-.04c.072.077.145.153.221.221" transform="translate(-17.886 -84.871)" fill="#f5b054"/>
          <g id="Group_14471" data-name="Group 14471" transform="translate(0 0.606)">
            <g id="Group_14470" data-name="Group 14470" clip-path="url(#clip-path)">
              <path id="Path_17019" data-name="Path 17019" d="M21.051,39.609c.037.06.072.109.1.162a.376.376,0,0,1-.1.522,1.776,1.776,0,0,1-.874.4,3.362,3.362,0,0,1-.735.046c-.12,0-.24,0-.363,0a.228.228,0,0,0-.029.047.735.735,0,0,1-.426.47,2.253,2.253,0,0,1-1.03.25,2.17,2.17,0,0,0-.292,0,2.242,2.242,0,0,1-.88-.157,1.4,1.4,0,0,1-.48-.274c-.131-.111-.2-.113-.327,0a1.521,1.521,0,0,1-.6.315c-.12.035-.239.072-.36.1a.5.5,0,0,1-.124.01c-.172,0-.344-.009-.515,0a2.286,2.286,0,0,1-1.01-.216.764.764,0,0,1-.511-.573c-.131.006-.256.011-.38.018a2.426,2.426,0,0,1-1.337-.245,1.9,1.9,0,0,1-.279-.182.4.4,0,0,1-.042-.639,2.313,2.313,0,0,1,.212-.175c-.038-.042-.072-.085-.112-.122a5.426,5.426,0,0,1-1.51-2.35.724.724,0,0,0-.316-.4,9.114,9.114,0,0,1-3.214-3.6,10.554,10.554,0,0,1-1.016-3.237A13.738,13.738,0,0,1,4.39,27c.022-.468.054-.935.122-1.4a10.526,10.526,0,0,1,.841-2.9,3.793,3.793,0,0,1,.713-1.057,1.644,1.644,0,0,1,.515-.373.888.888,0,0,1,.611-.048.716.716,0,0,1,.548.7,3.042,3.042,0,0,1-.126.906c-.154.578-.315,1.154-.468,1.732a12.021,12.021,0,0,0-.37,1.994A12.625,12.625,0,0,0,6.8,29.393,6.782,6.782,0,0,0,7.659,32a5.461,5.461,0,0,0,.765,1.006c.043.045.095.081.163.139.016-.123.03-.217.04-.312a24.9,24.9,0,0,1,.563-3.26A20.328,20.328,0,0,1,12.6,22.2c.027-.037.052-.075.086-.123l-.177-.067c-.719-.26-1.444-.508-2.158-.782a11.633,11.633,0,0,1-3.265-1.882,7.449,7.449,0,0,1-1.776-2.051,6.053,6.053,0,0,1-.575-1.384c-.019-.07-.049-.138-.077-.214l-.633-.01Q2.331,15.656.64,15.623a1.346,1.346,0,0,1-.631-.133c-.024-.175-.009-.2.151-.234a.964.964,0,0,1,.208-.013l2.3.05q.842.018,1.684.032c.073,0,.146-.008.233-.013-.008-.11-.013-.206-.022-.3-.016-.18-.039-.36-.047-.541a.179.179,0,0,0-.131-.183c-.553-.216-1.1-.439-1.655-.658q-.989-.393-1.978-.785a.418.418,0,0,1-.119-.069.215.215,0,0,1-.053-.205A.166.166,0,0,1,.77,12.5a4.346,4.346,0,0,1,.493.144c.937.367,1.871.74,2.807,1.11.133.053.267.1.419.159.012-.051.023-.089.029-.127.053-.367.09-.737.159-1.1A8.516,8.516,0,0,1,6.15,9.246c.407-.564.839-1.111,1.27-1.657a.664.664,0,0,0,.143-.541c-.088-.648-.17-1.3-.24-1.947-.06-.553-.113-1.108-.147-1.663A11.36,11.36,0,0,1,7.268.954,2.314,2.314,0,0,1,7.54.14.246.246,0,0,1,7.875.025a1.147,1.147,0,0,1,.111.057,17.864,17.864,0,0,1,2.52,1.633c.85.653,1.687,1.323,2.528,1.987a.989.989,0,0,0,.518.253,1.993,1.993,0,0,0,.456-.022,18.623,18.623,0,0,1,2.51-.188,14.112,14.112,0,0,1,1.682.062,12.453,12.453,0,0,1,2.433.51A18.1,18.1,0,0,1,24.047,5.8a.791.791,0,0,0,.638.075c1.471-.4,2.948-.783,4.444-1.086a17.843,17.843,0,0,1,1.992-.312,4.48,4.48,0,0,1,.542-.016c.192.007.243.071.239.264a4.552,4.552,0,0,1-.256,1.445A12.379,12.379,0,0,1,30.123,9.1q-.587.846-1.2,1.674a.589.589,0,0,0-.1.571,23.7,23.7,0,0,1,.706,2.961,7.678,7.678,0,0,1,.082,1.734,11.827,11.827,0,0,1-.332,2.015c-.017.072-.029.145-.042.218a.4.4,0,0,0,0,.071c.1,0,.187,0,.279,0q1.5-.029,2.992-.06a.258.258,0,0,1,.235.091.131.131,0,0,1-.069.218.609.609,0,0,1-.151.017l-2.213.039-1.2.024-.508,1.1c.085.035.159.071.236.1l2.727.966.5.176a.86.86,0,0,1,.1.043c.091.046.126.1.11.172a.188.188,0,0,1-.2.125.643.643,0,0,1-.148-.038l-3.186-1.128c-.109-.039-.219-.074-.349-.117-.01.016-.02.037-.033.056a6.29,6.29,0,0,1-2.928,2.353,9.98,9.98,0,0,1-2.426.645,20.035,20.035,0,0,1-2.29.144c-.222.006-.445.016-.672.024a.349.349,0,0,0,.09.2,20.571,20.571,0,0,1,1.073,1.774,21.446,21.446,0,0,1,2.065,5.666,13.673,13.673,0,0,1,.324,3.274,7.97,7.97,0,0,1-.57,2.877,5.7,5.7,0,0,1-1.791,2.354c-.055.043-.109.087-.162.131a.314.314,0,0,0-.032.039M23.41,17.092c.162-.011.324-.018.485-.035a3.246,3.246,0,0,0,1.854-.813,2.391,2.391,0,0,0,.732-1.081,2.524,2.524,0,0,0-.441-2.4,3.67,3.67,0,0,0-1.757-1.246,4.158,4.158,0,0,0-2.318-.088,2.982,2.982,0,0,0-1.569.926,2.363,2.363,0,0,0-.646,1.834,2.662,2.662,0,0,0,.731,1.646,3.872,3.872,0,0,0,2.929,1.26m-12.585-8c-.116.007-.232.012-.347.02a3.279,3.279,0,0,0-2.088.9,2.468,2.468,0,0,0-.52,2.912,3.326,3.326,0,0,0,1.444,1.461,4.1,4.1,0,0,0,2.655.428,3.075,3.075,0,0,0,1.8-.924,2.359,2.359,0,0,0,.709-1.588,2.607,2.607,0,0,0-.664-1.867,3.848,3.848,0,0,0-2.987-1.342m5.246,9.821c-.181.126-.35.234-.512.356a.727.727,0,0,0,.85.124l-.338-.481" transform="translate(0 0)" fill="#f5b054"/>
              <path id="Path_17020" data-name="Path 17020" d="M143.053,143.136a2.048,2.048,0,0,0-4.1.013,2.048,2.048,0,1,0,4.1-.013" transform="translate(-128.986 -130.974)" fill="#f5b054"/>
              <path id="Path_17021" data-name="Path 17021" d="M308.62,172.724a2.05,2.05,0,1,1,2.05-2.057,2.047,2.047,0,0,1-2.05,2.057" transform="translate(-284.582 -156.526)" fill="#f5b054"/>
              <path id="Path_17022" data-name="Path 17022" d="M143.053,143.136a2.048,2.048,0,1,1-2.045-2.039,2.044,2.044,0,0,1,2.045,2.039" transform="translate(-128.986 -130.974)" fill="#f5b054"/>
            </g>
          </g>
        </g>
      </g>
    </g>
    <g id="Group_14472" data-name="Group 14472" transform="translate(138.629 316.614)">
      <circle id="Ellipse_672" data-name="Ellipse 672" cx="6" cy="6" r="6" transform="translate(3.371 2.375)" fill="#fff"/>
      <path id="Path_17023" data-name="Path 17023" d="M25.361,93.239v.941H20.778v-.941h.482v-.43h3.618v.43Z" transform="translate(-13.581 -92.809)" fill="#f5b054"/>
      <path id="Path_17024" data-name="Path 17024" d="M20.353,105.741a3.7,3.7,0,0,0-2.356.84v0a3.731,3.731,0,1,0,6.019,3.622,3.654,3.654,0,0,0,.072-.731,3.74,3.74,0,0,0-3.735-3.735m-2.646,3.578a2.569,2.569,0,0,1,4.278-1.918,2.569,2.569,0,0,0-4,2.135,2.537,2.537,0,0,0,.635,1.689v0a.083.083,0,0,0-.012.04,2.538,2.538,0,0,1-.9-1.95" transform="translate(-10.865 -101.262)" fill="#f5b054"/>
      <path id="Path_17025" data-name="Path 17025" d="M18.976,99.372a1.955,1.955,0,0,0-1.945-1.849H1.946A1.956,1.956,0,0,0,0,99.472v9.263a1.952,1.952,0,0,0,1.946,1.946H17.03a1.953,1.953,0,0,0,1.95-1.946V99.472a.75.75,0,0,0,0-.1M2.657,98.587a.567.567,0,1,1-.567.567.566.566,0,0,1,.567-.567m.8,2.031c0,.052-.072.1-.165.1H2.014c-.089,0-.165-.044-.165-.1v-.467c0-.056.077-.1.165-.1H3.3c.093,0,.165.04.165.1ZM9.488,109.3A5.2,5.2,0,0,1,6.444,99.89,5.148,5.148,0,0,1,9.488,98.9a5.209,5.209,0,0,1,5.2,5.2,5.329,5.329,0,0,1-.032.567A5.208,5.208,0,0,1,9.488,109.3" transform="translate(0 -95.89)" fill="#f5b054"/>
    </g>
  </g>
</svg>
