<svg id="Group_14471" data-name="Group 14471" xmlns="http://www.w3.org/2000/svg" width="63.937" height="44.154" viewBox="0 0 63.937 44.154">
  <path id="Path_2580" data-name="Path 2580" d="M922.371,376.464c-.306,1.952-.826,3.944-1.263,5.877a11.575,11.575,0,0,1-2.073,4.8c-2.054,2.538-5.575,3.61-8.381,5.078-3.687,1.928-7.48,3.676-11.212,5.512-6.89,3.389-14.217,6.869-21.867,6.22a3.26,3.26,0,0,1-3.125,2.4,8.444,8.444,0,0,1-4.06-1.127,29.408,29.408,0,0,1-7.1-4.66,15.766,15.766,0,0,1-4.631-7.206c-.388-1.548.411-3.614,2-3.656a47.791,47.791,0,0,1-.33-10.545,4.3,4.3,0,0,1,.672-2.337,4.506,4.506,0,0,1,2.184-1.278l34.648-12.1a20.279,20.279,0,0,1,4.588-1.21,15.573,15.573,0,0,1,5.383.572,22.417,22.417,0,0,1,13.151,8.41,7.707,7.707,0,0,1,1.483,3.593,6.758,6.758,0,0,1-.069,1.649Z" transform="translate(-858.559 -362.202)"/>
  <path id="Path_2581" data-name="Path 2581" d="M865.626,454.814s3.013,7.874,16.913,14.25" transform="translate(-863.528 -427.307)" fill="none" stroke="#000" stroke-linecap="round" stroke-miterlimit="10" stroke-width="1"/>
  <path id="Path_2582" data-name="Path 2582" d="M865.1,455.387s3.013,7.874,16.918,14.25" transform="translate(-863.153 -427.71)" fill="none" stroke="#000" stroke-linecap="round" stroke-miterlimit="10" stroke-width="1"/>
  <path id="Path_2583" data-name="Path 2583" d="M926.051,400.858l-.046-.112a1.07,1.07,0,0,0-.437-.574,1.2,1.2,0,0,0-.991.118l-22.85,9.9-7.771,3.365c-2.494,1.081-5.062,2.064-7.464,3.339a5.58,5.58,0,0,1-2.054.777,5.079,5.079,0,0,1-2.324-.518,46.257,46.257,0,0,1-9.929-5.429,19.337,19.337,0,0,1-3.619-3.276,10.751,10.751,0,0,1-1.374-2.1,21.5,21.5,0,0,0-.991-2.365c-.655-1.007-1.341-.437-1.686.511a4.13,4.13,0,0,0-.218,1.138c-.03.365-.092.874-.144,1.233-.048.325-.026.767-.042,1.061s0,.411,0,.7a1.468,1.468,0,0,0,.194.738,8.221,8.221,0,0,0,1.561,2.009,46.119,46.119,0,0,0,8.31,6.654c2.778,1.771,6,4.053,9.427,3.951,3.713-.114,7-2.158,10.371-3.483,7.425-2.927,15.119-5.077,22.45-8.277q.874-.384,1.747-.784,2.721-1.238,5.363-2.638a4.64,4.64,0,0,0,2.56-2.4,5.079,5.079,0,0,0-.046-3.532Z" transform="translate(-862.457 -388.853)" fill="#3fd68e"/>
  <path id="Path_2584" data-name="Path 2584" d="M926.494,399.649l-.046-.109a1.053,1.053,0,0,0-.437-.561,1.221,1.221,0,0,0-.988.116l-22.78,9.673-7.747,3.294c-2.488,1.057-5.047,2.018-7.44,3.276a5.636,5.636,0,0,1-2.047.76,5.136,5.136,0,0,1-2.314-.507,46.358,46.358,0,0,1-9.9-5.312,19.152,19.152,0,0,1-3.607-3.2,10.5,10.5,0,0,1-1.369-2.054,20.713,20.713,0,0,0-.989-2.313c-.655-.987-1.337-.437-1.682.5a3.984,3.984,0,0,0-.218,1.111c-.031.358-.092.85-.144,1.2-.046.316-.026.749-.042,1.037s0,.4,0,.685a1.42,1.42,0,0,0,.192.72,8.058,8.058,0,0,0,1.557,1.962,45.821,45.821,0,0,0,8.285,6.5c2.769,1.732,5.984,3.964,9.391,3.863,3.7-.109,6.988-2.11,10.339-3.407,7.408-2.861,15.069-4.966,22.385-8.094q.874-.375,1.747-.767,2.712-1.212,5.349-2.581a4.588,4.588,0,0,0,2.555-2.35,4.879,4.879,0,0,0-.049-3.452Z" transform="translate(-862.898 -388.014)"/>
  <path id="Path_2585" data-name="Path 2585" d="M868.546,444.4v4.15s4.177,4.923,6.642,5.459l.47-4.532a21.6,21.6,0,0,1-7.111-5.077Z" transform="translate(-865.579 -419.985)" fill="#17171a"/>
  <path id="Path_2586" data-name="Path 2586" d="M869.429,446.112s3.492,4.212,6.586,4.888l-.347,3.713s-6.034-4.091-6.034-5.112S869.429,446.112,869.429,446.112Z" transform="translate(-866.2 -421.191)" fill="#1c1c1c"/>
  <path id="Path_2587" data-name="Path 2587" d="M871.681,456.81s3.04,2.442,4.527,3.455" transform="translate(-867.784 -428.711)" stroke="#4d5388" stroke-miterlimit="10" stroke-width="1" opacity="0.38"/>
</svg>
