
<svg xmlns="http://www.w3.org/2000/svg" width="27.917" height="45.674" viewBox="0 0 27.917 45.674">
  <g id="Group_14409" data-name="Group 14409" transform="translate(0 0)">
    <g id="Group_14410" data-name="Group 14410">
      <path id="Path_16692" data-name="Path 16692" d="M18.6,138.47H4.99a.641.641,0,0,1,0-1.281H18.6a.641.641,0,1,1,0,1.281" transform="translate(-2.95 -93.046)" fill="#f5b054"/>
      <path id="Path_16693" data-name="Path 16693" d="M25.036,93.209v.874H20.778v-.874h.448v-.4h3.361v.4Z" transform="translate(-14.092 -62.946)" fill="#f5b054"/>
      <path id="Path_16694" data-name="Path 16694" d="M26.251,109.211a3.39,3.39,0,0,1-.067.68.978.978,0,0,0-.4.389c-.568.96-.448,1.677-1.468,1.856s-3.713.362-3.474-.239c.1-.254.191-.631.325-1.02a.077.077,0,0,1,.012-.037v0a2.486,2.486,0,0,1,.862-1.334c.781-.512,2.339.12.807-.631a5.072,5.072,0,0,1-1.52-1.33,2.382,2.382,0,0,1,2.973-.258,2.385,2.385,0,0,0-3.175,0c-.187-.239-.362-.493-.531-.758v0a3.467,3.467,0,0,1,5.659,2.689" transform="translate(-13.966 -71.717)" fill="#f5b054"/>
      <path id="Path_16695" data-name="Path 16695" d="M29.177,102.478v3.085s-1.326-2.118-2.551-1.606a3.207,3.207,0,0,1-1.225.205,4.951,4.951,0,0,0,.03-.526A4.839,4.839,0,0,0,20.6,98.8a4.783,4.783,0,0,0-2.828.919,4.412,4.412,0,0,1-.4-1.767,1.99,1.99,0,0,1,.056-.433H27.6a1.817,1.817,0,0,1,1.808,1.718,8.354,8.354,0,0,1-1.7,2.163c-.6.474,1.468,1.076,1.468,1.076" transform="translate(-11.783 -66.143)" fill="#f5b054"/>
      <path id="Path_16696" data-name="Path 16696" d="M22.474,81.837c-2.025-.224-3.732.183-3.814.915s1.494,1.5,3.518,1.726,3.727-.183,3.809-.912-1.494-1.5-3.514-1.729m-1.849.978a.543.543,0,0,1-.34.321A1.5,1.5,0,0,1,19.612,83c-.556-.172-.777-.5.116-.65.874-.142,1.11.179.9.47m2.663.426a1.655,1.655,0,0,1-.893.336,1.593,1.593,0,0,1-.863-.437c-.65-.444-.6-.993.937-.889,1.5.108,1.483.646.818.99m1.5.512a1.657,1.657,0,0,1-.694-.1c-.1-.06-.112-.2-.034-.381.071-.332.561-.527,1.176-.1s.146.62-.448.579" transform="translate(-12.654 -55.463)" fill="#f5b054"/>
      <path id="Path_16697" data-name="Path 16697" d="M37.389,2.335a32.378,32.378,0,0,1-3.593-1.3A8.221,8.221,0,0,0,30.983,0c-1.132-.022-2.065.721-3.115,1.031a.013.013,0,0,1-.008,0c-3.455,1.02-8.221.093-10.484,3.518-.262.389-.978,1.278-.445,1.558.209.112.445-.026.628-.123a3.646,3.646,0,0,0,.833-.661,4.492,4.492,0,0,1,2.275-1.094,5.4,5.4,0,0,1,.732-.082,1.973,1.973,0,0,1,.332,0,9.076,9.076,0,0,0-2.017.743,2.111,2.111,0,0,0-.889.531c-.262.34,0,.709.254.96.19.187.433.321.624.508a2.281,2.281,0,0,1,.43.571,4.133,4.133,0,0,1,.419,1.389,9.926,9.926,0,0,1,.089,1.449,8.4,8.4,0,0,0,.807,3.492,15.011,15.011,0,0,1,1.109,1.333c-1.307.426-2.308.149-2.992,1.554-.784,1.625-.467,3.489-1.445,5.065a6.93,6.93,0,0,1-.43.612,2.76,2.76,0,0,1,2.607.071s-2.193-.463-3.223.718a1.959,1.959,0,0,1-.523.474c-.568.564-1.165,1.109-1.7,1.7-.867.957.183,2.215.183,2.215l1.2,1.109a6.638,6.638,0,0,1-.347,1.561c-.075.243-.165.512-.276.814h.56V29.9h.448v-.4h2.436a5.157,5.157,0,0,1-.818-.19A6.308,6.308,0,0,1,15,27.17a1.688,1.688,0,0,1,.811-2.32c.714-.414.632-.96,1.416-.934.889.026.579.93,1.012.934.552.007,1.049-1.191,1.625-1.139,1.337.112,1.292,1.319,1.509,1.408.542.22.613-1.057,1.247-.71.755.411.89,2.577,2.118,1.857.385-.228-.131-1.416-.052-1.655a8.587,8.587,0,0,0,.43-1.688,16.811,16.811,0,0,0-.632-2.786,8.7,8.7,0,0,1,.83,3.018c-.09.971-.542.934-.224,2.432s.157,2.342-1.337,3.07a9.182,9.182,0,0,1-3.052.881V29.9h.449v1.117h4.519a2.171,2.171,0,0,1,2.1,1.632l.1-.146a.747.747,0,0,0-.09.19v0a1.928,1.928,0,0,1,.06.489v3.171c0,.74.079,2.57,0,4.247V41.8a2.118,2.118,0,0,1-.232.971,2.828,2.828,0,0,1-.321.9c-.448.7.183,1.516,1.087,1.419a3.167,3.167,0,0,1,.836-1.367,2.615,2.615,0,0,0-.489,1.311,1.436,1.436,0,0,1-.015.146,2.191,2.191,0,0,0,2.406.254,7.566,7.566,0,0,0-.239-1.621c.254.119.549,1.034.59,1.595,1.875.273,1.565-1.8,1.035-2.951-.452-.99-.527-4.206-.467-5.3.347-5.92,2.786-9.52,1.834-15.527-.433-2.742-1.445-5.7.377-8.18a9.212,9.212,0,0,0,1.935-6.208,3.575,3.575,0,0,1,.467-1.995,2.729,2.729,0,0,1-.657.2,2.2,2.2,0,0,1-.575.034,1.616,1.616,0,0,1-.321-.045c-.052-.015-.108-.03-.164-.041s-.1-.045-.157-.067-.108-.049-.165-.071-.1-.064-.145-.1-.1-.067-.153-.1l-.131-.127c-.041-.041-.09-.082-.131-.131l-.108-.146a1.872,1.872,0,0,1-.2-.306c-.112-.22-.2-.411-.291-.62a5.683,5.683,0,0,0-.31-.534,2.559,2.559,0,0,0-.374-.433c-.067-.063-.142-.1-.205-.16a2.233,2.233,0,0,0-.217-.108,1.163,1.163,0,0,0-.418-.082,1.035,1.035,0,0,0-.332.056.731.731,0,0,0-.2.1c-.03.026-.052.045-.06.052a.445.445,0,0,1,.041-.067.829.829,0,0,1,.183-.153,1.084,1.084,0,0,1,.355-.134,1.188,1.188,0,0,1,.5.019,2.174,2.174,0,0,1,.277.09,2.828,2.828,0,0,1,.262.161,2.163,2.163,0,0,1,.467.456,3.577,3.577,0,0,1,.377.579c.093.2.2.414.3.6a1.4,1.4,0,0,0,.165.265l.086.127.108.112.1.108c.037.033.078.06.119.089l.116.09c.042.022.086.045.127.063a1.037,1.037,0,0,0,.131.063l.134.045a1.144,1.144,0,0,0,.269.067,2.48,2.48,0,0,0,.519.037,3.933,3.933,0,0,0,.762-.112c.175-.273.4-.561.669-.93.762-1.031.134-1.883,0-1.841M23.311,7.079a.374.374,0,0,0-.026.145.474.474,0,0,0,.949,0,.466.466,0,0,0-.411-.467.839.839,0,0,1,.744.31c-.255,1.628-1.618.571-1.618.571a2.252,2.252,0,0,1,.362-.56m3.75,7.418a5.147,5.147,0,0,1-1.352.246A2.49,2.49,0,0,1,23.2,13.171a4.41,4.41,0,0,1,.239-3.866A5.528,5.528,0,0,1,24.7,7.878a2.685,2.685,0,0,0,.725-1.841,6.116,6.116,0,0,0,.007-.691,7.465,7.465,0,0,1,.049-1.636A2.514,2.514,0,0,1,26.658,2c.138-.089.47-.317.62-.149.228.258-.235.814-.366,1a3.264,3.264,0,0,0-.486.859,6.686,6.686,0,0,0-.108,2.263,2.815,2.815,0,0,0,.643,1.9c.257.273.885.971.59,1.382-.12.172-.433.026-.59-.019a5.161,5.161,0,0,0-1.08-.25,4.061,4.061,0,0,0-1.886.276c-.646.336-.807,1.247-.848,1.916-.071,1.083.206,2.712,1.453,3.127a4.609,4.609,0,0,0,2.8-.415c.142-.045.941-.366.941-.041,0,.235-.937.512-1.281.646m-1.546-4.251c-.225-.037-.627.112-.542.392.049.161.217.262.332.37a.946.946,0,0,0,.348.247c.1.033.251-.008.292.116.089.276-.209.448-.374.613a4.215,4.215,0,0,0-.407.557,4,4,0,0,0-.863-.381c-.351-.079-.5-.318-.306-.564s.4-.579.135-.841c-.112-.108-.3-.239-.459-.179a.284.284,0,0,0-.112.4.524.524,0,0,0,.261.213c.067.023.235.019.262.1.044.142-.329.026-.351.015a.572.572,0,0,1-.306-.325,1.056,1.056,0,0,1,.243-1.027,2.539,2.539,0,0,1,2.163-.519.852.852,0,0,1,.751.542.827.827,0,0,1-.366.889c-.082.052-.348.209-.426.082a.183.183,0,0,1,.015-.168.507.507,0,0,0,.06-.168.381.381,0,0,0-.348-.359m2.749,3.1c-.269.018-2.462.112-2.708.112a14.4,14.4,0,0,0-1.449.307c.284-.086,1.016-.325,1.124-.6a.885.885,0,0,0,0-.624,2.25,2.25,0,0,0,.694.553,6.794,6.794,0,0,0,2.155.071,1.929,1.929,0,0,0,.9-.291c-.052.052-.463.448-.717.471m-.045-6.518a1.953,1.953,0,0,1,.15-.56.123.123,0,0,0,0,.037.618.618,0,1,0,.87-.564,2.669,2.669,0,0,1,1.165.523s-1.012,1.539-2.181.564" transform="translate(-9.843 0)" fill="#f5b054"/>
      <path id="Path_16698" data-name="Path 16698" d="M58.8,18.408a.618.618,0,0,1-1.236,0,.123.123,0,0,1,0-.037.794.794,0,0,1,.867-.527.618.618,0,0,1,.366.564" transform="translate(-39.042 -12.098)" fill="#f5b054"/>
      <path id="Path_16699" data-name="Path 16699" d="M42.726,21.468a.474.474,0,0,1-.949,0,.375.375,0,0,1,.026-.146A.925.925,0,0,1,42.311,21h0a.466.466,0,0,1,.411.467" transform="translate(-28.335 -14.244)" fill="#f5b054"/>
      <path id="Path_16700" data-name="Path 16700" d="M83.687,15.58a.324.324,0,0,1-.067.041,1.435,1.435,0,0,1-.2.116c-.041.022-.089.045-.142.067.026-.045.056-.086.083-.131.011,0,.022,0,.033-.007.168-.041.269-.079.3-.086" transform="translate(-56.481 -10.567)" fill="#f5b054"/>
      <path id="Path_16701" data-name="Path 16701" d="M58.8,18.3a.618.618,0,0,1-1.236,0,.123.123,0,0,1,0-.037.618.618,0,0,1,.616-.582.56.56,0,0,1,.25.056.618.618,0,0,1,.366.564" transform="translate(-39.042 -11.993)" fill="#f5b054"/>
      <path id="Path_16702" data-name="Path 16702" d="M42.726,21.452a.474.474,0,0,1-.949,0,.375.375,0,0,1,.026-.146.459.459,0,0,1,.448-.329.167.167,0,0,1,.06.007h0a.466.466,0,0,1,.411.467" transform="translate(-28.335 -14.228)" fill="#f5b054"/>
      <path id="Path_16703" data-name="Path 16703" d="M21.289,95.949h-.512v-.388c.124.1.239.187.355.273.052.041.1.079.157.116" transform="translate(-14.092 -64.813)" fill="#f5b054"/>
      <path id="Path_16704" data-name="Path 16704" d="M9.983,82.9c-1.449-1.319-2.473-3.253-1.726-5.147.288-.732,1.7-2.558,1.083.261-.317,1.46.892,2.962,2.133,4.071.093.086.19.168.284.247V82.9Z" transform="translate(-5.43 -51.883)" fill="#f5b054"/>
      <path id="Path_16705" data-name="Path 16705" d="M16.889,98.4a6.276,6.276,0,0,1-.8-.44,6.823,6.823,0,0,1-.612-.433h2.554l.172.116c.411.28.68.437.68.437s.209,1.33-1.99.321" transform="translate(-10.495 -66.143)" fill="#f5b054"/>
      <path id="Path_16706" data-name="Path 16706" d="M22.474,81.837c-2.025-.224-3.732.183-3.814.915s1.494,1.5,3.518,1.726,3.727-.183,3.809-.912-1.494-1.5-3.514-1.729m-1.849.978a.543.543,0,0,1-.34.321A1.5,1.5,0,0,1,19.612,83c-.556-.172-.777-.5.116-.65.874-.142,1.11.179.9.47m2.663.426a1.655,1.655,0,0,1-.893.336,1.593,1.593,0,0,1-.863-.437c-.65-.444-.6-.993.937-.889,1.5.108,1.483.646.818.99m1.5.512a1.657,1.657,0,0,1-.694-.1c-.1-.06-.112-.2-.034-.381.071-.332.561-.527,1.176-.1s.146.62-.448.579" transform="translate(-12.654 -55.463)" fill="#f5b054"/>
      <path id="Path_16707" data-name="Path 16707" d="M22.474,81.837c-2.025-.224-3.732.183-3.814.915s1.494,1.5,3.518,1.726,3.727-.183,3.809-.912-1.494-1.5-3.514-1.729m-1.849.978a.543.543,0,0,1-.34.321A1.5,1.5,0,0,1,19.612,83c-.556-.172-.777-.5.116-.65.874-.142,1.11.179.9.47m2.663.426a1.655,1.655,0,0,1-.893.336,1.593,1.593,0,0,1-.863-.437c-.65-.444-.6-.993.937-.889,1.5.108,1.483.646.818.99m1.5.512a1.657,1.657,0,0,1-.694-.1c-.1-.06-.112-.2-.034-.381.071-.332.561-.527,1.176-.1s.146.62-.448.579" transform="translate(-12.654 -55.463)" fill="#f5b054"/>
      <rect id="Rectangle_85647" data-name="Rectangle 85647" width="4.975" height="0.116" transform="translate(6.327 31.379)" fill="#f5b054"/>
      <path id="Path_16708" data-name="Path 16708" d="M25.036,93.209v.874H20.778v-.874h.448v-.4h3.361v.4Z" transform="translate(-14.092 -62.946)" fill="#f5b054"/>
      <rect id="Rectangle_85648" data-name="Rectangle 85648" width="4.258" height="0.116" transform="translate(6.686 31.021)" fill="#f5b054"/>
      <path id="Path_16709" data-name="Path 16709" d="M20.088,105.741a3.441,3.441,0,0,0-2.189.781v0a3.466,3.466,0,1,0,5.592,3.365,3.4,3.4,0,0,0,.067-.68,3.475,3.475,0,0,0-3.47-3.47m-2.458,3.324a2.387,2.387,0,0,1,3.975-1.782,2.387,2.387,0,0,0-3.713,1.983,2.357,2.357,0,0,0,.59,1.569v0a.077.077,0,0,0-.012.037,2.358,2.358,0,0,1-.84-1.812" transform="translate(-11.274 -71.717)" fill="#f5b054"/>
      <path id="Path_16710" data-name="Path 16710" d="M17.629,99.24a1.817,1.817,0,0,0-1.807-1.718H1.808A1.817,1.817,0,0,0,0,99.334v8.606a1.814,1.814,0,0,0,1.808,1.808H15.822a1.815,1.815,0,0,0,1.812-1.808V99.334a.7.7,0,0,0,0-.093m-15.16-.728a.527.527,0,1,1-.526.527.526.526,0,0,1,.526-.527m.747,1.887c0,.048-.067.089-.153.089H1.871c-.082,0-.153-.041-.153-.089v-.433c0-.052.071-.09.153-.09H3.062c.087,0,.153.037.153.09Zm5.6,8.068a4.827,4.827,0,0,1-2.828-8.744A4.783,4.783,0,0,1,8.815,98.8a4.839,4.839,0,0,1,4.833,4.833,4.951,4.951,0,0,1-.03.526,4.839,4.839,0,0,1-4.8,4.3" transform="translate(0 -66.143)" fill="#f5b054"/>
      <path id="Path_16711" data-name="Path 16711" d="M20.088,105.741a3.441,3.441,0,0,0-2.189.781v0a3.466,3.466,0,1,0,5.592,3.365,3.4,3.4,0,0,0,.067-.68,3.475,3.475,0,0,0-3.47-3.47m-2.458,3.324a2.387,2.387,0,0,1,3.975-1.782,2.387,2.387,0,0,0-3.713,1.983,2.357,2.357,0,0,0,.59,1.569v0a.077.077,0,0,0-.012.037,2.358,2.358,0,0,1-.84-1.812" transform="translate(-11.274 -71.717)" fill="#f5b054"/>
      <path id="Path_16712" data-name="Path 16712" d="M17.629,99.24a1.817,1.817,0,0,0-1.807-1.718H1.808A1.817,1.817,0,0,0,0,99.334v8.606a1.814,1.814,0,0,0,1.808,1.808H15.822a1.815,1.815,0,0,0,1.812-1.808V99.334a.7.7,0,0,0,0-.093m-15.16-.728a.527.527,0,1,1-.526.527.526.526,0,0,1,.526-.527m.747,1.887c0,.048-.067.089-.153.089H1.871c-.082,0-.153-.041-.153-.089v-.433c0-.052.071-.09.153-.09H3.062c.087,0,.153.037.153.09Zm5.6,8.068a4.827,4.827,0,0,1-2.828-8.744A4.783,4.783,0,0,1,8.815,98.8a4.839,4.839,0,0,1,4.833,4.833,4.951,4.951,0,0,1-.03.526,4.839,4.839,0,0,1-4.8,4.3" transform="translate(0 -66.143)" fill="#f5b054"/>
      <path id="Path_16713" data-name="Path 16713" d="M25.036,93.209v.874H20.778v-.874h.448v-.4h3.361v.4Z" transform="translate(-14.092 -62.946)" fill="#f5b054"/>
      <path id="Path_16714" data-name="Path 16714" d="M22.585,121.791a1.527,1.527,0,0,1-.217-.168.08.08,0,0,1,.011-.037c.067.071.134.142.205.205" transform="translate(-15.171 -82.464)" fill="#f5b054"/>
      <path id="Path_16715" data-name="Path 16715" d="M5.6,80.3a4.566,4.566,0,0,0,.432,3.957S4.1,83.184,5.6,80.3" transform="translate(-3.41 -54.464)" fill="#f5b054"/>
      <path id="Path_16716" data-name="Path 16716" d="M2.957,83.539a3.545,3.545,0,0,0,.336,3.073s-1.5-.837-.336-3.073" transform="translate(-1.706 -56.659)" fill="#f5b054"/>
    </g>
  </g>
</svg>
