<svg xmlns="http://www.w3.org/2000/svg" width="42.769" height="48.771" viewBox="0 0 42.769 48.771">
  <g id="Group_14424" data-name="Group 14424" transform="translate(0 0)">
    <g id="Group_14425" data-name="Group 14425">
      <path id="Path_16960" data-name="Path 16960" d="M15.992,33.643c.073-.134.135-.244.195-.356A3.982,3.982,0,0,1,17.3,31.948a1.9,1.9,0,0,1,.294-.189.475.475,0,0,1,.616.167.5.5,0,0,1-.061.61,1.029,1.029,0,0,1-.154.119,3.091,3.091,0,0,0-1.138,1.5,4.286,4.286,0,0,0-.248,2.183,3.373,3.373,0,0,0,2.6,2.925,4.218,4.218,0,0,0,1.08.131c.247,0,.495-.008.741.008a.46.46,0,0,1,.429.429.48.48,0,0,1-.378.517,1.087,1.087,0,0,1-.232.023c-.338,0-.675,0-1.013,0H16.52a1.55,1.55,0,0,0-.233.009.737.737,0,0,0-.636.765.725.725,0,0,0,.7.7c.065,0,.13,0,.195,0q4.329,0,8.658,0a4.369,4.369,0,0,0,1.271-.173,4.655,4.655,0,0,0,3.445-3.615,5.376,5.376,0,0,0-.234-3.031,9.032,9.032,0,0,0-1.788-2.95q-2.667-3.03-5.347-6.049c-.93-1.052-1.871-2.094-2.744-3.195a17.336,17.336,0,0,1-3.057-5.4.591.591,0,0,0-.093-.129c-.063.082-.11.143-.156.2a2.9,2.9,0,0,1-1.733,1.116,2.452,2.452,0,0,1-2.823-1.212,5.671,5.671,0,0,1-.558-1.45,11.875,11.875,0,0,1-.265-1.811,15.473,15.473,0,0,1-.048-2.57,5.112,5.112,0,0,1,.3-1.406c.026-.069.047-.139.084-.249a1.01,1.01,0,0,0-.178.039,3.209,3.209,0,0,0-.852.61,6.7,6.7,0,0,0-.849,1.016c-.186.267-.362.54-.55.805a2.219,2.219,0,0,1-1.745.965,7.017,7.017,0,0,1-1.362-.043q-.812-.1-1.625-.2a2.456,2.456,0,0,0-.276,0,.6.6,0,0,0,0,.127c.149.579.289,1.16.455,1.734a3.7,3.7,0,0,0,.29.679,1.221,1.221,0,0,0,.7.586c.1.035.2.06.3.089.524.152,1.052.292,1.57.461a3.576,3.576,0,0,1,.78.349,1.924,1.924,0,0,1,.954,1.948A2.311,2.311,0,0,1,8.61,20.23a16.274,16.274,0,0,0-1.284,2.045,8.43,8.43,0,0,0-.733,1.884,5,5,0,0,0-.029,2.393,5.161,5.161,0,0,0,.8,1.764c.269.382.556.753.855,1.112.341.409.7.8,1.059,1.2a4.593,4.593,0,0,1,1.064,2.012c.074.3.138.608.189.916.206,1.232.3,2.476.394,3.72.041.544.084,1.089.119,1.633.025.389.047.779.056,1.169s-.171.573-.563.585c-.286.009-.572,0-.858,0-.115,0-.231.01-.355.016a9.177,9.177,0,0,0-.352,1.132,1.872,1.872,0,0,0,.213.027q1.892,0,3.783,0a1.373,1.373,0,0,0,.237-.045c0-.145,0-.275,0-.4q.007-4.329.015-8.658c0-.1,0-.208,0-.312a1.084,1.084,0,0,1,.015-.194.478.478,0,0,1,.727-.318,1.829,1.829,0,0,1,.243.2q.762.669,1.523,1.339c.075.066.157.124.258.2m4.521,9.288H.783c-.13,0-.26-.006-.39,0-.258.017-.385.136-.388.391q-.011.916,0,1.833c0,.238.117.347.364.371.142.014.286.01.428.01h39.46c.091,0,.182,0,.273,0a1.332,1.332,0,0,0,.194-.016.347.347,0,0,0,.315-.34,1.345,1.345,0,0,0,0-.156q0-.78,0-1.56a1.476,1.476,0,0,0-.008-.195.353.353,0,0,0-.326-.332,3.494,3.494,0,0,0-.39-.008H20.513M42.768,10.48A10.459,10.459,0,1,0,32.329,20.93,10.478,10.478,0,0,0,42.768,10.48M2.41,46.523c-.041.056-.054.066-.054.076-.006.584-.019,1.169-.012,1.753a.417.417,0,0,0,.4.411,3.457,3.457,0,0,0,.39.007H37.915c.117,0,.235.006.351,0a.443.443,0,0,0,.433-.419,1.422,1.422,0,0,0,0-.156c0-.468,0-.936,0-1.4,0-.075-.014-.149-.023-.235a1.071,1.071,0,0,0-.164-.028H2.41M30.451,21.789a1.228,1.228,0,0,0-.036.467q0,5.712,0,11.423a1.957,1.957,0,0,0,.162.908,2.4,2.4,0,0,1,.128.368,6.207,6.207,0,0,1-.01,3.981.5.5,0,0,0,0,.149,1.2,1.2,0,0,0,.167.016c.636-.034,1.272-.063,1.906-.11.362-.027.723-.082,1.083-.128a.545.545,0,0,0,.375-.133q0-8.4,0-16.827a.4.4,0,0,0-.041-.115c-.623.046-1.242.126-1.861.126s-1.237-.08-1.865-.125m-2.01,20.049a3.72,3.72,0,0,0,.6.05c1.027.009,2.054.012,3.081.031a11.479,11.479,0,0,0,3.394-.4,9.122,9.122,0,0,0,4.463-2.8,5.736,5.736,0,0,0,1-1.574,3.807,3.807,0,0,0,.264-2.062,4.8,4.8,0,0,0-.983-2.181.839.839,0,0,0-.405-.291,1.054,1.054,0,0,0-1.168.308A1.457,1.457,0,0,0,38.7,34.88a8.4,8.4,0,0,0,.632.636.658.658,0,0,1,.2.705,3.7,3.7,0,0,1-.749,1.526,4.466,4.466,0,0,1-1.267,1.024,7.955,7.955,0,0,1-1.846.725,17.979,17.979,0,0,1-3.618.54c-.635.038-1.271.057-1.924.086a6.278,6.278,0,0,1-1.688,1.717M16.34,14.231c-.037-.426-.049-.856-.114-1.277a3.415,3.415,0,0,0-1.861-2.626,4.668,4.668,0,0,0-1.128-.419.677.677,0,0,0-.807.3,1.491,1.491,0,0,0-.254.606,10.27,10.27,0,0,0-.149,1.116,15.44,15.44,0,0,0,.11,2.448c.044.438.113.875.2,1.307a4.047,4.047,0,0,0,.523,1.334,1.365,1.365,0,0,0,1.27.69,1.9,1.9,0,0,0,1.737-1.056,3.937,3.937,0,0,0,.28-.764,6.731,6.731,0,0,0,.192-1.662" transform="translate(0 -0.001)" fill="#fff"/>
      <path id="Path_16961" data-name="Path 16961" d="M61.426,145.83c-.1-.079-.182-.137-.258-.2q-.763-.668-1.523-1.339a1.827,1.827,0,0,0-.243-.2.478.478,0,0,0-.727.318,1.09,1.09,0,0,0-.015.194c0,.1,0,.208,0,.312q-.008,4.329-.015,8.658c0,.129,0,.259,0,.4a1.37,1.37,0,0,1-.237.045q-1.892,0-3.783,0a1.909,1.909,0,0,1-.213-.027,9.174,9.174,0,0,1,.352-1.132c.125-.006.24-.015.355-.016.286,0,.572.006.858,0,.392-.012.572-.2.563-.585s-.031-.779-.056-1.169c-.035-.545-.079-1.089-.119-1.633-.093-1.244-.188-2.488-.394-3.72-.051-.307-.116-.613-.189-.916a4.593,4.593,0,0,0-1.064-2.012c-.356-.4-.718-.789-1.059-1.2-.3-.359-.587-.73-.855-1.112a5.162,5.162,0,0,1-.8-1.764,5,5,0,0,1,.029-2.393,8.429,8.429,0,0,1,.733-1.884,16.293,16.293,0,0,1,1.284-2.045,2.311,2.311,0,0,0,.462-1.142,1.924,1.924,0,0,0-.954-1.948,3.573,3.573,0,0,0-.78-.35c-.518-.169-1.046-.309-1.57-.461-.1-.029-.2-.055-.3-.089a1.221,1.221,0,0,1-.7-.586,3.694,3.694,0,0,1-.29-.679c-.165-.574-.306-1.155-.455-1.734a.6.6,0,0,1,0-.127,2.458,2.458,0,0,1,.276,0q.813.1,1.625.2a7.017,7.017,0,0,0,1.362.043,2.22,2.22,0,0,0,1.745-.965c.188-.265.364-.539.549-.805a6.707,6.707,0,0,1,.849-1.016,3.207,3.207,0,0,1,.853-.61,1.015,1.015,0,0,1,.178-.039c-.037.11-.058.181-.084.249a5.115,5.115,0,0,0-.3,1.406,15.492,15.492,0,0,0,.048,2.57,11.9,11.9,0,0,0,.265,1.811,5.674,5.674,0,0,0,.558,1.45,2.452,2.452,0,0,0,2.823,1.212,2.9,2.9,0,0,0,1.733-1.116l.156-.2a.587.587,0,0,1,.093.129,17.339,17.339,0,0,0,3.057,5.4c.873,1.1,1.814,2.143,2.744,3.195q2.673,3.024,5.347,6.049a9.034,9.034,0,0,1,1.788,2.95,5.376,5.376,0,0,1,.234,3.031,4.655,4.655,0,0,1-3.445,3.615,4.371,4.371,0,0,1-1.271.173q-4.329,0-8.658,0c-.065,0-.13,0-.195,0a.725.725,0,0,1-.7-.7.737.737,0,0,1,.636-.765,1.552,1.552,0,0,1,.233-.009H65.27c.338,0,.675.005,1.013,0a1.09,1.09,0,0,0,.232-.023.48.48,0,0,0,.378-.517.46.46,0,0,0-.429-.429c-.246-.017-.494-.012-.741-.008a4.216,4.216,0,0,1-1.08-.131,3.373,3.373,0,0,1-2.6-2.925,4.287,4.287,0,0,1,.248-2.183,3.091,3.091,0,0,1,1.138-1.5,1.036,1.036,0,0,0,.154-.119.5.5,0,0,0,.061-.61.475.475,0,0,0-.616-.167,1.892,1.892,0,0,0-.294.189,3.982,3.982,0,0,0-1.112,1.339c-.06.112-.122.223-.195.356m-5.93-20.5a.512.512,0,0,0-.52-.474.493.493,0,0,0,.036.986.515.515,0,0,0,.484-.512" transform="translate(-45.434 -112.187)" fill="#558fc9"/>
      <path id="Path_16962" data-name="Path 16962" d="M20.513,528.257H40.32a3.494,3.494,0,0,1,.39.008.353.353,0,0,1,.326.332,1.477,1.477,0,0,1,.008.195q0,.78,0,1.56a1.346,1.346,0,0,1,0,.156.347.347,0,0,1-.314.34,1.327,1.327,0,0,1-.194.016c-.091,0-.182,0-.273,0H.8c-.143,0-.287,0-.428-.01-.247-.024-.361-.133-.364-.371q-.011-.916,0-1.832c0-.255.13-.374.388-.391.129-.009.26,0,.39,0h19.73" transform="translate(0 -485.326)" fill="#558fc9"/>
      <path id="Path_16963" data-name="Path 16963" d="M289.8,10.48A10.459,10.459,0,1,1,279.467,0,10.454,10.454,0,0,1,289.8,10.48m-1.707-.013a8.75,8.75,0,1,0-8.758,8.753,8.776,8.776,0,0,0,8.758-8.753" transform="translate(-247.031 -0.001)" fill="#558fc9"/>
      <path id="Path_16964" data-name="Path 16964" d="M28.889,572.461H64.994a1.076,1.076,0,0,1,.164.028c.009.086.023.161.023.235,0,.468,0,.936,0,1.4a1.421,1.421,0,0,1,0,.156.443.443,0,0,1-.433.419c-.116.01-.234,0-.351,0H29.608a3.466,3.466,0,0,1-.39-.007.417.417,0,0,1-.4-.411c-.007-.584.006-1.169.012-1.753,0-.01.014-.02.054-.076" transform="translate(-26.479 -525.939)" fill="#558fc9"/>
      <path id="Path_16965" data-name="Path 16965" d="M374.246,268.1c.628.046,1.247.125,1.865.125s1.239-.081,1.861-.126a.4.4,0,0,1,.041.115q0,8.42,0,16.827a.545.545,0,0,1-.374.133c-.361.046-.721.1-1.083.129-.635.047-1.271.075-1.906.11a1.2,1.2,0,0,1-.167-.016.492.492,0,0,1,0-.149,6.208,6.208,0,0,0,.01-3.981,2.4,2.4,0,0,0-.128-.368,1.956,1.956,0,0,1-.162-.908q.007-5.712,0-11.423a1.228,1.228,0,0,1,.036-.467" transform="translate(-343.794 -246.311)" fill="#558fc9"/>
      <path id="Path_16966" data-name="Path 16966" d="M349.98,409.816a6.281,6.281,0,0,0,1.688-1.717c.653-.028,1.289-.048,1.924-.086a17.972,17.972,0,0,0,3.618-.54,7.958,7.958,0,0,0,1.846-.725,4.465,4.465,0,0,0,1.267-1.024,3.7,3.7,0,0,0,.749-1.526.658.658,0,0,0-.2-.705,8.358,8.358,0,0,1-.632-.636,1.457,1.457,0,0,1-.016-1.957,1.054,1.054,0,0,1,1.168-.308.838.838,0,0,1,.4.291,4.8,4.8,0,0,1,.983,2.181,3.806,3.806,0,0,1-.264,2.062,5.734,5.734,0,0,1-1,1.574,9.122,9.122,0,0,1-4.463,2.8,11.479,11.479,0,0,1-3.394.4c-1.027-.019-2.054-.022-3.081-.031a3.732,3.732,0,0,1-.6-.05" transform="translate(-321.538 -367.979)" fill="#558fc9"/>
      <path id="Path_16967" data-name="Path 16967" d="M152.154,125.9a6.732,6.732,0,0,1-.192,1.662,3.938,3.938,0,0,1-.28.764,1.9,1.9,0,0,1-1.737,1.056,1.365,1.365,0,0,1-1.27-.69,4.047,4.047,0,0,1-.523-1.334c-.086-.432-.156-.869-.2-1.307a15.438,15.438,0,0,1-.11-2.448,10.272,10.272,0,0,1,.149-1.116,1.491,1.491,0,0,1,.254-.606.677.677,0,0,1,.807-.3,4.668,4.668,0,0,1,1.128.419,3.415,3.415,0,0,1,1.861,2.626c.066.421.078.851.114,1.277" transform="translate(-135.814 -111.669)" fill="#558fc9"/>
      <path id="Path_16968" data-name="Path 16968" d="M309.668,49.078a7.142,7.142,0,0,1-4.574-1.875,2.05,2.05,0,0,1,.136-.169c.228-.232.459-.461.689-.69.055-.055.109-.111.165-.166a.494.494,0,0,0,.044-.729.488.488,0,0,0-.727.022c-.058.052-.112.109-.167.164-.221.221-.44.442-.663.661-.064.063-.135.117-.2.174a7.236,7.236,0,0,1-1.9-4.565,2.045,2.045,0,0,1,.255-.033c.351,0,.7,0,1.053,0a1.631,1.631,0,0,0,.272-.013.48.48,0,0,0,0-.943,1.545,1.545,0,0,0-.272-.016c-.325,0-.65,0-.975,0-.1,0-.2-.008-.293-.012-.1-.1-.067-.212-.056-.31a7.733,7.733,0,0,1,1.258-3.485,4.036,4.036,0,0,1,.639-.8c.075.063.147.116.21.178.241.237.478.478.719.715a1.6,1.6,0,0,0,.233.206.483.483,0,0,0,.661-.675,1.981,1.981,0,0,0-.233-.261c-.283-.286-.568-.57-.867-.87a1.508,1.508,0,0,1,.156-.179,7.612,7.612,0,0,1,3.642-1.669,1.991,1.991,0,0,1,.786-.052c.009.09.025.177.026.265,0,.351,0,.7,0,1.053a1.338,1.338,0,0,0,.017.272.474.474,0,0,0,.451.363.459.459,0,0,0,.475-.327,1.194,1.194,0,0,0,.036-.308c0-.3,0-.6,0-.9,0-.129,0-.259,0-.379a.585.585,0,0,1,.471-.043,7.731,7.731,0,0,1,1.992.524,7.847,7.847,0,0,1,1.906,1.129c.061.049.12.1.176.153a.366.366,0,0,1,.045.088c-.051.06-.1.13-.166.192-.247.25-.5.5-.743.746a1.275,1.275,0,0,0-.2.238.463.463,0,0,0,.085.572.451.451,0,0,0,.571.08,1.544,1.544,0,0,0,.267-.224c.279-.272.554-.549.831-.823A.56.56,0,0,1,316,36.3a1.062,1.062,0,0,1,.164.136,7.659,7.659,0,0,1,1.65,3.527c.042.229.065.463.091.7a1.2,1.2,0,0,1-.017.21c-.11.009-.211.023-.313.024-.325,0-.65,0-.975,0a1.577,1.577,0,0,0-.31.021.482.482,0,0,0,.009.935,1.454,1.454,0,0,0,.272.017c.325,0,.65,0,.975,0,.1,0,.2.007.333.012a1.729,1.729,0,0,1,.022.271,7.21,7.21,0,0,1-.481,2.041,7.663,7.663,0,0,1-1.187,2.05c-.064.079-.138.149-.221.238-.082-.071-.152-.125-.214-.186-.241-.237-.478-.478-.718-.716a1.563,1.563,0,0,0-.235-.2.461.461,0,0,0-.6.07.469.469,0,0,0-.057.607,1.679,1.679,0,0,0,.208.231c.292.295.586.588.9.9a1.533,1.533,0,0,1-.156.176,7.629,7.629,0,0,1-3.719,1.682c-.217.034-.436.056-.674.086a1.126,1.126,0,0,1-.058-.233c-.006-.364,0-.728-.006-1.092a1.45,1.45,0,0,0-.027-.309.463.463,0,0,0-.486-.366.477.477,0,0,0-.457.4,1.835,1.835,0,0,0-.011.272c0,.338,0,.676,0,1.014,0,.088-.016.176-.024.26m2.473-8.932c.086-.1.152-.174.224-.247.265-.268.534-.533.8-.8a1.717,1.717,0,0,0,.205-.233.478.478,0,0,0-.057-.607.47.47,0,0,0-.606-.066,1.646,1.646,0,0,0-.233.205c-.286.283-.569.57-.856.853-.062.061-.135.111-.2.166a2.361,2.361,0,0,0-1.706-.3,2.315,2.315,0,1,0,2.433,1.029" transform="translate(-277.868 -30.917)" fill="#558fc9"/>
      <path id="Path_16969" data-name="Path 16969" d="M383.893,113.779a1.316,1.316,0,0,1-1.338,1.327,1.329,1.329,0,0,1,.006-2.657,1.311,1.311,0,0,1,1.332,1.331" transform="translate(-350.254 -103.31)" fill="#558fc9"/>
    </g>
  </g>
</svg>
