<svg xmlns="http://www.w3.org/2000/svg" width="19" height="10.743" viewBox="0 0 19 10.743">
  <path id="Path_16981" data-name="Path 16981" d="M18.82,27a11.157,11.157,0,0,0-9.5,5.371,11.087,11.087,0,0,0,19,0A11.157,11.157,0,0,0,18.82,27Zm0,9.341a3.97,3.97,0,1,1,3.97-3.97A3.976,3.976,0,0,1,18.82,36.341Zm0-7.006a3.036,3.036,0,1,0,3.036,3.036A3.039,3.039,0,0,0,18.82,29.335Zm0,1.868a1.156,1.156,0,0,0-.736.269l-.163.163a1.156,1.156,0,0,0-.269.736.467.467,0,0,1-.934,0,2.1,2.1,0,0,1,2.1-2.1.467.467,0,0,1,0,.934Z" transform="translate(-9.32 -27)" fill="#525252"/>
</svg>
