<svg id="Group_14402" data-name="Group 14402" xmlns="http://www.w3.org/2000/svg" width="51.565" height="25.497" viewBox="0 0 51.565 25.497">
  <g id="Group_14403" data-name="Group 14403" transform="translate(0)">
    <path id="Path_16683" data-name="Path 16683" d="M47.837,4.554C47.837,2.046,37.973.011,25.783,0,13.594.011,3.729,2.046,3.729,4.554L0,20.5c-.067.288,2.554,1.449,2.758,1.541,5.448,2.431,15.979,3.14,23.024,3.458,7.045-.318,17.575-1.027,23.024-3.458.2-.092,2.825-1.253,2.758-1.541L47.837,4.554M21.878,19.666a2.016,2.016,0,0,1-2.566-1.107,2.016,2.016,0,0,1,.36-2.772A2.015,2.015,0,0,1,22.238,16.9a2.016,2.016,0,0,1-.36,2.771m-1.333-5.722a2.016,2.016,0,0,1,.36-2.772A2.016,2.016,0,0,1,23.47,12.28a2.016,2.016,0,0,1-.359,2.771,2.016,2.016,0,0,1-2.566-1.107m10.684,6.314c-.857.333-1.826.071-2.692.379-.818.291-1.264,1.15-1.844,1.737-1.285,1.3-3.766-.129-3.417-1.892a40.37,40.37,0,0,1,1-4.641c.29-.891,1.765-1.431,1.765-1.431s1.81.681,2.689.937a8.679,8.679,0,0,1,2.739.965,3.243,3.243,0,0,1,1.147,1.929,2.549,2.549,0,0,1-1.389,2.017M25,8.954a2.015,2.015,0,0,1,2.279,1.617,2.015,2.015,0,0,1-.928,2.635,2.015,2.015,0,0,1-2.28-1.616A2.015,2.015,0,0,1,25,8.954m4.272,1.685a2.016,2.016,0,0,1,2.379,1.467,2.016,2.016,0,0,1-.756,2.69,2.016,2.016,0,0,1-2.379-1.466,2.017,2.017,0,0,1,.756-2.691M25.783,6.624c-9.116-.009-15.266-1.1-18.13-2.07,2.863-.967,9.014-2.061,18.13-2.07,9.116.009,15.267,1.1,18.13,2.07-2.863.967-9.014,2.061-18.13,2.07" transform="translate(-0.001)" fill="#6bc100"/>
  </g>
</svg>
