<svg xmlns="http://www.w3.org/2000/svg" width="15.954" height="15.954" viewBox="0 0 15.954 15.954">
  <path id="Path_16982" data-name="Path 16982" d="M11.468,12.975h-.481V9.14A.638.638,0,0,0,10.35,8.5H8.486a.638.638,0,1,0,0,1.276H9.711v3.2H8.486a.638.638,0,1,0,0,1.276h2.982a.638.638,0,1,0,0-1.276ZM9.977,7.114a.957.957,0,1,0-.957-.957A.957.957,0,0,0,9.977,7.114ZM9.977,2a7.977,7.977,0,1,0,7.977,7.977A7.986,7.986,0,0,0,9.977,2Zm4.678,12.767a6.695,6.695,0,1,1,2.023-4.79,6.695,6.695,0,0,1-2.023,4.79Z" transform="translate(-2 -2)" fill="#525252"/>
</svg>
