<svg xmlns="http://www.w3.org/2000/svg" width="42.769" height="48.771" viewBox="0 0 42.769 48.771">
  <g id="Group_14424" data-name="Group 14424" transform="translate(0 0)">
    <g id="Group_14425" data-name="Group 14425">
      <path id="Path_16962" data-name="Path 16962" d="M20.513,528.257H40.32a3.494,3.494,0,0,1,.39.008.353.353,0,0,1,.326.332,1.477,1.477,0,0,1,.008.195q0,.78,0,1.56a1.346,1.346,0,0,1,0,.156.347.347,0,0,1-.314.34,1.327,1.327,0,0,1-.194.016c-.091,0-.182,0-.273,0H.8c-.143,0-.287,0-.428-.01-.247-.024-.361-.133-.364-.371q-.011-.916,0-1.832c0-.255.13-.374.388-.391.129-.009.26,0,.39,0h19.73" transform="translate(0 -485.326)" fill="#548ec9"/>
      <path id="Path_16963" data-name="Path 16963" d="M289.8,10.48A10.459,10.459,0,1,1,279.467,0,10.454,10.454,0,0,1,289.8,10.48m-1.707-.013a8.75,8.75,0,1,0-8.758,8.753,8.776,8.776,0,0,0,8.758-8.753" transform="translate(-247.031 -0.001)" fill="#548ec9"/>
      <path id="Path_16964" data-name="Path 16964" d="M28.889,572.461H64.994a1.076,1.076,0,0,1,.164.028c.009.086.023.161.023.235,0,.468,0,.936,0,1.4a1.421,1.421,0,0,1,0,.156.443.443,0,0,1-.433.419c-.116.01-.234,0-.351,0H29.608a3.466,3.466,0,0,1-.39-.007.417.417,0,0,1-.4-.411c-.007-.584.006-1.169.012-1.753,0-.01.014-.02.054-.076" transform="translate(-26.479 -525.939)" fill="#548ec9"/>
      <path id="Path_16965" data-name="Path 16965" d="M374.246,268.1c.628.046,1.247.125,1.865.125s1.239-.081,1.861-.126a.4.4,0,0,1,.041.115q0,8.42,0,16.827a.545.545,0,0,1-.374.133c-.361.046-.721.1-1.083.129-.635.047-1.271.075-1.906.11a1.2,1.2,0,0,1-.167-.016.492.492,0,0,1,0-.149,6.208,6.208,0,0,0,.01-3.981,2.4,2.4,0,0,0-.128-.368,1.956,1.956,0,0,1-.162-.908q.007-5.712,0-11.423a1.228,1.228,0,0,1,.036-.467" transform="translate(-343.794 -246.311)" fill="#548ec9"/>
      <path id="Path_16968" data-name="Path 16968" d="M309.668,49.078a7.142,7.142,0,0,1-4.574-1.875,2.05,2.05,0,0,1,.136-.169c.228-.232.459-.461.689-.69.055-.055.109-.111.165-.166a.494.494,0,0,0,.044-.729.488.488,0,0,0-.727.022c-.058.052-.112.109-.167.164-.221.221-.44.442-.663.661-.064.063-.135.117-.2.174a7.236,7.236,0,0,1-1.9-4.565,2.045,2.045,0,0,1,.255-.033c.351,0,.7,0,1.053,0a1.631,1.631,0,0,0,.272-.013.48.48,0,0,0,0-.943,1.545,1.545,0,0,0-.272-.016c-.325,0-.65,0-.975,0-.1,0-.2-.008-.293-.012-.1-.1-.067-.212-.056-.31a7.733,7.733,0,0,1,1.258-3.485,4.036,4.036,0,0,1,.639-.8c.075.063.147.116.21.178.241.237.478.478.719.715a1.6,1.6,0,0,0,.233.206.483.483,0,0,0,.661-.675,1.981,1.981,0,0,0-.233-.261c-.283-.286-.568-.57-.867-.87a1.508,1.508,0,0,1,.156-.179,7.612,7.612,0,0,1,3.642-1.669,1.991,1.991,0,0,1,.786-.052c.009.09.025.177.026.265,0,.351,0,.7,0,1.053a1.338,1.338,0,0,0,.017.272.474.474,0,0,0,.451.363.459.459,0,0,0,.475-.327,1.194,1.194,0,0,0,.036-.308c0-.3,0-.6,0-.9,0-.129,0-.259,0-.379a.585.585,0,0,1,.471-.043,7.731,7.731,0,0,1,1.992.524,7.847,7.847,0,0,1,1.906,1.129c.061.049.12.1.176.153a.366.366,0,0,1,.045.088c-.051.06-.1.13-.166.192-.247.25-.5.5-.743.746a1.275,1.275,0,0,0-.2.238.463.463,0,0,0,.085.572.451.451,0,0,0,.571.08,1.544,1.544,0,0,0,.267-.224c.279-.272.554-.549.831-.823A.56.56,0,0,1,316,36.3a1.062,1.062,0,0,1,.164.136,7.659,7.659,0,0,1,1.65,3.527c.042.229.065.463.091.7a1.2,1.2,0,0,1-.017.21c-.11.009-.211.023-.313.024-.325,0-.65,0-.975,0a1.577,1.577,0,0,0-.31.021.482.482,0,0,0,.009.935,1.454,1.454,0,0,0,.272.017c.325,0,.65,0,.975,0,.1,0,.2.007.333.012a1.729,1.729,0,0,1,.022.271,7.21,7.21,0,0,1-.481,2.041,7.663,7.663,0,0,1-1.187,2.05c-.064.079-.138.149-.221.238-.082-.071-.152-.125-.214-.186-.241-.237-.478-.478-.718-.716a1.563,1.563,0,0,0-.235-.2.461.461,0,0,0-.6.07.469.469,0,0,0-.057.607,1.679,1.679,0,0,0,.208.231c.292.295.586.588.9.9a1.533,1.533,0,0,1-.156.176,7.629,7.629,0,0,1-3.719,1.682c-.217.034-.436.056-.674.086a1.126,1.126,0,0,1-.058-.233c-.006-.364,0-.728-.006-1.092a1.45,1.45,0,0,0-.027-.309.463.463,0,0,0-.486-.366.477.477,0,0,0-.457.4,1.835,1.835,0,0,0-.011.272c0,.338,0,.676,0,1.014,0,.088-.016.176-.024.26m2.473-8.932c.086-.1.152-.174.224-.247.265-.268.534-.533.8-.8a1.717,1.717,0,0,0,.205-.233.478.478,0,0,0-.057-.607.47.47,0,0,0-.606-.066,1.646,1.646,0,0,0-.233.205c-.286.283-.569.57-.856.853-.062.061-.135.111-.2.166a2.361,2.361,0,0,0-1.706-.3,2.315,2.315,0,1,0,2.433,1.029" transform="translate(-277.868 -30.917)" fill="#548ec9"/>
      <path id="Path_16969" data-name="Path 16969" d="M383.893,113.779a1.316,1.316,0,0,1-1.338,1.327,1.329,1.329,0,0,1,.006-2.657,1.311,1.311,0,0,1,1.332,1.331" transform="translate(-350.254 -103.31)" fill="#548ec9"/>
      <g id="Group_14476" data-name="Group 14476" transform="translate(0.033 2.735)">
        <g id="Group_14477" data-name="Group 14477">
          <path id="Path_17026" data-name="Path 17026" d="M35.815,35.553c-1.167.988-10.618,1.72-12,1.079-.9-.418-2.466-1.255-2.469-2.39a7.246,7.246,0,0,1,.282-1.529,12.361,12.361,0,0,0,.206-2.191c.05-1.485.051-2.962.046-4.445a9.2,9.2,0,0,0-.809-4.189,9.052,9.052,0,0,0-1.034-1.534,20.007,20.007,0,0,0-4.349-4.014c-.925-.628-1.9-1.18-2.777-1.877a7.623,7.623,0,0,1-2.747-6.038,12.43,12.43,0,0,1,.8-4.212c.272-.787.758-3.463-.884-2.79a6.292,6.292,0,0,0-1.81,1.3C7.75,3.2,7.176,3.915,6.409,3.92a2.02,2.02,0,0,1-.462-.07c-.674-.156-1.36.019-1.723-.66A12.069,12.069,0,0,0,1.862.1a.353.353,0,0,0-.29-.1c-.2.029-.231.2-.248.354-.082.765.071,1.518.034,2.281a25.125,25.125,0,0,1-.286,2.5.233.233,0,0,1-.1.141c-.4.251-.512.677-.719,1.065A3.294,3.294,0,0,0,.193,8.7a1.654,1.654,0,0,1,.063.684A1.721,1.721,0,0,0,.942,11.16a1.682,1.682,0,0,1,.494.738,3.689,3.689,0,0,1-.289,2.644A4.329,4.329,0,0,0,.7,16.391,14.47,14.47,0,0,0,1,18.859c.109.665.268,1.323.417,1.981a28.835,28.835,0,0,0,1.656,4.779,5.574,5.574,0,0,1,.365.854,7.037,7.037,0,0,1,.117,1.7c-.042,1.423-.13,2.845-.188,4.267a13.938,13.938,0,0,1-.027,1.627c-.132.821-.381,1.622-.546,2.438-.062.3-.16.383-.468.317-.775-.165-2.138,1.061-1.6,1.834s1.347.421,2.127.408a.4.4,0,0,1,.3.184,1.029,1.029,0,0,0,1.048.592c.875-.03,1.748-.094,2.622-.141.083,0,.194-.025.248.018a3.328,3.328,0,0,0,2.372.452c1.114-.033,2.224-.174,3.338-.225,1.893-.086,3.787-.125,5.68-.216a4.876,4.876,0,0,0,1.133-.281,3.606,3.606,0,0,1,.707-.272c1.094-.07,2.191-.134,3.287-.131,1.749,0,4.1.529,5.684-.389,1.193-.694,7.574.442,8.165-.809M1.173,7.638A.547.547,0,0,1,1,7.624a.815.815,0,0,1-.667-.911.54.54,0,0,1,.093-.246.746.746,0,0,1,.436-.226c.162-.041.263-.009.187.145a.715.715,0,0,0-.124.507c.032.157.166.317.323.287A.279.279,0,0,0,1.441,7a.84.84,0,0,0,.041-.272.144.144,0,0,1,.044-.12c.059-.039.134.026.164.09a.694.694,0,0,1-.518.941m4.683-.592a1.178,1.178,0,0,1-.243.458,1.169,1.169,0,0,1-.534.456,1.137,1.137,0,0,1-.381.035,1.152,1.152,0,0,1-.456-.081A.64.64,0,0,1,3.884,7.3c.014-.2.239-.61.494-.566.115.02.08.108.064.205a.766.766,0,0,0,.02.461.423.423,0,0,0,.511.242.453.453,0,0,0,.246-.433,1.315,1.315,0,0,0-.147-.5,1.876,1.876,0,0,1,.734.235.1.1,0,0,1,.049.045.1.1,0,0,1,0,.056M8.484,36.172a8.475,8.475,0,0,1-.851.1,30.5,30.5,0,0,1,.922-3.3,17.6,17.6,0,0,0,1.143-3.4c-.38,1.424-1.357,5.974-1.155,6.314.039.066-.018.279-.06.287" transform="translate(-0.001 0)" fill="#548ec9"/>
          <path id="Path_17027" data-name="Path 17027" d="M363.608,399.063l-.005,0-.008,0h.013" transform="translate(-346.835 -380.664)" fill="#548ec9"/>
        </g>
      </g>
    </g>
  </g>
</svg>
